<svg width="46" height="26" viewBox="0 0 46 26" fill="none" xmlns="http://www.w3.org/2000/svg">
<rect width="25.9975" height="25.9975" rx="12.9988" transform="matrix(0.866041 0.499972 -0.866041 0.499972 22.5156 0)" fill="white"/>
<rect width="25.9975" height="25.9975" rx="12.9988" transform="matrix(0.866041 0.499972 -0.866041 0.499972 22.5156 0)" fill="#FF9900"/>
<path d="M18.2708 14.5856L18.2328 14.6076L21.9245 16.7388L20.2626 17.6982L14.2747 14.2414L15.8351 13.3406L20.9349 13.4065C21.9625 13.4187 22.7512 13.3882 23.3009 13.3149C23.8591 13.2417 24.3264 13.0964 24.7027 12.8792C25.54 12.3958 25.5083 11.8941 24.6076 11.3741C23.8253 10.9225 22.766 10.6698 21.4297 10.6161L23.1931 9.5981C24.4955 9.75923 25.6436 10.1266 26.6374 10.7003C27.5677 11.2374 28.0582 11.7916 28.1089 12.3628C28.1682 12.9341 27.8003 13.4492 27.0053 13.9082C25.9438 14.5209 24.2101 14.787 21.8039 14.7065L18.2708 14.5856Z" fill="black"/>
</svg>
