<svg width="46" height="26" viewBox="0 0 46 26" fill="none" xmlns="http://www.w3.org/2000/svg">
<rect width="25.9975" height="25.9975" rx="12.9988" transform="matrix(0.866041 0.499972 -0.866041 0.499972 22.5156 0)" fill="white"/>
<rect width="25.9975" height="25.9975" rx="12.9988" transform="matrix(0.866041 0.499972 -0.866041 0.499972 22.5156 0)" fill="#FF9900"/>
<path d="M14.8139 14.2084L16.5582 13.2014C16.7231 13.8093 17.2115 14.3476 18.0235 14.8163C18.5351 15.1117 19.0426 15.2777 19.5458 15.3143C20.0532 15.3534 20.5036 15.2594 20.8969 15.0324C21.3028 14.798 21.4381 14.5148 21.3028 14.1828C21.1717 13.8532 20.7975 13.5102 20.1801 13.1538L19.3618 12.6814L20.8969 11.7952L21.6517 12.231C22.8357 12.9146 23.821 13.0293 24.6076 12.5752C25.3476 12.148 25.263 11.672 24.3538 11.1471C23.7449 10.7955 22.9563 10.5673 21.9879 10.4623L23.6244 9.51754C24.5843 9.70064 25.4893 10.0375 26.3392 10.5282C27.2695 11.0653 27.7833 11.6036 27.8806 12.1431C27.9821 12.6851 27.6988 13.1489 27.0306 13.5347C25.8424 14.2207 24.4955 14.3024 22.9901 13.78L22.9584 13.7983C23.5208 14.2158 23.7935 14.6442 23.7766 15.0836C23.7639 15.5206 23.4764 15.9015 22.914 16.2262C22.064 16.7169 21.0808 16.9256 19.9644 16.8523C18.8481 16.7791 17.7422 16.4263 16.647 15.7941C15.7082 15.2521 15.0972 14.7236 14.8139 14.2084Z" fill="black"/>
</svg>
