<svg width="46" height="26" viewBox="0 0 46 26" fill="none" xmlns="http://www.w3.org/2000/svg">
<rect width="25.9975" height="25.9975" rx="12.9988" transform="matrix(0.866041 0.499972 -0.866041 0.499972 22.5156 0)" fill="white"/>
<rect width="25.9975" height="25.9975" rx="12.9988" transform="matrix(0.866041 0.499972 -0.866041 0.499972 22.5156 0)" fill="#FF9900"/>
<rect width="25.9975" height="25.9975" rx="12.9988" transform="matrix(0.866041 0.499972 -0.866041 0.499972 22.5156 0)" fill="#00C5D1"/>
<path d="M22.6476 16.8414L21.5566 16.2115L19.6219 17.3284L17.7951 16.2738L19.7297 15.1569L15.7653 12.8682L17.0403 12.1321L26.7452 10.9384L28.7179 12.0772L22.9837 15.3876L24.0748 16.0174L22.6476 16.8414ZM24.912 12.1944L24.874 12.1724C24.6625 12.2261 24.3116 12.2969 23.821 12.3848L18.8544 13.0037L21.1569 14.3329L24.0177 12.6814C24.2714 12.535 24.5695 12.3726 24.912 12.1944Z" fill="black"/>
</svg>
