<svg width="46" height="26" viewBox="0 0 46 26" fill="none" xmlns="http://www.w3.org/2000/svg">
<rect width="25.9975" height="25.9975" rx="12.9988" transform="matrix(0.866041 0.499972 -0.866041 0.499972 22.5156 0)" fill="white"/>
<rect width="25.9975" height="25.9975" rx="12.9988" transform="matrix(0.866041 0.499972 -0.866041 0.499972 22.5156 0)" fill="#FF9900"/>
<rect width="25.9975" height="25.9975" rx="12.9988" transform="matrix(0.866041 0.499972 -0.866041 0.499972 22.5156 0)" fill="#00C5D1"/>
<path d="M14.8583 14.3073L16.5709 13.3186C16.8119 13.8972 17.2834 14.3891 17.9854 14.7944C18.514 15.0995 19.051 15.2655 19.5965 15.2924C20.1505 15.3192 20.6431 15.2081 21.0745 14.9591C21.9752 14.4391 21.7891 13.8117 20.5163 13.0769C20.1019 12.8377 19.5627 12.5704 18.8988 12.275L23.9796 9.34177L29.016 12.2493L27.3795 13.1941L24.0557 11.2753L22.2353 12.3262C22.527 12.4654 22.7913 12.6033 23.0281 12.74C23.9627 13.2795 24.449 13.8435 24.4871 14.4318C24.5251 15.0202 24.1297 15.5536 23.3009 16.0321C22.3833 16.5618 21.3176 16.8133 20.104 16.7864C18.8946 16.7571 17.7507 16.4312 16.6724 15.8087C15.797 15.3034 15.1923 14.8029 14.8583 14.3073Z" fill="black"/>
</svg>
