<svg width="117" height="21" viewBox="0 0 117 21" fill="none" xmlns="http://www.w3.org/2000/svg">
<rect width="20.1408" height="20.1408" rx="10.0704" fill="white"/>
<rect width="20.1408" height="20.1408" rx="10.0704" fill="#FF9900"/>
<path d="M12.8392 15H7.69315V13.5816H9.37823V8.51497L7.64776 8.88944V7.43697L11.1654 6.72776V13.5816H12.8392V15Z" fill="black"/>
<rect x="24.1406" width="20.1408" height="20.1408" rx="10.0704" fill="white"/>
<rect x="24.1406" width="20.1408" height="20.1408" rx="10.0704" fill="#FF9900"/>
<path d="M33.5416 13.4795V13.5135H36.8436V15H31.4877V13.6043L33.8196 11.3745C34.2886 10.9244 34.6177 10.548 34.8068 10.2454C34.9997 9.93907 35.0961 9.61756 35.0961 9.28092C35.0961 8.53199 34.6933 8.15753 33.8876 8.15753C33.1879 8.15753 32.5184 8.43554 31.8792 8.99156V7.41428C32.5865 6.9566 33.3846 6.72776 34.2735 6.72776C35.1056 6.72776 35.7543 6.93769 36.2195 7.35754C36.6886 7.77361 36.9231 8.3372 36.9231 9.0483C36.9231 9.9977 36.3538 10.9792 35.2153 11.9929L33.5416 13.4795Z" fill="black"/>
<rect x="48.2812" width="20.1408" height="20.1408" rx="10.0704" fill="white"/>
<rect x="48.2812" width="20.1408" height="20.1408" rx="10.0704" fill="#FF9900"/>
<path d="M55.8439 14.7333V13.1731C56.3886 13.5702 57.024 13.7688 57.7503 13.7688C58.2079 13.7688 58.5635 13.6705 58.8169 13.4738C59.0741 13.2771 59.2027 13.0029 59.2027 12.6511C59.2027 12.288 59.0439 12.0081 58.7261 11.8114C58.4122 11.6147 57.9791 11.5164 57.4269 11.5164H56.695V10.1433H57.3701C58.4292 10.1433 58.9588 9.79155 58.9588 9.08801C58.9588 8.42608 58.5521 8.09512 57.7389 8.09512C57.1942 8.09512 56.6647 8.271 56.1503 8.62277V7.15896C56.7214 6.87149 57.3871 6.72776 58.1474 6.72776C58.9796 6.72776 59.6264 6.91499 60.0878 7.28945C60.5531 7.66392 60.7857 8.14996 60.7857 8.74759C60.7857 9.81046 60.2467 10.4762 59.1687 10.7447V10.7731C59.7436 10.845 60.1975 11.0549 60.5304 11.4029C60.8632 11.7471 61.0297 12.1707 61.0297 12.6738C61.0297 13.4341 60.7516 14.0355 60.1956 14.478C59.6396 14.9206 58.8718 15.1418 57.8921 15.1418C57.0524 15.1418 56.3697 15.0057 55.8439 14.7333Z" fill="black"/>
<rect x="72.4219" width="20.1408" height="20.1408" rx="10.0704" fill="white"/>
<rect x="72.4219" width="20.1408" height="20.1408" rx="10.0704" fill="#FF9900"/>
<rect x="72.4219" width="20.1408" height="20.1408" rx="10.0704" fill="#00C5D1"/>
<path d="M85.5277 13.2695H84.5518V15H82.9178V13.2695H79.3718V12.1291L82.7873 6.86393H84.5518V11.9929H85.5277V13.2695ZM82.9405 8.65681H82.9065C82.8535 8.79298 82.7514 9.0048 82.6001 9.29227L80.8583 11.9929H82.9178V9.43411C82.9178 9.20716 82.9254 8.94806 82.9405 8.65681Z" fill="black"/>
<rect x="96.5625" width="20.1408" height="20.1408" rx="10.0704" fill="white"/>
<rect x="96.5625" width="20.1408" height="20.1408" rx="10.0704" fill="#FF9900"/>
<rect x="96.5625" width="20.1408" height="20.1408" rx="10.0704" fill="#00C5D1"/>
<path d="M104.222 14.7901V13.2582C104.778 13.5986 105.37 13.7688 105.997 13.7688C106.47 13.7688 106.839 13.6572 107.104 13.4341C107.372 13.2071 107.507 12.9007 107.507 12.5149C107.507 11.7093 106.937 11.3064 105.799 11.3064C105.428 11.3064 104.98 11.3405 104.454 11.4086V6.86393H108.959V8.32774H105.986V9.95609C106.224 9.93339 106.449 9.92205 106.661 9.92205C107.497 9.92205 108.152 10.1414 108.624 10.5802C109.097 11.019 109.334 11.609 109.334 12.3504C109.334 13.1712 109.052 13.8426 108.488 14.3645C107.925 14.8827 107.161 15.1418 106.196 15.1418C105.413 15.1418 104.755 15.0246 104.222 14.7901Z" fill="black"/>
</svg>
