<svg width="207" height="212" viewBox="0 0 207 212" fill="none" xmlns="http://www.w3.org/2000/svg">
<rect width="119.909" height="92.3879" rx="1.9658" transform="matrix(0.86601 0.500028 3.18351e-05 1 101.172 1.88379)" fill="#6E6E6E" stroke="white" stroke-width="2.9487" stroke-linejoin="round"/>
<rect width="114.012" height="92.3879" rx="1.9658" transform="matrix(0.86601 -0.500028 -3.18351e-05 1 2.25391 58.8916)" fill="#5A5A5A" stroke="white" stroke-width="2.9487" stroke-linejoin="round"/>
<rect width="119.909" height="114.012" rx="1.9658" transform="matrix(0.866041 0.499972 -0.866041 0.499972 101.129 94.2686)" fill="#AAAAAA" stroke="white" stroke-width="2.9487" stroke-linejoin="round"/>
<rect x="0.425616" y="0.737189" width="118.926" height="91.405" rx="1.47435" transform="matrix(0.86601 0.500028 3.18351e-05 1 2.47888 58.669)" fill="#262626" stroke="#686868" stroke-width="0.9829" stroke-linejoin="round"/>
<rect x="0.425585" y="0.245712" width="113.029" height="91.405" rx="1.47435" transform="matrix(0.86601 -0.500028 -3.18351e-05 1 106.291 119.049)" fill="#262626" stroke="#767676" stroke-width="0.9829" stroke-linejoin="round"/>
<rect width="114.012" height="119.909" rx="1.9658" transform="matrix(0.866041 -0.499972 0.866041 0.499972 2.41016 58.8936)" fill="#262626"/>
</svg>
