<svg width="206" height="232" viewBox="0 0 206 232" fill="none" xmlns="http://www.w3.org/2000/svg">
<rect width="119.909" height="112.046" rx="1.9658" transform="matrix(0.86601 0.500028 3.18351e-05 1 100.637 1.58594)" fill="#6E6E6E" stroke="white" stroke-width="2.9487" stroke-linejoin="round"/>
<rect width="114.012" height="112.046" rx="1.9658" transform="matrix(0.86601 -0.500028 -3.18351e-05 1 1.71484 58.5928)" fill="#5A5A5A" stroke="white" stroke-width="2.9487" stroke-linejoin="round"/>
<rect width="119.909" height="114.012" rx="1.9658" transform="matrix(0.866041 0.499972 -0.866041 0.499972 100.59 113.629)" fill="#AAAAAA" stroke="white" stroke-width="2.9487" stroke-linejoin="round"/>
<rect x="0.425616" y="0.737189" width="118.926" height="111.063" rx="1.47435" transform="matrix(0.86601 0.500028 3.18351e-05 1 1.94372 58.3712)" fill="#262626" stroke="#686868" stroke-width="0.9829" stroke-linejoin="round"/>
<rect x="0.425585" y="0.245712" width="113.029" height="111.063" rx="1.47435" transform="matrix(0.86601 -0.500028 -3.18351e-05 1 105.756 118.752)" fill="#262626" stroke="#767676" stroke-width="0.9829" stroke-linejoin="round"/>
<rect width="114.012" height="119.909" rx="1.9658" transform="matrix(0.866041 -0.499972 0.866041 0.499972 1.87891 58.5957)" fill="#262626"/>
</svg>
