<svg width="218" height="290" viewBox="0 0 218 290" fill="none" xmlns="http://www.w3.org/2000/svg">
<rect width="119.909" height="164.14" rx="1.9658" transform="matrix(0.86601 0.500028 3.18351e-05 1 112.809 1.08301)" fill="#6E6E6E" stroke="white" stroke-width="2.9487" stroke-linejoin="round"/>
<rect width="127.772" height="164.14" rx="1.9658" transform="matrix(0.86601 -0.500028 -3.18351e-05 1 1.95312 64.9707)" fill="#5A5A5A" stroke="white" stroke-width="2.9487" stroke-linejoin="round"/>
<rect width="119.909" height="127.772" rx="1.9658" transform="matrix(0.866041 0.499972 -0.866041 0.499972 112.762 165.22)" fill="#AAAAAA" stroke="white" stroke-width="2.9487" stroke-linejoin="round"/>
<rect x="0.425616" y="0.737189" width="118.926" height="163.157" rx="1.47435" transform="matrix(0.86601 0.500028 3.18351e-05 1 2.19763 64.7491)" fill="#262626" stroke="#686868" stroke-width="0.9829" stroke-linejoin="round"/>
<rect x="0.425585" y="0.245712" width="126.789" height="163.157" rx="1.47435" transform="matrix(0.86601 -0.500028 -3.18351e-05 1 106.002 125.129)" fill="#262626" stroke="#767676" stroke-width="0.9829" stroke-linejoin="round"/>
<rect width="127.772" height="119.909" rx="1.9658" transform="matrix(0.866041 -0.499972 0.866041 0.499972 2.12891 64.9736)" fill="#262626"/>
</svg>
