<svg width="218" height="421" viewBox="0 0 218 421" fill="none" xmlns="http://www.w3.org/2000/svg">
<rect width="119.909" height="294.122" rx="1.9658" transform="matrix(0.86601 0.500028 3.18351e-05 1 112.285 1.6416)" fill="#6E6E6E" stroke="white" stroke-width="2.9487" stroke-linejoin="round"/>
<rect width="127.772" height="294.122" rx="1.9658" transform="matrix(0.86601 -0.500028 -3.18351e-05 1 1.43359 65.5283)" fill="#5A5A5A" stroke="white" stroke-width="2.9487" stroke-linejoin="round"/>
<rect width="119.909" height="127.772" rx="1.9658" transform="matrix(0.866041 0.499972 -0.866041 0.499972 112.242 295.76)" fill="#AAAAAA" stroke="white" stroke-width="2.9487" stroke-linejoin="round"/>
<rect x="0.425616" y="0.737189" width="118.926" height="293.139" rx="1.47435" transform="matrix(0.86601 0.500028 3.18351e-05 1 1.67419 65.3067)" fill="#262626" stroke="#686868" stroke-width="0.9829" stroke-linejoin="round"/>
<rect x="0.425585" y="0.245712" width="126.789" height="293.139" rx="1.47435" transform="matrix(0.86601 -0.500028 -3.18351e-05 1 105.483 125.686)" fill="#262626" stroke="#767676" stroke-width="0.9829" stroke-linejoin="round"/>
<rect width="127.772" height="119.909" rx="1.9658" transform="matrix(0.866041 -0.499972 0.866041 0.499972 1.60938 65.5303)" fill="#262626"/>
</svg>
