<svg width="207" height="184" viewBox="0 0 207 184" fill="none" xmlns="http://www.w3.org/2000/svg">
<rect width="119.909" height="64.8667" rx="1.9658" transform="matrix(0.86601 0.500028 3.18351e-05 1 101.098 1.20898)" fill="#6E6E6E" stroke="white" stroke-width="2.9487" stroke-linejoin="round"/>
<rect width="114.012" height="64.8667" rx="1.9658" transform="matrix(0.86601 -0.500028 -3.18351e-05 1 2.1875 58.2158)" fill="#5A5A5A" stroke="white" stroke-width="2.9487" stroke-linejoin="round"/>
<rect width="119.909" height="114.012" rx="1.9658" transform="matrix(0.866041 0.499972 -0.866041 0.499972 101.062 66.0732)" fill="#AAAAAA" stroke="white" stroke-width="2.9487" stroke-linejoin="round"/>
<rect x="0.425616" y="0.737189" width="118.926" height="63.8838" rx="1.47435" transform="matrix(0.86601 0.500028 3.18351e-05 1 2.41247 57.9942)" fill="#262626" stroke="#686868" stroke-width="0.9829" stroke-linejoin="round"/>
<rect x="0.425585" y="0.245712" width="113.029" height="63.8838" rx="1.47435" transform="matrix(0.86601 -0.500028 -3.18351e-05 1 106.229 118.374)" fill="#262626" stroke="#767676" stroke-width="0.9829" stroke-linejoin="round"/>
<rect width="114.012" height="119.909" rx="1.9658" transform="matrix(0.866041 -0.499972 0.866041 0.499972 2.34766 58.2188)" fill="#262626"/>
</svg>
