<svg width="633" height="364" viewBox="0 0 633 364" fill="none" xmlns="http://www.w3.org/2000/svg">
<path d="M18.8609 358.813C17.7108 359.477 17.3164 360.947 17.98 362.097C18.6436 363.247 20.1139 363.642 21.2641 362.978L18.8609 358.813ZM632.852 9.28528C633.196 8.00279 632.435 6.68425 631.153 6.34024L610.254 0.734216C608.971 0.390202 607.653 1.15098 607.309 2.43347C606.965 3.71596 607.725 5.03449 609.008 5.37851L627.585 10.3616L622.602 28.9388C622.258 30.2213 623.019 31.5398 624.301 31.8838C625.584 32.2279 626.902 31.4671 627.246 30.1846L632.852 9.28528ZM21.2641 362.978L631.732 10.7448L629.328 6.57993L18.8609 358.813L21.2641 362.978Z" fill="#4E4D4E"/>
<path d="M15.9122 360.196C15.9122 361.524 16.9886 362.601 18.3164 362.601C19.6442 362.601 20.7206 361.524 20.7206 360.196L15.9122 360.196ZM20.0165 23.735C19.0776 22.796 17.5553 22.796 16.6164 23.735L1.3159 39.0354C0.376986 39.9743 0.376986 41.4966 1.3159 42.4355C2.25481 43.3744 3.77709 43.3744 4.716 42.4355L18.3164 28.8351L31.9168 42.4355C32.8558 43.3744 34.378 43.3744 35.3169 42.4355C36.2559 41.4966 36.2559 39.9743 35.3169 39.0354L20.0165 23.735ZM20.7206 360.196L20.7207 25.435L15.9122 25.435L15.9122 360.196L20.7206 360.196Z" fill="#6B6B6B" fill-opacity="0.66"/>
<path d="M44.6868 79.8988C43.9966 80.7105 43.1382 81.4128 42.1115 82.0056C40.7823 82.7731 39.7172 82.9035 38.9163 82.3968C38.1154 81.8901 37.715 80.8497 37.7151 79.2755C37.7151 77.5832 38.1646 75.9561 39.0636 74.3942C39.9668 72.8298 41.1064 71.6503 42.4824 70.8558C43.3686 70.3442 44.1035 70.065 44.6871 70.0182L44.687 71.7597C44.0693 71.6933 43.3877 71.8753 42.6422 72.3058C41.6495 72.8789 40.8443 73.7103 40.2266 74.8C39.6131 75.8872 39.3063 77.0433 39.3063 78.2682C39.3062 79.4341 39.5938 80.1978 40.1689 80.5594C40.744 80.916 41.5002 80.8237 42.4374 80.2826C43.3022 79.7832 44.052 79.1142 44.6868 78.2754L44.6868 79.8988ZM41.1905 104.537C39.8699 105.299 38.8112 105.416 38.0146 104.888C37.2222 104.356 36.8261 103.299 36.8261 101.715C36.8262 100.012 37.2309 98.421 38.0404 96.9403C38.8499 95.4595 39.949 94.3182 41.3379 93.5163C42.6245 92.7734 43.6597 92.6676 44.4435 93.1989C45.2316 93.7277 45.6257 94.7866 45.6256 96.3755C45.6256 98.1022 45.2229 99.6998 44.4177 101.168C43.6125 102.637 42.5368 103.76 41.1905 104.537ZM41.2611 95.1028C40.4219 95.5874 39.7381 96.3438 39.2098 97.3719C38.6858 98.3976 38.4237 99.5008 38.4237 100.681C38.4237 101.857 38.6792 102.657 39.1904 103.08C39.7016 103.503 40.3705 103.476 41.197 102.998C42.0746 102.492 42.7669 101.75 43.2739 100.774C43.7809 99.797 44.0344 98.6938 44.0344 97.464C44.0345 96.1997 43.7874 95.3659 43.2932 94.9625C42.8033 94.5567 42.126 94.6034 41.2611 95.1028ZM46.1487 124.497L44.6406 125.367L44.6408 118.52C44.6408 117.959 44.6707 117.255 44.7303 116.409L44.7048 116.424C44.611 116.94 44.528 117.321 44.4555 117.564L41.7202 127.054L40.6722 127.659L37.931 121.39C37.8543 121.203 37.7734 120.898 37.6882 120.475L37.6626 120.49C37.6967 120.893 37.7137 121.575 37.7137 122.534L37.7135 129.367L36.3076 130.179L36.3079 119.597L38.4487 118.361L40.8576 124.017C41.0408 124.452 41.1601 124.787 41.2154 125.021L41.2474 125.002C41.405 124.355 41.5329 123.868 41.6309 123.541L44.085 115.107L46.1491 113.915L46.1487 124.497ZM40.0454 146.183L40.0452 150.02L38.5307 150.895L38.5311 140.313L41.3109 138.708C42.3631 138.101 43.179 137.912 43.7583 138.144C44.3377 138.375 44.6274 139.004 44.6274 140.033C44.6273 141.061 44.3248 142.077 43.7198 143.08C43.1149 144.084 42.2969 144.883 41.2659 145.478L40.0454 146.183ZM40.0455 140.885L40.0454 144.752L41.0295 144.183C41.6813 143.807 42.1777 143.346 42.5185 142.8C42.8593 142.254 43.0297 141.663 43.0298 141.029C43.0298 139.784 42.4036 139.523 41.1511 140.247L40.0455 140.885ZM44.2302 170.604L39.1562 173.533L39.1566 162.952L40.6775 162.073L40.6772 171.172L44.2302 169.12L44.2302 170.604ZM44.1144 193.67L38.9702 196.64L38.9705 186.059L43.9103 183.206L43.9102 184.697L40.4914 186.671L40.4913 189.667L43.6417 187.848L43.6417 189.331L40.4912 191.15L40.4911 194.279L44.1145 192.187L44.1144 193.67ZM42.7719 212.652C42.7718 213.906 42.5034 215.038 41.9666 216.046C41.4298 217.05 40.7141 217.81 39.8194 218.327C39.4019 218.568 39.059 218.709 38.7906 218.751L38.7906 217.098C39.0334 217.15 39.3466 217.065 39.73 216.843C40.7439 216.258 41.2509 215.06 41.251 213.25L41.2512 206.741L42.7721 205.863L42.7719 212.652ZM42.0042 239.888L40.4385 240.792L40.4389 230.21L42.0045 229.306L42.0042 239.888ZM37.658 264.397L37.6584 253.815L40.304 252.287C43.6823 250.337 45.3715 251.081 45.3714 254.519C45.3713 256.153 44.9026 257.737 43.9654 259.272C43.0281 260.802 41.7713 262.022 40.195 262.932L37.658 264.397ZM39.1728 254.431L39.1726 262.039L40.3868 261.338C41.4561 260.72 42.2868 259.901 42.879 258.881C43.4755 257.857 43.7737 256.726 43.7738 255.486C43.7738 253.012 42.6641 252.415 40.4445 253.697L39.1728 254.431ZM45.4855 282.877L43.8176 283.84L42.9933 281.622L39.3892 283.703L38.5967 286.854L36.9352 287.814L40.3671 275.251L42.0798 274.262L45.4855 282.877ZM42.5908 280.423L41.3192 276.937C41.2809 276.821 41.2404 276.623 41.1978 276.343L41.1723 276.357C41.1339 276.66 41.0913 276.906 41.0445 277.095L39.7854 282.043L42.5908 280.423ZM37.6566 309.397L37.6569 298.815L40.3025 297.287C43.6809 295.337 45.37 296.081 45.3699 299.519C45.3699 301.153 44.9012 302.737 43.9639 304.272C43.0266 305.802 41.7699 307.022 40.1936 307.932L37.6566 309.397ZM39.1714 299.431L39.1712 307.039L40.3853 306.338C41.4546 305.72 42.2854 304.901 42.8776 303.881C43.474 302.857 43.7723 301.726 43.7723 300.486C43.7724 298.012 42.6627 297.415 40.4431 298.697L39.1714 299.431Z" fill="white"/>
<path d="M454.81 127.428L460.683 134.618L458.983 135.599L446.585 132.176L448.247 131.217L457.462 133.925C457.756 134.011 458.069 134.127 458.402 134.275L458.427 134.26C458.214 134.103 458.014 133.916 457.826 133.7L453.2 128.358L454.81 127.428ZM475.665 125.968L473.997 126.931L470.84 126.061L467.236 128.141L468.776 129.945L467.115 130.905L461.382 123.633L463.095 122.644L475.665 125.968ZM469.198 125.577L464.271 124.201C464.113 124.155 463.881 124.067 463.574 123.939L463.549 123.954C463.753 124.117 463.902 124.252 463.996 124.36L466.392 127.197L469.198 125.577ZM485.669 120.192L480.595 123.122L471.431 117.832L472.952 116.954L480.831 121.502L484.385 119.451L485.669 120.192ZM494.197 115.446C492.876 116.209 491.389 116.573 489.736 116.538C488.087 116.501 486.577 116.087 485.205 115.295C483.731 114.444 482.96 113.532 482.892 112.558C482.824 111.584 483.484 110.696 484.873 109.894C486.159 109.151 487.621 108.799 489.257 108.839C490.897 108.875 492.405 109.291 493.781 110.085C495.277 110.949 496.056 111.864 496.12 112.83C496.184 113.797 495.543 114.669 494.197 115.446ZM486.132 110.709C485.292 111.194 484.922 111.769 485.02 112.436C485.122 113.1 485.684 113.727 486.707 114.317C487.725 114.905 488.801 115.231 489.934 115.295C491.068 115.359 492.047 115.152 492.874 114.675C493.752 114.168 494.148 113.598 494.062 112.963C493.977 112.329 493.402 111.704 492.337 111.089C491.242 110.457 490.149 110.111 489.059 110.052C487.972 109.991 486.997 110.21 486.132 110.709ZM510.904 105.623L509.128 106.649L505.21 106.077C504.852 106.023 504.531 105.987 504.245 105.97C503.96 105.948 503.7 105.945 503.466 105.963C503.236 105.977 503.02 106.015 502.82 106.077C502.62 106.138 502.424 106.225 502.232 106.335L501.619 106.689L505.338 108.836L503.824 109.711L494.659 104.421L497.676 102.679C498.106 102.431 498.553 102.232 499.018 102.081C499.482 101.931 499.953 101.839 500.43 101.805C500.903 101.768 501.369 101.796 501.83 101.89C502.29 101.978 502.726 102.142 503.14 102.38C503.463 102.567 503.713 102.768 503.887 102.982C504.062 103.191 504.166 103.408 504.2 103.635C504.235 103.856 504.2 104.082 504.098 104.313C504 104.542 503.836 104.77 503.606 104.996L503.632 105.011C503.892 104.969 504.141 104.945 504.379 104.941C504.614 104.933 504.846 104.932 505.076 104.937C505.306 104.942 505.551 104.958 505.811 104.985C506.071 105.007 506.367 105.038 506.699 105.077L510.904 105.623ZM497.407 104.258L500.385 105.977L501.651 105.247C501.885 105.112 502.064 104.966 502.187 104.812C502.315 104.654 502.383 104.494 502.392 104.332C502.4 104.17 502.347 104.008 502.232 103.849C502.117 103.689 501.938 103.539 501.695 103.399C501.257 103.145 500.775 103.027 500.251 103.044C499.727 103.062 499.205 103.22 498.685 103.52L497.407 104.258ZM530.682 94.2042L529.02 95.1635L517.907 93.8025C517.626 93.768 517.358 93.7189 517.102 93.6549L517.064 93.6771C517.294 93.7705 517.73 94.0029 518.374 94.3743L524.381 97.8421L522.911 98.6907L513.747 93.4005L515.517 92.3785L526.324 93.7321C526.775 93.7862 527.078 93.828 527.231 93.8575L527.257 93.8428C526.971 93.7272 526.539 93.5021 525.959 93.1677L520.054 89.7589L521.518 88.914L530.682 94.2042ZM541.766 87.8049L536.622 90.775L527.457 85.4848L532.397 82.6328L533.688 83.378L530.269 85.3519L532.864 86.8497L536.014 85.0307L537.299 85.7722L534.148 87.5912L536.858 89.1554L540.481 87.0634L541.766 87.8049ZM553.585 80.2582C553.15 81.1093 552.347 81.873 551.175 82.5494C549.821 83.3316 548.302 83.7215 546.619 83.7191C544.936 83.7166 543.4 83.3146 542.011 82.5128C540.593 81.6938 539.887 80.758 539.896 79.7053C539.904 78.6477 540.616 77.7106 542.03 76.8939C543.049 76.3061 544.054 75.8977 545.047 75.669L546.612 76.5728C545.441 76.7081 544.369 77.0562 543.398 77.617C542.422 78.1803 541.943 78.8284 541.96 79.5613C541.981 80.2918 542.503 80.9522 543.526 81.5424C544.578 82.1499 545.675 82.4733 546.817 82.5126C547.955 82.5495 548.983 82.3023 549.904 81.771C550.534 81.4069 550.958 81.022 551.175 80.6162L548.996 79.3582L547.066 80.4724L545.788 79.7346L549.233 77.7459L553.585 80.2582ZM563.78 75.272C562.46 76.0345 560.973 76.3986 559.32 76.3642C557.671 76.3273 556.161 75.913 554.789 75.121C553.315 74.2701 552.543 73.3576 552.475 72.3836C552.407 71.4096 553.067 70.5217 554.456 69.7198C555.743 68.977 557.204 68.6253 558.84 68.6646C560.48 68.7014 561.989 69.117 563.365 69.9114C564.86 70.7747 565.64 71.6896 565.704 72.6562C565.768 73.6228 565.127 74.4947 563.78 75.272ZM555.715 70.5352C554.876 71.0197 554.505 71.5953 554.603 72.2618C554.706 72.9259 555.268 73.553 556.29 74.1433C557.309 74.7311 558.384 75.057 559.518 75.1209C560.651 75.1848 561.631 74.9782 562.457 74.501C563.335 73.9943 563.731 73.4236 563.646 72.7891C563.561 72.1545 562.986 71.5298 561.92 70.915C560.826 70.2829 559.733 69.9374 558.642 69.8784C557.556 69.8169 556.58 70.0358 555.715 70.5352ZM579.414 65.626C579.082 66.231 578.402 66.8299 577.376 67.4227C576.046 68.1902 574.562 68.5628 572.921 68.5407C571.281 68.5187 569.779 68.1141 568.416 67.3271C566.95 66.4811 566.215 65.5378 566.211 64.4974C566.211 63.4546 566.899 62.5359 568.275 61.7414C569.161 61.2298 570.022 60.8781 570.857 60.6862L572.365 61.5569C571.381 61.702 570.516 61.9898 569.771 62.4202C568.778 62.9933 568.29 63.6415 568.307 64.3646C568.329 65.0852 568.87 65.7517 569.931 66.3641C570.94 66.947 572.033 67.2458 573.209 67.2605C574.381 67.2728 575.435 67.0084 576.372 66.4672C577.237 65.9679 577.782 65.417 578.008 64.8144L579.414 65.626ZM586.76 61.8278L585.194 62.7317L576.03 57.4415L577.595 56.5376L586.76 61.8278ZM596.617 56.314C595.296 57.0765 593.809 57.4405 592.156 57.4062C590.507 57.3693 588.997 56.9549 587.625 56.163C586.151 55.312 585.38 54.3996 585.311 53.4256C585.243 52.4516 585.904 51.5637 587.292 50.7618C588.579 50.019 590.04 49.6672 591.676 49.7065C593.317 49.7434 594.825 50.159 596.201 50.9534C597.696 51.8166 598.476 52.7316 598.54 53.6982C598.604 54.6648 597.963 55.5367 596.617 56.314ZM588.551 51.5771C587.712 52.0617 587.342 52.6372 587.44 53.3038C587.542 53.9679 588.104 54.595 589.127 55.1853C590.145 55.7731 591.221 56.0989 592.354 56.1629C593.487 56.2268 594.467 56.0201 595.294 55.543C596.171 55.0363 596.567 54.4656 596.482 53.8311C596.397 53.1965 595.822 52.5718 594.757 51.9569C593.662 51.3249 592.569 50.9793 591.478 50.9203C590.392 50.8589 589.416 51.0778 588.551 51.5771Z" fill="#F5F5F5"/>
</svg>
