<svg width="172" height="152" viewBox="0 0 172 152" fill="none" xmlns="http://www.w3.org/2000/svg">
<rect width="198.234" height="52.5209" transform="matrix(0.866009 0.500028 3.18609e-05 1 0 0)" fill="#FF322A"/>
<path d="M32.8967 40.2368L31.2738 39.2997L29.9473 34.4834L24.6421 31.4202L23.3944 34.7502L21.7627 33.8081L26.5614 22.1304L28.0797 23.0071L32.8967 40.2368ZM29.4674 32.6849L27.5039 25.395C27.4399 25.1566 27.3759 24.7972 27.3119 24.3169L27.277 24.2967C27.2188 24.6729 27.1519 24.9567 27.0763 25.1481L25.1307 30.1809L29.4674 32.6849ZM41.9715 45.4765L40.5405 44.6502L40.5403 38.766C40.5402 36.5762 39.8479 35.0816 38.4635 34.2822C37.7479 33.8691 37.1546 33.8388 36.6834 34.1915C36.2181 34.5407 35.9854 35.1889 35.9855 36.1361L35.9856 42.0203L34.5546 41.1941L34.5543 30.8765L35.9853 31.7027L35.9854 33.4156L36.0203 33.4358C36.695 32.5222 37.6723 32.4349 38.9521 33.1739C39.9293 33.7382 40.6768 34.5358 41.1946 35.5669C41.7123 36.5913 41.9712 37.792 41.9713 39.1691L41.9715 45.4765ZM51.0724 50.7313L49.6414 49.905L49.6413 48.2929L49.6064 48.2728C48.984 49.1493 48.0679 49.2383 46.8579 48.5397C45.9679 48.0258 45.2698 47.3507 44.7637 46.5144C44.2634 45.6814 44.0132 44.8149 44.0132 43.9148C44.0132 41.987 44.9962 41.4329 46.9624 42.2524L49.6412 43.3659C49.6411 41.6127 49.0274 40.3817 47.8 39.673C46.7238 39.0517 45.7524 38.9139 44.8856 39.2598L44.8856 37.5671C45.7639 37.4294 46.7761 37.6914 47.9221 38.3531C50.0221 39.5656 51.0721 41.4549 51.0722 44.0208L51.0724 50.7313ZM49.6412 44.6858L47.486 43.7839C46.8228 43.5085 46.3226 43.4111 45.9852 43.4917C45.6478 43.5656 45.4791 43.9485 45.4791 44.6403C45.4792 45.1441 45.6333 45.6462 45.9416 46.1467C46.2558 46.6437 46.6717 47.0418 47.1894 47.3407C47.8991 47.7505 48.4837 47.8025 48.9433 47.4969C49.4086 47.1879 49.6413 46.5935 49.6413 45.7135L49.6412 44.6858ZM49.8329 34.4387L47.5468 36.4236L46.4387 35.7837L48.3844 33.6024L49.8329 34.4387ZM55.1997 53.1144L53.7687 52.2881L53.7682 37.0132L55.1992 37.8395L55.1997 53.1144ZM58.8292 42.2729C58.5732 42.1252 58.3551 41.8984 58.1747 41.5928C57.9944 41.2872 57.9042 40.9799 57.9042 40.6709C57.9042 40.3619 57.9944 40.1587 58.1747 40.0613C58.355 39.9572 58.5731 39.979 58.8291 40.1268C59.0909 40.2779 59.3119 40.5097 59.4923 40.822C59.6784 41.131 59.7715 41.44 59.7715 41.749C59.7715 42.0446 59.6785 42.2427 59.4923 42.3435C59.312 42.4476 59.0909 42.4241 58.8292 42.2729ZM59.5276 55.6133L58.0966 54.787L58.0963 44.4694L59.5273 45.2957L59.5276 55.6133ZM61.8836 56.6008L61.8835 54.8275C62.663 55.9425 63.5211 56.7705 64.4576 57.3112C65.7141 58.0367 66.3424 57.9158 66.3423 56.9485C66.3423 56.6731 66.2871 56.4095 66.1765 56.1576C66.0718 55.9023 65.9264 55.6471 65.7402 55.3918C65.5599 55.1399 65.3447 54.8847 65.0945 54.626C64.8502 54.3641 64.5855 54.087 64.3005 53.7948C63.9049 53.385 63.5559 53.0021 63.2534 52.6461C62.9567 52.2867 62.7065 51.9341 62.5029 51.5881C62.3051 51.2388 62.1539 50.8862 62.0492 50.5301C61.9503 50.1775 61.9008 49.803 61.9008 49.4067C61.9008 48.923 61.9967 48.5519 62.1887 48.2933C62.3807 48.028 62.6366 47.8634 62.9565 47.7996C63.2765 47.7291 63.64 47.7476 64.0472 47.8551C64.4602 47.9659 64.8849 48.1473 65.3212 48.3992C66.0949 48.8459 66.7871 49.4001 67.3979 50.0618L67.398 51.7344C66.7406 50.8578 65.9844 50.1726 65.1293 49.6788C64.8617 49.5243 64.6203 49.4219 64.405 49.3715C64.1898 49.3144 64.0036 49.3043 63.8466 49.3413C63.6953 49.3816 63.5761 49.4672 63.4888 49.5982C63.4074 49.7258 63.3667 49.8971 63.3667 50.112C63.3667 50.3807 63.4074 50.6293 63.4889 50.8576C63.5762 51.0894 63.7012 51.3228 63.8641 51.5579C64.027 51.793 64.2248 52.0349 64.4575 52.2834C64.6902 52.5319 64.9548 52.809 65.2515 53.1147C65.6471 53.5177 66.0019 53.904 66.3161 54.2734C66.6302 54.6362 66.8978 54.9989 67.1189 55.3616C67.3399 55.7177 67.5086 56.0804 67.625 56.4498C67.7471 56.8226 67.8082 57.2173 67.8083 57.6337C67.8083 58.1443 67.7094 58.5305 67.5116 58.7925C67.3197 59.0578 67.0608 59.2207 66.7351 59.2811C66.4093 59.3415 66.0341 59.3096 65.6095 59.1853C65.1848 59.0611 64.7398 58.8646 64.2744 58.5959C63.3553 58.0652 62.5584 57.4002 61.8836 56.6008ZM70.7485 49.1551C70.4925 49.0073 70.2744 48.7806 70.0941 48.4749C69.9137 48.1693 69.8235 47.862 69.8235 47.553C69.8235 47.244 69.9137 47.0408 70.094 46.9434C70.2743 46.8393 70.4925 46.8611 70.7484 47.0089C71.0102 47.1601 71.2313 47.3918 71.4116 47.7042C71.5977 48.0132 71.6908 48.3222 71.6908 48.6312C71.6909 48.9267 71.5978 49.1249 71.4116 49.2256C71.2313 49.3297 71.0103 49.3062 70.7485 49.1551ZM71.447 62.4954L70.0159 61.6692L70.0156 51.3516L71.4466 52.1778L71.447 62.4954ZM73.8029 63.4829L73.8028 61.7096C74.5824 62.8247 75.4404 63.6526 76.377 64.1934C77.6335 64.9188 78.2617 64.798 78.2617 63.8307C78.2617 63.5553 78.2064 63.2916 78.0959 63.0397C77.9911 62.7845 77.8457 62.5292 77.6596 62.274C77.4792 62.0221 77.264 61.7668 77.0138 61.5082C76.7695 61.2462 76.5048 60.9691 76.2198 60.6769C75.8242 60.2671 75.4752 59.8842 75.1727 59.5282C74.876 59.1688 74.6259 58.8162 74.4223 58.4702C74.2245 58.1209 74.0732 57.7683 73.9685 57.4123C73.8696 57.0596 73.8201 56.6851 73.8201 56.2888C73.8201 55.8052 73.9161 55.4341 74.108 55.1755C74.3 54.9101 74.5559 54.7456 74.8759 54.6818C75.1958 54.6112 75.5594 54.6297 75.9666 54.7372C76.3796 54.8481 76.8042 55.0294 77.2405 55.2814C78.0142 55.7281 78.7064 56.2823 79.3172 56.9439L79.3173 58.6165C78.6599 57.7399 77.9037 57.0547 77.0486 56.561C76.781 56.4065 76.5396 56.304 76.3244 56.2536C76.1091 56.1965 75.923 56.1865 75.7659 56.2234C75.6147 56.2637 75.4954 56.3493 75.4082 56.4803C75.3267 56.6079 75.286 56.7792 75.286 56.9942C75.286 57.2629 75.3268 57.5114 75.4082 57.7398C75.4955 57.9715 75.6206 58.205 75.7834 58.4401C75.9463 58.6752 76.1441 58.917 76.3768 59.1655C76.6095 59.4141 76.8742 59.6912 77.1709 59.9968C77.5664 60.3999 77.9213 60.7861 78.2354 61.1556C78.5495 61.5183 78.8171 61.881 79.0382 62.2438C79.2593 62.5998 79.428 62.9625 79.5443 63.332C79.6665 63.7048 79.7276 64.0994 79.7276 64.5159C79.7276 65.0264 79.6287 65.4126 79.431 65.6746C79.239 65.9399 78.9801 66.1028 78.6544 66.1632C78.3286 66.2237 77.9534 66.1918 77.5288 66.0675C77.1041 65.9432 76.6591 65.7467 76.1938 65.478C75.2747 64.9473 74.4777 64.2823 73.8029 63.4829ZM23.0024 55.5235L23.002 41.0749L27.4346 43.6342C31.8789 46.2004 34.1012 49.8311 34.1013 54.5264C34.1014 56.7766 33.4936 58.2225 32.2778 58.8639C31.0679 59.5088 29.4537 59.2484 27.4351 58.0829L23.0024 55.5235ZM25.8205 45.3521L25.8208 54.511L27.2169 55.3171C28.4385 56.0224 29.3954 56.1518 30.0876 55.7051C30.7856 55.2618 31.1346 54.3113 31.1346 52.8537C31.1345 51.4767 30.7884 50.1954 30.0961 49.0098C29.4097 47.8208 28.444 46.8669 27.1991 46.1481L25.8205 45.3521ZM40.0433 50.9144L40.0434 53.4333L38.9963 52.8288L38.9966 62.2395L40.0437 62.8441L40.0438 65.3631L35.1312 62.5266L35.1311 60.0076L36.1782 60.6122L36.1779 51.2014L35.1308 50.5969L35.1307 48.0779L40.0433 50.9144ZM52.8531 72.7591L49.7817 70.9857L48.8915 67.2576L44.4414 64.6881L43.5602 67.3934L40.5062 65.6301L45.0606 53.8113L48.4026 55.741L52.8531 72.7591ZM48.2458 64.386L46.9019 58.7536C46.8029 58.3337 46.7331 57.8602 46.6924 57.3329L46.6226 57.2926C46.5935 57.699 46.5208 58.0768 46.4045 58.4261L45.0434 62.537L48.2458 64.386ZM64.5107 78.5228C63.2891 78.6302 61.7708 78.16 59.9559 77.1121C57.9431 75.9499 56.355 74.3915 55.1916 72.4367C54.0339 70.4786 53.4551 68.3711 53.455 66.1141C53.4549 63.8437 54.0889 62.3593 55.357 61.6607C56.6251 60.9622 58.3121 61.2208 60.4179 62.4367C61.7442 63.2025 62.9134 64.0892 63.9256 65.0968L63.9257 68.1498C62.96 66.9474 61.7792 65.9431 60.383 65.137C59.2138 64.4619 58.2598 64.351 57.521 64.8044C56.7881 65.2544 56.4217 66.2116 56.4217 67.676C56.4218 69.1605 56.7505 70.4989 57.4078 71.6912C58.071 72.8869 58.964 73.8088 60.0867 74.4571C60.7615 74.8467 61.2966 75.0449 61.6922 75.0516L61.6921 72.2304L59.1878 70.7844L59.1877 68.1849L64.5104 71.2582L64.5107 78.5228ZM78.2013 87.395L75.3568 85.7525L70.1996 73.6967C69.8971 72.9914 69.6876 72.4708 69.5713 72.1349L69.5364 72.1148C69.5829 72.6522 69.6062 73.4448 69.6063 74.4927L69.6065 82.4324L66.9452 80.8957L66.9447 66.4471L69.9813 68.2003L74.9465 79.8632C75.1733 80.3905 75.3828 80.9044 75.5748 81.4048L75.6097 81.425C75.5631 81.0623 75.5398 80.3872 75.5398 79.3998L75.5395 71.4097L78.2009 72.9463L78.2013 87.395ZM86.3512 92.3525C84.5595 91.318 83.0994 89.8032 81.9708 87.8082C80.8422 85.8064 80.2779 83.7241 80.2778 81.5612C80.2778 79.2773 80.8507 77.7609 81.9966 77.012C83.1426 76.2631 84.6608 76.4344 86.5514 77.526C88.3373 78.5572 89.7799 80.0652 90.8794 82.0502C91.9847 84.0385 92.5374 86.1376 92.5375 88.3476C92.5375 90.618 91.9646 92.1176 90.8187 92.8464C89.6786 93.5785 88.1894 93.4139 86.3512 92.3525ZM86.4729 80.2817C85.484 79.7107 84.6987 79.6872 84.117 80.2111C83.5354 80.7283 83.2445 81.6922 83.2446 83.1028C83.2446 84.5336 83.5355 85.8334 84.1173 87.0022C84.699 88.171 85.4611 89.0275 86.4034 89.5716C87.3749 90.1325 88.1457 90.1745 88.7157 89.6976C89.2858 89.214 89.5708 88.2534 89.5707 86.816C89.5707 85.318 89.2943 83.9931 88.7417 82.8411C88.189 81.689 87.4328 80.8359 86.4729 80.2817ZM89.3173 74.7704L86.5863 76.4479L84.5968 75.2992L86.8654 73.3546L89.3173 74.7704ZM94.0298 95.98L94.0297 92.7558C94.5358 93.5384 95.0855 94.2252 95.6789 94.8163C96.2722 95.4007 96.8714 95.8676 97.4764 96.2169C97.8312 96.4218 98.1395 96.5629 98.4013 96.6401C98.6689 96.7207 98.8899 96.7476 99.0644 96.7208C99.2448 96.6905 99.3786 96.6133 99.4658 96.489C99.5531 96.358 99.5967 96.1884 99.5967 95.9802C99.5967 95.6981 99.5269 95.4059 99.3872 95.1036C99.2476 94.8013 99.0557 94.4856 98.8113 94.1565C98.5728 93.8307 98.2878 93.4847 97.9562 93.1186C97.6246 92.7525 97.2668 92.368 96.8829 91.9649C95.9056 90.9304 95.1755 89.9346 94.6927 88.9774C94.2157 88.0235 93.9771 87.0663 93.9771 86.1058C93.9771 85.3534 94.108 84.7842 94.3697 84.3979C94.6315 84.005 94.9863 83.7632 95.4342 83.6725C95.8879 83.5852 96.4115 83.6322 97.0048 83.8136C97.5981 83.9883 98.2264 84.2671 98.8896 84.65C99.5411 85.0262 100.117 85.4057 100.617 85.7886C101.123 86.1681 101.589 86.5745 102.013 87.0078L102.013 90.0205C101.804 89.7316 101.574 89.4512 101.324 89.1791C101.08 88.9104 100.827 88.6602 100.565 88.4284C100.303 88.19 100.041 87.975 99.7797 87.7836C99.5237 87.5955 99.2794 87.4343 99.0467 87.2999C98.7268 87.1152 98.4359 86.9842 98.1741 86.9069C97.9124 86.823 97.6913 86.7927 97.511 86.8162C97.3307 86.8397 97.191 86.9136 97.0922 87.0379C96.9933 87.1554 96.9438 87.325 96.9438 87.5467C96.9439 87.7885 96.9991 88.0387 97.1097 88.2974C97.2202 88.5492 97.3773 88.8213 97.5809 89.1135C97.7845 89.399 98.0317 89.7097 98.3226 90.0455C98.6134 90.3747 98.9421 90.7324 99.3086 91.1186C99.8089 91.6493 100.257 92.1665 100.652 92.6704C101.054 93.1708 101.397 93.6746 101.682 94.1817C101.967 94.6889 102.185 95.2078 102.337 95.7385C102.488 96.2624 102.563 96.8166 102.563 97.401C102.563 98.2071 102.43 98.8082 102.162 99.2045C101.9 99.5975 101.543 99.8343 101.089 99.9148C100.635 99.9887 100.106 99.9249 99.5008 99.7234C98.9017 99.5252 98.2676 99.233 97.5986 98.8467C96.9122 98.4504 96.2578 98.0053 95.6353 97.5116C95.0187 97.0212 94.4835 96.5107 94.0298 95.98ZM113.409 95.9252L109.84 93.8646L109.841 105.663L107.014 104.031L107.013 92.2323L103.462 90.1817L103.462 87.5318L113.409 93.2753L113.409 95.9252ZM118.959 96.4796L118.959 98.9985L117.912 98.3939L117.912 107.805L118.959 108.409L118.959 110.928L114.047 108.092L114.047 105.573L115.094 106.177L115.093 96.7666L114.046 96.162L114.046 93.6431L118.959 96.4796ZM129.735 116.637C128.822 116.62 127.63 116.186 126.158 115.337C124.238 114.228 122.729 112.705 121.629 110.767C120.53 108.829 119.98 106.775 119.98 104.606C119.98 102.295 120.596 100.777 121.83 100.052C123.069 99.3295 124.674 99.5378 126.646 100.676C127.868 101.382 128.897 102.154 129.735 102.994L129.735 106.127C128.897 105.066 127.943 104.226 126.873 103.608C125.698 102.93 124.75 102.809 124.028 103.246C123.307 103.682 122.947 104.629 122.947 106.087C122.947 107.484 123.287 108.796 123.968 110.022C124.648 111.241 125.564 112.183 126.716 112.848C127.816 113.483 128.822 113.755 129.735 113.664L129.735 116.637ZM136.978 121.584C135.186 120.549 133.726 119.035 132.597 117.04C131.469 115.038 130.905 112.956 130.904 110.793C130.904 108.509 131.477 106.992 132.623 106.243C133.769 105.495 135.287 105.666 137.178 106.757C138.964 107.789 140.407 109.297 141.506 111.282C142.611 113.27 143.164 115.369 143.164 117.579C143.164 119.849 142.591 121.349 141.445 122.078C140.305 122.81 138.816 122.645 136.978 121.584ZM137.1 109.513C136.111 108.942 135.325 108.919 134.744 109.443C134.162 109.96 133.871 110.924 133.871 112.334C133.871 113.765 134.162 115.065 134.744 116.234C135.326 117.402 136.088 118.259 137.03 118.803C138.002 119.364 138.772 119.406 139.342 118.929C139.912 118.445 140.197 117.485 140.197 116.047C140.197 114.549 139.921 113.225 139.368 112.072C138.816 110.92 138.059 110.067 137.1 109.513Z" fill="white"/>
</svg>
