<svg width="191" height="164" viewBox="0 0 191 164" fill="none" xmlns="http://www.w3.org/2000/svg">
<path d="M0.660169 1.15175L190.598 110.425L161.99 128.246L161.99 146.822L0.661842 53.6727L0.660169 1.15175Z" fill="#FF322A"/>
<path d="M33.5569 41.3891L31.9339 40.4521L30.6075 35.6358L25.3022 32.5726L24.0546 35.9026L22.4229 34.9604L27.2216 23.2828L28.7398 24.1594L33.5569 41.3891ZM30.1275 33.8372L28.164 26.5474C28.1 26.3089 28.036 25.9495 27.972 25.4692L27.9371 25.4491C27.879 25.8253 27.8121 26.1091 27.7365 26.3005L25.7908 31.3333L30.1275 33.8372ZM42.6316 46.6288L41.2006 45.8026L41.2004 39.9183C41.2004 37.7285 40.5081 36.2339 39.1236 35.4345C38.4081 35.0214 37.8148 34.9912 37.3436 35.3438C36.8782 35.6931 36.6456 36.3413 36.6456 37.2884L36.6458 43.1727L35.2148 42.3464L35.2145 32.0288L36.6455 32.8551L36.6455 34.5679L36.6804 34.5881C37.3552 33.6746 38.3324 33.5873 39.6122 34.3262C40.5895 34.8905 41.337 35.6882 41.8548 36.7193C42.3725 37.7437 42.6314 38.9444 42.6314 40.3214L42.6316 46.6288ZM51.7326 51.8837L50.3016 51.0574L50.3015 49.4453L50.2666 49.4251C49.6442 50.3017 48.728 50.3907 47.5181 49.692C46.628 49.1781 45.93 48.503 45.4239 47.6667C44.9236 46.8338 44.6734 45.9673 44.6734 45.0672C44.6733 43.1393 45.6564 42.5852 47.6226 43.4048L50.3013 44.5182C50.3013 42.765 49.6876 41.5341 48.4601 40.8254C47.384 40.204 46.4125 40.0663 45.5458 40.4122L45.5457 38.7195C46.4241 38.5818 47.4363 38.8438 48.5823 39.5055C50.6822 40.718 51.7323 42.6072 51.7324 45.1732L51.7326 51.8837ZM50.3014 45.8381L48.1461 44.9363C47.483 44.6609 46.9827 44.5634 46.6453 44.644C46.308 44.7179 46.1393 45.1008 46.1393 45.7927C46.1393 46.2965 46.2935 46.7986 46.6018 47.299C46.9159 47.7961 47.3319 48.1941 47.8496 48.493C48.5593 48.9028 49.1439 48.9549 49.6034 48.6493C50.0688 48.3403 50.3014 47.7458 50.3014 46.8659L50.3014 45.8381ZM50.493 35.5911L48.207 37.5759L47.0988 36.9361L49.0446 34.7547L50.493 35.5911ZM55.8598 54.2667L54.4288 53.4404L54.4283 38.1656L55.8593 38.9918L55.8598 54.2667ZM59.4893 43.4253C59.2334 43.2775 59.0152 43.0508 58.8349 42.7451C58.6545 42.4395 58.5644 42.1322 58.5644 41.8232C58.5644 41.5142 58.6545 41.311 58.8348 41.2136C59.0152 41.1095 59.2333 41.1314 59.4893 41.2791C59.751 41.4303 59.9721 41.662 60.1524 41.9744C60.3386 42.2834 60.4317 42.5924 60.4317 42.9014C60.4317 43.1969 60.3386 43.3951 60.1525 43.4958C59.9721 43.5999 59.7511 43.5764 59.4893 43.4253ZM60.1878 56.7656L58.7568 55.9394L58.7564 45.6218L60.1875 46.448L60.1878 56.7656ZM62.5437 57.7531L62.5437 55.9798C63.3232 57.0949 64.1812 57.9228 65.1178 58.4636C66.3743 59.1891 67.0025 59.0682 67.0025 58.1009C67.0025 57.8255 66.9472 57.5618 66.8367 57.3099C66.732 57.0547 66.5865 56.7994 66.4004 56.5442C66.22 56.2923 66.0048 56.037 65.7547 55.7784C65.5103 55.5164 65.2457 55.2393 64.9606 54.9471C64.565 54.5373 64.216 54.1545 63.9135 53.7984C63.6168 53.4391 63.3667 53.0864 63.1631 52.7405C62.9653 52.3912 62.814 52.0385 62.7093 51.6825C62.6104 51.3298 62.561 50.9553 62.5609 50.559C62.5609 50.0754 62.6569 49.7043 62.8489 49.4457C63.0408 49.1803 63.2968 49.0158 63.6167 48.952C63.9366 48.8815 64.3002 48.8999 64.7074 49.0074C65.1204 49.1183 65.545 49.2997 65.9813 49.5516C66.755 49.9983 67.4473 50.5525 68.0581 51.2141L68.0581 52.8867C67.4008 52.0101 66.6445 51.3249 65.7894 50.8312C65.5218 50.6767 65.2804 50.5742 65.0652 50.5238C64.8499 50.4667 64.6638 50.4567 64.5067 50.4936C64.3555 50.5339 64.2363 50.6195 64.149 50.7505C64.0676 50.8781 64.0269 51.0494 64.0269 51.2644C64.0269 51.5331 64.0676 51.7816 64.149 52.01C64.2363 52.2417 64.3614 52.4752 64.5243 52.7103C64.6871 52.9454 64.8849 53.1872 65.1176 53.4357C65.3503 53.6843 65.615 53.9614 65.9117 54.267C66.3072 54.6701 66.6621 55.0563 66.9762 55.4258C67.2904 55.7885 67.558 56.1512 67.779 56.514C68.0001 56.87 68.1688 57.2327 68.2851 57.6022C68.4073 57.975 68.4684 58.3696 68.4684 58.7861C68.4684 59.2966 68.3695 59.6828 68.1718 59.9448C67.9798 60.2101 67.721 60.373 67.3952 60.4334C67.0695 60.4939 66.6943 60.462 66.2696 60.3377C65.845 60.2134 65.4 60.0169 64.9346 59.7482C64.0155 59.2175 63.2185 58.5525 62.5437 57.7531ZM71.4087 50.3074C71.1527 50.1596 70.9346 49.9329 70.7542 49.6273C70.5739 49.3216 70.4837 49.0143 70.4837 48.7053C70.4837 48.3964 70.5738 48.1932 70.7542 48.0958C70.9345 47.9917 71.1526 48.0135 71.4086 48.1613C71.6704 48.3124 71.8914 48.5442 72.0718 48.8565C72.2579 49.1655 72.351 49.4745 72.351 49.7835C72.351 50.0791 72.2579 50.2772 72.0718 50.378C71.8915 50.4821 71.6704 50.4586 71.4087 50.3074ZM72.1071 63.6478L70.6761 62.8215L70.6758 52.5039L72.1068 53.3302L72.1071 63.6478ZM74.4631 64.6353L74.463 62.8619C75.2425 63.977 76.1006 64.8049 77.0371 65.3457C78.2936 66.0712 78.9219 65.9503 78.9218 64.983C78.9218 64.7076 78.8665 64.444 78.756 64.1921C78.6513 63.9368 78.5059 63.6816 78.3197 63.4263C78.1394 63.1744 77.9241 62.9191 77.674 62.6605C77.4297 62.3985 77.165 62.1215 76.8799 61.8292C76.4844 61.4195 76.1353 61.0366 75.8328 60.6806C75.5362 60.3212 75.286 59.9685 75.0824 59.6226C74.8846 59.2733 74.7334 58.9206 74.6286 58.5646C74.5297 58.212 74.4803 57.8375 74.4803 57.4412C74.4803 56.9575 74.5762 56.5864 74.7682 56.3278C74.9601 56.0625 75.2161 55.8979 75.536 55.8341C75.856 55.7636 76.2195 55.7821 76.6267 55.8896C77.0397 56.0004 77.4644 56.1818 77.9007 56.4337C78.6743 56.8804 79.3666 57.4346 79.9774 58.0963L79.9775 59.7688C79.3201 58.8922 78.5639 58.2071 77.7087 57.7133C77.4412 57.5588 77.1997 57.4564 76.9845 57.406C76.7693 57.3489 76.5831 57.3388 76.4261 57.3757C76.2748 57.416 76.1556 57.5017 76.0683 57.6327C75.9869 57.7603 75.9462 57.9316 75.9462 58.1465C75.9462 58.4152 75.9869 58.6637 76.0684 58.8921C76.1556 59.1239 76.2807 59.3573 76.4436 59.5924C76.6065 59.8275 76.8043 60.0693 77.037 60.3179C77.2696 60.5664 77.5343 60.8435 77.831 61.1492C78.2266 61.5522 78.5814 61.9385 78.8956 62.3079C79.2097 62.6706 79.4773 63.0334 79.6984 63.3961C79.9194 63.7521 80.0881 64.1149 80.2045 64.4843C80.3266 64.8571 80.3877 65.2518 80.3877 65.6682C80.3878 66.1787 80.2889 66.565 80.0911 66.8269C79.8992 67.0923 79.6403 67.2551 79.3146 67.3156C78.9888 67.376 78.6136 67.3441 78.189 67.2198C77.7643 67.0955 77.3193 66.8991 76.8539 66.6304C75.9348 66.0997 75.1379 65.4346 74.4631 64.6353ZM23.6626 56.6759L23.6621 42.2272L28.0948 44.7866C32.5391 47.3527 34.7613 50.9834 34.7615 55.6787C34.7616 57.929 34.1537 59.3748 32.938 60.0163C31.7281 60.6611 30.1138 60.4008 28.0953 59.2353L23.6626 56.6759ZM26.4806 46.5045L26.4809 55.6633L27.877 56.4694C29.0986 57.1748 30.0555 57.3041 30.7478 56.8575C31.4458 56.4141 31.7948 55.4637 31.7947 54.006C31.7947 52.629 31.4485 51.3477 30.7563 50.1621C30.0698 48.9731 29.1042 48.0193 27.8593 47.3005L26.4806 46.5045ZM44.3426 68.6163L36.8384 64.2835L36.838 49.8348L44.0541 54.0014L44.0542 56.6513L39.6565 54.1121L39.6566 57.3263L43.7489 59.6892L43.749 62.329L39.6567 59.9661L39.6568 63.271L44.3425 65.9765L44.3426 68.6163ZM45.7736 68.8884L45.7735 65.6642C46.2796 66.4467 46.8293 67.1336 47.4226 67.7247C48.016 68.3091 48.6152 68.776 49.2202 69.1253C49.575 69.3302 49.8833 69.4713 50.1451 69.5485C50.4127 69.6291 50.6337 69.656 50.8082 69.6291C50.9886 69.5989 51.1223 69.5217 51.2096 69.3974C51.2968 69.2664 51.3405 69.0968 51.3405 68.8886C51.3405 68.6065 51.2706 68.3143 51.131 68.012C50.9914 67.7097 50.7994 67.394 50.5551 67.0649C50.3166 66.7391 50.0315 66.3931 49.7 66.027C49.3684 65.6609 49.0106 65.2764 48.6267 64.8733C47.6494 63.8388 46.9193 62.843 46.4365 61.8858C45.9594 60.9319 45.7209 59.9747 45.7209 59.0142C45.7209 58.2618 45.8517 57.6925 46.1135 57.3063C46.3752 56.9134 46.7301 56.6716 47.178 56.5809C47.6317 56.4936 48.1552 56.5406 48.7486 56.722C49.3419 56.8967 49.9702 57.1755 50.6333 57.5584C51.2849 57.9345 51.8607 58.3141 52.361 58.697C52.8671 59.0765 53.3325 59.4829 53.7572 59.9162L53.7573 62.9288C53.5478 62.64 53.318 62.3596 53.0679 62.0875C52.8236 61.8188 52.5705 61.5686 52.3088 61.3368C52.047 61.0984 51.7852 60.8834 51.5234 60.692C51.2675 60.5039 51.0232 60.3426 50.7905 60.2083C50.4705 60.0236 50.1797 59.8926 49.9179 59.8153C49.6561 59.7313 49.4351 59.7011 49.2548 59.7246C49.0744 59.7481 48.9348 59.822 48.8359 59.9463C48.7371 60.0638 48.6876 60.2334 48.6876 60.4551C48.6876 60.6969 48.7429 60.9471 48.8534 61.2057C48.964 61.4576 49.121 61.7297 49.3246 62.0219C49.5282 62.3074 49.7755 62.6181 50.0663 62.9539C50.3572 63.2831 50.6859 63.6408 51.0524 64.027C51.5526 64.5577 52.0006 65.0749 52.3961 65.5787C52.7975 66.0792 53.1408 66.583 53.4258 67.0901C53.7109 67.5973 53.929 68.1162 54.0803 68.6469C54.2315 69.1708 54.3072 69.725 54.3072 70.3094C54.3072 71.1154 54.1734 71.7166 53.9059 72.1129C53.6441 72.5059 53.2864 72.7426 52.8327 72.8232C52.3789 72.8971 51.8496 72.8333 51.2446 72.6317C50.6454 72.4336 50.0114 72.1413 49.3424 71.7551C48.656 71.3588 48.0015 70.9137 47.3791 70.42C46.7625 69.9296 46.2273 69.4191 45.7736 68.8884ZM65.3366 80.2243C64.4233 80.2075 63.2308 79.7742 61.7591 78.9244C59.8394 77.816 58.3299 76.2928 57.2304 74.3549C56.1309 72.4169 55.5811 70.3631 55.5811 68.1935C55.581 65.8828 56.1975 64.3647 57.4307 63.6393C58.6697 62.9172 60.2752 63.1255 62.2473 64.2642C63.4689 64.9695 64.4985 65.742 65.3362 66.5817L65.3363 69.7153C64.4986 68.6539 63.5446 67.8142 62.4742 67.1962C61.2992 66.5177 60.351 66.3968 59.6297 66.8334C58.9084 67.27 58.5478 68.2171 58.5478 69.6747C58.5478 71.0719 58.8882 72.3834 59.5688 73.6094C60.2494 74.8285 61.1657 75.7707 62.3175 76.4357C63.4169 77.0705 64.4233 77.3426 65.3365 77.2519L65.3366 80.2243ZM78.0151 88.0586L74.7779 86.1894L72.8319 81.348C72.6865 80.9819 72.5469 80.6494 72.413 80.3505C72.2792 80.0515 72.1425 79.7845 72.0029 79.5494C71.8691 79.311 71.7266 79.1078 71.5754 78.9398C71.4299 78.7685 71.2699 78.6325 71.0954 78.5317L70.3363 78.0934L70.3365 83.625L67.5181 81.9977L67.5176 67.549L71.9852 70.1286C75.0217 71.8819 76.54 74.0683 76.5401 76.688C76.5401 77.1918 76.4733 77.6201 76.3395 77.9727C76.2057 78.3186 76.0166 78.5924 75.7723 78.7939C75.528 78.9954 75.2314 79.1196 74.8823 79.1666C74.5391 79.217 74.1552 79.1901 73.7306 79.086L73.7306 79.1263C73.9167 79.3009 74.0971 79.5159 74.2716 79.7712C74.4461 80.0197 74.6148 80.2918 74.7777 80.5873C74.9406 80.8829 75.0947 81.1902 75.2402 81.5093C75.3914 81.825 75.5281 82.1289 75.6503 82.4211L78.0151 88.0586ZM70.3361 71.6147L70.3362 75.6349L71.5578 76.3403C72.1628 76.6896 72.6485 76.7685 73.015 76.5771C73.3873 76.3823 73.5734 75.9826 73.5734 75.3781C73.5733 74.1153 72.9189 73.106 71.61 72.3503L70.3361 71.6147ZM83.0581 76.522L83.0582 79.0409L82.0111 78.4364L82.0114 87.8471L83.0585 88.4517L83.0586 90.9707L78.146 88.1342L78.1459 85.6152L79.193 86.2198L79.1927 76.809L78.1456 76.2045L78.1455 73.6855L83.0581 76.522ZM87.683 88.6635L87.6832 93.6409L84.8648 92.0136L84.8643 77.5649L89.2795 80.1142C92.4324 81.9347 94.0089 84.3798 94.009 87.4495C94.0091 88.9004 93.5554 89.814 92.6479 90.1901C91.7463 90.5629 90.5393 90.3126 89.0268 89.4393L87.683 88.6635ZM87.6828 81.691L87.683 86.1949L88.7911 86.8347C90.292 87.7013 91.0423 87.3756 91.0423 85.8575C91.0422 84.373 90.2918 83.1974 88.791 82.3309L87.6828 81.691ZM104.628 91.6263L101.059 89.5657L101.06 101.364L98.2326 99.732L98.2322 87.9333L94.6808 85.8828L94.6808 83.2328L104.628 88.9764L104.628 91.6263ZM110.178 92.1806L110.178 94.6996L109.131 94.095L109.131 103.506L110.178 104.11L110.178 106.629L105.266 103.793L105.265 101.274L106.313 101.878L106.312 92.4677L105.265 91.8631L105.265 89.3441L110.178 92.1806ZM122.402 99.2391L118.092 111.199L114.899 109.355L110.64 92.4476L113.677 94.2009L116.286 105.763C116.426 106.388 116.51 106.917 116.539 107.35L116.591 107.38C116.632 106.954 116.722 106.512 116.862 106.055L119.453 97.5362L122.402 99.2391ZM129.157 117.839C127.365 116.805 125.905 115.29 124.776 113.295C123.648 111.293 123.083 109.211 123.083 107.048C123.083 104.764 123.656 103.248 124.802 102.499C125.948 101.75 127.466 101.921 129.357 103.013C131.143 104.044 132.585 105.552 133.685 107.537C134.79 109.525 135.343 111.624 135.343 113.834C135.343 116.105 134.77 117.604 133.624 118.333C132.484 119.065 130.995 118.901 129.157 117.839ZM129.278 105.768C128.289 105.197 127.504 105.174 126.922 105.698C126.341 106.215 126.05 107.179 126.05 108.59C126.05 110.02 126.341 111.32 126.923 112.489C127.504 113.658 128.266 114.514 129.209 115.058C130.18 115.619 130.951 115.661 131.521 115.184C132.091 114.701 132.376 113.74 132.376 112.303C132.376 110.805 132.1 109.48 131.547 108.328C130.994 107.176 130.238 106.323 129.278 105.768Z" fill="white"/>
</svg>
