<svg width="173" height="152" viewBox="0 0 173 152" fill="none" xmlns="http://www.w3.org/2000/svg">
<rect width="198.234" height="52.5209" transform="matrix(0.866009 0.500028 3.18609e-05 1 0.429688 0.0517578)" fill="#FF322A"/>
<path d="M33.3264 40.2886L31.7034 39.3515L30.377 34.5352L25.0718 31.472L23.8241 34.802L22.1924 33.8599L26.9911 22.1822L28.5094 23.0588L33.3264 40.2886ZM29.897 32.7367L27.9336 25.4468C27.8696 25.2083 27.8056 24.8489 27.7416 24.3687L27.7067 24.3485C27.6485 24.7247 27.5816 25.0085 27.506 25.1999L25.5604 30.2327L29.897 32.7367ZM42.4012 45.5283L40.9702 44.702L40.97 38.8177C40.9699 36.6279 40.2776 35.1333 38.8931 34.334C38.1776 33.9208 37.5843 33.8906 37.1131 34.2432C36.6478 34.5925 36.4151 35.2407 36.4151 36.1878L36.4153 42.0721L34.9843 41.2458L34.984 30.9282L36.415 31.7545L36.4151 33.4674L36.45 33.4875C37.1247 32.574 38.102 32.4867 39.3817 33.2256C40.359 33.7899 41.1065 34.5876 41.6243 35.6187C42.142 36.6431 42.4009 37.8438 42.401 39.2208L42.4012 45.5283ZM51.5021 50.7831L50.0711 49.9568L50.071 48.3447L50.0361 48.3245C49.4137 49.2011 48.4976 49.2901 47.2876 48.5914C46.3976 48.0776 45.6995 47.4025 45.1934 46.5662C44.6931 45.7332 44.4429 44.8667 44.4429 43.9666C44.4428 42.0387 45.4259 41.4846 47.3921 42.3042L50.0709 43.4176C50.0708 41.6644 49.4571 40.4335 48.2297 39.7248C47.1535 39.1034 46.182 38.9657 45.3153 39.3116L45.3153 37.6189C46.1936 37.4812 47.2058 37.7432 48.3518 38.4049C50.4518 39.6174 51.5018 41.5066 51.5019 44.0726L51.5021 50.7831ZM50.0709 44.7376L47.9157 43.8357C47.2525 43.5603 46.7523 43.4629 46.4149 43.5435C46.0775 43.6173 45.9088 44.0002 45.9088 44.6921C45.9088 45.1959 46.063 45.698 46.3713 46.1984C46.6855 46.6955 47.1014 47.0935 47.6191 47.3924C48.3288 47.8022 48.9134 47.8543 49.373 47.5487C49.8383 47.2397 50.071 46.6452 50.071 45.7653L50.0709 44.7376ZM50.2626 34.4905L47.9765 36.4753L46.8684 35.8355L48.8141 33.6542L50.2626 34.4905ZM55.6294 53.1661L54.1983 52.3399L54.1979 37.065L55.6289 37.8912L55.6294 53.1661ZM59.2589 42.3247C59.0029 42.1769 58.7848 41.9502 58.6044 41.6446C58.4241 41.3389 58.3339 41.0316 58.3339 40.7226C58.3339 40.4136 58.424 40.2104 58.6044 40.113C58.7847 40.0089 59.0028 40.0308 59.2588 40.1786C59.5206 40.3297 59.7416 40.5615 59.9219 40.8738C60.1081 41.1828 60.2012 41.4918 60.2012 41.8008C60.2012 42.0963 60.1081 42.2945 59.922 42.3952C59.7417 42.4994 59.5206 42.4758 59.2589 42.3247ZM59.9573 55.665L58.5263 54.8388L58.526 44.5212L59.957 45.3475L59.9573 55.665ZM62.3133 56.6525L62.3132 54.8792C63.0927 55.9943 63.9508 56.8222 64.8873 57.363C66.1438 58.0885 66.7721 57.9676 66.772 57.0003C66.772 56.7249 66.7167 56.4612 66.6062 56.2094C66.5015 55.9541 66.3561 55.6988 66.1699 55.4436C65.9896 55.1917 65.7743 54.9364 65.5242 54.6778C65.2799 54.4158 65.0152 54.1387 64.7301 53.8465C64.3346 53.4368 63.9855 53.0539 63.683 52.6979C63.3864 52.3385 63.1362 51.9858 62.9326 51.6399C62.7348 51.2906 62.5836 50.9379 62.4788 50.5819C62.3799 50.2292 62.3305 49.8548 62.3305 49.4584C62.3305 48.9748 62.4264 48.6037 62.6184 48.3451C62.8103 48.0798 63.0663 47.9152 63.3862 47.8514C63.7062 47.7809 64.0697 47.7994 64.4769 47.9068C64.8899 48.0177 65.3146 48.1991 65.7509 48.451C66.5245 48.8977 67.2168 49.4519 67.8276 50.1135L67.8277 51.7861C67.1703 50.9095 66.4141 50.2243 65.5589 49.7306C65.2914 49.5761 65.0499 49.4736 64.8347 49.4233C64.6195 49.3662 64.4333 49.3561 64.2763 49.393C64.125 49.4333 64.0058 49.519 63.9185 49.6499C63.8371 49.7776 63.7964 49.9488 63.7964 50.1638C63.7964 50.4325 63.8371 50.681 63.9186 50.9094C64.0058 51.1412 64.1309 51.3746 64.2938 51.6097C64.4567 51.8448 64.6545 52.0866 64.8872 52.3352C65.1198 52.5837 65.3845 52.8608 65.6812 53.1664C66.0768 53.5695 66.4316 53.9557 66.7458 54.3252C67.0599 54.6879 67.3275 55.0507 67.5486 55.4134C67.7696 55.7694 67.9383 56.1321 68.0547 56.5016C68.1768 56.8744 68.2379 57.269 68.2379 57.6855C68.238 58.196 68.1391 58.5822 67.9413 58.8442C67.7494 59.1095 67.4905 59.2724 67.1648 59.3329C66.839 59.3933 66.4638 59.3614 66.0392 59.2371C65.6145 59.1128 65.1695 58.9163 64.7041 58.6476C63.785 58.1169 62.9881 57.4519 62.3133 56.6525ZM71.1782 49.2068C70.9222 49.059 70.7041 48.8323 70.5237 48.5267C70.3434 48.2211 70.2532 47.9137 70.2532 47.6048C70.2532 47.2958 70.3434 47.0926 70.5237 46.9952C70.704 46.8911 70.9222 46.9129 71.1781 47.0607C71.4399 47.2118 71.6609 47.4436 71.8413 47.7559C72.0274 48.0649 72.1205 48.3739 72.1205 48.6829C72.1205 48.9785 72.0275 49.1766 71.8413 49.2774C71.661 49.3815 71.44 49.358 71.1782 49.2068ZM71.8767 62.5472L70.4456 61.7209L70.4453 51.4033L71.8763 52.2296L71.8767 62.5472ZM74.2326 63.5347L74.2325 61.7613C75.012 62.8764 75.8701 63.7043 76.8066 64.2451C78.0632 64.9706 78.6914 64.8497 78.6914 63.8824C78.6914 63.607 78.6361 63.3434 78.5255 63.0915C78.4208 62.8362 78.2754 62.581 78.0892 62.3257C77.9089 62.0738 77.6937 61.8186 77.4435 61.5599C77.1992 61.298 76.9345 61.0209 76.6495 60.7287C76.2539 60.3189 75.9049 59.936 75.6024 59.58C75.3057 59.2206 75.0555 58.8679 74.8519 58.522C74.6542 58.1727 74.5029 57.82 74.3982 57.464C74.2993 57.1114 74.2498 56.7369 74.2498 56.3406C74.2498 55.8569 74.3458 55.4858 74.5377 55.2272C74.7297 54.9619 74.9856 54.7973 75.3056 54.7335C75.6255 54.663 75.9891 54.6815 76.3962 54.789C76.8093 54.8998 77.2339 55.0812 77.6702 55.3331C78.4439 55.7798 79.1361 56.334 79.7469 56.9957L79.747 58.6683C79.0896 57.7916 78.3334 57.1065 77.4783 56.6127C77.2107 56.4582 76.9693 56.3558 76.754 56.3054C76.5388 56.2483 76.3527 56.2382 76.1956 56.2752C76.0444 56.3154 75.9251 56.4011 75.8379 56.5321C75.7564 56.6597 75.7157 56.831 75.7157 57.0459C75.7157 57.3146 75.7565 57.5632 75.8379 57.7915C75.9252 58.0233 76.0502 58.2567 76.2131 58.4918C76.376 58.7269 76.5738 58.9688 76.8065 59.2173C77.0392 59.4658 77.3039 59.7429 77.6005 60.0486C77.9961 60.4516 78.351 60.8379 78.6651 61.2073C78.9792 61.5701 79.2468 61.9328 79.4679 62.2955C79.6889 62.6515 79.8576 63.0143 79.974 63.3837C80.0962 63.7565 80.1573 64.1512 80.1573 64.5676C80.1573 65.0781 80.0584 65.4644 79.8606 65.7263C79.6687 65.9917 79.4098 66.1546 79.0841 66.215C78.7583 66.2754 78.3831 66.2435 77.9585 66.1192C77.5338 65.995 77.0888 65.7985 76.6235 65.5298C75.7043 64.9991 74.9074 64.3341 74.2326 63.5347ZM26.2504 52.2252L26.2505 57.2026L23.4321 55.5753L23.4317 41.1266L27.8469 43.6759C30.9998 45.4964 32.5763 47.9415 32.5764 51.0112C32.5764 52.4622 32.1227 53.3757 31.2153 53.7518C30.3136 54.1246 29.1066 53.8743 27.5941 53.0011L26.2504 52.2252ZM26.2502 45.2527L26.2503 49.7566L27.3585 50.3965C28.8593 51.263 29.6097 50.9373 29.6096 49.4192C29.6096 47.9347 28.8591 46.7592 27.3583 45.8926L26.2502 45.2527ZM44.9061 67.9742L41.6689 66.1051L39.7229 61.2636C39.5775 60.8975 39.4379 60.565 39.3041 60.2661C39.1703 59.9671 39.0336 59.7001 38.8939 59.465C38.7601 59.2266 38.6176 59.0234 38.4664 58.8554C38.3209 58.6841 38.161 58.5481 37.9865 58.4473L37.2273 58.009L37.2275 63.5406L34.4091 61.9133L34.4086 47.4646L38.8762 50.0442C41.9127 51.7975 43.4311 53.9839 43.4311 56.6036C43.4312 57.1074 43.3643 57.5357 43.2305 57.8883C43.0967 58.2342 42.9077 58.508 42.6634 58.7095C42.4191 58.911 42.1224 59.0352 41.7734 59.0822C41.4302 59.1326 41.0462 59.1057 40.6216 59.0016L40.6216 59.0419C40.8077 59.2166 40.9881 59.4315 41.1626 59.6868C41.3371 59.9353 41.5058 60.2074 41.6687 60.5029C41.8316 60.7985 41.9858 61.1058 42.1312 61.4249C42.2824 61.7406 42.4192 62.0445 42.5413 62.3367L44.9061 67.9742ZM37.2271 51.5303L37.2272 55.5505L38.4488 56.2559C39.0538 56.6052 39.5395 56.6841 39.906 56.4927C40.2783 56.2979 40.4644 55.8983 40.4644 55.2937C40.4644 54.0309 39.8099 53.0216 38.5011 52.2659L37.2271 51.5303ZM53.5882 72.9872L46.0841 68.6544L46.0836 54.2057L53.2998 58.3723L53.2999 61.0222L48.9021 58.483L48.9022 61.6971L52.9946 64.06L52.9947 66.6999L48.9023 64.337L48.9024 67.6418L53.5881 70.3473L53.5882 72.9872ZM55.0192 73.2593L55.0191 70.035C55.5252 70.8176 56.075 71.5044 56.6683 72.0956C57.2617 72.68 57.8608 73.1469 58.4658 73.4962C58.8207 73.7011 59.129 73.8421 59.3907 73.9194C59.6583 74 59.8794 74.0269 60.0539 74C60.2342 73.9698 60.368 73.8925 60.4553 73.7683C60.5425 73.6373 60.5861 73.4677 60.5861 73.2595C60.5861 72.9773 60.5163 72.6851 60.3767 72.3829C60.2371 72.0806 60.0451 71.7649 59.8008 71.4357C59.5623 71.1099 59.2772 70.764 58.9456 70.3979C58.614 70.0318 58.2563 69.6472 57.8723 69.2442C56.8951 68.2097 56.165 67.2138 55.6821 66.2566C55.2051 65.3028 54.9666 64.3456 54.9665 63.385C54.9665 62.6327 55.0974 62.0634 55.3591 61.6772C55.6209 61.2842 55.9757 61.0424 56.4236 60.9518C56.8774 60.8645 57.4009 60.9115 57.9942 61.0929C58.5876 61.2675 59.2158 61.5463 59.879 61.9292C60.5305 62.3054 61.1064 62.6849 61.6067 63.0678C62.1128 63.4474 62.5782 63.8538 63.0028 64.2871L63.0029 67.2997C62.7935 67.0109 62.5637 66.7304 62.3136 66.4584C62.0692 66.1897 61.8162 65.9394 61.5544 65.7077C61.2926 65.4692 61.0309 65.2543 60.7691 65.0628C60.5131 64.8747 60.2688 64.7135 60.0361 64.5792C59.7162 64.3944 59.4253 64.2634 59.1636 64.1862C58.9018 64.1022 58.6807 64.072 58.5004 64.0955C58.3201 64.119 58.1805 64.1929 58.0816 64.3171C57.9827 64.4347 57.9333 64.6043 57.9333 64.8259C57.9333 65.0678 57.9886 65.318 58.0991 65.5766C58.2096 65.8285 58.3667 66.1005 58.5703 66.3927C58.7739 66.6782 59.0211 66.9889 59.312 67.3248C59.6029 67.6539 59.9315 68.0116 60.298 68.3979C60.7983 68.9286 61.2462 69.4458 61.6418 69.9496C62.0432 70.45 62.3864 70.9538 62.6715 71.461C62.9565 71.9682 63.1747 72.4871 63.3259 73.0177C63.4772 73.5417 63.5528 74.0958 63.5529 74.6802C63.5529 75.4863 63.4191 76.0875 63.1515 76.4838C62.8898 76.8767 62.532 77.1135 62.0783 77.1941C61.6246 77.268 61.0952 77.2041 60.4903 77.0026C59.8911 76.8044 59.257 76.5122 58.5881 76.1259C57.9016 75.7296 57.2472 75.2846 56.6248 74.7908C56.0081 74.3005 55.473 73.7899 55.0192 73.2593ZM74.5823 84.5952C73.669 84.5783 72.4765 84.145 71.0048 83.2953C69.0851 82.1869 67.5755 80.6637 66.476 78.7258C65.3766 76.7878 64.8268 74.734 64.8267 72.5644C64.8266 70.2537 65.4432 68.7356 66.6764 68.0102C67.9154 67.2881 69.5209 67.4964 71.4929 68.635C72.7145 69.3404 73.7442 70.1129 74.5818 70.9525L74.5819 74.0861C73.7443 73.0248 72.7902 72.1851 71.7199 71.5671C70.5448 70.8886 69.5966 70.7677 68.8753 71.2043C68.154 71.6409 67.7934 72.588 67.7935 74.0456C67.7935 75.4428 68.1338 76.7543 68.8145 77.9802C69.4951 79.1994 70.4113 80.1415 71.5631 80.8066C72.6626 81.4414 73.6689 81.7134 74.5822 81.6228L74.5823 84.5952ZM87.2608 92.4295L84.0235 90.5603L82.0776 85.7188C81.9321 85.3527 81.7925 85.0202 81.6587 84.7213C81.5249 84.4224 81.3882 84.1554 81.2486 83.9203C81.1148 83.6818 80.9723 83.4786 80.821 83.3107C80.6756 83.1394 80.5156 83.0034 80.3411 82.9026L79.582 82.4643L79.5821 87.9959L76.7637 86.3686L76.7633 71.9199L81.2308 74.4994C84.2674 76.2527 85.7857 78.4392 85.7858 81.0589C85.7858 81.5627 85.7189 81.9909 85.5851 82.3436C85.4514 82.6895 85.2623 82.9632 85.018 83.1647C84.7737 83.3662 84.477 83.4905 84.128 83.5375C83.7848 83.5879 83.4009 83.561 82.9762 83.4569L82.9762 83.4972C83.1624 83.6718 83.3427 83.8868 83.5172 84.142C83.6918 84.3906 83.8605 84.6626 84.0233 84.9582C84.1862 85.2537 84.3404 85.5611 84.4858 85.8801C84.6371 86.1958 84.7738 86.4998 84.896 86.792L87.2608 92.4295ZM79.5817 75.9856L79.5819 80.0058L80.8035 80.7111C81.4085 81.0604 81.8942 81.1394 82.2607 80.948C82.6329 80.7532 82.8191 80.3535 82.819 79.749C82.819 78.4861 82.1646 77.4769 80.8557 76.7211L79.5817 75.9856ZM92.3038 80.8929L92.3039 83.4118L91.2568 82.8072L91.2571 92.218L92.3042 92.8226L92.3042 95.3415L87.3917 92.505L87.3916 89.9861L88.4387 90.5907L88.4384 81.1799L87.3913 80.5753L87.3912 78.0564L92.3038 80.8929ZM96.9287 93.0343L96.9289 98.0118L94.1105 96.3844L94.11 81.9358L98.5252 84.4851C101.678 86.3055 103.255 88.7506 103.255 91.8204C103.255 93.2713 102.801 94.1848 101.894 94.561C100.992 94.9337 99.7849 94.6835 98.2725 93.8102L96.9287 93.0343ZM96.9285 86.0619L96.9286 90.5658L98.0368 91.2056C99.5376 92.0722 100.288 91.7464 100.288 90.2283C100.288 88.7438 99.5375 87.5683 98.0366 86.7017L96.9285 86.0619ZM113.874 95.9971L110.305 93.9365L110.305 105.735L107.478 104.103L107.478 92.3042L103.927 90.2536L103.926 87.6037L113.874 93.3472L113.874 95.9971ZM119.423 96.5515L119.423 99.0704L118.376 98.4659L118.377 107.877L119.424 108.481L119.424 111L114.511 108.164L114.511 105.645L115.558 106.249L115.558 96.8385L114.511 96.2339L114.511 93.715L119.423 96.5515ZM131.648 103.61L127.338 115.57L124.144 113.726L119.886 96.8185L122.922 98.5718L125.532 110.134C125.671 110.759 125.756 111.288 125.785 111.721L125.837 111.751C125.878 111.324 125.968 110.883 126.108 110.426L128.699 101.907L131.648 103.61ZM138.402 122.21C136.611 121.176 135.15 119.661 134.022 117.666C132.893 115.664 132.329 113.582 132.329 111.419C132.329 109.135 132.902 107.618 134.048 106.87C135.194 106.121 136.712 106.292 138.602 107.384C140.388 108.415 141.831 109.923 142.93 111.908C144.036 113.896 144.588 115.995 144.589 118.205C144.589 120.476 144.016 121.975 142.87 122.704C141.73 123.436 140.24 123.271 138.402 122.21ZM138.524 110.139C137.535 109.568 136.75 109.545 136.168 110.069C135.586 110.586 135.296 111.55 135.296 112.96C135.296 114.391 135.587 115.691 136.168 116.86C136.75 118.029 137.512 118.885 138.454 119.429C139.426 119.99 140.197 120.032 140.767 119.555C141.337 119.072 141.622 118.111 141.622 116.674C141.622 115.176 141.345 113.851 140.793 112.699C140.24 111.547 139.484 110.693 138.524 110.139Z" fill="white"/>
</svg>
