<svg width="135" height="131" viewBox="0 0 135 131" fill="none" xmlns="http://www.w3.org/2000/svg">
<rect width="155.392" height="52.5209" transform="matrix(0.866009 0.500028 3.18609e-05 1 0.0429688 0.652344)" fill="#FF322A"/>
<path d="M24.5022 40.0132L22.8793 39.0761L21.5528 34.2598L16.2476 31.1966L14.9999 34.5266L13.3682 33.5845L18.1669 21.9068L19.6852 22.7834L24.5022 40.0132ZM21.0729 32.4613L19.1094 25.1714C19.0454 24.9329 18.9814 24.5735 18.9174 24.0933L18.8825 24.0731C18.8243 24.4493 18.7574 24.7331 18.6818 24.9245L16.7362 29.9573L21.0729 32.4613ZM33.577 45.2529L32.146 44.4266L32.1458 38.5424C32.1457 36.3526 31.4534 34.858 30.069 34.0586C29.3534 33.6454 28.7601 33.6152 28.2889 33.9678C27.8236 34.3171 27.5909 34.9653 27.591 35.9124L27.5911 41.7967L26.1601 40.9704L26.1598 30.6528L27.5908 31.4791L27.5909 33.192L27.6258 33.2121C28.3005 32.2986 29.2778 32.2113 30.5576 32.9502C31.5348 33.5145 32.2823 34.3122 32.8001 35.3433C33.3178 36.3677 33.5767 37.5684 33.5768 38.9454L33.577 45.2529ZM42.6779 50.5077L41.2469 49.6814L41.2468 48.0693L41.2119 48.0491C40.5895 48.9257 39.6734 49.0147 38.4634 48.3161C37.5734 47.8022 36.8753 47.1271 36.3692 46.2908C35.8689 45.4578 35.6188 44.5913 35.6187 43.6912C35.6187 41.7634 36.6017 41.2092 38.5679 42.0288L41.2467 43.1422C41.2466 41.3891 40.6329 40.1581 39.4055 39.4494C38.3293 38.828 37.3579 38.6903 36.4911 39.0362L36.4911 37.3435C37.3694 37.2058 38.3816 37.4678 39.5276 38.1295C41.6276 39.342 42.6776 41.2312 42.6777 43.7972L42.6779 50.5077ZM41.2467 44.4622L39.0915 43.5603C38.4283 43.2849 37.9281 43.1875 37.5907 43.2681C37.2533 43.3419 37.0846 43.7248 37.0846 44.4167C37.0847 44.9205 37.2388 45.4226 37.5471 45.923C37.8613 46.4201 38.2772 46.8181 38.7949 47.1171C39.5046 47.5268 40.0892 47.5789 40.5488 47.2733C41.0141 46.9643 41.2468 46.3698 41.2468 45.4899L41.2467 44.4622ZM41.4384 34.2151L39.1523 36.2L38.0442 35.5601L39.9899 33.3788L41.4384 34.2151ZM46.8052 52.8907L45.3742 52.0645L45.3737 36.7896L46.8047 37.6158L46.8052 52.8907ZM50.4347 42.0493C50.1787 41.9015 49.9606 41.6748 49.7802 41.3692C49.5999 41.0635 49.5097 40.7562 49.5097 40.4472C49.5097 40.1382 49.5999 39.935 49.7802 39.8377C49.9605 39.7335 50.1786 39.7554 50.4346 39.9032C50.6964 40.0543 50.9174 40.2861 51.0978 40.5984C51.2839 40.9074 51.377 41.2164 51.377 41.5254C51.377 41.821 51.284 42.0191 51.0978 42.1199C50.9175 42.224 50.6964 42.2005 50.4347 42.0493ZM51.1331 55.3897L49.7021 54.5634L49.7018 44.2458L51.1328 45.0721L51.1331 55.3897ZM53.4891 56.3772L53.489 54.6038C54.2685 55.7189 55.1266 56.5468 56.0631 57.0876C57.3196 57.8131 57.9479 57.6922 57.9478 56.7249C57.9478 56.4495 57.8926 56.1859 57.782 55.934C57.6773 55.6787 57.5319 55.4234 57.3457 55.1682C57.1654 54.9163 56.9502 54.661 56.7 54.4024C56.4557 54.1404 56.191 53.8633 55.906 53.5711C55.5104 53.1614 55.1614 52.7785 54.8589 52.4225C54.5622 52.0631 54.312 51.7104 54.1084 51.3645C53.9106 51.0152 53.7594 50.6625 53.6547 50.3065C53.5558 49.9539 53.5063 49.5794 53.5063 49.1831C53.5063 48.6994 53.6022 48.3283 53.7942 48.0697C53.9862 47.8044 54.2421 47.6398 54.562 47.576C54.882 47.5055 55.2455 47.524 55.6527 47.6315C56.0657 47.7423 56.4904 47.9237 56.9267 48.1756C57.7004 48.6223 58.3926 49.1765 59.0034 49.8382L59.0035 51.5107C58.3461 50.6341 57.5899 49.9489 56.7348 49.4552C56.4672 49.3007 56.2258 49.1983 56.0105 49.1479C55.7953 49.0908 55.6091 49.0807 55.4521 49.1176C55.3008 49.1579 55.1816 49.2436 55.0943 49.3745C55.0129 49.5022 54.9722 49.6735 54.9722 49.8884C54.9722 50.1571 55.0129 50.4056 55.0944 50.634C55.1817 50.8658 55.3067 51.0992 55.4696 51.3343C55.6325 51.5694 55.8303 51.8112 56.063 52.0598C56.2957 52.3083 56.5603 52.5854 56.857 52.891C57.2526 53.2941 57.6074 53.6803 57.9216 54.0498C58.2357 54.4125 58.5033 54.7753 58.7244 55.138C58.9454 55.494 59.1141 55.8568 59.2305 56.2262C59.3527 56.599 59.4137 56.9936 59.4138 57.4101C59.4138 57.9206 59.3149 58.3069 59.1171 58.5688C58.9252 58.8341 58.6663 58.997 58.3406 59.0575C58.0148 59.1179 57.6396 59.086 57.215 58.9617C56.7903 58.8374 56.3453 58.6409 55.8799 58.3722C54.9608 57.8416 54.1639 57.1765 53.4891 56.3772ZM62.354 48.9314C62.098 48.7837 61.8799 48.5569 61.6996 48.2513C61.5192 47.9457 61.429 47.6384 61.429 47.3294C61.429 47.0204 61.5192 46.8172 61.6995 46.7198C61.8798 46.6157 62.098 46.6375 62.3539 46.7853C62.6157 46.9364 62.8368 47.1682 63.0171 47.4806C63.2033 47.7895 63.2963 48.0985 63.2963 48.4075C63.2964 48.7031 63.2033 48.9012 63.0171 49.002C62.8368 49.1061 62.6158 49.0826 62.354 48.9314ZM63.0525 62.2718L61.6215 61.4455L61.6211 51.1279L63.0521 51.9542L63.0525 62.2718ZM65.4084 63.2593L65.4083 61.486C66.1879 62.601 67.0459 63.429 67.9825 63.9697C69.239 64.6952 69.8672 64.5743 69.8672 63.6071C69.8672 63.3316 69.8119 63.068 69.7014 62.8161C69.5966 62.5608 69.4512 62.3056 69.2651 62.0503C69.0847 61.7984 68.8695 61.5432 68.6193 61.2845C68.375 61.0226 68.1103 60.7455 67.8253 60.4533C67.4297 60.0435 67.0807 59.6606 66.7782 59.3046C66.4815 58.9452 66.2314 58.5926 66.0278 58.2466C65.83 57.8973 65.6787 57.5447 65.574 57.1886C65.4751 56.836 65.4256 56.4615 65.4256 56.0652C65.4256 55.5816 65.5216 55.2104 65.7135 54.9518C65.9055 54.6865 66.1614 54.5219 66.4814 54.4581C66.8013 54.3876 67.1649 54.4061 67.5721 54.5136C67.9851 54.6244 68.4097 54.8058 68.846 55.0577C69.6197 55.5044 70.3119 56.0586 70.9227 56.7203L70.9228 58.3929C70.2654 57.5163 69.5092 56.8311 68.6541 56.3373C68.3865 56.1828 68.1451 56.0804 67.9299 56.03C67.7146 55.9729 67.5285 55.9628 67.3714 55.9998C67.2202 56.0401 67.1009 56.1257 67.0137 56.2567C66.9322 56.3843 66.8915 56.5556 66.8915 56.7705C66.8915 57.0392 66.9323 57.2878 67.0137 57.5162C67.101 57.7479 67.2261 57.9813 67.3889 58.2164C67.5518 58.4515 67.7496 58.6934 67.9823 58.9419C68.215 59.1904 68.4797 59.4675 68.7764 59.7732C69.1719 60.1762 69.5268 60.5625 69.8409 60.9319C70.155 61.2947 70.4226 61.6574 70.6437 62.0201C70.8648 62.3762 71.0335 62.7389 71.1498 63.1083C71.272 63.4811 71.3331 63.8758 71.3331 64.2923C71.3331 64.8028 71.2342 65.189 71.0365 65.451C70.8445 65.7163 70.5856 65.8792 70.2599 65.9396C69.9341 66 69.5589 65.9681 69.1343 65.8438C68.7096 65.7196 68.2646 65.5231 67.7993 65.2544C66.8802 64.7237 66.0832 64.0587 65.4084 63.2593ZM17.4262 51.9498L17.4264 56.9272L14.6079 55.2999L14.6075 40.8512L19.0227 43.4005C22.1756 45.221 23.7521 47.6661 23.7522 50.7359C23.7522 52.1868 23.2985 53.1003 22.3911 53.4764C21.4895 53.8492 20.2824 53.5989 18.77 52.7257L17.4262 51.9498ZM17.426 44.9773L17.4261 49.4812L18.5343 50.1211C20.0351 50.9876 20.7855 50.6619 20.7854 49.1438C20.7854 47.6593 20.035 46.4838 18.5341 45.6172L17.426 44.9773ZM36.0819 67.6988L32.8447 65.8297L30.8987 60.9882C30.7533 60.6221 30.6137 60.2896 30.4799 59.9907C30.3461 59.6918 30.2094 59.4247 30.0698 59.1896C29.936 58.9512 29.7934 58.748 29.6422 58.58C29.4968 58.4087 29.3368 58.2727 29.1623 58.172L28.4031 57.7336L28.4033 63.2652L25.5849 61.6379L25.5844 47.1892L30.052 49.7688C33.0886 51.5221 34.6069 53.7086 34.607 56.3283C34.607 56.832 34.5401 57.2603 34.4063 57.6129C34.2725 57.9588 34.0835 58.2326 33.8392 58.4341C33.5949 58.6356 33.2982 58.7598 32.9492 58.8068C32.606 58.8572 32.2221 58.8303 31.7974 58.7262L31.7974 58.7665C31.9836 58.9412 32.1639 59.1561 32.3384 59.4114C32.5129 59.6599 32.6816 59.932 32.8445 60.2275C33.0074 60.5231 33.1616 60.8304 33.307 61.1495C33.4583 61.4652 33.595 61.7691 33.7171 62.0613L36.0819 67.6988ZM28.4029 51.2549L28.4031 55.2751L29.6247 55.9805C30.2296 56.3298 30.7154 56.4087 31.0818 56.2173C31.4541 56.0225 31.6402 55.6229 31.6402 55.0183C31.6402 53.7555 30.9857 52.7462 29.6769 51.9905L28.4029 51.2549ZM44.764 72.7118L37.2599 68.379L37.2595 53.9303L44.4756 58.0969L44.4757 60.7468L40.0779 58.2076L40.078 61.4217L44.1704 63.7846L44.1705 66.4245L40.0781 64.0616L40.0782 67.3664L44.7639 70.0719L44.764 72.7118ZM46.7709 73.8706L46.7705 59.4219L51.2031 61.9813C55.6474 64.5474 57.8697 68.1781 57.8698 72.8734C57.8699 75.1237 57.2621 76.5695 56.0463 77.211C54.8364 77.8558 53.2222 77.5955 51.2036 76.43L46.7709 73.8706ZM49.589 63.6992L49.5893 72.858L50.9854 73.6642C52.207 74.3695 53.1639 74.4988 53.8561 74.0522C54.5541 73.6089 54.9031 72.6584 54.9031 71.2008C54.903 69.8237 54.5569 68.5424 53.8646 67.3568C53.1782 66.1678 52.2125 65.214 50.9676 64.4952L49.589 63.6992ZM63.8118 69.2614L63.8119 71.7804L62.7648 71.1758L62.7651 80.5866L63.8122 81.1912L63.8123 83.7101L58.8997 80.8736L58.8996 78.3547L59.9467 78.9593L59.9464 69.5485L58.8993 68.9439L58.8992 66.425L63.8118 69.2614ZM74.5885 89.4184C73.6752 89.4016 72.4827 88.9683 71.011 88.1185C69.0913 87.0101 67.5818 85.4869 66.4823 83.549C65.3828 81.611 64.833 79.5572 64.833 77.3876C64.8329 75.0769 65.4494 73.5588 66.6826 72.8334C67.9216 72.1113 69.5272 72.3196 71.4992 73.4583C72.7208 74.1636 73.7504 74.9361 74.5881 75.7758L74.5882 78.9093C73.7505 77.848 72.7965 77.0083 71.7261 76.3903C70.5511 75.7118 69.6029 75.5909 68.8816 76.0275C68.1603 76.4641 67.7997 77.4112 67.7997 78.8688C67.7997 80.266 68.1401 81.5775 68.8207 82.8035C69.5013 84.0226 70.4176 84.9648 71.5694 85.6298C72.6688 86.2646 73.6752 86.5367 74.5884 86.446L74.5885 89.4184ZM85.5564 84.4665L81.9876 82.4059L81.9879 94.2046L79.1608 92.5722L79.1604 80.7735L75.6091 78.723L75.609 76.073L85.5563 81.8166L85.5564 84.4665ZM91.1059 85.0208L91.1059 87.5398L90.0589 86.9352L90.0592 96.346L91.1062 96.9506L91.1063 99.4695L86.1937 96.633L86.1937 94.1141L87.2407 94.7186L87.2404 85.3079L86.1934 84.7033L86.1933 82.1843L91.1059 85.0208ZM103.331 92.0793L99.0205 104.039L95.8269 102.195L91.5683 85.2879L94.6049 87.0411L97.2142 98.6032C97.3538 99.2279 97.4382 99.7569 97.4673 100.19L97.5196 100.22C97.5603 99.7938 97.6505 99.3522 97.7901 98.8954L100.381 90.3764L103.331 92.0793ZM110.085 110.679C108.293 109.645 106.833 108.13 105.704 106.135C104.576 104.133 104.012 102.051 104.011 99.8881C104.011 97.6042 104.584 96.0878 105.73 95.3389C106.876 94.59 108.394 94.7613 110.285 95.8529C112.071 96.884 113.514 98.3921 114.613 100.377C115.718 102.365 116.271 104.465 116.271 106.674C116.271 108.945 115.698 110.444 114.552 111.173C113.412 111.905 111.923 111.741 110.085 110.679ZM110.207 98.6086C109.218 98.0376 108.432 98.0141 107.851 98.538C107.269 99.0552 106.978 100.019 106.978 101.43C106.978 102.861 107.269 104.16 107.851 105.329C108.433 106.498 109.195 107.354 110.137 107.898C111.108 108.459 111.879 108.501 112.449 108.025C113.019 107.541 113.304 106.58 113.304 105.143C113.304 103.645 113.028 102.32 112.475 101.168C111.923 100.016 111.166 99.1628 110.207 98.6086Z" fill="white"/>
</svg>
