<svg width="158" height="142" viewBox="0 0 158 142" fill="none" xmlns="http://www.w3.org/2000/svg">
<rect width="176.936" height="52.5209" transform="matrix(0.866009 0.500028 3.18609e-05 1 0.957031 0.0615234)" fill="#FF322A"/>
<path d="M33.5295 52.8174L30.7459 51.2102L30.7457 42.5652C30.7456 41.6315 30.7805 40.6206 30.8503 39.5324L30.7805 39.4921C30.6351 40.2948 30.5042 40.8574 30.3879 41.1798L27.4563 49.3108L25.1528 47.9808L22.1683 36.5346C22.0868 36.2256 21.9559 35.4783 21.7755 34.2927L21.697 34.2474C21.7727 35.7151 21.8105 36.9863 21.8106 38.0611L21.8108 46.0512L19.2716 44.585L19.2712 30.1364L23.3984 32.5194L25.9553 42.56C26.159 43.3627 26.3073 44.1369 26.4004 44.8825L26.4528 44.9127C26.6098 44.2041 26.7756 43.6046 26.9501 43.1142L29.5064 36.0462L33.529 38.3687L33.5295 52.8174ZM41.6618 57.7649C39.8701 56.7304 38.41 55.2156 37.2815 53.2206C36.1529 51.2188 35.5886 49.1365 35.5885 46.9735C35.5884 44.6897 36.1614 43.1733 37.3073 42.4244C38.4532 41.6754 39.9715 41.8468 41.862 42.9384C43.6479 43.9695 45.0906 45.4776 46.1901 47.4625C47.2954 49.4509 47.8481 51.55 47.8481 53.76C47.8482 56.0304 47.2753 57.53 46.1293 58.2587C44.9892 58.9909 43.5 58.8263 41.6618 57.7649ZM41.7836 45.6941C40.7947 45.1231 40.0094 45.0996 39.4277 45.6235C38.846 46.1407 38.5552 47.1046 38.5552 48.5152C38.5553 49.946 38.8462 51.2458 39.4279 52.4146C40.0097 53.5834 40.7717 54.4398 41.7141 54.984C42.6856 55.5449 43.4563 55.5869 44.0264 55.11C44.5964 54.6264 44.8814 53.6658 44.8814 52.2283C44.8813 50.7304 44.605 49.4054 44.0523 48.2534C43.4997 47.1014 42.7434 46.2483 41.7836 45.6941ZM61.19 68.7884L58.3454 67.146L53.1882 55.0901C52.8857 54.3848 52.6763 53.8642 52.5599 53.5284L52.525 53.5082C52.5716 54.0456 52.5949 54.8382 52.5949 55.8861L52.5951 63.8258L49.9338 62.2892L49.9333 47.8405L52.9699 49.5938L57.9351 61.2567C58.162 61.784 58.3714 62.2978 58.5634 62.7983L58.5983 62.8184C58.5518 62.4557 58.5285 61.7806 58.5284 60.7932L58.5282 52.8031L61.1895 54.3397L61.19 68.7884ZM67.917 58.2242L67.9171 60.7431L66.87 60.1385L66.8703 69.5493L67.9174 70.1539L67.9175 72.6728L63.0049 69.8363L63.0048 67.3174L64.0519 67.922L64.0516 58.5112L63.0045 57.9066L63.0045 55.3877L67.917 58.2242ZM78.5102 66.9904L74.9413 64.9298L74.9417 76.7285L72.1146 75.0962L72.1142 63.2974L68.5628 61.2469L68.5628 58.597L78.5101 64.3405L78.5102 66.9904ZM84.8192 82.6836C83.0276 81.6491 81.5674 80.1344 80.4389 78.1393C79.3103 76.1376 78.746 74.0552 78.7459 71.8923C78.7458 69.6085 79.3188 68.0921 80.4647 67.3431C81.6106 66.5942 83.1289 66.7655 85.0194 67.8571C86.8053 68.8883 88.248 70.3963 89.3475 72.3813C90.4528 74.3696 91.0055 76.4688 91.0055 78.6787C91.0056 80.9491 90.4327 82.4487 89.2867 83.1775C88.1466 83.9096 86.6574 83.745 84.8192 82.6836ZM84.941 70.6129C83.9521 70.0419 83.1668 70.0183 82.5851 70.5423C82.0034 71.0595 81.7126 72.0234 81.7126 73.434C81.7127 74.8647 82.0036 76.1645 82.5853 77.3333C83.1671 78.5021 83.9291 79.3586 84.8715 79.9027C85.843 80.4637 86.6137 80.5057 87.1838 80.0288C87.7538 79.5451 88.0388 78.5846 88.0388 77.1471C88.0387 75.6492 87.7624 74.3242 87.2097 73.1722C86.6571 72.0202 85.9008 71.1671 84.941 70.6129ZM103.588 93.2689L100.351 91.3997L98.4051 86.5582C98.2596 86.1921 98.12 85.8596 97.9862 85.5607C97.8524 85.2618 97.7157 84.9948 97.5761 84.7597C97.4423 84.5212 97.2997 84.318 97.1485 84.1501C97.0031 83.9788 96.8431 83.8427 96.6686 83.742L95.9094 83.3037L95.9096 88.8353L93.0912 87.2079L93.0907 72.7593L97.5583 75.3388C100.595 77.0921 102.113 79.2786 102.113 81.8983C102.113 82.4021 102.046 82.8303 101.913 83.1829C101.779 83.5289 101.59 83.8026 101.345 84.0041C101.101 84.2056 100.805 84.3299 100.455 84.3769C100.112 84.4272 99.7284 84.4004 99.3037 84.2962L99.3037 84.3365C99.4899 84.5112 99.6702 84.7261 99.8447 84.9814C100.019 85.2299 100.188 85.502 100.351 85.7976C100.514 86.0931 100.668 86.4004 100.813 86.7195C100.965 87.0352 101.101 87.3392 101.223 87.6314L103.588 93.2689ZM95.9092 76.8249L95.9094 80.8452L97.131 81.5505C97.7359 81.8998 98.2217 81.9788 98.5881 81.7873C98.9604 81.5926 99.1466 81.1929 99.1465 80.5883C99.1465 79.3255 98.492 78.3162 97.1832 77.5605L95.9092 76.8249ZM108.631 81.7322L108.631 84.2512L107.584 83.6466L107.585 93.0574L108.632 93.662L108.632 96.1809L103.719 93.3444L103.719 90.8255L104.766 91.4301L104.766 82.0193L103.719 81.4147L103.719 78.8958L108.631 81.7322ZM121.694 103.723L118.85 102.081L113.692 90.0248C113.39 89.3195 113.18 88.7989 113.064 88.463L113.029 88.4429C113.076 88.9802 113.099 89.7729 113.099 90.8207L113.099 98.7605L110.438 97.2238L110.437 82.7751L113.474 84.5284L118.439 96.1913C118.666 96.7186 118.876 97.2325 119.068 97.7329L119.102 97.7531C119.056 97.3903 119.033 96.7153 119.033 95.7278L119.032 87.7377L121.694 89.2744L121.694 103.723ZM134.826 110.338C133.605 110.446 132.086 109.975 130.271 108.927C128.259 107.765 126.671 106.207 125.507 104.252C124.35 102.294 123.771 100.187 123.771 97.9295C123.771 95.6591 124.405 94.1747 125.673 93.4761C126.941 92.7776 128.628 93.0362 130.733 94.2521C132.06 95.0179 133.229 95.9046 134.241 96.9122L134.241 99.9652C133.276 98.7628 132.095 97.7585 130.699 96.9524C129.529 96.2773 128.575 96.1664 127.837 96.6198C127.104 97.0698 126.737 98.027 126.737 99.4914C126.737 100.976 127.066 102.314 127.723 103.507C128.387 104.702 129.28 105.624 130.402 106.272C131.077 106.662 131.612 106.86 132.008 106.867L132.008 104.046L129.503 102.6L129.503 100L134.826 103.074L134.826 110.338Z" fill="white"/>
</svg>
