<svg width="202" height="121" viewBox="0 0 202 121" fill="none" xmlns="http://www.w3.org/2000/svg">
<g opacity="0.15">
<path d="M153.999 56.2819L153.999 56.2823L152.487 57.8814C151.612 58.8074 151.132 59.8071 151.04 60.804C151.029 60.9235 151.023 61.0429 151.023 61.1621C151.024 62.0374 151.321 62.9217 151.928 63.7671C152.62 64.7305 153.695 65.615 155.095 66.3411C156.494 67.0663 158.167 67.6071 159.995 67.9175L159.995 67.9176L163.02 68.4337L153.999 56.2819ZM153.999 56.2819C155.206 55.0033 155.782 53.6595 155.782 52.3304C155.782 50.8602 155.078 49.4973 153.931 48.345C152.785 47.1932 151.175 46.2277 149.29 45.5325C145.521 44.1423 140.574 43.803 135.809 45.299L135.809 45.2991M153.999 56.2819L135.809 45.2991M135.809 45.2991L133.036 46.1714C131.371 46.695 129.517 46.9987 127.612 47.0573C125.707 47.1158 123.805 46.9274 122.049 46.5078C120.291 46.0879 118.732 45.4495 117.483 44.6477C116.232 43.8452 115.337 42.9097 114.834 41.9244C114.834 41.9242 114.834 41.9241 114.834 41.9239L113.952 40.1808L113.951 40.1788M135.809 45.2991L113.951 40.1788M113.951 40.1788C112.96 38.2427 111.052 36.8318 108.757 35.9073C106.458 34.9808 103.726 34.5232 101.007 34.5232C98.2884 34.5232 95.557 34.9808 93.2592 35.9073C90.9667 36.8318 89.0607 38.2426 88.0726 40.1786C88.0725 40.1789 88.0723 40.1791 88.0722 40.1793L87.1778 41.9231L87.1777 41.9234M113.951 40.1788L87.1777 41.9234M87.1777 41.9234C86.0909 44.045 83.3887 45.6886 79.9608 46.5075C76.554 47.3213 72.5397 47.2907 68.9749 46.1714C68.9749 46.1714 68.9748 46.1714 68.9747 46.1713L66.2021 45.2991L66.2018 45.299M87.1777 41.9234L66.2018 45.299M66.2018 45.299C61.4373 43.803 56.4899 44.1423 52.7211 45.5325C50.8365 46.2277 49.2263 47.1932 48.0798 48.345C46.9328 49.4973 46.2288 50.8602 46.2288 52.3304C46.2288 53.6595 46.8049 55.0033 48.0119 56.2819L48.0122 56.2823M66.2018 45.299L48.0122 56.2823M48.0122 56.2823L49.5245 57.8814C50.3996 58.8074 50.8793 59.8071 50.9714 60.804C50.9823 60.9228 50.9878 61.0415 50.9878 61.16C50.9881 62.036 50.6904 62.9211 50.0829 63.7671C49.391 64.7305 48.3166 65.615 46.9163 66.3411C45.5177 67.0663 43.8441 67.6071 42.0165 67.9175L38.9923 68.4263L38.9914 68.4264M48.0122 56.2823L38.9914 68.4264M38.9914 68.4264C32.6836 69.5008 29.2382 72.6739 29.238 76.1134C29.2379 79.5534 32.6835 82.7248 38.9917 83.7955L42.0162 84.3116L42.0165 84.3117M38.9914 68.4264L42.0165 84.3117M42.0165 84.3117C43.8441 84.6221 45.5177 85.1629 46.9164 85.8881C48.3166 86.6142 49.391 87.4987 50.0829 88.4621C50.6899 89.3075 50.9876 90.1918 50.9878 91.0671C50.9879 91.1863 50.9824 91.3057 50.9714 91.4252C50.8793 92.4221 50.3996 93.4218 49.5245 94.3478L48.0122 95.9469L48.0118 95.9473M42.0165 84.3117L48.0118 95.9473M48.0118 95.9473C46.8049 97.2259 46.2288 98.5697 46.2288 99.8988C46.2288 101.369 46.9328 102.732 48.0798 103.884C49.2263 105.036 50.8365 106.001 52.721 106.697C56.4898 108.087 61.4373 108.426 66.2018 106.93L66.2021 106.93M48.0118 95.9473L66.2021 106.93M66.2021 106.93L68.9749 106.058C70.6404 105.534 72.4942 105.23 74.3995 105.172C76.3046 105.113 78.206 105.302 79.9627 105.721C81.7203 106.141 83.2789 106.78 84.5287 107.582C85.7793 108.384 86.6735 109.319 87.1768 110.304C87.177 110.305 87.1772 110.305 87.1774 110.305L88.0588 112.048L88.0599 112.05M66.2021 106.93L88.0599 112.05M88.0599 112.05C89.0512 113.986 90.9595 115.397 93.2538 116.322C95.5531 117.248 98.2852 117.706 101.004 117.706C103.723 117.706 106.454 117.248 108.752 116.322C111.045 115.397 112.951 113.986 113.939 112.05L114.833 110.306L114.834 110.305M88.0599 112.05L114.834 110.305M114.834 110.305C115.337 109.32 116.231 108.384 117.482 107.582C118.732 106.78 120.291 106.141 122.049 105.721C123.805 105.302 125.707 105.113 127.612 105.172C129.517 105.23 131.371 105.534 133.036 106.058L135.809 106.93L135.809 106.93M114.834 110.305L135.809 106.93M135.809 106.93C140.574 108.426 145.521 108.087 149.29 106.697C151.175 106.001 152.785 105.036 153.931 103.884C155.078 102.732 155.782 101.369 155.782 99.8988C155.782 98.5697 155.206 97.2259 153.999 95.9473L153.999 95.9469M135.809 106.93L153.999 95.9469M153.999 95.9469L152.487 94.3478C151.612 93.4218 151.132 92.4221 151.04 91.4252C151.029 91.3064 151.023 91.1877 151.023 91.0692C151.023 90.1932 151.321 89.3081 151.928 88.4621C152.62 87.4987 153.695 86.6142 155.095 85.8881C156.494 85.1629 158.167 84.6221 159.995 84.3117L163.019 83.8029L163.02 83.8028M153.999 95.9469L163.02 83.8028M163.02 83.8028C169.328 82.7284 172.773 79.5553 172.773 76.1158M163.02 83.8028L172.773 76.1158M172.773 76.1158C172.773 72.6759 169.328 69.5045 163.02 68.4337L172.773 76.1158ZM82.7878 86.3508L82.5535 86.2157L82.5424 86.2221C77.8727 83.4585 75.3616 79.8151 75.3616 76.1146C75.3616 72.3531 77.9562 68.6506 82.7752 65.8711C87.5867 63.096 94.1439 61.5226 101.006 61.5226C107.867 61.5226 114.425 63.096 119.236 65.8711C124.053 68.6496 126.647 72.3508 126.647 76.111C126.647 79.8712 124.053 83.5723 119.236 86.3508C114.426 89.125 107.871 90.6979 101.012 90.6979C94.1525 90.6979 87.5976 89.125 82.7878 86.3508Z" fill="#C2C2C2" stroke="white" stroke-width="0.937963"/>
<path d="M88.4922 26.206C92.1662 19.0056 109.849 19.0056 113.536 26.206V40.3924C109.849 33.192 92.1662 33.192 88.4922 40.3924V26.206Z" fill="#C2C2C2"/>
<path d="M87.5977 27.9507L88.4925 26.2061V40.3925L87.5977 42.1372V27.9507Z" fill="#C2C2C2"/>
<path d="M113.535 26.2061L114.417 27.9507V42.1372L113.535 40.3925V26.2061Z" fill="#C2C2C2"/>
<path d="M114.418 27.9502C114.968 29.0276 115.929 30.0202 117.231 30.8554V45.0419C115.929 44.2067 114.968 43.214 114.418 42.1366V27.9502Z" fill="#C2C2C2"/>
<path d="M68.8359 32.4318C76.1399 34.7253 85.2399 32.5518 87.5968 27.9502V42.1366C85.2399 46.7382 76.1399 48.9118 68.8359 46.6183V32.4318Z" fill="#C2C2C2"/>
<path d="M117.23 30.8555C118.532 31.6907 120.142 32.3472 121.941 32.777V46.9634C120.142 46.5337 118.532 45.8771 117.23 45.0419V30.8555Z" fill="#C2C2C2"/>
<path d="M66.0586 31.5605L68.8315 32.4329V46.6193L66.0586 45.747V31.5605Z" fill="#C2C2C2"/>
<path d="M133.176 32.4329L135.949 31.5605V45.747L133.176 46.6193V32.4329Z" fill="#C2C2C2"/>
<path d="M127.625 33.3399C129.569 33.2801 131.466 32.9701 133.176 32.4326V46.6191C131.466 47.1566 129.569 47.4666 127.625 47.5263V33.3399Z" fill="#C2C2C2"/>
<path d="M121.938 32.7773C123.737 33.2071 125.68 33.3992 127.624 33.3394V47.5259C125.68 47.5856 123.737 47.3936 121.938 46.9638V32.7773Z" fill="#C2C2C2"/>
<path d="M46.6953 38.1431C46.6952 32.8947 56.7358 28.6318 66.0589 31.5591V45.7456C56.7358 42.8182 46.6952 47.0812 46.6953 52.3295V38.1431Z" fill="#C2C2C2"/>
<path d="M135.949 31.5591C145.272 28.6318 155.313 32.8947 155.313 38.1431V52.3295C155.313 47.0812 145.272 42.8182 135.949 45.7456V31.5591Z" fill="#C2C2C2"/>
<path d="M48.3504 41.7742C47.2059 40.5616 46.6953 39.328 46.6953 38.1445V52.331C46.6953 53.5145 47.2059 54.7481 48.3504 55.9606V41.7742Z" fill="#C2C2C2"/>
<path d="M155.311 38.1445C155.311 39.328 154.801 40.5616 153.656 41.7742V55.9606C154.801 54.7481 155.311 53.5145 155.311 52.331V38.1445Z" fill="#C2C2C2"/>
<path d="M49.864 43.3727L48.3516 41.7734V55.9599L49.864 57.5592V43.3727Z" fill="#C2C2C2"/>
<path d="M153.661 41.7734L152.148 43.3727V57.5592L153.661 55.9599V41.7734Z" fill="#C2C2C2"/>
<path d="M51.4402 46.5746C51.3366 45.4531 50.7992 44.3592 49.8672 43.373V57.5595C50.7992 58.5456 51.3366 59.6395 51.4402 60.761V46.5746Z" fill="#C2C2C2"/>
<path d="M152.147 43.373C151.215 44.3592 150.678 45.4531 150.574 46.5746V60.761C150.678 59.6395 151.215 58.5456 152.147 57.5595V43.373Z" fill="#C2C2C2"/>
<path d="M51.456 46.9732C51.4559 46.8403 51.4498 46.7073 51.4375 46.5742V60.7607C51.4498 60.8937 51.4559 61.0268 51.456 61.1597V46.9732Z" fill="#C2C2C2"/>
<path d="M150.573 46.5742C150.561 46.7081 150.555 46.8419 150.555 46.9756V61.1597C150.555 61.0268 150.561 60.8937 150.573 60.7607V46.5742Z" fill="#C2C2C2"/>
<path d="M50.4648 49.8544C51.121 48.9406 51.4576 47.9624 51.4579 46.976V61.1601C51.4581 62.1473 51.1216 63.1263 50.4648 64.0408V49.8544Z" fill="#C2C2C2"/>
<path d="M150.555 46.9766C150.555 47.963 150.892 48.9412 151.548 49.855V64.0414C150.892 63.1277 150.555 62.1495 150.555 61.163V46.9766Z" fill="#C2C2C2"/>
<path d="M101.004 46.8672C94.0782 46.8672 87.4362 48.454 82.5391 51.2785V65.4649C87.4362 62.6404 94.0782 61.0536 101.004 61.0536V46.8672Z" fill="#C2C2C2"/>
<path d="M119.472 51.2785C114.575 48.454 107.933 46.8672 101.008 46.8672V61.0536C107.933 61.0536 114.575 62.6404 119.472 65.4649V51.2785Z" fill="#C2C2C2"/>
<path d="M47.1328 52.5712C48.5809 51.8204 49.7193 50.8921 50.4644 49.8545V64.0409C49.7193 65.0786 48.5809 66.0068 47.1328 66.7577V52.5712Z" fill="#C2C2C2"/>
<path d="M151.547 49.8545C152.292 50.8921 153.43 51.8204 154.878 52.5712V66.7577C153.43 66.0068 152.292 65.0786 151.547 64.0409V49.8545Z" fill="#C2C2C2"/>
<path d="M42.0938 54.1938C43.9617 53.8765 45.6828 53.3221 47.1309 52.5713V66.7577C45.6828 67.5086 43.9617 68.063 42.0938 68.3802V54.1938Z" fill="#C2C2C2"/>
<path d="M154.879 52.5713C156.327 53.3221 158.048 53.8765 159.916 54.1938V68.3802C158.048 68.063 156.327 67.5086 154.879 66.7577V52.5713Z" fill="#C2C2C2"/>
<path d="M39.0664 54.7022L42.0913 54.1934V68.3798L39.0664 68.8887V54.7022Z" fill="#C2C2C2"/>
<path d="M159.914 54.1934L162.939 54.7095V68.8959L159.914 68.3798V54.1934Z" fill="#C2C2C2"/>
<path d="M127.114 61.9244C127.114 57.9314 124.364 54.1018 119.469 51.2783V65.4648C124.364 68.2883 127.114 72.1178 127.114 76.1109V61.9244Z" fill="#C2C2C2"/>
<path d="M82.5429 51.2783C77.6457 54.1028 74.8945 57.9336 74.8945 61.9281V76.1145C74.8945 72.1201 77.6457 68.2893 82.5429 65.4648V51.2783Z" fill="#C2C2C2"/>
<path d="M29.707 61.9269C29.7072 58.8465 32.8282 55.7653 39.0701 54.7021V68.8886C32.8282 69.9517 29.7072 73.0329 29.707 76.1133V61.9269Z" fill="#C2C2C2"/>
<path d="M162.941 54.71C169.184 55.7695 172.305 58.8492 172.305 61.9297V76.1157C172.304 73.0353 169.183 69.9559 162.941 68.8964V54.71Z" fill="#C2C2C2"/>
<path d="M39.0701 69.1465C32.8282 68.087 29.7072 65.0076 29.707 61.9272L29.707 76.1132C29.7069 79.1937 32.8279 82.2734 39.0701 83.3329V69.1465Z" fill="#C2C2C2"/>
<path d="M172.305 61.9297C172.304 65.01 169.183 68.0913 162.941 69.1544V83.3408C169.183 82.2777 172.304 79.1965 172.305 76.1161V61.9297Z" fill="#C2C2C2"/>
<path d="M119.469 72.5709C124.364 69.7474 127.114 65.9179 127.114 61.9248V76.1113C127.114 80.1043 124.364 83.9338 119.469 86.7574V72.5709Z" fill="#C2C2C2"/>
<path d="M74.8945 61.9277C74.8945 65.9222 77.6457 69.753 82.5429 72.5775V86.7639C77.6457 83.9394 74.8945 80.1086 74.8945 76.1142V61.9277Z" fill="#C2C2C2"/>
<path d="M42.0913 69.6626L39.0664 69.1465V83.3329L42.0913 83.8491V69.6626Z" fill="#C2C2C2"/>
<path d="M162.939 69.1543L159.914 69.6632V83.8496L162.939 83.3408V69.1543Z" fill="#C2C2C2"/>
<path d="M47.1309 71.2856C45.6828 70.5347 43.9617 69.9804 42.0938 69.6631V83.8495C43.9617 84.1668 45.6828 84.7212 47.1309 85.472V71.2856Z" fill="#C2C2C2"/>
<path d="M159.916 69.6631C158.048 69.9804 156.327 70.5347 154.879 71.2856V85.472C156.327 84.7212 158.048 84.1668 159.916 83.8495V69.6631Z" fill="#C2C2C2"/>
<path d="M82.5391 72.5776L82.5517 72.5703V86.7568L82.5391 86.764V72.5776Z" fill="#C2C2C2"/>
<path d="M50.4644 74.0019C49.7193 72.9643 48.5809 72.036 47.1328 71.2852V85.4716C48.5809 86.2225 49.7193 87.1507 50.4644 88.1884V74.0019Z" fill="#C2C2C2"/>
<path d="M154.878 71.2852C153.43 72.036 152.292 72.9643 151.547 74.0019V88.1884C152.292 87.1507 153.43 86.2225 154.878 85.4716V71.2852Z" fill="#C2C2C2"/>
<path d="M101.012 76.9801C107.935 76.9801 114.575 75.3938 119.47 72.5703V86.7568C114.575 89.5803 107.935 91.1665 101.012 91.1665V76.9801Z" fill="#C2C2C2"/>
<path d="M82.5547 72.5703C87.4502 75.3938 94.0898 76.9801 101.013 76.9801V91.1665C94.0898 91.1665 87.4502 89.5803 82.5547 86.7568V72.5703Z" fill="#C2C2C2"/>
<path d="M51.4579 76.8804C51.4576 75.8939 51.121 74.9157 50.4648 74.002V88.1884C51.121 89.1022 51.4576 90.0804 51.4579 91.0668V76.8804Z" fill="#C2C2C2"/>
<path d="M151.548 74.002C150.891 74.9165 150.554 75.8955 150.555 76.8827V91.0668C150.555 90.0804 150.892 89.1022 151.548 88.1884V74.002Z" fill="#C2C2C2"/>
<path d="M51.456 76.8799C51.456 76.8807 51.456 76.8814 51.456 76.8822V76.8799Z" fill="#C2C2C2"/>
<path d="M51.456 76.8799C51.456 76.8807 51.456 76.8814 51.456 76.8822V91.0663C51.456 91.2 51.4499 91.3339 51.4375 91.4677V77.2813C51.4498 77.1482 51.4559 77.0151 51.456 76.8822V76.8799Z" fill="#C2C2C2"/>
<path d="M150.555 76.8828C150.555 77.0157 150.561 77.1488 150.573 77.2818V91.4683C150.561 91.3352 150.555 91.2022 150.555 91.0693V76.8828Z" fill="#C2C2C2"/>
<path d="M49.8672 80.4838C50.7992 79.4977 51.3366 78.4037 51.4402 77.2822V91.4687C51.3366 92.5902 50.7992 93.6841 49.8672 94.6702V80.4838Z" fill="#C2C2C2"/>
<path d="M150.574 77.2822C150.678 78.4037 151.215 79.4977 152.147 80.4838V94.6702C151.215 93.6841 150.678 92.5902 150.574 91.4687V77.2822Z" fill="#C2C2C2"/>
<path d="M48.3516 82.0827L49.864 80.4834V94.6699L48.3516 96.2691V82.0827Z" fill="#C2C2C2"/>
<path d="M152.148 80.4834L153.661 82.0827V96.2691L152.148 94.6699V80.4834Z" fill="#C2C2C2"/>
<path d="M46.6953 85.7126C46.6953 84.5292 47.2059 83.2956 48.3504 82.083V96.2695C47.2059 97.482 46.6953 98.7156 46.6953 99.8991V85.7126Z" fill="#C2C2C2"/>
<path d="M153.656 82.083C154.801 83.2956 155.311 84.5292 155.311 85.7126V99.8991C155.311 98.7156 154.801 97.482 153.656 96.2695V82.083Z" fill="#C2C2C2"/>
<path d="M66.0589 92.2959C56.7358 95.2232 46.6952 90.9603 46.6953 85.7119V99.8984C46.6952 105.147 56.7358 109.41 66.0589 106.482V92.2959Z" fill="#C2C2C2"/>
<path d="M155.313 85.7119C155.313 90.9602 145.272 95.2232 135.949 92.2959V106.482C145.272 109.41 155.313 105.147 155.313 99.8984V85.7119Z" fill="#C2C2C2"/>
<path d="M80.0733 91.0786C78.2742 90.6488 76.3312 90.4568 74.3867 90.5165V104.703C76.3312 104.643 78.2742 104.835 80.0733 105.265V91.0786Z" fill="#C2C2C2"/>
<path d="M127.624 90.5165C125.68 90.4568 123.737 90.6488 121.938 91.0786V105.265C123.737 104.835 125.68 104.643 127.624 104.703V90.5165Z" fill="#C2C2C2"/>
<path d="M74.3868 90.5166C72.4423 90.5763 70.5457 90.8863 68.8359 91.4238V105.61C70.5457 105.073 72.4423 104.763 74.3868 104.703V90.5166Z" fill="#C2C2C2"/>
<path d="M133.176 91.4238C131.466 90.8863 129.569 90.5763 127.625 90.5166V104.703C129.569 104.763 131.466 105.073 133.176 105.61V91.4238Z" fill="#C2C2C2"/>
<path d="M68.8315 91.4238L66.0586 92.2962V106.483L68.8315 105.61V91.4238Z" fill="#C2C2C2"/>
<path d="M135.949 92.2962L133.176 91.4238V105.61L135.949 106.483V92.2962Z" fill="#C2C2C2"/>
<path d="M84.7807 93.0006C83.4788 92.1654 81.8694 91.5089 80.0703 91.0791V105.266C81.8694 105.695 83.4788 106.352 84.7807 107.187V93.0006Z" fill="#C2C2C2"/>
<path d="M121.941 91.0791C120.142 91.5089 118.532 92.1654 117.23 93.0006V107.187C118.532 106.352 120.142 105.695 121.941 105.266V91.0791Z" fill="#C2C2C2"/>
<path d="M87.5944 95.9053C87.0443 94.8279 86.0831 93.8352 84.7812 93V107.186C86.0831 108.022 87.0443 109.014 87.5944 110.092V95.9053Z" fill="#C2C2C2"/>
<path d="M117.231 93C115.929 93.8352 114.968 94.8279 114.418 95.9053V110.092C114.968 109.014 115.929 108.022 117.231 107.186V93Z" fill="#C2C2C2"/>
<path d="M88.4799 97.6509L87.5977 95.9062V110.093L88.4799 111.837V97.6509Z" fill="#C2C2C2"/>
<path d="M114.418 95.9062L113.523 97.6509V111.837L114.418 110.093V95.9062Z" fill="#C2C2C2"/>
<path d="M113.524 97.6504C109.85 104.851 92.1671 104.851 88.4805 97.6504V111.837C92.1671 119.037 109.85 119.037 113.524 111.837V97.6504Z" fill="#C2C2C2"/>
<path d="M133.454 32.7223L133.454 32.7222L136.227 31.85C147.149 28.4205 159.102 35.3145 153.156 41.6141L151.644 43.2132L151.644 43.2133C150.671 44.2428 150.109 45.3849 150.001 46.5558C149.893 47.7267 150.241 48.8967 151.019 49.98C151.797 51.0633 152.985 52.0325 154.497 52.8164C156.009 53.6002 157.805 54.1789 159.755 54.5102C159.755 54.5102 159.755 54.5102 159.755 54.5102C159.756 54.5103 159.756 54.5103 159.756 54.5103L162.78 55.0263L162.781 55.0265C174.714 57.052 174.717 66.8021 162.781 68.8351C162.781 68.8352 162.781 68.8352 162.781 68.8352L159.757 69.3437L159.756 69.344C157.806 69.6752 156.009 70.254 154.497 71.0379C152.985 71.8218 151.797 72.791 151.019 73.8743C150.241 74.9576 149.893 76.1276 150.001 77.2985C150.109 78.4694 150.671 79.6115 151.644 80.641L151.644 80.6411L153.156 82.2402C159.102 88.5398 147.149 95.4338 136.227 92.0043L133.454 91.1321L133.454 91.132C131.669 90.5708 129.689 90.2472 127.659 90.1848C125.629 90.1225 123.6 90.323 121.722 90.7717C119.844 91.2204 118.163 91.9058 116.804 92.7778C115.445 93.6498 114.442 94.6862 113.867 95.811L112.973 97.5553L112.972 97.5557C109.46 104.438 92.5559 104.44 89.0307 97.5558C89.0307 97.5557 89.0306 97.5555 89.0306 97.5554L88.1488 95.8118L88.1484 95.811C87.5741 94.6862 86.5706 93.6498 85.2114 92.7778C83.8523 91.9058 82.1719 91.2204 80.2937 90.7717C78.4154 90.323 76.3868 90.1225 74.3567 90.1848C72.3266 90.2472 70.3464 90.5708 68.5614 91.132L68.5613 91.1321L65.7888 92.0043C54.8664 95.4338 42.9135 88.5398 48.8597 82.2402L50.3719 80.6411L50.372 80.641C51.345 79.6115 51.9062 78.4694 52.0143 77.2985C52.1224 76.1276 51.7747 74.9576 50.9968 73.8743C50.2189 72.791 49.0304 71.8218 47.5185 71.0379C46.0067 70.254 44.2098 69.6752 42.2596 69.344L39.2353 68.828L39.2345 68.8278C27.3016 66.8024 27.2991 57.0529 39.2336 55.0194C39.2341 55.0193 39.2346 55.0192 39.2351 55.0191L42.2581 54.5106L42.2596 54.5103C44.2098 54.1791 46.0067 53.6003 47.5185 52.8164C49.0304 52.0325 50.2189 51.0633 50.9968 49.98C51.7747 48.8967 52.1224 47.7267 52.0143 46.5558C51.9062 45.3849 51.345 44.2428 50.372 43.2133L50.3719 43.2132L48.8597 41.6141C42.9135 35.3145 54.8664 28.4205 65.7889 31.85L68.5613 32.7222L68.5617 32.7224C76.187 35.1168 85.6876 32.8474 88.1482 28.0437C88.1482 28.0437 88.1483 28.0436 88.1483 28.0436L89.0431 26.299L89.0433 26.2986C92.5552 19.416 109.459 19.4146 112.985 26.2984C112.985 26.2986 112.985 26.2987 112.985 26.2989L113.867 28.0425L113.867 28.0433C114.442 29.1681 115.445 30.2045 116.804 31.0765C118.163 31.9485 119.844 32.6339 121.722 33.0826C123.6 33.5313 125.629 33.7318 127.659 33.6695C129.689 33.6071 131.669 33.2835 133.454 32.7223ZM82.1369 72.8112L82.5431 73.0455L82.5601 73.0357C87.5207 75.7763 94.1302 77.3108 101.014 77.3108C108.09 77.3108 114.876 75.6896 119.879 72.804C124.882 69.9183 127.693 66.0045 127.693 61.9235C127.693 57.8426 124.882 53.9288 119.879 51.0431C114.874 48.1564 108.086 46.5348 101.008 46.5348C93.9298 46.5348 87.1418 48.1564 82.1369 51.0431C77.132 53.9297 74.3203 57.8448 74.3203 61.9272C74.3203 66.0095 77.132 69.9246 82.1369 72.8112Z" fill="#999999" fill-opacity="0.88" stroke="white" stroke-width="0.937963"/>
</g>
<path fill-rule="evenodd" clip-rule="evenodd" d="M77.0898 68.154C77.0898 70.3434 79.4059 72.5328 84.0381 74.2032C93.3025 77.5441 108.323 77.5441 117.587 74.2032C122.22 72.5328 124.536 70.3434 124.536 68.154V8.57443C124.536 6.38504 122.22 4.19565 117.587 2.5252C108.323 -0.815693 93.3025 -0.815693 84.0381 2.5252C79.4059 4.19565 77.0898 6.38504 77.0898 8.57443V68.154Z" fill="url(#paint0_linear_482_7569)" fill-opacity="0.45"/>
<defs>
<linearGradient id="paint0_linear_482_7569" x1="100.813" y1="0.0195312" x2="100.813" y2="76.7089" gradientUnits="userSpaceOnUse">
<stop stop-color="#00BAE2" stop-opacity="0"/>
<stop offset="0.484412" stop-color="#00C0EA" stop-opacity="0.399141"/>
<stop offset="1" stop-color="#00D0FE"/>
</linearGradient>
</defs>
</svg>
