<svg width="202" height="122" viewBox="0 0 202 122" fill="none" xmlns="http://www.w3.org/2000/svg">
<g opacity="0.15">
<path d="M153.824 57.2295L153.823 57.2298L152.311 58.8289C152.311 58.829 152.311 58.829 152.311 58.8291C151.436 59.755 150.956 60.7546 150.864 61.7514C150.853 61.8708 150.848 61.9902 150.848 62.1095C150.848 62.9848 151.146 63.869 151.753 64.7144C152.444 65.6778 153.519 66.5622 154.919 67.2882C156.318 68.0134 157.991 68.5543 159.819 68.8647L159.819 68.8647L162.844 69.3808C169.152 70.4515 172.598 73.6228 172.597 77.0626C172.597 80.5021 169.152 83.6751 162.844 84.7494L162.843 84.7496L159.819 85.2583C157.991 85.5687 156.318 86.1095 154.919 86.8347C153.519 87.5607 152.444 88.4452 151.753 89.4086C151.145 90.2546 150.847 91.1396 150.848 92.0156C150.848 92.1341 150.853 92.2528 150.864 92.3716C150.956 93.3684 151.436 94.368 152.311 95.2939C152.311 95.2939 152.311 95.294 152.311 95.294L153.823 96.8931L153.824 96.8935C155.031 98.1721 155.607 99.5158 155.607 100.845C155.607 102.315 154.903 103.678 153.756 104.83C152.609 105.982 150.999 106.947 149.114 107.643C145.346 109.033 140.398 109.372 135.634 107.876L135.633 107.876L132.861 107.004C131.195 106.48 129.341 106.176 127.436 106.118C125.531 106.059 123.629 106.248 121.873 106.667C120.115 107.087 118.557 107.726 117.307 108.527C116.056 109.33 115.161 110.266 114.658 111.251L114.658 111.252L113.763 112.996L153.824 57.2295ZM153.824 57.2295C155.031 55.9509 155.607 54.6072 155.607 53.2781C155.607 51.8079 154.903 50.4451 153.756 49.2928C152.609 48.1411 150.999 47.1756 149.114 46.4804C145.346 45.0902 140.398 44.7509 135.634 46.2469L135.633 46.247M153.824 57.2295L135.633 46.247M135.633 46.247L132.861 47.1192C131.195 47.6428 129.341 47.9466 127.436 48.0051C125.531 48.0636 123.629 47.8752 121.873 47.4556C120.115 47.0358 118.557 46.3974 117.307 45.5956C116.056 44.7931 115.162 43.8577 114.658 42.8724C114.658 42.8722 114.658 42.8721 114.658 42.8719L113.777 41.1289L113.776 41.1268M135.633 46.247L113.776 41.1268M113.776 41.1268C112.784 39.1908 110.876 37.7799 108.582 36.8555C106.282 35.929 103.55 35.4714 100.831 35.4714C98.1126 35.4714 95.3812 35.929 93.0835 36.8555C90.7909 37.7799 88.885 39.1907 87.8968 41.1267C87.8967 41.1269 87.8966 41.1271 87.8964 41.1274L87.002 42.8711L87.0019 42.8714M113.776 41.1268L87.0019 42.8714M87.0019 42.8714C85.9152 44.993 83.213 46.6365 79.785 47.4553C76.3782 48.2691 72.3639 48.2385 68.7992 47.1193C68.7991 47.1192 68.799 47.1192 68.7989 47.1192L66.0263 46.247L66.0261 46.2469M87.0019 42.8714L66.0261 46.2469M66.0261 46.2469C61.2615 44.7509 56.3141 45.0902 52.5453 46.4804C50.6607 47.1756 49.0505 48.1411 47.9041 49.2928C46.757 50.4451 46.053 51.8079 46.053 53.2781C46.053 54.6072 46.6291 55.9509 47.8361 57.2295L47.8364 57.2298M66.0261 46.2469L47.8364 57.2298M47.8364 57.2298L49.3487 58.8289C50.2239 59.7549 50.7035 60.7545 50.7956 61.7514C50.8065 61.8701 50.812 61.9889 50.8121 62.1074C50.8123 62.9834 50.5146 63.8684 49.9071 64.7144C49.2152 65.6778 48.1408 66.5622 46.7406 67.2882C45.3419 68.0134 43.6684 68.5543 41.8408 68.8647L38.8166 69.3734L38.8156 69.3736M47.8364 57.2298L38.8156 69.3736M38.8156 69.3736C32.5078 70.4479 29.0624 73.6208 29.0623 77.0603C29.0621 80.5002 32.5078 83.6715 38.8159 84.7422L41.8404 85.2582L41.8408 85.2583M38.8156 69.3736L41.8408 85.2583M41.8408 85.2583C43.6684 85.5687 45.3419 86.1095 46.7406 86.8347C48.1408 87.5607 49.2152 88.4452 49.9071 89.4086C50.5141 90.2539 50.8118 91.1382 50.8121 92.0135C50.8121 92.1327 50.8066 92.2521 50.7956 92.3716C50.7035 93.3684 50.2239 94.368 49.3488 95.2939C49.3488 95.2939 49.3488 95.294 49.3487 95.294L47.8364 96.8931L47.8361 96.8935M41.8408 85.2583L47.8361 96.8935M47.8361 96.8935C46.6291 98.1721 46.053 99.5158 46.053 100.845C46.053 102.315 46.757 103.678 47.9041 104.83C49.0505 105.982 50.6607 106.947 52.5453 107.643C56.3141 109.033 61.2615 109.372 66.0261 107.876L66.0263 107.876M47.8361 96.8935L66.0263 107.876M66.0263 107.876L68.7991 107.004C70.4646 106.48 72.3184 106.176 74.2237 106.118C76.1288 106.059 78.0303 106.248 79.7869 106.667C81.5445 107.087 83.1031 107.726 84.353 108.527C85.6035 109.33 86.4977 110.265 87.001 111.25C87.0012 111.25 87.0014 111.251 87.0016 111.251L87.8831 112.994L87.8841 112.996M66.0263 107.876L87.8841 112.996M87.8841 112.996C88.8754 114.932 90.7837 116.343 93.078 117.267M87.8841 112.996L93.078 117.267M93.078 117.267C95.3773 118.194 98.1095 118.652 100.828 118.652M93.078 117.267L100.828 118.652M100.828 118.652C103.547 118.652 106.278 118.194 108.576 117.267M100.828 118.652L108.576 117.267M108.576 117.267C110.869 116.343 112.775 114.932 113.763 112.996L108.576 117.267ZM82.6121 87.2973L82.3777 87.1622L82.3667 87.1686C77.6969 84.4051 75.1858 80.7619 75.1858 77.0615C75.1858 73.3001 77.7804 69.5977 82.5995 66.8183C87.4109 64.0433 93.9681 62.4699 100.83 62.4699C107.692 62.4699 114.249 64.0433 119.06 66.8183C123.878 69.5967 126.471 73.2978 126.471 77.0578C126.471 80.8179 123.878 84.5189 119.06 87.2973C114.25 90.0714 107.696 91.6442 100.836 91.6442C93.9767 91.6442 87.4219 90.0714 82.6121 87.2973Z" fill="#C2C2C2" stroke="white" stroke-width="0.937963"/>
<path d="M88.3164 27.155C91.9904 19.9548 109.674 19.9548 113.36 27.155V41.341C109.674 34.1408 91.9904 34.1408 88.3164 41.341V27.155Z" fill="#C2C2C2"/>
<path d="M87.4219 28.8989L88.3167 27.1543V41.3403L87.4219 43.0849V28.8989Z" fill="#C2C2C2"/>
<path d="M113.359 27.1543L114.242 28.8989V43.0849L113.359 41.3403V27.1543Z" fill="#C2C2C2"/>
<path d="M114.242 28.8994C114.792 29.9767 115.753 30.9694 117.055 31.8046V45.9905C115.753 45.1554 114.792 44.1627 114.242 43.0854V28.8994Z" fill="#C2C2C2"/>
<path d="M68.6602 33.3809C75.9641 35.6743 85.0641 33.5008 87.421 28.8994V43.0854C85.0641 47.6868 75.9641 49.8603 68.6602 47.5669V33.3809Z" fill="#C2C2C2"/>
<path d="M117.055 31.8047C118.357 32.6399 119.966 33.2964 121.765 33.7261V47.9121C119.966 47.4824 118.357 46.8258 117.055 45.9907V31.8047Z" fill="#C2C2C2"/>
<path d="M65.8828 32.5088L68.6557 33.3811V47.5671L65.8828 46.6948V32.5088Z" fill="#C2C2C2"/>
<path d="M133 33.3811L135.773 32.5088V46.6948L133 47.5671V33.3811Z" fill="#C2C2C2"/>
<path d="M127.449 34.2891C129.394 34.2293 131.29 33.9193 133 33.3818V47.5678C131.29 48.1053 129.394 48.4153 127.449 48.475V34.2891Z" fill="#C2C2C2"/>
<path d="M121.762 33.7256C123.561 34.1553 125.504 34.3474 127.448 34.2877V48.4736C125.504 48.5334 123.561 48.3413 121.762 47.9116V33.7256Z" fill="#C2C2C2"/>
<path d="M46.5195 39.092C46.5194 33.8439 56.56 29.581 65.8831 32.5083V46.6943C56.56 43.767 46.5194 48.0298 46.5195 53.278V39.092Z" fill="#C2C2C2"/>
<path d="M135.773 32.5083C145.097 29.581 155.137 33.8439 155.137 39.092V53.278C155.137 48.0298 145.097 43.767 135.773 46.6943V32.5083Z" fill="#C2C2C2"/>
<path d="M48.1747 42.7223C47.0301 41.5098 46.5196 40.2762 46.5195 39.0928V53.2787C46.5196 54.4622 47.0301 55.6958 48.1747 56.9083V42.7223Z" fill="#C2C2C2"/>
<path d="M155.136 39.0928C155.136 40.2762 154.625 41.5098 153.48 42.7223V56.9083C154.625 55.6958 155.136 54.4622 155.136 53.2787V39.0928Z" fill="#C2C2C2"/>
<path d="M49.6882 44.3209L48.1758 42.7217V56.9077L49.6882 58.5069V44.3209Z" fill="#C2C2C2"/>
<path d="M153.485 42.7217L151.973 44.3209V58.5069L153.485 56.9077V42.7217Z" fill="#C2C2C2"/>
<path d="M51.2644 47.5227C51.1609 46.4013 50.6234 45.3074 49.6914 44.3213V58.5073C50.6234 59.4933 51.1609 60.5872 51.2644 61.7087V47.5227Z" fill="#C2C2C2"/>
<path d="M151.971 44.3213C151.039 45.3074 150.502 46.4013 150.398 47.5227V61.7087C150.502 60.5872 151.039 59.4933 151.971 58.5073V44.3213Z" fill="#C2C2C2"/>
<path d="M51.2802 47.9215C51.2801 47.7886 51.274 47.6555 51.2617 47.5225V61.7084C51.274 61.8415 51.2801 61.9745 51.2802 62.1074V47.9215Z" fill="#C2C2C2"/>
<path d="M150.397 47.5225C150.385 47.6563 150.379 47.7901 150.379 47.9238V62.1075C150.379 61.9746 150.385 61.8415 150.397 61.7084V47.5225Z" fill="#C2C2C2"/>
<path d="M50.2891 50.8025C50.9453 49.8888 51.2818 48.9106 51.2821 47.9242V62.1079C51.2824 63.0951 50.9458 64.074 50.2891 64.9885V50.8025Z" fill="#C2C2C2"/>
<path d="M150.379 47.9248C150.379 48.9112 150.716 49.8894 151.372 50.8031V64.9891C150.716 64.0754 150.379 63.0972 150.379 62.1108V47.9248Z" fill="#C2C2C2"/>
<path d="M100.828 47.8154C93.9024 47.8154 87.2604 49.4022 82.3633 52.2266V66.4125C87.2604 63.5881 93.9024 62.0014 100.828 62.0014V47.8154Z" fill="#C2C2C2"/>
<path d="M119.297 52.2266C114.4 49.4022 107.758 47.8154 100.832 47.8154V62.0014C107.758 62.0014 114.4 63.5881 119.297 66.4125V52.2266Z" fill="#C2C2C2"/>
<path d="M46.957 53.5194C48.4051 52.7686 49.5435 51.8403 50.2886 50.8027V64.9887C49.5435 66.0263 48.4051 66.9545 46.957 67.7054V53.5194Z" fill="#C2C2C2"/>
<path d="M151.371 50.8027C152.116 51.8403 153.255 52.7686 154.703 53.5194V67.7054C153.255 66.9545 152.116 66.0263 151.371 64.9887V50.8027Z" fill="#C2C2C2"/>
<path d="M41.918 55.142C43.7859 54.8247 45.507 54.2704 46.9551 53.5195V67.7055C45.507 68.4563 43.7859 69.0107 41.918 69.328V55.142Z" fill="#C2C2C2"/>
<path d="M154.703 53.5195C156.151 54.2704 157.872 54.8247 159.74 55.142V69.328C157.872 69.0107 156.151 68.4563 154.703 67.7055V53.5195Z" fill="#C2C2C2"/>
<path d="M38.8906 55.6504L41.9156 55.1416V69.3276L38.8906 69.8364V55.6504Z" fill="#C2C2C2"/>
<path d="M159.738 55.1416L162.763 55.6577V69.8437L159.738 69.3276V55.1416Z" fill="#C2C2C2"/>
<path d="M126.939 62.8723C126.939 58.8794 124.188 55.05 119.293 52.2266V66.4125C124.188 69.236 126.939 73.0654 126.939 77.0583V62.8723Z" fill="#C2C2C2"/>
<path d="M82.3671 52.2266C77.4699 55.051 74.7188 58.8817 74.7188 62.876V77.0619C74.7188 73.0676 77.4699 69.2369 82.3671 66.4125V52.2266Z" fill="#C2C2C2"/>
<path d="M29.5312 62.8749C29.5314 59.7946 32.6524 56.7135 38.8944 55.6504V69.8364C32.6524 70.8995 29.5314 73.9806 29.5312 77.0608V62.8749Z" fill="#C2C2C2"/>
<path d="M162.766 55.6572C169.008 56.7167 172.129 59.7963 172.129 62.8767V77.0622C172.129 73.982 169.008 70.9027 162.766 69.8432V55.6572Z" fill="#C2C2C2"/>
<path d="M38.8944 70.0945C32.6524 69.035 29.5314 65.9557 29.5312 62.8755L29.5312 77.061C29.5311 80.1414 32.6521 83.2209 38.8944 84.2804V70.0945Z" fill="#C2C2C2"/>
<path d="M172.129 62.877C172.129 65.9572 169.008 69.0383 162.766 70.1014V84.2874C169.008 83.2243 172.129 80.1432 172.129 77.0629V62.877Z" fill="#C2C2C2"/>
<path d="M119.293 73.5178C124.188 70.6944 126.939 66.865 126.939 62.8721V77.058C126.939 81.051 124.188 84.8804 119.293 87.7038V73.5178Z" fill="#C2C2C2"/>
<path d="M74.7188 62.876C74.7188 66.8703 77.4699 70.701 82.3671 73.5254V87.7113C77.4699 84.8869 74.7188 81.0562 74.7188 77.062V62.876Z" fill="#C2C2C2"/>
<path d="M41.9156 70.6099L38.8906 70.0938V84.2797L41.9156 84.7958V70.6099Z" fill="#C2C2C2"/>
<path d="M162.763 70.1016L159.738 70.6104V84.7964L162.763 84.2875V70.1016Z" fill="#C2C2C2"/>
<path d="M46.9551 72.2328C45.507 71.482 43.7859 70.9276 41.918 70.6104V84.7963C43.7859 85.1136 45.507 85.668 46.9551 86.4188V72.2328Z" fill="#C2C2C2"/>
<path d="M159.74 70.6104C157.872 70.9276 156.151 71.482 154.703 72.2328V86.4188C156.151 85.668 157.872 85.1136 159.74 84.7963V70.6104Z" fill="#C2C2C2"/>
<path d="M82.3633 73.5248L82.3759 73.5176V87.7036L82.3633 87.7108V73.5248Z" fill="#C2C2C2"/>
<path d="M50.2886 74.9491C49.5435 73.9115 48.4051 72.9832 46.957 72.2324V86.4184C48.4051 87.1692 49.5435 88.0975 50.2886 89.1351V74.9491Z" fill="#C2C2C2"/>
<path d="M154.703 72.2324C153.255 72.9832 152.116 73.9115 151.371 74.9491V89.1351C152.116 88.0975 153.255 87.1692 154.703 86.4184V72.2324Z" fill="#C2C2C2"/>
<path d="M100.836 77.9272C107.759 77.9272 114.399 76.341 119.294 73.5176V87.7036C114.399 90.527 107.759 92.1132 100.836 92.1132V77.9272Z" fill="#C2C2C2"/>
<path d="M82.3789 73.5176C87.2744 76.341 93.9141 77.9272 100.837 77.9272V92.1132C93.9141 92.1132 87.2744 90.527 82.3789 87.7036V73.5176Z" fill="#C2C2C2"/>
<path d="M51.2821 77.8275C51.2818 76.8411 50.9453 75.863 50.2891 74.9492V89.1352C50.9453 90.049 51.2818 91.0271 51.2821 92.0135V77.8275Z" fill="#C2C2C2"/>
<path d="M151.372 74.9492C150.715 75.8637 150.379 76.8427 150.379 77.8299V92.0135C150.379 91.0271 150.716 90.049 151.372 89.1352V74.9492Z" fill="#C2C2C2"/>
<path d="M51.2802 77.8271C51.2802 77.8279 51.2802 77.8287 51.2802 77.8295V77.8271Z" fill="#C2C2C2"/>
<path d="M51.2802 77.8271C51.2802 77.8279 51.2802 77.8287 51.2802 77.8295V92.0131C51.2802 92.1468 51.2741 92.2806 51.2617 92.4145V78.2285C51.274 78.0954 51.2801 77.9624 51.2802 77.8295V77.8271Z" fill="#C2C2C2"/>
<path d="M150.379 77.8301C150.379 77.963 150.385 78.096 150.397 78.2291V92.4151C150.385 92.282 150.379 92.149 150.379 92.0161V77.8301Z" fill="#C2C2C2"/>
<path d="M49.6914 81.4309C50.6234 80.4449 51.1609 79.351 51.2644 78.2295V92.4155C51.1609 93.5369 50.6234 94.6308 49.6914 95.6169V81.4309Z" fill="#C2C2C2"/>
<path d="M150.398 78.2295C150.502 79.351 151.039 80.4449 151.971 81.4309V95.6169C151.039 94.6308 150.502 93.5369 150.398 92.4155V78.2295Z" fill="#C2C2C2"/>
<path d="M48.1758 83.0299L49.6882 81.4307V95.6166L48.1758 97.2159V83.0299Z" fill="#C2C2C2"/>
<path d="M151.973 81.4307L153.485 83.0299V97.2159L151.973 95.6166V81.4307Z" fill="#C2C2C2"/>
<path d="M46.5195 86.6598C46.5196 85.4763 47.0301 84.2428 48.1747 83.0303V97.2162C47.0301 98.4288 46.5196 99.6623 46.5195 100.846V86.6598Z" fill="#C2C2C2"/>
<path d="M153.48 83.0303C154.625 84.2428 155.136 85.4763 155.136 86.6598V100.846C155.136 99.6623 154.625 98.4288 153.48 97.2162V83.0303Z" fill="#C2C2C2"/>
<path d="M65.8831 93.2429C56.56 96.1702 46.5194 91.9073 46.5195 86.6592V100.845C46.5194 106.093 56.56 110.356 65.8831 107.429V93.2429Z" fill="#C2C2C2"/>
<path d="M155.137 86.6592C155.137 91.9073 145.097 96.1702 135.773 93.2429V107.429C145.097 110.356 155.137 106.093 155.137 100.845V86.6592Z" fill="#C2C2C2"/>
<path d="M79.8975 92.0258C78.0984 91.5961 76.1554 91.4041 74.2109 91.4638V105.65C76.1554 105.59 78.0984 105.782 79.8975 106.212V92.0258Z" fill="#C2C2C2"/>
<path d="M127.448 91.4638C125.504 91.4041 123.561 91.5961 121.762 92.0258V106.212C123.561 105.782 125.504 105.59 127.448 105.65V91.4638Z" fill="#C2C2C2"/>
<path d="M74.211 91.4639C72.2665 91.5236 70.3699 91.8336 68.6602 92.3711V106.557C70.3699 106.02 72.2665 105.71 74.211 105.65V91.4639Z" fill="#C2C2C2"/>
<path d="M133 92.3711C131.29 91.8336 129.394 91.5236 127.449 91.4639V105.65C129.394 105.71 131.29 106.02 133 106.557V92.3711Z" fill="#C2C2C2"/>
<path d="M68.6557 92.3701L65.8828 93.2424V107.428L68.6557 106.556V92.3701Z" fill="#C2C2C2"/>
<path d="M135.773 93.2424L133 92.3701V106.556L135.773 107.428V93.2424Z" fill="#C2C2C2"/>
<path d="M84.6049 93.9468C83.303 93.1117 81.6936 92.4551 79.8945 92.0254V106.211C81.6936 106.641 83.303 107.298 84.6049 108.133V93.9468Z" fill="#C2C2C2"/>
<path d="M121.765 92.0254C119.966 92.4551 118.357 93.1117 117.055 93.9468V108.133C118.357 107.298 119.966 106.641 121.765 106.211V92.0254Z" fill="#C2C2C2"/>
<path d="M87.4186 96.8524C86.8685 95.7751 85.9073 94.7824 84.6055 93.9473V108.133C85.9073 108.968 86.8685 109.961 87.4186 111.038V96.8524Z" fill="#C2C2C2"/>
<path d="M117.055 93.9473C115.753 94.7824 114.792 95.7751 114.242 96.8524V111.038C114.792 109.961 115.753 108.968 117.055 108.133V93.9473Z" fill="#C2C2C2"/>
<path d="M88.3041 98.5972L87.4219 96.8525V111.039L88.3041 112.783V98.5972Z" fill="#C2C2C2"/>
<path d="M114.243 96.8525L113.348 98.5972V112.783L114.243 111.039V96.8525Z" fill="#C2C2C2"/>
<path d="M113.349 98.5967C109.675 105.797 91.9913 105.797 88.3047 98.5967V112.783C91.9913 119.983 109.675 119.983 113.349 112.783V98.5967Z" fill="#C2C2C2"/>
<path d="M133.279 33.6715L133.278 33.6715C131.493 34.2327 129.513 34.5563 127.483 34.6187C125.453 34.681 123.424 34.4805 121.546 34.0318C119.668 33.5832 117.988 32.8977 116.628 32.0258C115.269 31.1538 114.266 30.1175 113.691 28.9927L113.691 28.9919L112.809 27.2483C112.809 27.2482 112.809 27.248 112.809 27.2478C109.284 20.3643 92.3794 20.3657 88.8675 27.248L88.8673 27.2485L87.9725 28.993C87.9725 28.993 87.9725 28.993 87.9724 28.9931C85.5118 33.7967 76.0113 36.0659 68.3859 33.6716L68.3855 33.6715L65.6131 32.7993C54.6906 29.3699 42.7377 36.2636 48.6839 42.5631L50.1962 44.1621L50.1962 44.1621C51.1693 45.1916 51.7304 46.3337 51.8385 47.5045C51.9466 48.6754 51.5989 49.8454 50.821 50.9286C50.0431 52.0119 48.8546 52.981 47.3428 53.7649C45.8309 54.5488 44.034 55.1276 42.0838 55.4588L42.0824 55.4591L39.0593 55.9676C39.0589 55.9677 39.0585 55.9677 39.0581 55.9678C27.1233 58.0011 27.1257 67.7504 39.0588 69.7759L39.0595 69.776L42.0838 70.292L133.279 33.6715ZM133.279 33.6715L136.051 32.7993C146.973 29.3699 158.926 36.2636 152.98 42.5631L151.468 44.1621L151.468 44.1621C150.495 45.1916 149.934 46.3337 149.826 47.5045C149.717 48.6754 150.065 49.8454 150.843 50.9286C151.621 52.0119 152.809 52.981 154.321 53.7649C155.833 54.5487 157.63 55.1275 159.58 55.4587C159.58 55.4587 159.58 55.4587 159.58 55.4587C159.58 55.4587 159.58 55.4588 159.58 55.4588L162.605 55.9748L162.605 55.9749C174.539 58.0004 174.541 67.7502 162.605 69.7832C162.605 69.7832 162.605 69.7832 162.605 69.7832L159.582 70.2917L159.58 70.292C157.63 70.6232 155.833 71.202 154.321 71.9859C152.809 72.7698 151.621 73.7389 150.843 74.8222C150.065 75.9054 149.717 77.0754 149.826 78.2463C149.934 79.4171 150.495 80.5592 151.468 81.5887L151.468 81.5887M133.279 33.6715L151.468 81.5887M50.1962 81.5887L50.1962 81.5887L48.6839 83.1877C42.7378 89.4871 54.6903 96.3808 65.6126 92.9516L50.1962 81.5887ZM50.1962 81.5887C51.1693 80.5592 51.7304 79.4171 51.8385 78.2463C51.9466 77.0754 51.5989 75.9054 50.821 74.8222C50.0431 73.7389 48.8546 72.7698 47.3428 71.9859C45.8311 71.2021 44.0344 70.6233 42.0845 70.2921L50.1962 81.5887ZM133.278 92.0793L133.279 92.0793L136.051 92.9515L133.278 92.0793ZM133.278 92.0793C131.493 91.5181 129.513 91.1945 127.483 91.1321C125.453 91.0698 123.424 91.2703 121.546 91.719C119.668 92.1676 117.988 92.8531 116.628 93.725C115.269 94.5969 114.266 95.6331 113.692 96.7577L133.278 92.0793ZM151.468 81.5887L152.98 83.1877M151.468 81.5887L152.98 83.1877M152.98 83.1877C158.926 89.4871 146.974 96.3808 136.051 92.9516L152.98 83.1877ZM68.3855 92.0793L65.6131 92.9515L113.691 96.7581L112.797 98.5023L112.797 98.5028C109.285 105.385 92.3801 105.386 88.855 98.5028C88.8549 98.5027 88.8548 98.5026 88.8548 98.5025L87.9731 96.7589L87.9726 96.7581C87.3983 95.6333 86.3948 94.597 85.0356 93.725C83.6765 92.8531 81.9962 92.1676 80.1179 91.719C78.2396 91.2703 76.2111 91.0698 74.1809 91.1321C72.1508 91.1945 70.1707 91.5181 68.3857 92.0793L68.3855 92.0793ZM81.9611 73.7591L82.3674 73.9934L82.3843 73.9836C87.3449 76.7241 93.9545 78.2585 100.838 78.2585C107.914 78.2585 114.7 76.6374 119.703 73.7518C124.706 70.8663 127.517 66.9526 127.517 62.8718C127.517 58.7909 124.706 54.8773 119.703 51.9917C114.698 49.1052 107.91 47.4835 100.832 47.4835C93.7541 47.4835 86.966 49.1052 81.9611 51.9917C76.9562 54.8782 74.1445 58.7932 74.1445 62.8754C74.1445 66.9576 76.9562 70.8726 81.9611 73.7591Z" fill="#999999" fill-opacity="0.88" stroke="white" stroke-width="0.937963"/>
</g>
<path fill-rule="evenodd" clip-rule="evenodd" d="M77.8555 69.1042C77.8555 71.2936 80.1715 73.483 84.8037 75.1534C94.0681 78.4943 109.089 78.4943 118.353 75.1534C122.985 73.483 125.301 71.2936 125.301 69.1042V9.52463C125.301 7.33524 122.985 5.14585 118.353 3.4754C109.089 0.134502 94.0681 0.134502 84.8037 3.4754C80.1715 5.14585 77.8555 7.33524 77.8555 9.52463V69.1042Z" fill="url(#paint0_linear_482_7576)" fill-opacity="0.45"/>
<defs>
<linearGradient id="paint0_linear_482_7576" x1="101.578" y1="0.969727" x2="101.578" y2="77.6591" gradientUnits="userSpaceOnUse">
<stop stop-color="#00BAE2" stop-opacity="0"/>
<stop offset="0.484412" stop-color="#00C0EA" stop-opacity="0.399141"/>
<stop offset="1" stop-color="#00D0FE"/>
</linearGradient>
</defs>
</svg>
