<svg width="203" height="179" viewBox="0 0 203 179" fill="none" xmlns="http://www.w3.org/2000/svg">
<g opacity="0.15">
<path d="M154.351 114.418L154.351 114.418L152.838 116.017C151.963 116.943 151.483 117.943 151.391 118.94C151.38 119.059 151.375 119.179 151.375 119.298C151.375 120.173 151.673 121.057 152.28 121.903C152.972 122.866 154.046 123.751 155.446 124.477C156.845 125.202 158.519 125.743 160.346 126.053L160.347 126.053L163.371 126.569L154.351 114.418ZM154.351 114.418C155.558 113.139 156.134 111.795 156.134 110.466C156.134 108.996 155.43 107.633 154.283 106.481C153.136 105.329 151.526 104.363 149.642 103.668C145.873 102.278 140.926 101.939 136.161 103.435L136.161 103.435M154.351 114.418L136.161 103.435M136.161 103.435L133.388 104.307C131.722 104.831 129.869 105.134 127.963 105.193C126.058 105.252 124.157 105.063 122.4 104.644C120.643 104.224 119.084 103.585 117.834 102.783C116.583 101.981 115.689 101.045 115.186 100.06C115.186 100.06 115.185 100.06 115.185 100.06L114.304 98.3166L114.303 98.3145M136.161 103.435L114.303 98.3145M114.303 98.3145C113.312 96.3785 111.403 94.9675 109.109 94.043C106.81 93.1165 104.078 92.6589 101.359 92.6589C98.64 92.6589 95.9086 93.1165 93.6108 94.0431C91.3182 94.9675 89.4123 96.3784 88.4241 98.3144C88.424 98.3146 88.4239 98.3148 88.4238 98.3151L87.5294 100.059L87.5292 100.059M114.303 98.3145L87.5292 100.059M87.5292 100.059C86.4425 102.181 83.7403 103.824 80.3124 104.643C76.9055 105.457 72.8912 105.426 69.3265 104.307C69.3264 104.307 69.3264 104.307 69.3263 104.307L66.5537 103.435L66.5534 103.435M87.5292 100.059L66.5534 103.435M66.5534 103.435C61.7888 101.939 56.8414 102.278 53.0726 103.668C51.1881 104.363 49.5779 105.329 48.4314 106.481C47.2844 107.633 46.5803 108.996 46.5804 110.466C46.5804 111.795 47.1565 113.139 48.3634 114.418L48.3637 114.418M66.5534 103.435L48.3637 114.418M48.3637 114.418L49.8761 116.017C50.7512 116.943 51.2309 117.943 51.3229 118.94C51.3339 119.059 51.3394 119.177 51.3394 119.296C51.3396 120.172 51.042 121.057 50.4344 121.903C49.7426 122.866 48.6681 123.751 47.2679 124.477C45.8693 125.202 44.1957 125.743 42.3681 126.053L39.3439 126.562L39.343 126.562M48.3637 114.418L39.343 126.562M39.343 126.562C33.0352 127.637 29.5898 130.81 29.5896 134.249C29.5894 137.689 33.0351 140.861 39.3432 141.931L42.3678 142.447L42.3681 142.447M39.343 126.562L42.3681 142.447M42.3681 142.447C44.1957 142.758 45.8693 143.299 47.2679 144.024C48.6681 144.75 49.7426 145.634 50.4344 146.598C51.0415 147.443 51.3392 148.328 51.3394 149.203C51.3394 149.322 51.334 149.441 51.3229 149.561C51.2309 150.558 50.7512 151.558 49.8761 152.484L48.3637 154.083L48.3634 154.083M42.3681 142.447L48.3634 154.083M48.3634 154.083C47.1565 155.362 46.5804 156.705 46.5803 158.035C46.5803 159.505 47.2843 160.868 48.4314 162.02C49.5779 163.172 51.1881 164.137 53.0726 164.832C56.8414 166.223 61.7888 166.562 66.5534 165.066L66.5536 165.066M48.3634 154.083L66.5536 165.066M66.5536 165.066L69.3264 164.194C70.9919 163.67 72.8458 163.366 74.751 163.308C76.6562 163.249 78.5576 163.438 80.3142 163.857C82.0718 164.277 83.6305 164.915 84.8803 165.717C86.1308 166.52 87.0251 167.455 87.5284 168.44C87.5286 168.44 87.5288 168.441 87.529 168.441L88.4104 170.184L88.4115 170.186M66.5536 165.066L88.4115 170.186M88.4115 170.186C89.4027 172.122 91.311 173.533 93.6054 174.458C95.9047 175.384 98.6368 175.842 101.356 175.842C104.074 175.842 106.806 175.384 109.104 174.458C111.396 173.533 113.303 172.122 114.291 170.186L115.185 168.442L115.185 168.441M88.4115 170.186L115.185 168.441M115.185 168.441C115.689 167.456 116.583 166.52 117.834 165.717C119.084 164.915 120.643 164.277 122.4 163.857C124.157 163.438 126.058 163.249 127.963 163.308C129.869 163.366 131.722 163.67 133.388 164.194L136.161 165.066L136.161 165.066M115.185 168.441L136.161 165.066M136.161 165.066C140.926 166.562 145.873 166.223 149.642 164.832C151.526 164.137 153.136 163.172 154.283 162.02C155.43 160.868 156.134 159.505 156.134 158.035C156.134 156.705 155.558 155.362 154.351 154.083L154.351 154.083M136.161 165.066L154.351 154.083M154.351 154.083L152.838 152.484C151.963 151.558 151.483 150.558 151.391 149.561C151.38 149.442 151.375 149.323 151.375 149.205C151.375 148.329 151.672 147.444 152.28 146.598C152.972 145.634 154.046 144.75 155.446 144.024C156.845 143.299 158.519 142.758 160.346 142.447L163.37 141.939L163.371 141.939M154.351 154.083L163.371 141.939M163.371 141.939C169.679 140.864 173.125 137.691 173.125 134.252M163.371 141.939L173.125 134.252M173.125 134.252C173.125 130.812 169.679 127.64 163.372 126.569L173.125 134.252ZM83.1394 144.487L82.9051 144.351L82.894 144.358C78.2242 141.594 75.7132 137.951 75.7132 134.25C75.7132 130.489 78.3077 126.786 83.1268 124.007C87.9383 121.232 94.4954 119.658 101.357 119.658C108.219 119.658 114.776 121.232 119.588 124.007C124.405 126.785 126.999 130.487 126.999 134.247C126.999 138.007 124.405 141.708 119.588 144.487C114.778 147.261 108.223 148.834 101.363 148.834C94.5041 148.834 87.9492 147.261 83.1394 144.487Z" fill="#C2C2C2" stroke="white" stroke-width="0.937963"/>
<path d="M88.8438 84.3417C92.5178 77.1413 110.201 77.1413 113.888 84.3417V98.5282C110.201 91.3278 92.5178 91.3278 88.8438 98.5282V84.3417Z" fill="#C2C2C2"/>
<path d="M87.9492 86.0865L88.8441 84.3418V98.5282L87.9492 100.273V86.0865Z" fill="#C2C2C2"/>
<path d="M113.887 84.3418L114.769 86.0865V100.273L113.887 98.5282V84.3418Z" fill="#C2C2C2"/>
<path d="M114.77 86.0859C115.32 87.1633 116.281 88.156 117.583 88.9912V103.178C116.281 102.342 115.32 101.35 114.77 100.272V86.0859Z" fill="#C2C2C2"/>
<path d="M69.1875 90.5676C76.4914 92.8611 85.5914 90.6875 87.9484 86.0859V100.272C85.5914 104.874 76.4914 107.048 69.1875 104.754V90.5676Z" fill="#C2C2C2"/>
<path d="M117.582 88.9912C118.884 89.8264 120.493 90.483 122.292 90.9127V105.099C120.493 104.669 118.884 104.013 117.582 103.178V88.9912Z" fill="#C2C2C2"/>
<path d="M66.4102 89.6963L69.183 90.5686V104.755L66.4102 103.883V89.6963Z" fill="#C2C2C2"/>
<path d="M133.527 90.5686L136.3 89.6963V103.883L133.527 104.755V90.5686Z" fill="#C2C2C2"/>
<path d="M127.977 91.4756C129.921 91.4159 131.818 91.1059 133.527 90.5684V104.755C131.818 105.292 129.921 105.602 127.977 105.662V91.4756Z" fill="#C2C2C2"/>
<path d="M122.289 90.9131C124.088 91.3428 126.031 91.5349 127.976 91.4752V105.662C126.031 105.721 124.088 105.529 122.289 105.1V90.9131Z" fill="#C2C2C2"/>
<path d="M47.0469 96.2788C47.0468 91.0305 57.0874 86.7675 66.4105 89.6949V103.881C57.0874 100.954 47.0468 105.217 47.0469 110.465V96.2788Z" fill="#C2C2C2"/>
<path d="M136.301 89.6949C145.624 86.7675 155.664 91.0305 155.664 96.2788V110.465C155.664 105.217 145.624 100.954 136.301 103.881V89.6949Z" fill="#C2C2C2"/>
<path d="M48.702 99.9099C47.5575 98.6974 47.0469 97.4638 47.0469 96.2803V110.467C47.0469 111.65 47.5575 112.884 48.702 114.096V99.9099Z" fill="#C2C2C2"/>
<path d="M155.663 96.2803C155.663 97.4638 155.152 98.6974 154.008 99.9099V114.096C155.152 112.884 155.663 111.65 155.663 110.467V96.2803Z" fill="#C2C2C2"/>
<path d="M50.2156 101.508L48.7031 99.9092V114.096L50.2156 115.695V101.508Z" fill="#C2C2C2"/>
<path d="M154.012 99.9092L152.5 101.508V115.695L154.012 114.096V99.9092Z" fill="#C2C2C2"/>
<path d="M51.7917 104.71C51.6882 103.589 51.1507 102.495 50.2188 101.509V115.695C51.1507 116.681 51.6882 117.775 51.7917 118.897V104.71Z" fill="#C2C2C2"/>
<path d="M152.499 101.509C151.567 102.495 151.029 103.589 150.926 104.71V118.897C151.029 117.775 151.567 116.681 152.499 115.695V101.509Z" fill="#C2C2C2"/>
<path d="M51.8075 105.109C51.8075 104.976 51.8014 104.843 51.7891 104.71V118.896C51.8014 119.029 51.8075 119.163 51.8075 119.295V105.109Z" fill="#C2C2C2"/>
<path d="M150.925 104.71C150.912 104.844 150.906 104.978 150.906 105.111V119.295C150.906 119.163 150.912 119.029 150.925 118.896V104.71Z" fill="#C2C2C2"/>
<path d="M50.8164 107.99C51.4726 107.076 51.8092 106.098 51.8094 105.112V119.296C51.8097 120.283 51.4731 121.262 50.8164 122.177V107.99Z" fill="#C2C2C2"/>
<path d="M150.906 105.112C150.907 106.099 151.243 107.077 151.899 107.991V122.177C151.243 121.263 150.907 120.285 150.906 119.299V105.112Z" fill="#C2C2C2"/>
<path d="M101.355 105.003C94.4297 105.003 87.7878 106.59 82.8906 109.414V123.601C87.7878 120.776 94.4297 119.189 101.355 119.189V105.003Z" fill="#C2C2C2"/>
<path d="M119.824 109.414C114.927 106.59 108.285 105.003 101.359 105.003V119.189C108.285 119.189 114.927 120.776 119.824 123.601V109.414Z" fill="#C2C2C2"/>
<path d="M47.4844 110.707C48.9325 109.956 50.0708 109.028 50.8159 107.99V122.177C50.0708 123.214 48.9325 124.143 47.4844 124.893V110.707Z" fill="#C2C2C2"/>
<path d="M151.898 107.99C152.644 109.028 153.782 109.956 155.23 110.707V124.893C153.782 124.143 152.644 123.214 151.898 122.177V107.99Z" fill="#C2C2C2"/>
<path d="M42.4453 112.33C44.3132 112.012 46.0344 111.458 47.4825 110.707V124.893C46.0344 125.644 44.3132 126.199 42.4453 126.516V112.33Z" fill="#C2C2C2"/>
<path d="M155.23 110.707C156.679 111.458 158.4 112.012 160.268 112.33V126.516C158.4 126.199 156.679 125.644 155.23 124.893V110.707Z" fill="#C2C2C2"/>
<path d="M39.418 112.838L42.4429 112.329V126.516L39.418 127.024V112.838Z" fill="#C2C2C2"/>
<path d="M160.266 112.329L163.291 112.845V127.032L160.266 126.516V112.329Z" fill="#C2C2C2"/>
<path d="M127.466 120.06C127.466 116.067 124.716 112.238 119.82 109.414V123.601C124.716 126.424 127.466 130.254 127.466 134.247V120.06Z" fill="#C2C2C2"/>
<path d="M82.8944 109.414C77.9973 112.239 75.2461 116.069 75.2461 120.064V134.25C75.2461 130.256 77.9973 126.425 82.8944 123.601V109.414Z" fill="#C2C2C2"/>
<path d="M30.0586 120.063C30.0587 116.982 33.1798 113.901 39.4217 112.838V127.024C33.1798 128.087 30.0587 131.169 30.0586 134.249V120.063Z" fill="#C2C2C2"/>
<path d="M163.293 112.846C169.535 113.905 172.656 116.985 172.656 120.065V134.251C172.656 131.171 169.535 128.092 163.293 127.032V112.846Z" fill="#C2C2C2"/>
<path d="M39.4217 127.282C33.1798 126.223 30.0587 123.143 30.0586 120.063L30.0586 134.249C30.0584 137.329 33.1795 140.409 39.4217 141.469V127.282Z" fill="#C2C2C2"/>
<path d="M172.656 120.065C172.656 123.146 169.535 126.227 163.293 127.29V141.477C169.535 140.413 172.656 137.332 172.656 134.252V120.065Z" fill="#C2C2C2"/>
<path d="M119.82 130.707C124.716 127.883 127.466 124.054 127.466 120.061V134.247C127.466 138.24 124.716 142.07 119.82 144.893V130.707Z" fill="#C2C2C2"/>
<path d="M75.2461 120.063C75.2461 124.058 77.9973 127.889 82.8944 130.713V144.9C77.9973 142.075 75.2461 138.244 75.2461 134.25V120.063Z" fill="#C2C2C2"/>
<path d="M42.4429 127.798L39.418 127.282V141.469L42.4429 141.985V127.798Z" fill="#C2C2C2"/>
<path d="M163.291 127.29L160.266 127.799V141.985L163.291 141.476V127.29Z" fill="#C2C2C2"/>
<path d="M47.4825 129.421C46.0344 128.67 44.3132 128.116 42.4453 127.799V141.985C44.3132 142.303 46.0344 142.857 47.4825 143.608V129.421Z" fill="#C2C2C2"/>
<path d="M160.268 127.799C158.4 128.116 156.679 128.67 155.23 129.421V143.608C156.679 142.857 158.4 142.303 160.268 141.985V127.799Z" fill="#C2C2C2"/>
<path d="M82.8906 130.713L82.9032 130.706V144.892L82.8906 144.9V130.713Z" fill="#C2C2C2"/>
<path d="M50.8159 132.138C50.0708 131.1 48.9325 130.172 47.4844 129.421V143.607C48.9325 144.358 50.0708 145.286 50.8159 146.324V132.138Z" fill="#C2C2C2"/>
<path d="M155.23 129.421C153.782 130.172 152.644 131.1 151.898 132.138V146.324C152.644 145.286 153.782 144.358 155.23 143.607V129.421Z" fill="#C2C2C2"/>
<path d="M101.363 135.116C108.287 135.116 114.926 133.53 119.822 130.706V144.893C114.926 147.716 108.287 149.302 101.363 149.302V135.116Z" fill="#C2C2C2"/>
<path d="M82.9062 130.706C87.8017 133.53 94.4414 135.116 101.365 135.116V149.302C94.4414 149.302 87.8017 147.716 82.9062 144.893V130.706Z" fill="#C2C2C2"/>
<path d="M51.8094 135.016C51.8092 134.03 51.4726 133.051 50.8164 132.138V146.324C51.4726 147.238 51.8092 148.216 51.8094 149.203V135.016Z" fill="#C2C2C2"/>
<path d="M151.899 132.138C151.243 133.052 150.906 134.031 150.906 135.018V149.203C150.907 148.216 151.243 147.238 151.899 146.324V132.138Z" fill="#C2C2C2"/>
<path d="M51.8075 135.016C51.8075 135.016 51.8075 135.017 51.8075 135.018V135.016Z" fill="#C2C2C2"/>
<path d="M51.8075 135.016C51.8075 135.016 51.8075 135.017 51.8075 135.018V149.202C51.8076 149.336 51.8014 149.47 51.7891 149.603V135.417C51.8014 135.284 51.8075 135.151 51.8075 135.018V135.016Z" fill="#C2C2C2"/>
<path d="M150.906 135.019C150.906 135.151 150.912 135.285 150.925 135.418V149.604C150.912 149.471 150.906 149.338 150.906 149.205V135.019Z" fill="#C2C2C2"/>
<path d="M50.2188 138.62C51.1507 137.633 51.6882 136.539 51.7917 135.418V149.604C51.6882 150.726 51.1507 151.82 50.2188 152.806V138.62Z" fill="#C2C2C2"/>
<path d="M150.926 135.418C151.029 136.539 151.567 137.633 152.499 138.62V152.806C151.567 151.82 151.029 150.726 150.926 149.604V135.418Z" fill="#C2C2C2"/>
<path d="M48.7031 140.218L50.2156 138.619V152.806L48.7031 154.405V140.218Z" fill="#C2C2C2"/>
<path d="M152.5 138.619L154.012 140.218V154.405L152.5 152.806V138.619Z" fill="#C2C2C2"/>
<path d="M47.0469 143.848C47.0469 142.665 47.5575 141.431 48.702 140.219V154.405C47.5575 155.618 47.0469 156.851 47.0469 158.035V143.848Z" fill="#C2C2C2"/>
<path d="M154.008 140.219C155.152 141.431 155.663 142.665 155.663 143.848V158.035C155.663 156.851 155.152 155.618 154.008 154.405V140.219Z" fill="#C2C2C2"/>
<path d="M66.4105 150.432C57.0874 153.359 47.0468 149.096 47.0469 143.848V158.034C47.0468 163.282 57.0874 167.545 66.4105 164.618V150.432Z" fill="#C2C2C2"/>
<path d="M155.664 143.848C155.664 149.096 145.624 153.359 136.301 150.432V164.618C145.624 167.545 155.664 163.282 155.664 158.034V143.848Z" fill="#C2C2C2"/>
<path d="M80.4248 149.214C78.6258 148.785 76.6828 148.593 74.7383 148.652V162.839C76.6828 162.779 78.6258 162.971 80.4248 163.401V149.214Z" fill="#C2C2C2"/>
<path d="M127.976 148.652C126.031 148.593 124.088 148.785 122.289 149.214V163.401C124.088 162.971 126.031 162.779 127.976 162.839V148.652Z" fill="#C2C2C2"/>
<path d="M74.7384 148.652C72.7939 148.712 70.8972 149.022 69.1875 149.56V163.746C70.8972 163.209 72.7939 162.899 74.7384 162.839V148.652Z" fill="#C2C2C2"/>
<path d="M133.527 149.56C131.818 149.022 129.921 148.712 127.977 148.652V162.839C129.921 162.899 131.818 163.209 133.527 163.746V149.56Z" fill="#C2C2C2"/>
<path d="M69.183 149.56L66.4102 150.432V164.618L69.183 163.746V149.56Z" fill="#C2C2C2"/>
<path d="M136.3 150.432L133.527 149.56V163.746L136.3 164.618V150.432Z" fill="#C2C2C2"/>
<path d="M85.1322 151.136C83.8304 150.301 82.2209 149.645 80.4219 149.215V163.401C82.2209 163.831 83.8304 164.488 85.1322 165.323V151.136Z" fill="#C2C2C2"/>
<path d="M122.292 149.215C120.493 149.645 118.884 150.301 117.582 151.136V165.323C118.884 164.488 120.493 163.831 122.292 163.401V149.215Z" fill="#C2C2C2"/>
<path d="M87.9459 154.041C87.3958 152.964 86.4346 151.971 85.1328 151.136V165.322C86.4346 166.157 87.3958 167.15 87.9459 168.227V154.041Z" fill="#C2C2C2"/>
<path d="M117.583 151.136C116.281 151.971 115.32 152.964 114.77 154.041V168.227C115.32 167.15 116.281 166.157 117.583 165.322V151.136Z" fill="#C2C2C2"/>
<path d="M88.8315 155.787L87.9492 154.042V168.228L88.8315 169.973V155.787Z" fill="#C2C2C2"/>
<path d="M114.77 154.042L113.875 155.787V169.973L114.77 168.228V154.042Z" fill="#C2C2C2"/>
<path d="M113.876 155.786C110.202 162.987 92.5187 162.987 88.832 155.786V169.973C92.5187 177.173 110.202 177.173 113.876 169.973V155.786Z" fill="#C2C2C2"/>
<path d="M133.806 90.858L133.806 90.858L136.578 89.9858C147.501 86.5562 159.454 93.4502 153.507 99.7499L151.995 101.349L151.995 101.349C151.022 102.379 150.461 103.521 150.353 104.692C150.245 105.862 150.592 107.032 151.37 108.116C152.148 109.199 153.337 110.168 154.849 110.952C156.36 111.736 158.157 112.315 160.107 112.646C160.107 112.646 160.107 112.646 160.107 112.646C160.107 112.646 160.107 112.646 160.108 112.646L163.132 113.162L163.133 113.162C175.066 115.188 175.068 124.938 163.132 126.971C163.132 126.971 163.132 126.971 163.132 126.971L160.109 127.479L160.108 127.48C158.157 127.811 156.361 128.39 154.849 129.174C153.337 129.958 152.148 130.927 151.37 132.01C150.592 133.093 150.245 134.263 150.353 135.434C150.461 136.605 151.022 137.747 151.995 138.777L151.995 138.777L153.507 140.376C159.454 146.676 147.501 153.57 136.578 150.14L133.806 149.268L133.806 149.268C132.021 148.707 130.041 148.383 128.01 148.321C125.98 148.258 123.952 148.459 122.074 148.907C120.195 149.356 118.515 150.042 117.156 150.914C115.797 151.786 114.793 152.822 114.219 153.947L113.324 155.691L113.324 155.691C109.812 162.574 92.9074 162.575 89.3823 155.692C89.3822 155.691 89.3822 155.691 89.3821 155.691L88.5004 153.948L88.5 153.947C87.9257 152.822 86.9221 151.786 85.563 150.914C84.2038 150.042 82.5235 149.356 80.6452 148.907C78.767 148.459 76.7384 148.258 74.7083 148.321C72.6782 148.383 70.698 148.707 68.913 149.268L68.9129 149.268L66.1404 150.14C55.218 153.57 43.2651 146.676 49.2113 140.376L50.7235 138.777L50.7236 138.777C51.6966 137.747 52.2577 136.605 52.3658 135.434C52.4739 134.263 52.1263 133.093 51.3484 132.01C50.5704 130.927 49.382 129.958 47.8701 129.174C46.3582 128.39 44.5613 127.811 42.6111 127.48L39.5869 126.964L39.5861 126.964C27.6532 124.938 27.6506 115.189 39.5852 113.155C39.5857 113.155 39.5861 113.155 39.5866 113.155L42.6097 112.646L42.6111 112.646C44.5613 112.315 46.3582 111.736 47.8701 110.952C49.382 110.168 50.5704 109.199 51.3484 108.116C52.1263 107.032 52.4739 105.862 52.3658 104.692C52.2577 103.521 51.6966 102.379 50.7236 101.349L50.7235 101.349L49.2113 99.7499C43.2651 93.4502 55.218 86.5562 66.1404 89.9858L68.9129 90.858L68.9133 90.8581C76.5386 93.2525 86.0392 90.9832 88.4998 86.1794C88.4998 86.1794 88.4998 86.1794 88.4998 86.1793L89.3946 84.4348L89.3949 84.4343C92.9068 77.5517 109.811 77.5504 113.336 84.4341C113.336 84.4343 113.337 84.4345 113.337 84.4346L114.218 86.1782L114.219 86.1791C114.793 87.3038 115.797 88.3402 117.156 89.2122C118.515 90.0842 120.195 90.7697 122.074 91.2184C123.952 91.667 125.98 91.8676 128.01 91.8052C130.041 91.7429 132.021 91.4192 133.806 90.858ZM82.4884 130.947L82.8947 131.181L82.9117 131.171C87.8722 133.912 94.4818 135.447 101.366 135.447C108.441 135.447 115.227 133.825 120.23 130.94C125.234 128.054 128.044 124.14 128.044 120.059C128.044 115.978 125.234 112.064 120.23 109.179C115.225 106.292 108.437 104.67 101.359 104.67C94.2814 104.67 87.4933 106.292 82.4884 109.179C77.4836 112.065 74.6718 115.981 74.6718 120.063C74.6718 124.145 77.4836 128.06 82.4884 130.947Z" fill="#999999" fill-opacity="0.88" stroke="white" stroke-width="0.937963"/>
</g>
<path fill-rule="evenodd" clip-rule="evenodd" d="M78.3828 126.29C78.3828 128.479 80.6989 130.668 85.3311 132.339C94.5954 135.68 109.616 135.68 118.88 132.339C123.513 130.668 125.829 128.479 125.829 126.29V9.49436C125.829 7.30496 123.513 5.11558 118.88 3.44513C109.616 0.104228 94.5954 0.104228 85.3311 3.44513C80.6989 5.11558 78.3828 7.30496 78.3828 9.49436V126.29Z" fill="url(#paint0_linear_482_7508)" fill-opacity="0.45"/>
<defs>
<linearGradient id="paint0_linear_482_7508" x1="102.106" y1="0.939453" x2="102.106" y2="134.845" gradientUnits="userSpaceOnUse">
<stop stop-color="#00BAE2" stop-opacity="0"/>
<stop offset="0.484412" stop-color="#00C0EA" stop-opacity="0.399141"/>
<stop offset="1" stop-color="#00D0FE"/>
</linearGradient>
</defs>
</svg>
