<svg width="202" height="235" viewBox="0 0 202 235" fill="none" xmlns="http://www.w3.org/2000/svg">
<g opacity="0.15">
<path d="M153.921 170.677L153.921 170.678L152.409 172.277C151.533 173.203 151.054 174.203 150.962 175.199C150.951 175.319 150.945 175.438 150.945 175.558C150.946 176.433 151.243 177.317 151.85 178.163C152.542 179.126 153.617 180.011 155.017 180.737C156.415 181.462 158.089 182.003 159.917 182.313L159.917 182.313L162.941 182.829L153.921 170.677ZM153.921 170.677C155.128 169.399 155.704 168.055 155.704 166.726C155.704 165.256 155 163.893 153.853 162.74C152.707 161.589 151.097 160.623 149.212 159.928C145.443 158.538 140.496 158.198 135.731 159.695L135.731 159.695M153.921 170.677L135.731 159.695M135.731 159.695L132.958 160.567C131.293 161.091 129.439 161.394 127.534 161.453C125.628 161.511 123.727 161.323 121.97 160.903C120.213 160.483 118.654 159.845 117.404 159.043C116.154 158.241 115.259 157.305 114.756 156.32C114.756 156.32 114.756 156.32 114.756 156.319L113.874 154.576L113.873 154.574M135.731 159.695L113.873 154.574M113.873 154.574C112.882 152.638 110.974 151.227 108.679 150.303C106.38 149.376 103.648 148.919 100.929 148.919C98.2103 148.919 95.4789 149.376 93.1811 150.303C90.8886 151.227 88.9826 152.638 87.9945 154.574C87.9943 154.574 87.9942 154.575 87.9941 154.575L87.0997 156.319L87.0996 156.319M113.873 154.574L87.0996 156.319M87.0996 156.319C86.0128 158.441 83.3106 160.084 79.8827 160.903C76.4759 161.717 72.4616 161.686 68.8968 160.567C68.8967 160.567 68.8967 160.567 68.8966 160.567L66.124 159.695L66.1237 159.695M87.0996 156.319L66.1237 159.695M66.1237 159.695C61.3592 158.198 56.4117 158.538 52.6429 159.928C50.7584 160.623 49.1482 161.589 48.0017 162.74C46.8547 163.893 46.1506 165.256 46.1507 166.726C46.1507 168.055 46.7268 169.399 47.9337 170.677L47.934 170.678M66.1237 159.695L47.934 170.678M47.934 170.678L49.4464 172.277C50.3215 173.203 50.8012 174.203 50.8932 175.199C50.9042 175.318 50.9097 175.437 50.9097 175.556C50.91 176.432 50.6123 177.317 50.0047 178.163C49.3129 179.126 48.2384 180.011 46.8382 180.737C45.4396 181.462 43.766 182.003 41.9384 182.313L38.9142 182.822L38.9133 182.822M47.934 170.678L38.9133 182.822M38.9133 182.822C32.6055 183.896 29.1601 187.069 29.1599 190.509C29.1598 193.949 32.6054 197.12 38.9135 198.191L41.9381 198.707L41.9384 198.707M38.9133 182.822L41.9384 198.707M41.9384 198.707C43.766 199.018 45.4396 199.558 46.8382 200.284C48.2385 201.01 49.3129 201.894 50.0047 202.858C50.6118 203.703 50.9095 204.587 50.9097 205.463C50.9097 205.582 50.9043 205.701 50.8932 205.821C50.8012 206.818 50.3215 207.817 49.4464 208.743L47.934 210.342L47.9337 210.343M41.9384 198.707L47.9337 210.343M47.9337 210.343C46.7268 211.621 46.1507 212.965 46.1507 214.294C46.1506 215.764 46.8547 217.127 48.0017 218.28C49.1482 219.431 50.7584 220.397 52.6429 221.092C56.4117 222.482 61.3591 222.822 66.1237 221.326L66.124 221.326M47.9337 210.343L66.124 221.326M66.124 221.326L68.8967 220.453C70.5622 219.93 72.4161 219.626 74.3214 219.567C76.2265 219.509 78.1279 219.697 79.8845 220.117C81.6421 220.537 83.2008 221.175 84.4506 221.977C85.7011 222.779 86.5954 223.715 87.0987 224.7C87.0989 224.7 87.0991 224.7 87.0993 224.701L87.9807 226.444L87.9818 226.446M66.124 221.326L87.9818 226.446M87.9818 226.446C88.973 228.382 90.8813 229.793 93.1757 230.717C95.475 231.644 98.2071 232.102 100.926 232.102C103.645 232.102 106.376 231.644 108.674 230.717C110.967 229.793 112.873 228.382 113.861 226.445L114.755 224.702L114.756 224.701M87.9818 226.446L114.756 224.701M114.756 224.701C115.259 223.715 116.153 222.78 117.404 221.977C118.654 221.175 120.213 220.537 121.97 220.117C123.727 219.697 125.628 219.509 127.534 219.567C129.439 219.626 131.293 219.93 132.958 220.453L135.731 221.326L135.731 221.326M114.756 224.701L135.731 221.326M135.731 221.326C140.496 222.822 145.443 222.482 149.212 221.092C151.097 220.397 152.707 219.431 153.853 218.28C155 217.127 155.704 215.764 155.704 214.294C155.704 212.965 155.128 211.621 153.921 210.343L153.921 210.342M135.731 221.326L153.921 210.342M153.921 210.342L152.409 208.743C151.533 207.817 151.054 206.818 150.962 205.821C150.951 205.702 150.945 205.583 150.945 205.465C150.945 204.589 151.243 203.704 151.85 202.858C152.542 201.894 153.617 201.01 155.017 200.284C156.415 199.558 158.089 199.018 159.917 198.707L162.941 198.198L162.942 198.198M153.921 210.342L162.942 198.198M162.942 198.198C169.25 197.124 172.695 193.951 172.695 190.511M162.942 198.198L172.695 190.511M172.695 190.511C172.695 187.071 169.25 183.9 162.942 182.829L172.695 190.511ZM82.7097 200.746L82.4754 200.611L82.4643 200.618C77.7945 197.854 75.2835 194.211 75.2835 190.51C75.2835 186.749 77.8781 183.046 82.6971 180.267C87.5086 177.492 94.0657 175.918 100.927 175.918C107.789 175.918 114.346 177.492 119.158 180.267C123.975 183.045 126.569 186.746 126.569 190.506C126.569 194.267 123.975 197.968 119.158 200.746C114.348 203.52 107.793 205.093 100.934 205.093C94.0744 205.093 87.5195 203.52 82.7097 200.746Z" fill="#C2C2C2" stroke="white" stroke-width="0.937963"/>
<path d="M88.4141 140.601C92.0881 133.401 109.771 133.401 113.458 140.601V154.788C109.771 147.588 92.0881 147.588 88.4141 154.788V140.601Z" fill="#C2C2C2"/>
<path d="M87.5195 142.346L88.4144 140.602V154.788L87.5195 156.533V142.346Z" fill="#C2C2C2"/>
<path d="M113.457 140.602L114.339 142.346V156.533L113.457 154.788V140.602Z" fill="#C2C2C2"/>
<path d="M114.34 142.346C114.89 143.423 115.851 144.416 117.153 145.251V159.437C115.851 158.602 114.89 157.61 114.34 156.532V142.346Z" fill="#C2C2C2"/>
<path d="M68.7578 146.827C76.0618 149.121 85.1618 146.947 87.5187 142.346V156.532C85.1618 161.134 76.0618 163.307 68.7578 161.014V146.827Z" fill="#C2C2C2"/>
<path d="M117.152 145.251C118.454 146.086 120.064 146.743 121.863 147.173V161.359C120.064 160.929 118.454 160.273 117.152 159.437V145.251Z" fill="#C2C2C2"/>
<path d="M65.9805 145.956L68.7533 146.828V161.015L65.9805 160.143V145.956Z" fill="#C2C2C2"/>
<path d="M133.098 146.828L135.87 145.956V160.143L133.098 161.015V146.828Z" fill="#C2C2C2"/>
<path d="M127.547 147.735C129.491 147.676 131.388 147.366 133.098 146.828V161.015C131.388 161.552 129.491 161.862 127.547 161.922V147.735Z" fill="#C2C2C2"/>
<path d="M121.859 147.173C123.658 147.603 125.601 147.795 127.546 147.735V161.921C125.601 161.981 123.658 161.789 121.859 161.359V147.173Z" fill="#C2C2C2"/>
<path d="M46.6172 152.539C46.6171 147.29 56.6577 143.027 65.9808 145.955V160.141C56.6577 157.214 46.6171 161.477 46.6172 166.725V152.539Z" fill="#C2C2C2"/>
<path d="M135.871 145.955C145.194 143.027 155.235 147.29 155.235 152.539V166.725C155.235 161.477 145.194 157.214 135.871 160.141V145.955Z" fill="#C2C2C2"/>
<path d="M48.2723 156.17C47.1278 154.957 46.6172 153.724 46.6172 152.54V166.726C46.6172 167.91 47.1278 169.144 48.2723 170.356V156.17Z" fill="#C2C2C2"/>
<path d="M155.233 152.54C155.233 153.724 154.723 154.957 153.578 156.17V170.356C154.723 169.144 155.233 167.91 155.233 166.726V152.54Z" fill="#C2C2C2"/>
<path d="M49.7859 157.768L48.2734 156.169V170.355L49.7859 171.955V157.768Z" fill="#C2C2C2"/>
<path d="M153.583 156.169L152.07 157.768V171.955L153.583 170.355V156.169Z" fill="#C2C2C2"/>
<path d="M51.3621 160.97C51.2585 159.849 50.721 158.755 49.7891 157.769V171.955C50.721 172.941 51.2585 174.035 51.3621 175.157V160.97Z" fill="#C2C2C2"/>
<path d="M152.069 157.769C151.137 158.755 150.6 159.849 150.496 160.97V175.157C150.6 174.035 151.137 172.941 152.069 171.955V157.769Z" fill="#C2C2C2"/>
<path d="M51.3778 161.369C51.3778 161.236 51.3717 161.103 51.3594 160.97V175.156C51.3717 175.289 51.3778 175.422 51.3778 175.555V161.369Z" fill="#C2C2C2"/>
<path d="M150.495 160.97C150.483 161.104 150.477 161.237 150.477 161.371V175.555C150.477 175.422 150.483 175.289 150.495 175.156V160.97Z" fill="#C2C2C2"/>
<path d="M50.3867 164.25C51.0429 163.336 51.3795 162.358 51.3797 161.371V175.556C51.38 176.543 51.0434 177.522 50.3867 178.436V164.25Z" fill="#C2C2C2"/>
<path d="M150.477 161.372C150.477 162.359 150.813 163.337 151.47 164.25V178.437C150.813 177.523 150.477 176.545 150.477 175.559V161.372Z" fill="#C2C2C2"/>
<path d="M100.926 161.263C94 161.263 87.3581 162.849 82.4609 165.674V179.86C87.3581 177.036 94 175.449 100.926 175.449V161.263Z" fill="#C2C2C2"/>
<path d="M119.394 165.674C114.497 162.849 107.855 161.263 100.93 161.263V175.449C107.855 175.449 114.497 177.036 119.394 179.86V165.674Z" fill="#C2C2C2"/>
<path d="M47.0547 166.967C48.5028 166.216 49.6411 165.288 50.3863 164.25V178.436C49.6411 179.474 48.5028 180.402 47.0547 181.153V166.967Z" fill="#C2C2C2"/>
<path d="M151.469 164.25C152.214 165.288 153.352 166.216 154.8 166.967V181.153C153.352 180.402 152.214 179.474 151.469 178.436V164.25Z" fill="#C2C2C2"/>
<path d="M42.0156 168.589C43.8836 168.272 45.6047 167.718 47.0528 166.967V181.153C45.6047 181.904 43.8836 182.458 42.0156 182.776V168.589Z" fill="#C2C2C2"/>
<path d="M154.801 166.967C156.249 167.718 157.97 168.272 159.838 168.589V182.776C157.97 182.458 156.249 181.904 154.801 181.153V166.967Z" fill="#C2C2C2"/>
<path d="M38.9883 169.098L42.0132 168.589V182.775L38.9883 183.284V169.098Z" fill="#C2C2C2"/>
<path d="M159.836 168.589L162.861 169.105V183.291L159.836 182.775V168.589Z" fill="#C2C2C2"/>
<path d="M127.036 176.32C127.036 172.327 124.286 168.497 119.391 165.674V179.86C124.286 182.684 127.036 186.513 127.036 190.506V176.32Z" fill="#C2C2C2"/>
<path d="M82.4647 165.674C77.5676 168.498 74.8164 172.329 74.8164 176.324V190.51C74.8164 186.516 77.5676 182.685 82.4647 179.86V165.674Z" fill="#C2C2C2"/>
<path d="M29.6289 176.322C29.6291 173.242 32.7501 170.161 38.992 169.098V183.284C32.7501 184.347 29.6291 187.428 29.6289 190.509V176.322Z" fill="#C2C2C2"/>
<path d="M162.863 169.105C169.106 170.165 172.227 173.245 172.226 176.325V190.511C172.226 187.431 169.105 184.351 162.863 183.292V169.105Z" fill="#C2C2C2"/>
<path d="M38.992 183.542C32.7501 182.482 29.6291 179.403 29.6289 176.323L29.6289 190.509C29.6288 193.589 32.7498 196.669 38.992 197.728V183.542Z" fill="#C2C2C2"/>
<path d="M172.226 176.325C172.226 179.406 169.105 182.487 162.863 183.55V197.736C169.105 196.673 172.226 193.592 172.226 190.512V176.325Z" fill="#C2C2C2"/>
<path d="M119.391 186.966C124.286 184.143 127.036 180.313 127.036 176.32V190.507C127.036 194.5 124.286 198.329 119.391 201.153V186.966Z" fill="#C2C2C2"/>
<path d="M74.8164 176.323C74.8164 180.318 77.5676 184.149 82.4647 186.973V201.159C77.5676 198.335 74.8164 194.504 74.8164 190.51V176.323Z" fill="#C2C2C2"/>
<path d="M42.0132 184.058L38.9883 183.542V197.728L42.0132 198.245V184.058Z" fill="#C2C2C2"/>
<path d="M162.861 183.55L159.836 184.059V198.245L162.861 197.736V183.55Z" fill="#C2C2C2"/>
<path d="M47.0528 185.681C45.6047 184.93 43.8836 184.376 42.0156 184.059V198.245C43.8836 198.562 45.6047 199.117 47.0528 199.868V185.681Z" fill="#C2C2C2"/>
<path d="M159.838 184.059C157.97 184.376 156.249 184.93 154.801 185.681V199.868C156.249 199.117 157.97 198.562 159.838 198.245V184.059Z" fill="#C2C2C2"/>
<path d="M82.4609 186.973L82.4735 186.966V201.152L82.4609 201.16V186.973Z" fill="#C2C2C2"/>
<path d="M50.3862 188.397C49.6411 187.36 48.5028 186.432 47.0547 185.681V199.867C48.5028 200.618 49.6411 201.546 50.3862 202.584V188.397Z" fill="#C2C2C2"/>
<path d="M154.8 185.681C153.352 186.432 152.214 187.36 151.469 188.397V202.584C152.214 201.546 153.352 200.618 154.8 199.867V185.681Z" fill="#C2C2C2"/>
<path d="M100.934 191.376C107.857 191.376 114.497 189.789 119.392 186.966V201.152C114.497 203.976 107.857 205.562 100.934 205.562V191.376Z" fill="#C2C2C2"/>
<path d="M82.4766 186.966C87.372 189.789 94.0117 191.376 100.935 191.376V205.562C94.0117 205.562 87.372 203.976 82.4766 201.152V186.966Z" fill="#C2C2C2"/>
<path d="M51.3797 191.276C51.3795 190.289 51.0429 189.311 50.3867 188.397V202.584C51.0429 203.498 51.3795 204.476 51.3797 205.462V191.276Z" fill="#C2C2C2"/>
<path d="M151.47 188.397C150.813 189.312 150.476 190.291 150.477 191.278V205.462C150.477 204.476 150.813 203.498 151.47 202.584V188.397Z" fill="#C2C2C2"/>
<path d="M51.3778 191.275C51.3778 191.276 51.3778 191.277 51.3778 191.278V191.275Z" fill="#C2C2C2"/>
<path d="M51.3778 191.275C51.3778 191.276 51.3778 191.277 51.3778 191.278V205.462C51.3779 205.596 51.3717 205.729 51.3594 205.863V191.677C51.3717 191.544 51.3778 191.411 51.3778 191.278V191.275Z" fill="#C2C2C2"/>
<path d="M150.477 191.278C150.477 191.411 150.483 191.544 150.495 191.677V205.864C150.483 205.731 150.477 205.598 150.477 205.465V191.278Z" fill="#C2C2C2"/>
<path d="M49.7891 194.879C50.721 193.893 51.2585 192.799 51.3621 191.678V205.864C51.2585 206.986 50.721 208.08 49.7891 209.066V194.879Z" fill="#C2C2C2"/>
<path d="M150.496 191.678C150.6 192.799 151.137 193.893 152.069 194.879V209.066C151.137 208.08 150.6 206.986 150.496 205.864V191.678Z" fill="#C2C2C2"/>
<path d="M48.2734 196.478L49.7859 194.879V209.065L48.2734 210.665V196.478Z" fill="#C2C2C2"/>
<path d="M152.07 194.879L153.583 196.478V210.665L152.07 209.065V194.879Z" fill="#C2C2C2"/>
<path d="M46.6172 200.108C46.6172 198.925 47.1278 197.691 48.2723 196.479V210.665C47.1278 211.878 46.6172 213.111 46.6172 214.295V200.108Z" fill="#C2C2C2"/>
<path d="M153.578 196.479C154.723 197.691 155.233 198.925 155.233 200.108V214.295C155.233 213.111 154.723 211.878 153.578 210.665V196.479Z" fill="#C2C2C2"/>
<path d="M65.9808 206.691C56.6577 209.619 46.6171 205.356 46.6172 200.107V214.294C46.6171 219.542 56.6577 223.805 65.9808 220.878V206.691Z" fill="#C2C2C2"/>
<path d="M155.235 200.107C155.235 205.356 145.194 209.619 135.871 206.691V220.878C145.194 223.805 155.235 219.542 155.235 214.294V200.107Z" fill="#C2C2C2"/>
<path d="M79.9951 205.474C78.1961 205.044 76.2531 204.852 74.3086 204.912V219.098C76.2531 219.039 78.1961 219.231 79.9951 219.661V205.474Z" fill="#C2C2C2"/>
<path d="M127.546 204.912C125.601 204.852 123.658 205.044 121.859 205.474V219.661C123.658 219.231 125.601 219.039 127.546 219.098V204.912Z" fill="#C2C2C2"/>
<path d="M74.3087 204.912C72.3642 204.972 70.4675 205.282 68.7578 205.819V220.006C70.4675 219.468 72.3642 219.158 74.3087 219.099V204.912Z" fill="#C2C2C2"/>
<path d="M133.098 205.819C131.388 205.282 129.491 204.972 127.547 204.912V219.099C129.491 219.158 131.388 219.468 133.098 220.006V205.819Z" fill="#C2C2C2"/>
<path d="M68.7533 205.819L65.9805 206.692V220.878L68.7533 220.006V205.819Z" fill="#C2C2C2"/>
<path d="M135.871 206.692L133.098 205.819V220.006L135.871 220.878V206.692Z" fill="#C2C2C2"/>
<path d="M84.7025 207.396C83.4007 206.561 81.7912 205.904 79.9922 205.475V219.661C81.7912 220.091 83.4007 220.747 84.7025 221.583V207.396Z" fill="#C2C2C2"/>
<path d="M121.863 205.475C120.064 205.904 118.454 206.561 117.152 207.396V221.583C118.454 220.747 120.064 220.091 121.863 219.661V205.475Z" fill="#C2C2C2"/>
<path d="M87.5162 210.301C86.9662 209.223 86.005 208.231 84.7031 207.396V221.582C86.005 222.417 86.9662 223.41 87.5162 224.487V210.301Z" fill="#C2C2C2"/>
<path d="M117.153 207.396C115.851 208.231 114.89 209.223 114.34 210.301V224.487C114.89 223.41 115.851 222.417 117.153 221.582V207.396Z" fill="#C2C2C2"/>
<path d="M88.4018 212.046L87.5195 210.302V224.488L88.4018 226.233V212.046Z" fill="#C2C2C2"/>
<path d="M114.34 210.302L113.445 212.046V226.233L114.34 224.488V210.302Z" fill="#C2C2C2"/>
<path d="M113.446 212.046C109.772 219.246 92.089 219.246 88.4023 212.046V226.232C92.089 233.433 109.772 233.433 113.446 226.232V212.046Z" fill="#C2C2C2"/>
<path d="M133.376 147.118L133.376 147.118L136.149 146.246C147.071 142.816 159.024 149.71 153.078 156.01L151.566 157.609L151.565 157.609C150.592 158.638 150.031 159.78 149.923 160.951C149.815 162.122 150.163 163.292 150.941 164.375C151.719 165.459 152.907 166.428 154.419 167.212C155.931 167.996 157.727 168.574 159.677 168.906C159.677 168.906 159.677 168.906 159.677 168.906C159.678 168.906 159.678 168.906 159.678 168.906L162.702 169.422L162.703 169.422C174.636 171.448 174.638 181.198 162.703 183.231C162.703 183.231 162.703 183.231 162.702 183.231L159.679 183.739L159.678 183.739C157.728 184.071 155.931 184.65 154.419 185.433C152.907 186.217 151.719 187.187 150.941 188.27C150.163 189.353 149.815 190.523 149.923 191.694C150.031 192.865 150.592 194.007 151.565 195.037L151.566 195.037L153.078 196.636C159.024 202.935 147.071 209.829 136.149 206.4L133.376 205.528L133.376 205.528C131.591 204.966 129.611 204.643 127.581 204.58C125.551 204.518 123.522 204.719 121.644 205.167C119.766 205.616 118.085 206.301 116.726 207.173C115.367 208.045 114.363 209.082 113.789 210.206L112.894 211.951L112.894 211.951C109.382 218.834 92.4778 218.835 88.9526 211.951C88.9526 211.951 88.9525 211.951 88.9524 211.951L88.0707 210.207L88.0703 210.206C87.496 209.082 86.4925 208.045 85.1333 207.173C83.7741 206.301 82.0938 205.616 80.2155 205.167C78.3373 204.719 76.3087 204.518 74.2786 204.58C72.2485 204.643 70.2683 204.966 68.4833 205.528L68.4832 205.528L65.7107 206.4C54.7883 209.829 42.8354 202.935 48.7816 196.636L50.2938 195.037L50.2939 195.037C51.2669 194.007 51.828 192.865 51.9361 191.694C52.0443 190.523 51.6966 189.353 50.9187 188.27C50.1407 187.187 48.9523 186.217 47.4404 185.433C45.9285 184.65 44.1316 184.071 42.1815 183.739L39.1572 183.223L39.1564 183.223C27.2235 181.198 27.2209 171.448 39.1555 169.415C39.156 169.415 39.1564 169.415 39.1569 169.415L42.18 168.906L42.1815 168.906C44.1316 168.575 45.9285 167.996 47.4404 167.212C48.9523 166.428 50.1407 165.459 50.9187 164.376C51.6966 163.292 52.0443 162.122 51.9361 160.951C51.828 159.78 51.2669 158.638 50.2939 157.609L50.2938 157.609L48.7816 156.01C42.8354 149.71 54.7883 142.816 65.7107 146.246L68.4832 147.118L68.4836 147.118C76.1089 149.512 85.6095 147.243 88.0701 142.439C88.0701 142.439 88.0701 142.439 88.0701 142.439L88.965 140.695L88.9652 140.694C92.4771 133.811 109.381 133.81 112.907 140.694C112.907 140.694 112.907 140.694 112.907 140.694L113.789 142.438L113.789 142.439C114.363 143.564 115.367 144.6 116.726 145.472C118.085 146.344 119.766 147.029 121.644 147.478C123.522 147.927 125.551 148.127 127.581 148.065C129.611 148.003 131.591 147.679 133.376 147.118ZM82.0587 187.207L82.465 187.441L82.482 187.431C87.4425 190.172 94.0521 191.706 100.936 191.706C108.012 191.706 114.797 190.085 119.801 187.199C124.804 184.314 127.615 180.4 127.615 176.319C127.615 172.238 124.804 168.324 119.801 165.439C114.796 162.552 108.008 160.93 100.93 160.93C93.8517 160.93 87.0636 162.552 82.0587 165.439C77.0539 168.325 74.2421 172.24 74.2421 176.323C74.2421 180.405 77.0539 184.32 82.0587 187.207Z" fill="#999999" fill-opacity="0.88" stroke="white" stroke-width="0.937963"/>
</g>
<path fill-rule="evenodd" clip-rule="evenodd" d="M77.0117 183.487C77.0117 185.676 79.3278 187.866 83.96 189.536C93.2243 192.877 108.245 192.877 117.509 189.536C122.141 187.866 124.457 185.676 124.457 183.487V9.4758C124.457 7.28641 122.141 5.09702 117.509 3.42657C108.245 0.0856738 93.2243 0.0856738 83.96 3.42657C79.3278 5.09702 77.0117 7.28641 77.0117 9.4758V183.487Z" fill="url(#paint0_linear_482_7494)" fill-opacity="0.45"/>
<defs>
<linearGradient id="paint0_linear_482_7494" x1="100.735" y1="0.920898" x2="100.735" y2="192.042" gradientUnits="userSpaceOnUse">
<stop stop-color="#00BAE2" stop-opacity="0"/>
<stop offset="0.484412" stop-color="#00C0EA" stop-opacity="0.399141"/>
<stop offset="1" stop-color="#00D0FE"/>
</linearGradient>
</defs>
</svg>
