<svg width="202" height="121" viewBox="0 0 202 121" fill="none" xmlns="http://www.w3.org/2000/svg">
<g opacity="0.15">
<path d="M153.995 56.4577L153.995 56.4581L152.483 58.0572C151.608 58.9832 151.128 59.9829 151.036 60.9798C151.025 61.0992 151.019 61.2186 151.019 61.3379C151.02 62.2132 151.317 63.0975 151.924 63.9429C152.616 64.9063 153.691 65.7908 155.091 66.5168C156.49 67.2421 158.163 67.7829 159.991 68.0933L159.991 68.0934L163.016 68.6094L153.995 56.4577ZM153.995 56.4577C155.202 55.179 155.779 53.8353 155.779 52.5062C155.779 51.036 155.075 49.6731 153.927 48.5208C152.781 47.369 151.171 46.4035 149.286 45.7083C145.517 44.318 140.57 43.9787 135.805 45.4748L135.805 45.4749M153.995 56.4577L135.805 45.4749M135.805 45.4749L133.032 46.3472C131.367 46.8708 129.513 47.1745 127.608 47.233C125.703 47.2916 123.801 47.1032 122.045 46.6836C120.287 46.2637 118.728 45.6253 117.479 44.8235C116.228 44.021 115.333 43.0854 114.83 42.1002C114.83 42.1 114.83 42.0998 114.83 42.0997L113.948 40.3566L113.947 40.3545M135.805 45.4749L113.947 40.3545M113.947 40.3545C112.956 38.4185 111.048 37.0076 108.754 36.083C106.454 35.1565 103.722 34.699 101.003 34.699C98.2845 34.699 95.5531 35.1565 93.2553 36.0831C90.9628 37.0075 89.0568 38.4184 88.0687 40.3544C88.0686 40.3546 88.0684 40.3549 88.0683 40.3551L87.1739 42.0989L87.1738 42.0991M113.947 40.3545L87.1738 42.0991M87.1738 42.0991C86.087 44.2208 83.3848 45.8644 79.9569 46.6833C76.5501 47.4971 72.5358 47.4665 68.971 46.3472C68.971 46.3472 68.9709 46.3471 68.9708 46.3471L66.1982 45.4749L66.1979 45.4748M87.1738 42.0991L66.1979 45.4748M66.1979 45.4748C61.4334 43.9787 56.4859 44.318 52.7171 45.7083C50.8326 46.4035 49.2224 47.369 48.0759 48.5208C46.9289 49.6731 46.2248 51.036 46.2249 52.5062C46.2249 53.8353 46.801 55.179 48.0079 56.4577L48.0083 56.458M66.1979 45.4748L48.0083 56.458M48.0083 56.458L49.5206 58.0572C50.3957 58.9832 50.8754 59.9829 50.9675 60.9798C50.9784 61.0986 50.9839 61.2173 50.9839 61.3358C50.9842 62.2118 50.6865 63.0968 50.0789 63.9429C49.3871 64.9063 48.3127 65.7908 46.9124 66.5168C45.5138 67.2421 43.8402 67.7829 42.0126 68.0933L38.9884 68.6021L38.9875 68.6022M48.0083 56.458L38.9875 68.6022M38.9875 68.6022C32.6797 69.6766 29.2343 72.8497 29.2341 76.2892C29.234 79.7292 32.6796 82.9006 38.9878 83.9713L42.0123 84.4874L42.0126 84.4874M38.9875 68.6022L42.0126 84.4874M42.0126 84.4874C43.8402 84.7979 45.5138 85.3387 46.9125 86.0639C48.3127 86.79 49.3871 87.6744 50.079 88.6379C50.686 89.4833 50.9837 90.3676 50.9839 91.2429C50.984 91.3621 50.9785 91.4815 50.9675 91.601C50.8754 92.5979 50.3957 93.5976 49.5206 94.5235L48.0082 96.1227L48.0079 96.123M42.0126 84.4874L48.0079 96.123M48.0079 96.123C46.801 97.4017 46.2249 98.7454 46.2249 100.075C46.2248 101.545 46.9289 102.908 48.0759 104.06C49.2224 105.212 50.8326 106.177 52.7171 106.872C56.4859 108.263 61.4334 108.602 66.1979 107.106L66.1982 107.106M48.0079 96.123L66.1982 107.106M66.1982 107.106L68.971 106.234C70.6364 105.71 72.4903 105.406 74.3956 105.348C76.3007 105.289 78.2021 105.478 79.9588 105.897C81.7164 106.317 83.275 106.955 84.5248 107.757C85.7754 108.56 86.6696 109.495 87.1729 110.48C87.1731 110.48 87.1733 110.481 87.1735 110.481L88.0549 112.224L88.056 112.226M66.1982 107.106L88.056 112.226M88.056 112.226C89.0473 114.162 90.9556 115.573 93.2499 116.498C95.5492 117.424 98.2813 117.882 101 117.882C103.719 117.882 106.45 117.424 108.748 116.498C111.041 115.573 112.947 114.162 113.935 112.226L114.83 110.482L114.83 110.481M88.056 112.226L114.83 110.481M114.83 110.481C115.333 109.496 116.228 108.56 117.479 107.757C118.728 106.955 120.287 106.317 122.045 105.897C123.801 105.478 125.703 105.289 127.608 105.348C129.513 105.406 131.367 105.71 133.032 106.234L135.805 107.106L135.805 107.106M114.83 110.481L135.805 107.106M135.805 107.106C140.57 108.602 145.517 108.263 149.286 106.872C151.171 106.177 152.781 105.212 153.927 104.06C155.075 102.908 155.779 101.545 155.779 100.075C155.779 98.7454 155.202 97.4017 153.995 96.123L153.995 96.1227M135.805 107.106L153.995 96.1227M153.995 96.1227L152.483 94.5235C151.608 93.5976 151.128 92.5979 151.036 91.601C151.025 91.4822 151.02 91.3635 151.019 91.245C151.019 90.369 151.317 89.4839 151.924 88.6379C152.616 87.6744 153.691 86.79 155.091 86.0639C156.49 85.3387 158.163 84.7979 159.991 84.4874L163.015 83.9787L163.016 83.9785M153.995 96.1227L163.016 83.9785M163.016 83.9785C169.324 82.9042 172.769 79.7311 172.769 76.2915M163.016 83.9785L172.769 76.2915M172.769 76.2915C172.769 72.8517 169.324 69.6803 163.016 68.6095L172.769 76.2915ZM82.7839 86.5266L82.5496 86.3915L82.5385 86.3979C77.8688 83.6343 75.3577 79.9909 75.3577 76.2904C75.3577 72.5288 77.9523 68.8263 82.7713 66.0469C87.5828 63.2718 94.14 61.6983 101.002 61.6983C107.863 61.6983 114.421 63.2718 119.232 66.0469C124.049 68.8254 126.643 72.5266 126.643 76.2868C126.643 80.0469 124.049 83.7481 119.232 86.5266C114.422 89.3007 107.867 90.8737 101.008 90.8737C94.1486 90.8737 87.5937 89.3007 82.7839 86.5266Z" fill="#C2C2C2" stroke="white" stroke-width="0.937963"/>
<path d="M88.4883 26.3817C92.1623 19.1813 109.846 19.1813 113.532 26.3817V40.5682C109.846 33.3678 92.1623 33.3678 88.4883 40.5682V26.3817Z" fill="#C2C2C2"/>
<path d="M87.5938 28.1265L88.4886 26.3818V40.5683L87.5938 42.313V28.1265Z" fill="#C2C2C2"/>
<path d="M113.531 26.3818L114.414 28.1265V42.313L113.531 40.5683V26.3818Z" fill="#C2C2C2"/>
<path d="M114.414 28.126C114.964 29.2033 115.925 30.196 117.227 31.0312V45.2177C115.925 44.3825 114.964 43.3898 114.414 42.3124V28.126Z" fill="#C2C2C2"/>
<path d="M68.832 32.6076C76.136 34.9011 85.236 32.7275 87.5929 28.126V42.3124C85.236 46.914 76.136 49.0876 68.832 46.794V32.6076Z" fill="#C2C2C2"/>
<path d="M117.227 31.0312C118.528 31.8665 120.138 32.523 121.937 32.9528V47.1392C120.138 46.7095 118.528 46.0529 117.227 45.2177V31.0312Z" fill="#C2C2C2"/>
<path d="M66.0547 31.7363L68.8275 32.6087V46.7951L66.0547 45.9228V31.7363Z" fill="#C2C2C2"/>
<path d="M133.172 32.6087L135.945 31.7363V45.9228L133.172 46.7951V32.6087Z" fill="#C2C2C2"/>
<path d="M127.621 33.5156C129.566 33.4559 131.462 33.1459 133.172 32.6084V46.7948C131.462 47.3324 129.566 47.6424 127.621 47.7021V33.5156Z" fill="#C2C2C2"/>
<path d="M121.934 32.9531C123.733 33.3829 125.676 33.5749 127.62 33.5152V47.7017C125.676 47.7614 123.733 47.5693 121.934 47.1396V32.9531Z" fill="#C2C2C2"/>
<path d="M46.6914 38.3188C46.6913 33.0705 56.7319 28.8075 66.055 31.7349V45.9213C56.7319 42.994 46.6913 47.257 46.6914 52.5053V38.3188Z" fill="#C2C2C2"/>
<path d="M135.945 31.7349C145.268 28.8075 155.309 33.0705 155.309 38.3188V52.5053C155.309 47.257 145.268 42.994 135.945 45.9213V31.7349Z" fill="#C2C2C2"/>
<path d="M48.3465 41.95C47.202 40.7374 46.6914 39.5038 46.6914 38.3203V52.5068C46.6914 53.6903 47.202 54.9239 48.3465 56.1364V41.95Z" fill="#C2C2C2"/>
<path d="M155.307 38.3203C155.307 39.5038 154.797 40.7374 153.652 41.95V56.1364C154.797 54.9239 155.307 53.6903 155.307 52.5068V38.3203Z" fill="#C2C2C2"/>
<path d="M49.8601 43.5485L48.3477 41.9492V56.1357L49.8601 57.735V43.5485Z" fill="#C2C2C2"/>
<path d="M153.657 41.9492L152.145 43.5485V57.735L153.657 56.1357V41.9492Z" fill="#C2C2C2"/>
<path d="M51.4363 46.7504C51.3327 45.6289 50.7953 44.5349 49.8633 43.5488V57.7353C50.7953 58.7214 51.3327 59.8153 51.4363 60.9368V46.7504Z" fill="#C2C2C2"/>
<path d="M152.143 43.5488C151.211 44.5349 150.674 45.6289 150.57 46.7504V60.9368C150.674 59.8153 151.211 58.7214 152.143 57.7353V43.5488Z" fill="#C2C2C2"/>
<path d="M51.4521 47.149C51.452 47.0161 51.4459 46.8831 51.4336 46.75V60.9365C51.4459 61.0695 51.452 61.2026 51.4521 61.3355V47.149Z" fill="#C2C2C2"/>
<path d="M150.569 46.75C150.557 46.8838 150.551 47.0177 150.551 47.1514V61.3355C150.551 61.2026 150.557 61.0695 150.569 60.9365V46.75Z" fill="#C2C2C2"/>
<path d="M50.4609 50.0302C51.1171 49.1164 51.4537 48.1382 51.454 47.1518V61.3359C51.4542 62.3231 51.1177 63.3021 50.4609 64.2166V50.0302Z" fill="#C2C2C2"/>
<path d="M150.551 47.1523C150.551 48.1388 150.888 49.117 151.544 50.0308V64.2172C150.888 63.3034 150.551 62.3252 150.551 61.3388V47.1523Z" fill="#C2C2C2"/>
<path d="M101 47.043C94.0742 47.043 87.4323 48.6298 82.5352 51.4542V65.6407C87.4323 62.8162 94.0742 61.2294 101 61.2294V47.043Z" fill="#C2C2C2"/>
<path d="M119.469 51.4542C114.571 48.6298 107.93 47.043 101.004 47.043V61.2294C107.93 61.2294 114.571 62.8162 119.469 65.6407V51.4542Z" fill="#C2C2C2"/>
<path d="M47.1289 52.747C48.577 51.9962 49.7154 51.0679 50.4605 50.0303V64.2167C49.7154 65.2543 48.577 66.1826 47.1289 66.9335V52.747Z" fill="#C2C2C2"/>
<path d="M151.543 50.0303C152.288 51.0679 153.426 51.9962 154.875 52.747V66.9335C153.426 66.1826 152.288 65.2543 151.543 64.2167V50.0303Z" fill="#C2C2C2"/>
<path d="M42.0898 54.3696C43.9578 54.0523 45.6789 53.4979 47.127 52.7471V66.9335C45.6789 67.6844 43.9578 68.2388 42.0898 68.556V54.3696Z" fill="#C2C2C2"/>
<path d="M154.875 52.7471C156.323 53.4979 158.044 54.0523 159.912 54.3696V68.556C158.044 68.2388 156.323 67.6844 154.875 66.9335V52.7471Z" fill="#C2C2C2"/>
<path d="M39.0625 54.878L42.0874 54.3691V68.5556L39.0625 69.0645V54.878Z" fill="#C2C2C2"/>
<path d="M159.91 54.3691L162.935 54.8853V69.0717L159.91 68.5556V54.3691Z" fill="#C2C2C2"/>
<path d="M127.111 62.1002C127.111 58.1072 124.36 54.2776 119.465 51.4541V65.6406C124.36 68.4641 127.111 72.2936 127.111 76.2867V62.1002Z" fill="#C2C2C2"/>
<path d="M82.5389 51.4541C77.6418 54.2786 74.8906 58.1094 74.8906 62.1039V76.2903C74.8906 72.2959 77.6418 68.465 82.5389 65.6406V51.4541Z" fill="#C2C2C2"/>
<path d="M29.7031 62.1026C29.7033 59.0223 32.8243 55.9411 39.0662 54.8779V69.0644C32.8243 70.1275 29.7033 73.2087 29.7031 76.2891V62.1026Z" fill="#C2C2C2"/>
<path d="M162.938 54.8857C169.18 55.9453 172.301 59.0249 172.301 62.1055V76.2914C172.3 73.2111 169.179 70.1317 162.938 69.0722V54.8857Z" fill="#C2C2C2"/>
<path d="M39.0662 69.3222C32.8243 68.2628 29.7033 65.1834 29.7031 62.103L29.7031 76.289C29.703 79.3695 32.824 82.4491 39.0662 83.5087V69.3222Z" fill="#C2C2C2"/>
<path d="M172.301 62.1055C172.3 65.1858 169.179 68.267 162.938 69.3302V83.5166C169.179 82.4535 172.3 79.3723 172.301 76.2919V62.1055Z" fill="#C2C2C2"/>
<path d="M119.465 72.7467C124.36 69.9232 127.111 66.0937 127.111 62.1006V76.287C127.111 80.2801 124.36 84.1096 119.465 86.9332V72.7467Z" fill="#C2C2C2"/>
<path d="M74.8906 62.1035C74.8906 66.0979 77.6418 69.9288 82.5389 72.7533V86.9397C77.6418 84.1152 74.8906 80.2844 74.8906 76.29V62.1035Z" fill="#C2C2C2"/>
<path d="M42.0874 69.8384L39.0625 69.3223V83.5087L42.0874 84.0248V69.8384Z" fill="#C2C2C2"/>
<path d="M162.935 69.3301L159.91 69.8389V84.0254L162.935 83.5165V69.3301Z" fill="#C2C2C2"/>
<path d="M47.127 71.4614C45.6789 70.7105 43.9578 70.1561 42.0898 69.8389V84.0253C43.9578 84.3426 45.6789 84.897 47.127 85.6478V71.4614Z" fill="#C2C2C2"/>
<path d="M159.912 69.8389C158.044 70.1561 156.323 70.7105 154.875 71.4614V85.6478C156.323 84.897 158.044 84.3426 159.912 84.0253V69.8389Z" fill="#C2C2C2"/>
<path d="M82.5352 72.7534L82.5478 72.7461V86.9325L82.5352 86.9398V72.7534Z" fill="#C2C2C2"/>
<path d="M50.4605 74.1777C49.7153 73.1401 48.577 72.2118 47.1289 71.4609V85.6474C48.577 86.3982 49.7153 87.3265 50.4605 88.3641V74.1777Z" fill="#C2C2C2"/>
<path d="M154.875 71.4609C153.426 72.2118 152.288 73.1401 151.543 74.1777V88.3641C152.288 87.3265 153.426 86.3982 154.875 85.6474V71.4609Z" fill="#C2C2C2"/>
<path d="M101.008 77.1559C107.931 77.1559 114.571 75.5696 119.466 72.7461V86.9325C114.571 89.7561 107.931 91.3423 101.008 91.3423V77.1559Z" fill="#C2C2C2"/>
<path d="M82.5508 72.7461C87.4463 75.5696 94.0859 77.1559 101.009 77.1559V91.3423C94.0859 91.3423 87.4463 89.7561 82.5508 86.9325V72.7461Z" fill="#C2C2C2"/>
<path d="M51.454 77.0562C51.4537 76.0697 51.1171 75.0915 50.4609 74.1777V88.3642C51.1171 89.278 51.4537 90.2562 51.454 91.2426V77.0562Z" fill="#C2C2C2"/>
<path d="M151.544 74.1777C150.887 75.0922 150.551 76.0713 150.551 77.0585V91.2426C150.551 90.2562 150.888 89.278 151.544 88.3642V74.1777Z" fill="#C2C2C2"/>
<path d="M51.4521 77.0557C51.4521 77.0564 51.4521 77.0572 51.4521 77.058V77.0557Z" fill="#C2C2C2"/>
<path d="M51.4521 77.0557C51.4521 77.0564 51.4521 77.0572 51.4521 77.058V91.2421C51.4521 91.3758 51.446 91.5096 51.4336 91.6435V77.457C51.4459 77.324 51.452 77.1909 51.4521 77.058V77.0557Z" fill="#C2C2C2"/>
<path d="M150.551 77.0586C150.551 77.1915 150.557 77.3246 150.569 77.4576V91.6441C150.557 91.511 150.551 91.378 150.551 91.245V77.0586Z" fill="#C2C2C2"/>
<path d="M49.8633 80.6596C50.7953 79.6734 51.3327 78.5795 51.4363 77.458V91.6445C51.3327 92.766 50.7953 93.8599 49.8633 94.846V80.6596Z" fill="#C2C2C2"/>
<path d="M150.57 77.458C150.674 78.5795 151.211 79.6734 152.143 80.6596V94.846C151.211 93.8599 150.674 92.766 150.57 91.6445V77.458Z" fill="#C2C2C2"/>
<path d="M48.3477 82.2585L49.8601 80.6592V94.8456L48.3477 96.4449V82.2585Z" fill="#C2C2C2"/>
<path d="M152.145 80.6592L153.657 82.2585V96.4449L152.145 94.8456V80.6592Z" fill="#C2C2C2"/>
<path d="M46.6914 85.8884C46.6914 84.7049 47.202 83.4713 48.3465 82.2588V96.4452C47.202 97.6578 46.6914 98.8914 46.6914 100.075V85.8884Z" fill="#C2C2C2"/>
<path d="M153.652 82.2588C154.797 83.4713 155.307 84.7049 155.307 85.8884V100.075C155.307 98.8914 154.797 97.6578 153.652 96.4452V82.2588Z" fill="#C2C2C2"/>
<path d="M66.055 92.4716C56.7319 95.399 46.6913 91.136 46.6914 85.8877V100.074C46.6913 105.322 56.7319 109.585 66.055 106.658V92.4716Z" fill="#C2C2C2"/>
<path d="M155.309 85.8877C155.309 91.136 145.268 95.399 135.945 92.4716V106.658C145.268 109.585 155.309 105.322 155.309 100.074V85.8877Z" fill="#C2C2C2"/>
<path d="M80.0694 91.2544C78.2703 90.8246 76.3273 90.6326 74.3828 90.6923V104.879C76.3273 104.819 78.2703 105.011 80.0694 105.441V91.2544Z" fill="#C2C2C2"/>
<path d="M127.62 90.6923C125.676 90.6326 123.733 90.8246 121.934 91.2544V105.441C123.733 105.011 125.676 104.819 127.62 104.879V90.6923Z" fill="#C2C2C2"/>
<path d="M74.3829 90.6924C72.4384 90.7521 70.5418 91.0621 68.832 91.5996V105.786C70.5418 105.249 72.4384 104.939 74.3829 104.879V90.6924Z" fill="#C2C2C2"/>
<path d="M133.172 91.5996C131.462 91.0621 129.566 90.7521 127.621 90.6924V104.879C129.566 104.939 131.462 105.249 133.172 105.786V91.5996Z" fill="#C2C2C2"/>
<path d="M68.8276 91.5996L66.0547 92.4719V106.658L68.8276 105.786V91.5996Z" fill="#C2C2C2"/>
<path d="M135.945 92.4719L133.172 91.5996V105.786L135.945 106.658V92.4719Z" fill="#C2C2C2"/>
<path d="M84.7767 93.1764C83.4749 92.3412 81.8655 91.6846 80.0664 91.2549V105.441C81.8655 105.871 83.4749 106.528 84.7767 107.363V93.1764Z" fill="#C2C2C2"/>
<path d="M121.937 91.2549C120.138 91.6846 118.528 92.3412 117.227 93.1764V107.363C118.528 106.528 120.138 105.871 121.937 105.441V91.2549Z" fill="#C2C2C2"/>
<path d="M87.5905 96.081C87.0404 95.0037 86.0792 94.011 84.7773 93.1758V107.362C86.0792 108.197 87.0404 109.19 87.5905 110.267V96.081Z" fill="#C2C2C2"/>
<path d="M117.227 93.1758C115.925 94.011 114.964 95.0037 114.414 96.081V110.267C114.964 109.19 115.925 108.197 117.227 107.362V93.1758Z" fill="#C2C2C2"/>
<path d="M88.476 97.8267L87.5938 96.082V110.268L88.476 112.013V97.8267Z" fill="#C2C2C2"/>
<path d="M114.414 96.082L113.52 97.8267V112.013L114.414 110.268V96.082Z" fill="#C2C2C2"/>
<path d="M113.52 97.8262C109.846 105.027 92.1632 105.027 88.4766 97.8262V112.013C92.1632 119.213 109.846 119.213 113.52 112.013V97.8262Z" fill="#C2C2C2"/>
<path d="M133.45 32.8981L133.45 32.898L136.223 32.0258C147.145 28.5963 159.098 35.4903 153.152 41.7899L151.64 43.389L151.64 43.389C150.667 44.4186 150.106 45.5607 149.997 46.7316C149.889 47.9025 150.237 49.0725 151.015 50.1558C151.793 51.2391 152.981 52.2082 154.493 52.9922C156.005 53.776 157.802 54.3547 159.751 54.686C159.751 54.686 159.752 54.686 159.752 54.686C159.752 54.686 159.752 54.6861 159.752 54.6861L162.776 55.2021L162.777 55.2022C174.711 57.2278 174.713 66.9779 162.777 69.0109C162.777 69.0109 162.777 69.011 162.777 69.011L159.754 69.5195L159.752 69.5198C157.802 69.851 156.005 70.4298 154.493 71.2137C152.981 71.9976 151.793 72.9668 151.015 74.0501C150.237 75.1334 149.889 76.3034 149.997 77.4743C150.106 78.6452 150.667 79.7873 151.64 80.8168L151.64 80.8169L153.152 82.4159C159.098 88.7156 147.145 95.6096 136.223 92.1801L133.45 91.3079L133.45 91.3078C131.665 90.7466 129.685 90.423 127.655 90.3606C125.625 90.2983 123.596 90.4988 121.718 90.9475C119.84 91.3961 118.159 92.0816 116.8 92.9536C115.441 93.8256 114.438 94.862 113.863 95.9868L112.969 97.731L112.968 97.7315C109.457 104.614 92.552 104.615 89.0268 97.7316C89.0268 97.7314 89.0267 97.7313 89.0267 97.7312L88.1449 95.9876L88.1445 95.9868C87.5702 94.862 86.5667 93.8256 85.2075 92.9536C83.8484 92.0816 82.168 91.3961 80.2898 90.9475C78.4115 90.4988 76.3829 90.2983 74.3528 90.3606C72.3227 90.423 70.3425 90.7466 68.5575 91.3078L68.5574 91.3079L65.7849 92.1801C54.8625 95.6096 42.9096 88.7156 48.8558 82.4159L50.368 80.8169L50.3681 80.8168C51.3411 79.7873 51.9023 78.6452 52.0104 77.4743C52.1185 76.3034 51.7708 75.1334 50.9929 74.0501C50.215 72.9668 49.0265 71.9976 47.5146 71.2137C46.0028 70.4298 44.2059 69.851 42.2557 69.5198L39.2314 69.0038L39.2306 69.0036C27.2977 66.9781 27.2952 57.2286 39.2297 55.1951C39.2302 55.1951 39.2307 55.195 39.2312 55.1949L42.2542 54.6863L42.2557 54.6861C44.2059 54.3549 46.0028 53.7761 47.5146 52.9922C49.0265 52.2082 50.215 51.2391 50.9929 50.1558C51.7708 49.0725 52.1185 47.9025 52.0104 46.7316C51.9023 45.5607 51.3411 44.4186 50.3681 43.389L50.368 43.389L48.8558 41.7899C42.9096 35.4903 54.8625 28.5963 65.7849 32.0258L68.5574 32.898L68.5578 32.8981C76.1831 35.2926 85.6837 33.0232 88.1443 28.2195C88.1443 28.2194 88.1443 28.2194 88.1444 28.2194L89.0392 26.4748L89.0394 26.4744C92.5513 19.5918 109.456 19.5904 112.981 26.4742C112.981 26.4743 112.981 26.4745 112.981 26.4747L113.863 28.2183L113.863 28.2191C114.438 29.3439 115.441 30.3803 116.8 31.2523C118.159 32.1243 119.84 32.8097 121.718 33.2584C123.596 33.7071 125.625 33.9076 127.655 33.8452C129.685 33.7829 131.665 33.4593 133.45 32.8981ZM82.133 72.987L82.5392 73.2213L82.5562 73.2115C87.5167 75.9521 94.1263 77.4866 101.01 77.4866C108.086 77.4866 114.872 75.8654 119.875 72.9797C124.878 70.0941 127.689 66.1803 127.689 62.0993C127.689 58.0183 124.878 54.1045 119.875 51.2189C114.87 48.3322 108.082 46.7105 101.004 46.7105C93.9259 46.7105 87.1379 48.3322 82.133 51.2189C77.1281 54.1055 74.3164 58.0206 74.3164 62.1029C74.3164 66.1853 77.1281 70.1004 82.133 72.987Z" fill="#999999" fill-opacity="0.88" stroke="white" stroke-width="0.937963"/>
</g>
<path fill-rule="evenodd" clip-rule="evenodd" d="M77.0781 68.3298C77.0781 70.5192 79.3942 72.7086 84.0264 74.379C93.2908 77.7199 108.311 77.7199 117.576 74.379C122.208 72.7086 124.524 70.5192 124.524 68.3298V8.75022C124.524 6.56082 122.208 4.37144 117.576 2.70099C108.311 -0.639912 93.2908 -0.639912 84.0264 2.70099C79.3942 4.37144 77.0781 6.56082 77.0781 8.75022V68.3298Z" fill="url(#paint0_linear_482_7562)" fill-opacity="0.45"/>
<defs>
<linearGradient id="paint0_linear_482_7562" x1="100.801" y1="0.195312" x2="100.801" y2="76.8847" gradientUnits="userSpaceOnUse">
<stop stop-color="#00BAE2" stop-opacity="0"/>
<stop offset="0.484412" stop-color="#00C0EA" stop-opacity="0.399141"/>
<stop offset="1" stop-color="#00D0FE"/>
</linearGradient>
</defs>
</svg>
