<svg width="129" height="186" viewBox="0 0 129 186" fill="none" xmlns="http://www.w3.org/2000/svg">
<path d="M8.91214 17.1455L6.85706 15.959L6.85692 11.6816L3.08927 9.5062L3.08941 13.7835L1.04067 12.6006L1.04034 2.09769L3.08908 3.28062L3.08921 7.47007L6.85686 9.64548L6.85673 5.45603L8.91181 6.64262L8.91214 17.1455ZM13.8734 9.50743L13.8735 11.3385L13.1123 10.899L13.1126 17.7398L13.8737 18.1793L13.8738 20.0104L10.3027 17.9485L10.3027 16.1174L11.0638 16.5569L11.0636 9.71608L10.3025 9.2766L10.3024 7.44554L13.8734 9.50743ZM23.434 25.5303L21.3662 24.3364L17.6174 15.5729C17.3975 15.0602 17.2452 14.6818 17.1606 14.4376L17.1353 14.423C17.1691 14.8136 17.186 15.3898 17.1861 16.1515L17.1863 21.923L15.2517 20.806L15.2514 10.303L17.4587 11.5775L21.0679 20.0554C21.2329 20.4387 21.3851 20.8123 21.5247 21.176L21.55 21.1907C21.5162 20.927 21.4993 20.4363 21.4992 19.7185L21.4991 13.9104L23.4336 15.0274L23.434 25.5303ZM25.5794 26.7691L25.579 16.2661L28.8012 18.1266C32.0318 19.9919 33.6472 22.6312 33.6473 26.0442C33.6473 27.68 33.2055 28.731 32.3218 29.1973C31.4422 29.666 30.2688 29.4767 28.8015 28.6295L25.5794 26.7691ZM27.6278 19.3753L27.628 26.0331L28.6429 26.619C29.5309 27.1318 30.2265 27.2258 30.7297 26.9011C31.2371 26.5788 31.4908 25.8879 31.4907 24.8284C31.4907 23.8274 31.2391 22.896 30.7358 22.0341C30.2369 21.1699 29.5349 20.4765 28.63 19.954L27.6278 19.3753ZM34.8034 31.6921L34.8033 29.3484C35.1712 29.9172 35.5708 30.4165 36.0021 30.8462C36.4334 31.271 36.869 31.6104 37.3087 31.8643C37.5667 32.0133 37.7908 32.1158 37.9811 32.172C38.1756 32.2306 38.3363 32.2501 38.4631 32.2306C38.5942 32.2086 38.6915 32.1525 38.7549 32.0621C38.8183 31.9669 38.85 31.8436 38.85 31.6923C38.85 31.4872 38.7993 31.2748 38.6978 31.055C38.5963 30.8353 38.4567 30.6058 38.2791 30.3666C38.1058 30.1297 37.8986 29.8783 37.6575 29.6121C37.4165 29.346 37.1564 29.0665 36.8773 28.7735C36.1669 28.0215 35.6362 27.2976 35.2852 26.6018C34.9385 25.9084 34.7651 25.2126 34.7651 24.5144C34.7651 23.9675 34.8602 23.5537 35.0505 23.2729C35.2407 22.9873 35.4987 22.8115 35.8243 22.7456C36.1541 22.6822 36.5346 22.7164 36.9659 22.8482C37.3973 22.9752 37.8539 23.1778 38.336 23.4562C38.8096 23.7296 39.2282 24.0055 39.5919 24.2838C39.9598 24.5597 40.2981 24.8551 40.6067 25.1701L40.6068 27.36C40.4546 27.1501 40.2876 26.9462 40.1057 26.7484C39.9281 26.5531 39.7442 26.3712 39.5539 26.2028C39.3636 26.0294 39.1733 25.8732 38.983 25.734C38.797 25.5973 38.6194 25.4801 38.4502 25.3824C38.2177 25.2481 38.0062 25.1529 37.8159 25.0968C37.6257 25.0357 37.465 25.0137 37.3339 25.0308C37.2028 25.0479 37.1013 25.1016 37.0294 25.192C36.9576 25.2774 36.9216 25.4007 36.9216 25.5618C36.9216 25.7376 36.9618 25.9195 37.0422 26.1075C37.1225 26.2906 37.2367 26.4883 37.3847 26.7008C37.5327 26.9083 37.7124 27.1341 37.9238 27.3783C38.1353 27.6175 38.3742 27.8775 38.6406 28.1583C39.0043 28.5441 39.3299 28.9201 39.6174 29.2863C39.9092 29.6501 40.1587 30.0163 40.3659 30.3849C40.5731 30.7536 40.7317 31.1308 40.8416 31.5165C40.9516 31.8974 41.0066 32.3002 41.0066 32.725C41.0066 33.311 40.9094 33.748 40.7149 34.0361C40.5246 34.3217 40.2645 34.4938 39.9347 34.5524C39.6049 34.6061 39.2201 34.5597 38.7803 34.4132C38.3448 34.2691 37.8839 34.0567 37.3976 33.776C36.8986 33.4878 36.4229 33.1643 35.9705 32.8054C35.5222 32.449 35.1332 32.0779 34.8034 31.6921ZM45.3781 27.698L45.3781 29.529L44.617 29.0896L44.6172 35.9304L45.3784 36.3699L45.3784 38.2009L41.8074 36.139L41.8073 34.308L42.5685 34.7475L42.5683 27.9066L41.8071 27.4672L41.8071 25.6361L45.3781 27.698ZM54.2218 42.6039C53.3339 42.682 52.2302 42.3402 50.9109 41.5784C49.4478 40.7337 48.2934 39.6008 47.4477 38.1799C46.6062 36.7565 46.1854 35.2245 46.1853 33.5839C46.1853 31.9335 46.6461 30.8544 47.5679 30.3466C48.4897 29.8389 49.716 30.0269 51.2467 30.9107C52.2108 31.4674 53.0608 32.1119 53.7966 32.8444L53.7966 35.0636C53.0947 34.1896 52.2363 33.4596 51.2214 32.8736C50.3715 32.3829 49.678 32.3023 49.141 32.6318C48.6082 32.959 48.3418 33.6548 48.3419 34.7192C48.3419 35.7983 48.5809 36.7712 49.0587 37.6379C49.5408 38.5071 50.1899 39.1773 51.006 39.6485C51.4965 39.9317 51.8855 40.0758 52.1731 40.0807L52.173 38.0299L50.3526 36.9788L50.3525 35.0892L54.2217 37.3232L54.2218 42.6039ZM63.9279 48.9113L61.8729 47.7247L61.8727 43.4473L58.1051 41.2719L58.1052 45.5493L56.0565 44.3663L56.0561 33.8634L58.1049 35.0463L58.105 39.2358L61.8727 41.4112L61.8725 37.2218L63.9276 38.4083L63.9279 48.9113ZM72.4666 45.265L69.8724 43.7671L69.8727 52.3437L67.8176 51.1571L67.8173 42.5805L65.2358 41.0899L65.2357 39.1637L72.4666 43.3387L72.4666 45.265ZM73.274 54.4907C72.9442 54.3003 72.6693 54.0244 72.4494 53.6631C72.2295 53.3017 72.1196 52.9502 72.1196 52.6084C72.1195 52.2568 72.2316 52.0334 72.4557 51.9382C72.684 51.8454 72.9673 51.8967 73.3056 52.092C73.6481 52.2898 73.9272 52.5657 74.1429 52.9197C74.3628 53.2713 74.4727 53.6204 74.4728 53.9671C74.4728 54.3235 74.3607 54.5518 74.1366 54.6519C73.9167 54.7495 73.6292 54.6958 73.274 54.4907ZM79.9497 58.1621L79.9494 47.6592L84.1991 50.1129L84.1991 50.7794L80.5773 48.6883L80.5775 52.8997L83.9392 54.8407L83.9392 55.4999L80.5775 53.5589L80.5776 57.8655L84.4087 60.0775L84.4087 60.7367L79.9497 58.1621ZM86.0467 61.3529L86.0467 60.5399C86.2666 60.8866 86.533 61.2138 86.8459 61.5214C87.1588 61.829 87.4294 62.0487 87.6578 62.1806C88.6769 62.769 89.1864 62.5822 89.1863 61.6203C89.1863 61.2883 89.0743 60.9404 88.8501 60.5766C88.626 60.2128 88.2624 59.7612 87.7592 59.2216C87.1375 58.5502 86.6999 57.9752 86.4462 57.4967C86.1967 57.0157 86.0719 56.536 86.0719 56.0575C86.0719 55.4471 86.2727 55.0699 86.6744 54.9259C87.0803 54.7843 87.5793 54.8844 88.1713 55.2263C88.7295 55.5485 89.2073 55.9563 89.6048 56.4494L89.6048 57.2112C89.1228 56.5715 88.6238 56.1027 88.1079 55.8049C87.6808 55.5583 87.3362 55.4887 87.074 55.5961C86.8119 55.6986 86.6808 55.955 86.6808 56.3651C86.6808 56.7216 86.7633 57.0597 86.9282 57.3795C87.0931 57.6945 87.4568 58.1584 88.0192 58.7712C88.6958 59.5134 89.1609 60.1091 89.4147 60.5583C89.6684 61.0027 89.7952 61.4739 89.7953 61.9719C89.7953 62.5676 89.6008 62.9485 89.2118 63.1145C88.827 63.278 88.2942 63.1633 87.6134 62.7702C86.9876 62.4088 86.4653 61.9364 86.0467 61.3529ZM95.1264 66.925L95.126 55.8215L95.7095 56.1584L95.7099 67.2619L95.1264 66.925ZM101.737 70.742L101.737 69.2406L101.712 69.2259C101.505 69.619 101.202 69.8546 100.805 69.9327C100.411 70.0083 99.9738 69.907 99.4918 69.6287C98.8744 69.2722 98.386 68.79 98.0265 68.1821C97.6671 67.5742 97.4874 66.965 97.4873 66.3547C97.4873 65.0461 98.2379 64.6884 99.739 65.2818L101.737 66.0911C101.737 64.4798 101.213 63.3714 100.164 62.7659C99.4492 62.3533 98.7536 62.2837 98.0771 62.5571L98.0771 61.7441C98.3181 61.6635 98.6437 61.6636 99.0539 61.7441C99.4682 61.8272 99.8573 61.9736 100.221 62.1836C100.889 62.5694 101.405 63.1065 101.769 63.795C102.137 64.4859 102.32 65.2879 102.321 66.201L102.321 71.079L101.737 70.742ZM99.9483 65.9739C99.2675 65.6931 98.7897 65.6003 98.5148 65.6955C98.24 65.7859 98.1026 66.1142 98.1026 66.6806C98.1026 67.125 98.2295 67.5644 98.4832 67.999C98.7412 68.436 99.0985 68.7864 99.5552 69.0501C100.181 69.4114 100.701 69.4456 101.115 69.1526C101.53 68.8548 101.737 68.2835 101.737 67.4388L101.737 66.7064L99.9483 65.9739ZM5.24648 30.6991C4.76443 30.7626 4.18935 30.6015 3.52124 30.2157C2.63747 29.7054 1.92495 28.9449 1.38367 27.9341C0.842391 26.9185 0.571733 25.8443 0.571697 24.7114C0.571659 23.52 0.876085 22.7217 1.48497 22.3165C2.09386 21.9063 2.87613 21.9771 3.83179 22.5289C4.32653 22.8146 4.80648 23.2089 5.27163 23.7118L5.27165 24.4736C4.8065 23.873 4.29695 23.4127 3.74301 23.0929C2.98187 22.6534 2.36451 22.6143 1.89093 22.9756C1.41735 23.3321 1.18058 24.0132 1.18061 25.0191C1.18064 25.9908 1.39632 26.8965 1.82765 27.7364C2.26321 28.5787 2.83619 29.2049 3.54659 29.6151C4.19779 29.9911 4.76441 30.1181 5.24646 29.996L5.24648 30.6991ZM10.7599 34.2122L10.7599 32.7107L10.7345 32.696C10.5273 33.0891 10.225 33.3247 9.82753 33.4028C9.43429 33.4785 8.99664 33.3771 8.51458 33.0988C7.89721 32.7423 7.4088 32.2602 7.04936 31.6522C6.68992 31.0443 6.51019 30.4352 6.51017 29.8248C6.51013 28.5162 7.26068 28.1586 8.76181 28.7519L10.7598 29.5613C10.7597 27.95 10.2354 26.8415 9.18669 26.236C8.47206 25.8234 7.77648 25.7538 7.09993 26.0272L7.0999 25.2142C7.34092 25.1337 7.66652 25.1337 8.07668 25.2143C8.49107 25.2973 8.8801 25.4438 9.24376 25.6538C9.91187 26.0395 10.4278 26.5767 10.7914 27.2651C11.1593 27.9561 11.3433 28.7581 11.3433 29.6712L11.3435 34.5491L10.7599 34.2122ZM8.97114 29.444C8.29035 29.1633 7.81252 29.0705 7.53768 29.1657C7.26283 29.256 7.12541 29.5844 7.12543 30.1508C7.12544 30.5951 7.25231 31.0346 7.50603 31.4691C7.76399 31.9062 8.1213 32.2565 8.57799 32.5202C9.20382 32.8815 9.72392 32.9157 10.1383 32.6228C10.5527 32.3249 10.7599 31.7537 10.7598 30.9089L10.7598 30.1765L8.97114 29.444ZM13.9709 34.7332L13.9455 34.7185L13.9457 39.5012L13.3621 39.1643L13.3618 28.2146L13.9453 28.5515L13.9454 30.0969L13.9708 30.1116C14.2033 29.6941 14.5352 29.461 14.9665 29.4122C15.4021 29.3609 15.8799 29.4854 16.4 29.7857C17.2246 30.2618 17.8673 30.9625 18.3283 31.8878C18.7934 32.8107 19.026 33.8361 19.0261 34.964C19.0261 36.2189 18.7597 37.0807 18.227 37.5495C17.6984 38.0158 16.9986 37.9974 16.1275 37.4945C15.1549 36.9329 14.4361 36.0125 13.9709 34.7332ZM13.9454 31.928L13.9455 32.8728C13.9455 33.6248 14.1506 34.3902 14.5608 35.169C14.971 35.9429 15.5101 36.5228 16.1782 36.9085C16.8421 37.2918 17.3813 37.276 17.7956 36.861C18.21 36.4411 18.4172 35.6964 18.4171 34.6271C18.4171 33.6896 18.2268 32.8351 17.8462 32.0636C17.4656 31.2921 16.9582 30.7232 16.3239 30.357C15.567 29.92 14.9814 29.8748 14.567 30.2215C14.1526 30.5681 13.9454 31.137 13.9454 31.928ZM24.5904 42.1978L24.5903 40.6963L24.565 40.6816C24.3578 41.0747 24.0555 41.3103 23.658 41.3884C23.2647 41.4641 22.8271 41.3627 22.345 41.0844C21.7277 40.7279 21.2392 40.2458 20.8798 39.6378C20.5204 39.0299 20.3406 38.4208 20.3406 37.8104C20.3406 36.5018 21.0911 36.1442 22.5923 36.7375L24.5902 37.5469C24.5902 35.9356 24.0658 34.8271 23.0171 34.2216C22.3025 33.809 21.6069 33.7394 20.9304 34.0128L20.9303 33.1998C21.1714 33.1193 21.497 33.1193 21.9071 33.1999C22.3215 33.2829 22.7105 33.4294 23.0742 33.6394C23.7423 34.0251 24.2582 34.5623 24.6219 35.2507C24.9898 35.9417 25.1737 36.7437 25.1738 37.6568L25.1739 42.5347L24.5904 42.1978ZM22.8016 37.4296C22.1208 37.1489 21.643 37.0561 21.3681 37.1513C21.0933 37.2416 20.9559 37.57 20.9559 38.1364C20.9559 38.5807 21.0828 39.0202 21.3365 39.4547C21.5944 39.8918 21.9517 40.2421 22.4084 40.5058C23.0343 40.8671 23.5544 40.9013 23.9687 40.6084C24.3831 40.3105 24.5903 39.7393 24.5903 38.8945L24.5903 38.1621L22.8016 37.4296ZM31.3978 45.7987C30.9157 45.8622 30.3406 45.701 29.6725 45.3153C28.7888 44.805 28.0762 44.0445 27.535 43.0337C26.9937 42.0181 26.723 40.9438 26.723 39.811C26.7229 38.6196 27.0274 37.8213 27.6363 37.416C28.2452 37.0059 29.0274 37.0767 29.9831 37.6285C30.4778 37.9142 30.9578 38.3085 31.4229 38.8114L31.4229 39.5731C30.9578 38.9725 30.4482 38.5123 29.8943 38.1925C29.1332 37.753 28.5158 37.7139 28.0422 38.0752C27.5686 38.4316 27.3319 39.1128 27.3319 40.1186C27.3319 41.0903 27.5476 41.9961 27.9789 42.836C28.4145 43.6783 28.9875 44.3045 29.6979 44.7147C30.3491 45.0907 30.9157 45.2176 31.3977 45.0956L31.3978 45.7987ZM33.3145 37.8455C33.1877 37.7723 33.0756 37.6539 32.9784 37.4903C32.8811 37.3267 32.8325 37.1619 32.8325 36.9959C32.8325 36.8348 32.8811 36.7335 32.9783 36.692C33.0798 36.648 33.1919 36.6615 33.3145 36.7323C33.4456 36.808 33.5598 36.9227 33.657 37.0765C33.7585 37.2328 33.8093 37.3939 33.8093 37.5599C33.8093 37.7162 33.7606 37.8224 33.6634 37.8785C33.5661 37.9347 33.4499 37.9237 33.3145 37.8455ZM33.0294 47.0704L33.0292 39.5704L33.6127 39.9073L33.613 47.4073L33.0294 47.0704ZM40.3696 51.3086L40.3696 49.9463L40.3442 49.9316C40.1328 50.2832 39.8199 50.4785 39.4055 50.5175C38.9911 50.5566 38.5238 50.4259 38.0037 50.1256C37.2045 49.6642 36.5512 48.95 36.0438 47.9832C35.5405 47.0189 35.2889 45.9434 35.2889 44.7569C35.2888 43.546 35.5637 42.7257 36.1133 42.296C36.6673 41.8639 37.384 41.9017 38.2635 42.4096C39.2361 42.9711 39.9296 43.833 40.344 44.9951L40.3694 45.0097L40.3692 40.2051L40.9528 40.542L40.9531 51.6455L40.3696 51.3086ZM40.3695 46.7456C40.3694 46.0473 40.177 45.3454 39.7922 44.6398C39.4116 43.9318 38.8978 43.391 38.2509 43.0175C37.5701 42.6244 37.0077 42.6024 36.5637 42.9515C36.1197 43.2957 35.8977 43.9952 35.8978 45.0499C35.8978 46.085 36.0966 47.0006 36.4941 47.7965C36.8958 48.59 37.4117 49.1686 38.0418 49.5324C38.7818 49.9596 39.3547 50.0268 39.7607 49.7338C40.1666 49.436 40.3695 48.9062 40.3695 48.1445L40.3695 46.7456ZM46.9867 55.1292L46.9867 53.6278L46.9613 53.6131C46.7541 54.0062 46.4518 54.2418 46.0543 54.3199C45.6611 54.3956 45.2234 54.2942 44.7414 54.0159C44.124 53.6594 43.6356 53.1772 43.2761 52.5693C42.9167 51.9614 42.737 51.3522 42.7369 50.7419C42.7369 49.4333 43.4874 49.0757 44.9886 49.669L46.9866 50.4784C46.9865 48.867 46.4621 47.7586 45.4135 47.1531C44.6988 46.7405 44.0032 46.6709 43.3267 46.9443L43.3267 46.1313C43.5677 46.0508 43.8933 46.0508 44.3035 46.1313C44.7178 46.2144 45.1069 46.3609 45.4705 46.5708C46.1386 46.9566 46.6545 47.4937 47.0182 48.1822C47.3861 48.8731 47.5701 49.6752 47.5701 50.5882L47.5703 55.4662L46.9867 55.1292ZM45.1979 50.3611C44.5171 50.0803 44.0393 49.9875 43.7644 50.0827C43.4896 50.1731 43.3522 50.5014 43.3522 51.0678C43.3522 51.5122 43.4791 51.9516 43.7328 52.3862C43.9908 52.8232 44.3481 53.1736 44.8048 53.4373C45.4306 53.7986 45.9507 53.8328 46.3651 53.5399C46.7795 53.242 46.9866 52.6707 46.9866 51.826L46.9866 51.0936L45.1979 50.3611ZM54.2 59.2942L54.2 57.9319L54.1746 57.9172C53.9632 58.2688 53.6503 58.4641 53.2359 58.5031C52.8215 58.5422 52.3543 58.4115 51.8342 58.1112C51.035 57.6498 50.3816 56.9356 49.8742 55.9688C49.371 55.0045 49.1193 53.929 49.1193 52.7425C49.1193 51.5316 49.3941 50.7112 49.9438 50.2816C50.4977 49.8495 51.2144 49.8873 52.094 50.3952C53.0665 50.9567 53.76 51.8186 54.1745 52.9807L54.1998 52.9953L54.1997 48.1906L54.7832 48.5276L54.7836 59.6311L54.2 59.2942ZM54.1999 54.7312C54.1999 54.0329 54.0075 53.331 53.6226 52.6254C53.2421 51.9174 52.7283 51.3766 52.0813 51.0031C51.4005 50.61 50.8381 50.588 50.3941 50.9371C49.9502 51.2813 49.7282 51.9808 49.7282 53.0355C49.7283 54.0706 49.927 54.9862 50.3245 55.7821C50.7263 56.5755 51.2422 57.1542 51.8722 57.518C52.6122 57.9452 53.1852 58.0124 53.5911 57.7194C53.997 57.4216 54.2 56.8918 54.1999 56.1301L54.1999 54.7312ZM65.1762 65.6317L65.1762 64.2694L65.1508 64.2548C64.9394 64.6063 64.6265 64.8016 64.2121 64.8407C63.7977 64.8797 63.3304 64.7491 62.8103 64.4488C62.0111 63.9873 61.3578 63.2732 60.8504 62.3064C60.3471 61.342 60.0955 60.2666 60.0955 59.08C60.0954 57.8691 60.3703 57.0488 60.92 56.6191C61.4739 56.187 62.1906 56.2249 63.0701 56.7327C64.0427 57.2943 64.7362 58.1561 65.1506 59.3182L65.176 59.3329L65.1759 54.5282L65.7594 54.8651L65.7597 65.9687L65.1762 65.6317ZM65.1761 61.0687C65.176 60.3705 64.9836 59.6686 64.5988 58.963C64.2182 58.255 63.7044 57.7142 63.0575 57.3406C62.3767 56.9476 61.8143 56.9256 61.3703 57.2747C60.9263 57.6189 60.7044 58.3183 60.7044 59.373C60.7044 60.4082 60.9032 61.3237 61.3007 62.1196C61.7024 62.9131 62.2183 63.4917 62.8484 63.8555C63.5884 64.2828 64.1613 64.35 64.5673 64.057C64.9732 63.7592 65.1761 63.2294 65.1761 62.4677L65.1761 61.0687ZM68.0509 63.5709C68.051 64.6012 68.2561 65.5253 68.6663 66.3432C69.0807 67.1635 69.6473 67.7812 70.3662 68.1962C71.0935 68.6162 71.8039 68.7163 72.4973 68.4966L72.4973 69.2144C71.825 69.3779 71.0745 69.2204 70.2457 68.7419C69.4084 68.2585 68.7318 67.5211 68.2159 66.5299C67.7 65.5387 67.442 64.4107 67.442 63.1461C67.442 62.0524 67.7105 61.287 68.2475 60.85C68.7887 60.4105 69.4906 60.4399 70.3532 60.9379C71.1609 61.4043 71.7804 62.0891 72.2117 62.9924C72.6431 63.8958 72.8587 64.9139 72.8588 66.0467L72.8588 66.347L68.0509 63.5709ZM72.2499 65.3801C72.2245 64.5012 72.0447 63.7261 71.7107 63.0547C71.3766 62.3833 70.9157 61.8779 70.3279 61.5385C69.719 61.1869 69.2137 61.132 68.812 61.3737C68.4145 61.6129 68.1693 62.1451 68.0763 62.9703L72.2499 65.3801ZM82.0464 75.3724L82.0463 73.871L82.021 73.8563C81.8138 74.2494 81.5115 74.485 81.114 74.5631C80.7207 74.6388 80.2831 74.5374 79.801 74.2591C79.1837 73.9026 78.6953 73.4204 78.3358 72.8125C77.9764 72.2046 77.7966 71.5955 77.7966 70.9851C77.7966 69.6765 78.5471 69.3189 80.0483 69.9122L82.0462 70.7216C82.0462 69.1102 81.5218 68.0018 80.4731 67.3963C79.7585 66.9837 79.0629 66.9141 78.3864 67.1875L78.3864 66.3745C78.6274 66.294 78.953 66.294 79.3631 66.3746C79.7775 66.4576 80.1666 66.6041 80.5302 66.814C81.1983 67.1998 81.7142 67.7369 82.0779 68.4254C82.4458 69.1164 82.6298 69.9184 82.6298 70.8314L82.6299 75.7094L82.0464 75.3724ZM80.2576 70.6043C79.5768 70.3235 79.099 70.2308 78.8241 70.326C78.5493 70.4163 78.4119 70.7446 78.4119 71.3111C78.4119 71.7554 78.5388 72.1948 78.7925 72.6294C79.0504 73.0664 79.4078 73.4168 79.8644 73.6805C80.4903 74.0418 81.0104 74.076 81.4248 73.7831C81.8391 73.4852 82.0463 72.914 82.0463 72.0692L82.0463 71.3368L80.2576 70.6043ZM85.2574 75.8935L85.232 75.8788L85.2321 80.6615L84.6486 80.3246L84.6482 69.3749L85.2318 69.7118L85.2318 71.2572L85.2572 71.2719C85.4898 70.8544 85.8217 70.6213 86.253 70.5724C86.6885 70.5212 87.1663 70.6457 87.6865 70.946C88.511 71.4221 89.1538 72.1228 89.6147 73.0481C90.0799 73.971 90.3125 74.9964 90.3125 76.1243C90.3126 77.3792 90.0462 78.241 89.5134 78.7097C88.9849 79.176 88.2851 79.1577 87.414 78.6547C86.4414 78.0932 85.7225 77.1728 85.2574 75.8935ZM85.2319 73.0883L85.2319 74.0331C85.232 74.7851 85.4371 75.5504 85.8472 76.3293C86.2574 77.1032 86.7966 77.6831 87.4647 78.0688C88.1286 78.4521 88.6677 78.4363 89.0821 78.0213C89.4965 77.6013 89.7036 76.8567 89.7036 75.7874C89.7036 74.8499 89.5133 73.9954 89.1327 73.2239C88.7521 72.4524 88.2447 71.8835 87.6104 71.5173C86.8535 71.0803 86.2678 71.0351 85.8534 71.3818C85.439 71.7284 85.2319 72.2973 85.2319 73.0883ZM95.0584 76.0887C94.8639 75.8153 94.6355 75.6029 94.3734 75.4515C93.8617 75.1561 93.4325 75.2134 93.0858 75.6236C92.7391 76.0337 92.5657 76.8003 92.5658 77.9234L92.5659 81.4463L91.995 81.1167L91.9948 73.6167L92.5656 73.9463L92.5657 75.6089L92.5911 75.6236C92.739 75.1377 92.9737 74.8289 93.2951 74.6971C93.6164 74.5652 93.9885 74.6214 94.4114 74.8656C94.6524 75.0047 94.8681 75.1732 95.0584 75.371L95.0584 76.0887ZM96.2208 79.836C96.2208 80.8663 96.4259 81.7903 96.8361 82.6082C97.2505 83.4285 97.8171 84.0462 98.536 84.4613C99.2633 84.8812 99.9737 84.9814 100.667 84.7617L100.667 85.4794C99.9949 85.643 99.2443 85.4855 98.4155 85.007C97.5782 84.5235 96.9017 83.7862 96.3858 82.795C95.8699 81.8037 95.6119 80.6758 95.6118 79.4112C95.6118 78.3174 95.8803 77.552 96.4173 77.115C96.9585 76.6756 97.6605 76.7049 98.5231 77.203C99.3307 77.6693 99.9502 78.3542 100.382 79.2575C100.813 80.1608 101.029 81.1789 101.029 82.3117L101.029 82.612L96.2208 79.836ZM100.42 81.6452C100.394 80.7663 100.215 79.9911 99.8805 79.3197C99.5464 78.6483 99.0855 78.143 98.4977 77.8036C97.8888 77.452 97.3835 77.3971 96.9818 77.6387C96.5843 77.878 96.3391 78.4102 96.2461 79.2354L100.42 81.6452ZM107.119 89.8494L107.119 85.4842C107.119 83.6824 106.557 82.4568 105.432 81.8074C104.806 81.446 104.292 81.4155 103.891 81.7158C103.489 82.0112 103.288 82.5495 103.288 83.3307L103.288 87.6374L102.705 87.3005L102.705 79.8005L103.288 80.1374L103.288 81.4997L103.314 81.5143C103.787 80.7575 104.527 80.6697 105.533 81.2507C106.235 81.656 106.772 82.2371 107.145 82.994C107.517 83.7459 107.703 84.6224 107.703 85.6234L107.703 90.1864L107.119 89.8494ZM114.333 94.0143L114.333 92.652L114.307 92.6374C114.096 92.9889 113.783 93.1843 113.369 93.2233C112.954 93.2624 112.487 93.1317 111.967 92.8314C111.168 92.37 110.514 91.6558 110.007 90.689C109.504 89.7246 109.252 88.6492 109.252 87.4627C109.252 86.2517 109.527 85.4314 110.076 85.0018C110.63 84.5696 111.347 84.6075 112.227 85.1154C113.199 85.6769 113.893 86.5387 114.307 87.7009L114.333 87.7155L114.332 82.9108L114.916 83.2478L114.916 94.3513L114.333 94.0143ZM114.333 89.4514C114.333 88.7531 114.14 88.0512 113.755 87.3456C113.375 86.6376 112.861 86.0968 112.214 85.7233C111.533 85.3302 110.971 85.3082 110.527 85.6573C110.083 86.0015 109.861 86.701 109.861 87.7557C109.861 88.7908 110.06 89.7063 110.457 90.5023C110.859 91.2957 111.375 91.8744 112.005 92.2381C112.745 92.6654 113.318 92.7326 113.724 92.4396C114.13 92.1418 114.333 91.612 114.333 90.8503L114.333 89.4514ZM117.207 91.9536C117.207 92.9838 117.413 93.9079 117.823 94.7258C118.237 95.5461 118.804 96.1638 119.523 96.5789C120.25 96.9988 120.96 97.0989 121.654 96.8792L121.654 97.597C120.982 97.7606 120.231 97.6031 119.402 97.1245C118.565 96.6411 117.888 95.9038 117.372 94.9125C116.857 93.9213 116.599 92.7934 116.599 91.5287C116.599 90.435 116.867 89.6696 117.404 89.2326C117.945 88.7932 118.647 88.8225 119.51 89.3206C120.317 89.7869 120.937 90.4717 121.368 91.3751C121.8 92.2784 122.015 93.2965 122.015 94.4293L122.015 94.7296L117.207 91.9536ZM121.406 93.7628C121.381 92.8839 121.201 92.1087 120.867 91.4373C120.533 90.7659 120.072 90.2605 119.484 89.9212C118.876 89.5696 118.37 89.5146 117.969 89.7563C117.571 89.9956 117.326 90.5278 117.233 91.353L121.406 93.7628ZM126.755 94.39C126.56 94.1166 126.332 93.9042 126.07 93.7528C125.558 93.4574 125.129 93.5147 124.782 93.9249C124.436 94.335 124.262 95.1016 124.262 96.2247L124.262 99.7476L123.691 99.418L123.691 91.918L124.262 92.2476L124.262 93.9102L124.288 93.9249C124.435 93.439 124.67 93.1302 124.992 92.9984C125.313 92.8666 125.685 92.9227 126.108 93.1669C126.349 93.306 126.565 93.4745 126.755 93.6723L126.755 94.39ZM5.65294 47.2631L5.6529 45.9008L5.62753 45.8862C5.41611 46.2377 5.10321 46.433 4.68882 46.4721C4.27443 46.5111 3.80718 46.3805 3.28707 46.0802C2.48787 45.6187 1.83454 44.9046 1.32709 43.9378C0.823874 42.9734 0.572245 41.898 0.572207 40.7114C0.572169 39.5005 0.846994 38.6802 1.39668 38.2505C1.9506 37.8184 2.66733 37.8563 3.54687 38.3641C4.51944 38.9257 5.21294 39.7875 5.62737 40.9496L5.65274 40.9643L5.65259 36.1596L6.23613 36.4965L6.23648 47.6001L5.65294 47.2631ZM5.65279 42.7001C5.65277 42.0019 5.46035 41.3 5.07554 40.5944C4.69495 39.8864 4.18118 39.3456 3.53421 38.972C2.85341 38.579 2.29102 38.557 1.84704 38.9061C1.40306 39.2503 1.18108 39.9497 1.18112 41.0044C1.18115 42.0396 1.37992 42.9551 1.77742 43.751C2.17915 44.5445 2.69505 45.1231 3.3251 45.4869C4.0651 45.9142 4.63806 45.9814 5.04399 45.6884C5.44991 45.3906 5.65286 44.8608 5.65284 44.0991L5.65279 42.7001ZM8.52765 45.2023C8.52768 46.2326 8.7328 47.1567 9.14298 47.9746C9.5574 48.7949 10.124 49.4126 10.8429 49.8276C11.5702 50.2476 12.2806 50.3477 12.9741 50.128L12.9741 50.8458C12.3018 51.0093 11.5512 50.8518 10.7224 50.3733C9.88514 49.8899 9.20856 49.1525 8.69266 48.1613C8.17675 47.1701 7.91878 46.0422 7.91874 44.7775C7.9187 43.6838 8.18719 42.9184 8.72419 42.4814C9.26542 42.042 9.96735 42.0713 10.83 42.5693C11.6376 43.0357 12.2571 43.7205 12.6885 44.6238C13.1198 45.5272 13.3355 46.5453 13.3355 47.6781L13.3355 47.9784L8.52765 45.2023ZM12.7266 47.0115C12.7012 46.1326 12.5215 45.3575 12.1874 44.6861C11.8533 44.0147 11.3924 43.5093 10.8046 43.1699C10.1957 42.8183 9.69041 42.7634 9.28871 43.0051C8.89124 43.2443 8.646 43.7766 8.553 44.6017L12.7266 47.0115ZM15.0117 52.6668L15.0113 41.5633L15.5949 41.9002L15.5952 53.0037L15.0117 52.6668ZM21.9791 55.3568L21.9538 55.3421L21.9539 60.1248L21.3704 59.7879L21.37 48.8382L21.9536 49.1751L21.9536 50.7205L21.979 50.7352C22.2115 50.3177 22.5435 50.0846 22.9748 50.0357C23.4103 49.9845 23.8881 50.109 24.4082 50.4093C25.2328 50.8854 25.8756 51.5861 26.3365 52.5114C26.8016 53.4343 27.0342 54.4597 27.0343 55.5876C27.0343 56.8425 26.768 57.7043 26.2352 58.1731C25.7066 58.6394 25.0068 58.621 24.1357 58.1181C23.1632 57.5565 22.4443 56.6361 21.9791 55.3568ZM21.9537 52.5516L21.9537 53.4964C21.9537 54.2484 22.1588 55.0137 22.569 55.7926C22.9792 56.5665 23.5183 57.1464 24.1865 57.5321C24.8503 57.9154 25.3895 57.8996 25.8039 57.4846C26.2182 57.0647 26.4254 56.32 26.4254 55.2507C26.4253 54.3132 26.235 53.4587 25.8544 52.6872C25.4739 51.9157 24.9664 51.3468 24.3321 50.9806C23.5752 50.5436 22.9896 50.4984 22.5752 50.8451C22.1608 51.1917 21.9536 51.7606 21.9537 52.5516ZM32.5986 62.8214L32.5986 61.3199L32.5732 61.3052C32.366 61.6983 32.0637 61.9339 31.6662 62.012C31.273 62.0877 30.8353 61.9863 30.3532 61.708C29.7359 61.3515 29.2475 60.8693 28.888 60.2614C28.5286 59.6535 28.3489 59.0444 28.3488 58.434C28.3488 57.1254 29.0993 56.7678 30.6005 57.3611L32.5985 58.1705C32.5984 56.5592 32.074 55.4507 31.0254 54.8452C30.3107 54.4326 29.6151 54.363 28.9386 54.6364L28.9386 53.8234C29.1796 53.7429 29.5052 53.7429 29.9153 53.8235C30.3297 53.9065 30.7188 54.053 31.0824 54.263C31.7505 54.6487 32.2664 55.1858 32.6301 55.8743C32.998 56.5653 33.182 57.3673 33.182 58.2804L33.1821 63.1583L32.5986 62.8214ZM30.8098 58.0532C30.129 57.7725 29.6512 57.6797 29.3763 57.7749C29.1015 57.8652 28.9641 58.1936 28.9641 58.76C28.9641 59.2043 29.091 59.6438 29.3447 60.0783C29.6027 60.5154 29.96 60.8657 30.4167 61.1294C31.0425 61.4907 31.5626 61.5249 31.977 61.232C32.3914 60.9341 32.5985 60.3629 32.5985 59.5181L32.5985 58.7857L30.8098 58.0532ZM34.8645 63.8001L34.8645 62.9871C35.0844 63.3338 35.3508 63.6609 35.6637 63.9686C35.9766 64.2762 36.2473 64.4959 36.4756 64.6278C37.4947 65.2162 38.0042 65.0294 38.0042 64.0675C38.0042 63.7355 37.8921 63.3876 37.668 63.0238C37.4439 62.66 37.0802 62.2084 36.577 61.6688C35.9554 60.9974 35.5177 60.4224 35.264 59.9439C35.0145 59.4629 34.8897 58.9832 34.8897 58.5047C34.8897 57.8943 35.0905 57.5171 35.4922 57.3731C35.8982 57.2315 36.3971 57.3316 36.9891 57.6735C37.5473 57.9957 38.0251 58.4035 38.4226 58.8966L38.4227 59.6584C37.9406 59.0187 37.4416 58.5499 36.9257 58.2521C36.4986 58.0055 36.154 57.9359 35.8919 58.0433C35.6297 58.1458 35.4986 58.4022 35.4986 58.8123C35.4986 59.1688 35.5811 59.5069 35.746 59.8267C35.9109 60.1417 36.2746 60.6056 36.837 61.2184C37.5136 61.9606 37.9788 62.5563 38.2325 63.0055C38.4862 63.4499 38.6131 63.9211 38.6131 64.4191C38.6131 65.0148 38.4186 65.3957 38.0296 65.5617C37.6448 65.7252 37.112 65.6105 36.4312 65.2174C35.8054 64.856 35.2832 64.3836 34.8645 63.8001ZM44.1964 69.5178L44.1963 68.0164L44.171 68.0017C43.9638 68.3948 43.6614 68.6304 43.264 68.7085C42.8707 68.7841 42.4331 68.6828 41.951 68.4045C41.3336 68.048 40.8452 67.5658 40.4858 66.9579C40.1264 66.35 39.9466 65.7408 39.9466 65.1305C39.9466 63.8219 40.6971 63.4642 42.1982 64.0576L44.1962 64.8669C44.1962 63.2556 43.6718 62.1472 42.6231 61.5417C41.9085 61.1291 41.2129 61.0595 40.5364 61.3329L40.5363 60.5199C40.7774 60.4393 41.1029 60.4394 41.5131 60.5199C41.9275 60.603 42.3165 60.7495 42.6802 60.9594C43.3483 61.3452 43.8642 61.8823 44.2279 62.5708C44.5958 63.2617 44.7797 64.0637 44.7798 64.9768L44.7799 69.8548L44.1964 69.5178ZM42.4076 64.7497C41.7268 64.4689 41.249 64.3761 40.9741 64.4713C40.6993 64.5617 40.5618 64.89 40.5619 65.4564C40.5619 65.9008 40.6887 66.3402 40.9425 66.7748C41.2004 67.2118 41.5577 67.5622 42.0144 67.8259C42.6402 68.1872 43.1604 68.2214 43.5747 67.9284C43.9891 67.6306 44.1963 67.0593 44.1963 66.2146L44.1962 65.4822L42.4076 64.7497ZM51.4097 73.6827L51.4097 72.3204L51.3843 72.3058C51.1729 72.6574 50.86 72.8527 50.4456 72.8917C50.0312 72.9308 49.5639 72.8001 49.0438 72.4998C48.2446 72.0384 47.5913 71.3242 47.0839 70.3574C46.5806 69.393 46.329 68.3176 46.329 67.1311C46.3289 65.9201 46.6038 65.0998 47.1534 64.6702C47.7074 64.2381 48.4241 64.2759 49.3036 64.7838C50.2762 65.3453 50.9697 66.2071 51.3841 67.3693L51.4095 67.3839L51.4093 62.5792L51.9929 62.9162L51.9932 74.0197L51.4097 73.6827ZM51.4096 69.1198C51.4095 68.4215 51.2171 67.7196 50.8323 67.014C50.4517 66.306 49.9379 65.7652 49.291 65.3917C48.6102 64.9986 48.0478 64.9766 47.6038 65.3257C47.1598 65.6699 46.9378 66.3694 46.9379 67.4241C46.9379 68.4592 47.1367 69.3748 47.5342 70.1707C47.9359 70.9641 48.4518 71.5428 49.0819 71.9066C49.8219 72.3338 50.3948 72.401 50.8008 72.108C51.2067 71.8102 51.4096 71.2804 51.4096 70.5187L51.4096 69.1198ZM56.7519 76.9504C55.8047 76.4035 55.0541 75.6112 54.5002 74.5736C53.9504 73.5336 53.6755 72.4374 53.6755 71.285C53.6755 70.0399 53.963 69.2318 54.538 68.8607C55.1173 68.4921 55.8785 68.58 56.8214 69.1245C57.7475 69.6592 58.479 70.4307 59.0161 71.439C59.5531 72.4473 59.8217 73.5692 59.8217 74.8045C59.8218 75.9715 59.5469 76.7576 58.9972 77.1629C58.4518 77.5706 57.7033 77.4997 56.7519 76.9504ZM56.7961 69.7251C56.0307 69.2831 55.4197 69.2282 54.963 69.5602C54.5106 69.8947 54.2844 70.5917 54.2844 71.6512C54.2844 72.6327 54.5065 73.5495 54.9505 74.4015C55.3945 75.2536 56.0013 75.9018 56.7709 76.3462C57.5532 76.7978 58.1558 76.8528 58.5786 76.511C59.0014 76.1692 59.2128 75.4783 59.2128 74.4383C59.2128 73.3689 59.0013 72.4265 58.5784 71.6111C58.1598 70.7981 57.5657 70.1694 56.7961 69.7251ZM61.9038 79.8738C61.76 79.7908 61.6395 79.6651 61.5423 79.4966C61.445 79.3233 61.3964 79.1536 61.3964 78.9876C61.3964 78.8167 61.445 78.7056 61.5422 78.6543C61.6395 78.5982 61.76 78.6116 61.9038 78.6946C62.0475 78.7776 62.1702 78.9046 62.2717 79.0755C62.3732 79.2415 62.4239 79.41 62.4239 79.5809C62.4239 79.7469 62.3732 79.8592 62.2717 79.9178C62.1702 79.9715 62.0476 79.9568 61.9038 79.8738ZM68.218 83.3877L68.2177 72.8848L72.4674 75.3385L72.4674 76.0051L68.8456 73.9139L68.8457 78.1253L72.2075 80.0663L72.2075 80.7255L68.8458 78.7845L68.8459 83.0911L72.677 85.3032L72.677 85.9623L68.218 83.3877ZM74.315 86.5785L74.3149 85.7655C74.5348 86.1122 74.8012 86.4394 75.1142 86.747C75.4271 87.0546 75.6977 87.2743 75.926 87.4062C76.9451 87.9946 77.4547 87.8078 77.4546 86.8459C77.4546 86.5139 77.3425 86.166 77.1184 85.8022C76.8943 85.4384 76.5306 84.9868 76.0274 84.4472C75.4058 83.7758 74.9682 83.2008 74.7144 82.7223C74.4649 82.2413 74.3402 81.7616 74.3402 81.2831C74.3402 80.6727 74.541 80.2955 74.9427 80.1515C75.3486 80.0099 75.8476 80.11 76.4396 80.4519C76.9978 80.7741 77.4756 81.1819 77.8731 81.675L77.8731 82.4368C77.391 81.7971 76.8921 81.3283 76.3762 81.0305C75.9491 80.7839 75.6045 80.7143 75.3423 80.8217C75.0801 80.9242 74.9491 81.1806 74.9491 81.5907C74.9491 81.9472 75.0316 82.2853 75.1965 82.6051C75.3614 82.9201 75.7251 83.384 76.2875 83.9968C76.9641 84.739 77.4292 85.3347 77.6829 85.7839C77.9367 86.2283 78.0635 86.6995 78.0635 87.1975C78.0636 87.7932 77.8691 88.1741 77.48 88.3401C77.0953 88.5036 76.5625 88.3889 75.8817 87.9958C75.2558 87.6344 74.7336 87.162 74.315 86.5785ZM83.3946 92.1506L83.3943 81.0471L83.9778 81.384L83.9782 92.4876L83.3946 92.1506ZM90.0054 95.9676L90.0053 94.4662L89.98 94.4515C89.7728 94.8446 89.4705 95.0802 89.073 95.1583C88.6797 95.2339 88.2421 95.1326 87.76 94.8543C87.1427 94.4978 86.6543 94.0156 86.2948 93.4077C85.9354 92.7998 85.7556 92.1906 85.7556 91.5803C85.7556 90.2717 86.5061 89.914 88.0073 90.5074L90.0052 91.3167C90.0052 89.7054 89.4808 88.597 88.4321 87.9915C87.7175 87.5789 87.0219 87.5093 86.3454 87.7827L86.3454 86.9697C86.5864 86.8891 86.912 86.8892 87.3221 86.9697C87.7365 87.0528 88.1256 87.1993 88.4892 87.4092C89.1573 87.795 89.6732 88.3321 90.0369 89.0206C90.4048 89.7115 90.5888 90.5135 90.5888 91.4266L90.5889 96.3046L90.0054 95.9676ZM88.2166 91.1995C87.5358 90.9187 87.058 90.8259 86.7831 90.9211C86.5083 91.0115 86.3709 91.3398 86.3709 91.9062C86.3709 92.3506 86.4978 92.79 86.7515 93.2246C87.0094 93.6616 87.3668 94.012 87.8234 94.2757C88.4493 94.637 88.9694 94.6712 89.3838 94.3782C89.7981 94.0804 90.0053 93.5091 90.0053 92.6644L90.0053 91.932L88.2166 91.1995ZM99.0784 90.8134C98.9219 90.5815 98.6851 90.374 98.368 90.1908C97.5688 89.7294 97.1692 90.1188 97.1692 91.359L97.1693 92.6041L98.8882 93.5966L98.8882 94.2119L97.1693 93.2194L97.1695 100.104L96.586 99.7672L96.5858 92.8824L95.4187 92.2086L95.4186 91.5933L96.5857 92.2672L96.5857 90.9635C96.5857 90.1725 96.7569 89.6708 97.0994 89.4584C97.4461 89.2484 97.8774 89.2924 98.3933 89.5903C98.6682 89.749 98.8965 89.9272 99.0784 90.1249L99.0784 90.8134ZM102.499 103.364C101.552 102.818 100.801 102.025 100.247 100.988C99.6976 99.9476 99.4227 98.8514 99.4226 97.6991C99.4226 96.454 99.7101 95.6459 100.285 95.2748C100.864 94.9062 101.626 94.9941 102.569 95.5385C103.495 96.0732 104.226 96.8447 104.763 97.8531C105.3 98.8614 105.569 99.9832 105.569 101.219C105.569 102.386 105.294 103.172 104.744 103.577C104.199 103.985 103.45 103.914 102.499 103.364ZM102.543 96.1391C101.778 95.6972 101.167 95.6423 100.71 95.9743C100.258 96.3087 100.032 97.0057 100.032 98.0653C100.032 99.0468 100.254 99.9635 100.698 100.816C101.142 101.668 101.748 102.316 102.518 102.76C103.3 103.212 103.903 103.267 104.326 102.925C104.749 102.583 104.96 101.892 104.96 100.852C104.96 99.783 104.748 98.8406 104.326 98.0252C103.907 97.2122 103.313 96.5835 102.543 96.1391ZM110.315 100.897C110.12 100.624 109.892 100.411 109.63 100.26C109.118 99.9647 108.689 100.022 108.342 100.432C107.995 100.842 107.822 101.609 107.822 102.732L107.822 106.255L107.251 105.925L107.251 98.4253L107.822 98.7549L107.822 100.418L107.847 100.432C107.995 99.9463 108.23 99.6375 108.551 99.5057C108.873 99.3738 109.245 99.43 109.668 99.6742C109.909 99.8133 110.124 99.9818 110.315 100.18L110.315 100.897ZM119.71 113.119L119.71 108.607C119.71 107.665 119.581 106.929 119.323 106.399C119.069 105.872 118.666 105.448 118.112 105.128C117.6 104.833 117.158 104.832 116.786 105.124C116.414 105.417 116.228 105.947 116.228 106.714L116.228 111.108L115.644 110.771L115.644 106.208C115.644 104.539 115.094 103.386 113.995 102.751C113.467 102.446 113.027 102.449 112.676 102.759C112.325 103.064 112.149 103.622 112.149 104.432L112.15 108.753L111.566 108.417L111.566 100.917L112.149 101.253L112.149 102.499L112.175 102.513C112.627 101.822 113.289 101.728 114.16 102.231C114.634 102.505 115.037 102.897 115.371 103.407C115.71 103.915 115.938 104.459 116.057 105.04C116.259 104.615 116.549 104.363 116.925 104.282C117.306 104.199 117.718 104.286 118.162 104.542C119.583 105.363 120.294 106.788 120.294 108.82L120.294 113.456L119.71 113.119ZM126.194 116.863L126.194 115.361L126.169 115.347C125.962 115.74 125.659 115.975 125.262 116.053C124.868 116.129 124.431 116.028 123.949 115.749C123.331 115.393 122.843 114.911 122.484 114.303C122.124 113.695 121.944 113.086 121.944 112.475C121.944 111.167 122.695 110.809 124.196 111.402L126.194 112.212C126.194 110.601 125.67 109.492 124.621 108.887C123.906 108.474 123.211 108.404 122.534 108.678L122.534 107.865C122.775 107.784 123.101 107.784 123.511 107.865C123.925 107.948 124.314 108.094 124.678 108.304C125.346 108.69 125.862 109.227 126.226 109.916C126.593 110.607 126.777 111.409 126.777 112.322L126.778 117.2L126.194 116.863ZM124.405 112.095C123.725 111.814 123.247 111.721 122.972 111.816C122.697 111.907 122.56 112.235 122.56 112.801C122.56 113.246 122.686 113.685 122.94 114.12C123.198 114.557 123.555 114.907 124.012 115.171C124.638 115.532 125.158 115.566 125.572 115.273C125.987 114.976 126.194 114.404 126.194 113.56L126.194 112.827L124.405 112.095ZM9.18641 65.303L9.18627 60.7913C9.18624 59.8489 9.05725 59.1128 8.79929 58.5831C8.54557 58.0557 8.14173 57.6321 7.58779 57.3123C7.07614 57.0168 6.63426 57.0156 6.26216 57.3086C5.89007 57.6015 5.70403 58.1313 5.70405 58.8979L5.70419 63.2924L5.12065 62.9555L5.12051 58.3925C5.12045 56.7226 4.57071 55.5702 3.47129 54.9354C2.94272 54.6302 2.50295 54.6327 2.152 54.9427C1.80105 55.2479 1.62558 55.8057 1.62561 56.6163L1.62575 60.9376L1.0422 60.6006L1.04196 53.1006L1.62551 53.4376L1.62555 54.6827L1.65092 54.6973C2.10334 54.0064 2.7651 53.9124 3.63618 54.4154C4.10978 54.6889 4.51361 55.0807 4.84768 55.591C5.18597 56.0988 5.41433 56.6432 5.53275 57.2243C5.7357 56.7995 6.02534 56.5468 6.40168 56.4663C6.78224 56.3833 7.19452 56.47 7.63852 56.7263C9.05931 57.5467 9.76974 58.9725 9.76981 61.0037L9.76996 65.64L9.18641 65.303ZM15.6703 69.0468L15.6703 67.5453L15.6449 67.5307C15.4377 67.9237 15.1354 68.1593 14.7379 68.2374C14.3447 68.3131 13.907 68.2118 13.425 67.9334C12.8076 67.577 12.3192 67.0948 11.9597 66.4869C11.6003 65.8789 11.4206 65.2698 11.4206 64.6595C11.4205 63.3509 12.1711 62.9932 13.6722 63.5865L15.6702 64.3959C15.6701 62.7846 15.1458 61.6762 14.0971 61.0707C13.3824 60.6581 12.6869 60.5884 12.0103 60.8619L12.0103 60.0489C12.2513 59.9683 12.5769 59.9683 12.9871 60.0489C13.4015 60.1319 13.7905 60.2784 14.1541 60.4884C14.8223 60.8742 15.3381 61.4113 15.7018 62.0998C16.0697 62.7907 16.2537 63.5927 16.2537 64.5058L16.2539 69.3837L15.6703 69.0468ZM13.8815 64.2787C13.2007 63.9979 12.7229 63.9051 12.4481 64.0003C12.1732 64.0906 12.0358 64.419 12.0358 64.9854C12.0358 65.4297 12.1627 65.8692 12.4164 66.3038C12.6744 66.7408 13.0317 67.0911 13.4884 67.3548C14.1142 67.7162 14.6343 67.7504 15.0487 67.4574C15.4631 67.1596 15.6702 66.5883 15.6702 65.7436L15.6702 65.0112L13.8815 64.2787ZM13.615 59.159L13.0441 58.8294L14.5283 57.2841L15.1879 57.6649L13.615 59.159ZM17.9362 70.0255L17.9362 69.2125C18.1561 69.5592 18.4225 69.8864 18.7354 70.194C19.0483 70.5016 19.319 70.7214 19.5473 70.8532C20.5664 71.4416 21.0759 71.2549 21.0759 70.293C21.0759 69.9609 20.9638 69.613 20.7397 69.2493C20.5156 68.8855 20.1519 68.4338 19.6487 67.8942C19.0271 67.2228 18.5894 66.6479 18.3357 66.1693C18.0862 65.6884 17.9614 65.2086 17.9614 64.7301C17.9614 64.1198 18.1623 63.7426 18.564 63.5985C18.9699 63.457 19.4688 63.5571 20.0608 63.8989C20.619 64.2212 21.0968 64.6289 21.4943 65.1221L21.4944 65.8838C21.0123 65.2441 20.5133 64.7754 19.9974 64.4775C19.5704 64.2309 19.2257 64.1613 18.9636 64.2687C18.7014 64.3713 18.5703 64.6276 18.5703 65.0378C18.5704 65.3942 18.6528 65.7323 18.8177 66.0522C18.9827 66.3671 19.3463 66.831 19.9087 67.4438C20.5853 68.186 21.0505 68.7817 21.3042 69.231C21.5579 69.6753 21.6848 70.1465 21.6848 70.6445C21.6848 71.2403 21.4903 71.6211 21.1013 71.7871C20.7165 71.9507 20.1837 71.8359 19.5029 71.4428C18.8771 71.0815 18.3549 70.609 17.9362 70.0255ZM27.6248 74.6162L27.5994 74.6016L27.5994 75.9346L27.0159 75.5976L27.0155 64.4941L27.5991 64.8311L27.5992 69.98L27.6246 69.9946C27.8572 69.5772 28.1891 69.344 28.6204 69.2952C29.0559 69.244 29.5338 69.3685 30.0539 69.6688C30.8784 70.1449 31.5212 70.8456 31.9821 71.7709C32.4473 72.6938 32.6799 73.7192 32.6799 74.8471C32.68 76.102 32.4115 76.9626 31.8745 77.4289C31.3375 77.8903 30.6398 77.8732 29.7814 77.3775C28.8088 76.816 28.0899 75.8955 27.6248 74.6162ZM27.5993 71.811L27.5993 72.7559C27.5994 73.5078 27.8045 74.2732 28.2147 75.052C28.6248 75.826 29.164 76.4058 29.8321 76.7916C30.496 77.1749 31.0351 77.1591 31.4495 76.744C31.8639 76.3241 32.071 75.5795 32.071 74.5102C32.071 73.5727 31.8807 72.7182 31.5001 71.9467C31.1195 71.1752 30.6121 70.6063 29.9778 70.2401C29.2209 69.803 28.6352 69.7579 28.2208 70.1045C27.8065 70.4512 27.5993 71.02 27.5993 71.811ZM38.2442 82.0808L38.2442 80.5794L38.2188 80.5647C38.0116 80.9578 37.7093 81.1934 37.3118 81.2715C36.9186 81.3471 36.4809 81.2458 35.9989 80.9675C35.3815 80.611 34.8931 80.1288 34.5337 79.5209C34.1742 78.913 33.9945 78.3038 33.9945 77.6935C33.9944 76.3849 34.745 76.0272 36.2461 76.6205L38.2441 77.4299C38.244 75.8186 37.7197 74.7102 36.671 74.1047C35.9564 73.6921 35.2608 73.6225 34.5842 73.8959L34.5842 73.0829C34.8252 73.0023 35.1508 73.0023 35.561 73.0829C35.9754 73.166 36.3644 73.3124 36.7281 73.5224C37.3962 73.9082 37.9121 74.4453 38.2757 75.1338C38.6436 75.8247 38.8276 76.6267 38.8276 77.5398L38.8278 82.4178L38.2442 82.0808ZM36.4554 77.3127C35.7747 77.0319 35.2968 76.9391 35.022 77.0343C34.7471 77.1247 34.6097 77.453 34.6097 78.0194C34.6098 78.4638 34.7366 78.9032 34.9903 79.3378C35.2483 79.7748 35.6056 80.1252 36.0623 80.3889C36.6881 80.7502 37.2082 80.7844 37.6226 80.4914C38.037 80.1936 38.2442 79.6223 38.2441 78.7776L38.2441 78.0452L36.4554 77.3127ZM36.1889 72.1931L35.618 71.8634L37.1022 70.3181L37.7618 70.699L36.1889 72.1931ZM40.5102 83.0596L40.5101 82.2466C40.73 82.5933 40.9964 82.9204 41.3093 83.228C41.6223 83.5357 41.8929 83.7554 42.1212 83.8872C43.1403 84.4757 43.6498 84.2889 43.6498 83.327C43.6498 82.995 43.5377 82.6471 43.3136 82.2833C43.0895 81.9195 42.7258 81.4678 42.2226 80.9283C41.601 80.2569 41.1633 79.6819 40.9096 79.2034C40.6601 78.7224 40.5354 78.2427 40.5354 77.7641C40.5353 77.1538 40.7362 76.7766 41.1379 76.6326C41.5438 76.491 42.0428 76.5911 42.6348 76.9329C43.1929 77.2552 43.6708 77.6629 44.0683 78.1561L44.0683 78.9178C43.5862 78.2782 43.0872 77.8094 42.5714 77.5115C42.1443 77.2649 41.7997 77.1953 41.5375 77.3027C41.2753 77.4053 41.1443 77.6616 41.1443 78.0718C41.1443 78.4282 41.2267 78.7664 41.3917 79.0862C41.5566 79.4011 41.9203 79.865 42.4827 80.4778C43.1592 81.22 43.6244 81.8158 43.8781 82.265C44.1318 82.7093 44.2587 83.1805 44.2587 83.6786C44.2587 84.2743 44.0642 84.6551 43.6752 84.8211C43.2904 84.9847 42.7577 84.8699 42.0769 84.4768C41.451 84.1155 40.9288 83.6431 40.5102 83.0596ZM46.2453 77.3111C46.1185 77.2379 46.0064 77.1194 45.9091 76.9559C45.8119 76.7923 45.7633 76.6275 45.7632 76.4615C45.7632 76.3003 45.8119 76.199 45.9091 76.1575C46.0106 76.1136 46.1227 76.127 46.2453 76.1978C46.3764 76.2735 46.4905 76.3883 46.5878 76.5421C46.6893 76.6983 46.74 76.8595 46.74 77.0255C46.74 77.1817 46.6914 77.2879 46.5942 77.3441C46.4969 77.4002 46.3806 77.3892 46.2453 77.3111ZM45.9602 86.5359L45.96 79.0359L46.5435 79.3729L46.5437 86.8729L45.9602 86.5359ZM52.8944 90.2101C52.4124 90.2736 51.8373 90.1125 51.1692 89.7267C50.2854 89.2164 49.5729 88.4559 49.0316 87.4451C48.4903 86.4295 48.2197 85.3553 48.2196 84.2224C48.2196 83.031 48.524 82.2327 49.1329 81.8275C49.7418 81.4173 50.5241 81.4881 51.4797 82.0399C51.9745 82.3256 52.4544 82.7199 52.9196 83.2228L52.9196 83.9846C52.4544 83.384 51.9449 82.9237 51.391 82.6039C50.6298 82.1644 50.0125 82.1253 49.5389 82.4866C49.0653 82.8431 48.8285 83.5242 48.8286 84.5301C48.8286 85.5018 49.0443 86.4075 49.4756 87.2474C49.9112 88.0897 50.4841 88.7159 51.1945 89.1261C51.8457 89.5021 52.4124 89.6291 52.8944 89.507L52.8944 90.2101ZM58.4079 93.7232L58.4078 92.2217L58.3825 92.207C58.1753 92.6001 57.873 92.8357 57.4755 92.9138C57.0822 92.9895 56.6446 92.8881 56.1625 92.6098C55.5452 92.2533 55.0568 91.7711 54.6973 91.1632C54.3379 90.5553 54.1581 89.9462 54.1581 89.3358C54.1581 88.0272 54.9086 87.6696 56.4098 88.2629L58.4077 89.0723C58.4077 87.461 57.8833 86.3525 56.8346 85.747C56.12 85.3344 55.4244 85.2648 54.7479 85.5382L54.7479 84.7252C54.9889 84.6447 55.3145 84.6447 55.7246 84.7253C56.139 84.8083 56.5281 84.9548 56.8917 85.1648C57.5598 85.5505 58.0757 86.0877 58.4394 86.7761C58.8073 87.4671 58.9912 88.2691 58.9913 89.1822L58.9914 94.0601L58.4079 93.7232ZM56.6191 88.955C55.9383 88.6743 55.4605 88.5815 55.1856 88.6767C54.9108 88.767 54.7734 89.0954 54.7734 89.6618C54.7734 90.1061 54.9003 90.5456 55.154 90.9801C55.4119 91.4172 55.7693 91.7675 56.2259 92.0312C56.8518 92.3925 57.3719 92.4267 57.7863 92.1338C58.2006 91.8359 58.4078 91.2647 58.4078 90.4199L58.4078 89.6875L56.6191 88.955ZM69.2509 99.9838L69.2508 98.6215L69.2254 98.6069C69.014 98.9584 68.7011 99.1537 68.2867 99.1928C67.8723 99.2318 67.4051 99.1012 66.885 98.8009C66.0858 98.3394 65.4325 97.6253 64.925 96.6585C64.4218 95.6941 64.1702 94.6187 64.1701 93.4321C64.1701 92.2212 64.4449 91.4009 64.9946 90.9712C65.5485 90.5391 66.2652 90.577 67.1448 91.0848C68.1174 91.6464 68.8109 92.5082 69.2253 93.6703L69.2507 93.685L69.2505 88.8803L69.834 89.2172L69.8344 100.321L69.2509 99.9838ZM69.2507 95.4208C69.2507 94.7226 69.0583 94.0207 68.6735 93.3151C68.2929 92.6071 67.7791 92.0663 67.1321 91.6927C66.4513 91.2996 65.8889 91.2776 65.445 91.6268C65.001 91.971 64.779 92.6704 64.779 93.7251C64.7791 94.7603 64.9778 95.6758 65.3753 96.4717C65.7771 97.2652 66.293 97.8438 66.923 98.2076C67.663 98.6349 68.236 98.702 68.6419 98.4091C69.0478 98.1112 69.2508 97.5815 69.2508 96.8197L69.2507 95.4208ZM72.1256 97.923C72.1256 98.9533 72.3307 99.8774 72.7409 100.695C73.1553 101.516 73.722 102.133 74.4408 102.548C75.1681 102.968 75.8785 103.068 76.572 102.849L76.572 103.566C75.8997 103.73 75.1491 103.573 74.3203 103.094C73.4831 102.611 72.8065 101.873 72.2906 100.882C71.7747 99.8908 71.5167 98.7628 71.5167 97.4982C71.5166 96.4044 71.7851 95.6391 72.3221 95.2021C72.8633 94.7626 73.5653 94.792 74.4279 95.29C75.2356 95.7564 75.855 96.4412 76.2864 97.3445C76.7177 98.2479 76.9334 99.2659 76.9334 100.399L76.9334 100.699L72.1256 97.923ZM76.3245 99.7322C76.2991 98.8533 76.1194 98.0782 75.7853 97.4068C75.4512 96.7354 74.9903 96.23 74.4025 95.8906C73.7936 95.539 73.2883 95.4841 72.8866 95.7258C72.4892 95.965 72.2439 96.4972 72.1509 97.3224L76.3245 99.7322ZM86.121 109.725L86.121 108.223L86.0956 108.208C85.8884 108.601 85.5861 108.837 85.1886 108.915C84.7954 108.991 84.3577 108.89 83.8757 108.611C83.2583 108.255 82.7699 107.773 82.4105 107.165C82.051 106.557 81.8713 105.948 81.8713 105.337C81.8712 104.029 82.6218 103.671 84.1229 104.264L86.1209 105.074C86.1208 103.462 85.5965 102.354 84.5478 101.748C83.8332 101.336 83.1376 101.266 82.461 101.54L82.461 100.727C82.702 100.646 83.0276 100.646 83.4378 100.727C83.8522 100.81 84.2412 100.956 84.6049 101.166C85.273 101.552 85.7889 102.089 86.1525 102.778C86.5204 103.468 86.7044 104.27 86.7044 105.184L86.7046 110.061L86.121 109.725ZM84.3322 104.956C83.6515 104.676 83.1736 104.583 82.8988 104.678C82.6239 104.768 82.4865 105.097 82.4865 105.663C82.4865 106.107 82.6134 106.547 82.8671 106.982C83.1251 107.419 83.4824 107.769 83.9391 108.033C84.5649 108.394 85.085 108.428 85.4994 108.135C85.9138 107.837 86.121 107.266 86.1209 106.421L86.1209 105.689L84.3322 104.956ZM93.1378 113.776L93.1376 109.411C93.1376 107.609 92.5751 106.383 91.4503 105.734C90.8245 105.373 90.3107 105.342 89.909 105.642C89.5073 105.938 89.3065 106.476 89.3065 107.257L89.3067 111.564L88.7231 111.227L88.7229 103.727L89.3064 104.064L89.3065 105.426L89.3318 105.441C89.8054 104.684 90.5454 104.596 91.5518 105.177C92.2537 105.583 92.7908 106.164 93.1629 106.92C93.535 107.672 93.7211 108.549 93.7211 109.55L93.7213 114.113L93.1378 113.776ZM99.6217 117.52L99.6216 116.018L99.5962 116.004C99.3891 116.397 99.0867 116.632 98.6892 116.71C98.296 116.786 97.8584 116.685 97.3763 116.406C96.7589 116.05 96.2705 115.568 95.9111 114.96C95.5516 114.352 95.3719 113.743 95.3719 113.132C95.3718 111.824 96.1224 111.466 97.6235 112.059L99.6215 112.869C99.6215 111.257 99.0971 110.149 98.0484 109.544C97.3338 109.131 96.6382 109.061 95.9616 109.335L95.9616 108.522C96.2026 108.441 96.5282 108.441 96.9384 108.522C97.3528 108.605 97.7418 108.751 98.1055 108.961C98.7736 109.347 99.2895 109.884 99.6531 110.573C100.021 111.264 100.205 112.066 100.205 112.979L100.205 117.857L99.6217 117.52ZM97.8329 112.752C97.1521 112.471 96.6742 112.378 96.3994 112.473C96.1245 112.564 95.9871 112.892 95.9871 113.458C95.9872 113.903 96.114 114.342 96.3677 114.777C96.6257 115.214 96.983 115.564 97.4397 115.828C98.0655 116.189 98.5856 116.223 99 115.93C99.4144 115.632 99.6216 115.061 99.6216 114.216L99.6215 113.484L97.8329 112.752ZM97.5663 107.632L96.9954 107.302L98.4796 105.757L99.1392 106.138L97.5663 107.632ZM102.224 119.022L102.223 107.919L102.807 108.256L102.807 119.359L102.224 119.022ZM105.238 111.373C105.111 111.3 104.999 111.181 104.902 111.018C104.804 110.854 104.756 110.689 104.756 110.523C104.756 110.362 104.804 110.261 104.902 110.219C105.003 110.175 105.115 110.189 105.238 110.26C105.369 110.335 105.483 110.45 105.58 110.604C105.682 110.76 105.733 110.921 105.733 111.087C105.733 111.244 105.684 111.35 105.587 111.406C105.489 111.462 105.373 111.451 105.238 111.373ZM104.953 120.598L104.952 113.098L105.536 113.435L105.536 120.935L104.953 120.598ZM107.345 121.65L107.345 120.837C107.565 121.183 107.832 121.511 108.145 121.818C108.458 122.126 108.728 122.346 108.957 122.477C109.976 123.066 110.485 122.879 110.485 121.917C110.485 121.585 110.373 121.237 110.149 120.873C109.925 120.51 109.561 120.058 109.058 119.518C108.436 118.847 107.999 118.272 107.745 117.794C107.495 117.313 107.371 116.833 107.371 116.354C107.371 115.744 107.571 115.367 107.973 115.223C108.379 115.081 108.878 115.181 109.47 115.523C110.028 115.845 110.506 116.253 110.904 116.746L110.904 117.508C110.422 116.868 109.923 116.4 109.407 116.102C108.98 115.855 108.635 115.786 108.373 115.893C108.111 115.996 107.98 116.252 107.98 116.662C107.98 117.018 108.062 117.357 108.227 117.676C108.392 117.991 108.756 118.455 109.318 119.068C109.995 119.81 110.46 120.406 110.713 120.855C110.967 121.3 111.094 121.771 111.094 122.269C111.094 122.864 110.9 123.245 110.511 123.411C110.126 123.575 109.593 123.46 108.912 123.067C108.286 122.706 107.764 122.233 107.345 121.65ZM113.081 115.901C112.954 115.828 112.842 115.71 112.744 115.546C112.647 115.383 112.599 115.218 112.599 115.052C112.599 114.891 112.647 114.789 112.744 114.748C112.846 114.704 112.958 114.717 113.081 114.788C113.212 114.864 113.326 114.978 113.423 115.132C113.525 115.289 113.575 115.45 113.575 115.616C113.575 115.772 113.527 115.878 113.429 115.934C113.332 115.99 113.216 115.979 113.081 115.901ZM112.795 125.126L112.795 117.626L113.379 117.963L113.379 125.463L112.795 125.126ZM115.188 126.178L115.188 125.365C115.408 125.712 115.675 126.039 115.987 126.347C116.3 126.654 116.571 126.874 116.799 127.006C117.818 127.594 118.328 127.407 118.328 126.446C118.328 126.114 118.216 125.766 117.992 125.402C117.768 125.038 117.404 124.586 116.901 124.047C116.279 123.375 115.841 122.8 115.588 122.322C115.338 121.841 115.213 121.361 115.213 120.883C115.213 120.272 115.414 119.895 115.816 119.751C116.222 119.61 116.721 119.71 117.313 120.052C117.871 120.374 118.349 120.782 118.746 121.275L118.746 122.036C118.264 121.397 117.765 120.928 117.249 120.63C116.822 120.384 116.478 120.314 116.216 120.421C115.953 120.524 115.822 120.78 115.822 121.19C115.822 121.547 115.905 121.885 116.07 122.205C116.235 122.52 116.598 122.984 117.161 123.596C117.837 124.339 118.302 124.934 118.556 125.384C118.81 125.828 118.937 126.299 118.937 126.797C118.937 127.393 118.742 127.774 118.353 127.94C117.969 128.103 117.436 127.989 116.755 127.595C116.129 127.234 115.607 126.762 115.188 126.178ZM5.65407 82.7128L5.65392 77.8862L5.62855 77.8715C5.14652 78.6332 4.36214 78.7003 3.2754 78.0729C2.46352 77.6041 1.81019 76.8826 1.31543 75.9085C0.820665 74.9344 0.573265 73.8638 0.573228 72.6968C0.573188 71.4517 0.854356 70.6277 1.41673 70.2249C1.97911 69.8221 2.69372 69.8709 3.56058 70.3715C4.52892 70.9306 5.21819 71.7949 5.62839 72.9643L5.65376 72.9789L5.65372 71.7631L6.23726 72.1001L6.23761 83.0498L5.65407 82.7128ZM5.65382 74.7661C5.65379 74.019 5.4656 73.2951 5.08925 72.5944C4.71289 71.8937 4.19065 71.3505 3.52254 70.9647C2.8502 70.5765 2.29204 70.5545 1.84806 70.8987C1.40408 71.2381 1.18211 71.9449 1.18214 73.0191C1.18217 74.0249 1.37882 74.9295 1.7721 75.7327C2.1696 76.5335 2.68338 77.1158 3.31344 77.4796C4.07035 77.9166 4.64965 77.9826 5.05135 77.6774C5.45305 77.3723 5.65388 76.8315 5.65386 76.0551L5.65382 74.7661ZM12.677 83.3182L12.677 81.9559L12.6516 81.9412C12.1992 82.7103 11.5015 82.8225 10.5585 82.2781C9.02354 81.3918 8.25602 79.8329 8.25595 77.6015L8.25581 73.2656L8.84569 73.6062L8.84583 77.7736C8.84586 78.7893 8.98965 79.6096 9.27721 80.2346C9.569 80.862 10.0257 81.3552 10.6473 81.7141C11.252 82.0633 11.7404 82.0889 12.1125 81.7911C12.4888 81.4957 12.6769 80.9207 12.6769 80.0662L12.6768 75.8182L13.2603 76.1551L13.2606 83.6551L12.677 83.3182ZM15.5454 81.2537C15.5454 82.284 15.7505 83.2081 16.1607 84.026C16.5751 84.8463 17.1418 85.464 17.8606 85.879C18.5879 86.299 19.2983 86.3991 19.9918 86.1794L19.9918 86.8972C19.3195 87.0607 18.5689 86.9032 17.7401 86.4247C16.9029 85.9413 16.2263 85.2039 15.7104 84.2127C15.1945 83.2215 14.9365 82.0936 14.9365 80.8289C14.9364 79.7352 15.2049 78.9698 15.7419 78.5328C16.2831 78.0934 16.9851 78.1227 17.8477 78.6207C18.6554 79.0871 19.2749 79.7719 19.7062 80.6752C20.1375 81.5786 20.3532 82.5967 20.3532 83.7295L20.3533 84.0298L15.5454 81.2537ZM19.7443 83.0629C19.7189 82.184 19.5392 81.4089 19.2051 80.7375C18.871 80.0661 18.4101 79.5607 17.8224 79.2213C17.2134 78.8697 16.7081 78.8148 16.3064 79.0565C15.909 79.2957 15.6637 79.828 15.5707 80.6531L19.7443 83.0629ZM28.2279 92.1946C27.9234 92.1848 27.638 92.103 27.3716 91.9492C26.4117 91.395 25.9318 90.4538 25.9317 89.1257L25.9316 84.0866L24.7645 83.4128L24.7645 82.7975L25.9315 83.4714L25.9315 81.5232C26.0245 81.5378 26.1218 81.5549 26.2232 81.5744C26.3247 81.5988 26.422 81.6184 26.515 81.633L26.5151 83.8083L28.2276 84.7971L28.2277 85.4124L26.5151 84.4236L26.5153 89.3747C26.5153 89.8923 26.5851 90.3086 26.7246 90.6235C26.8684 90.936 27.1094 91.1899 27.4477 91.3853C27.6887 91.5244 27.9488 91.5843 28.2279 91.5647L28.2279 92.1946ZM32.1873 94.7664C31.2402 94.2195 30.4896 93.4273 29.9356 92.3896C29.3859 91.3496 29.111 90.2534 29.1109 89.101C29.1109 87.8559 29.3984 87.0478 29.9735 86.6767C30.5528 86.3081 31.3139 86.396 32.2569 86.9405C33.1829 87.4752 33.9145 88.2467 34.4515 89.255C34.9886 90.2633 35.2571 91.3852 35.2572 92.6205C35.2572 93.7875 34.9824 94.5736 34.4327 94.9789C33.8872 95.3866 33.1388 95.3158 32.1873 94.7664ZM32.2315 87.5411C31.4661 87.0992 30.8551 87.0442 30.3985 87.3762C29.946 87.7107 29.7198 88.4077 29.7199 89.4673C29.7199 90.4487 29.9419 91.3655 30.3859 92.2175C30.83 93.0696 31.4368 93.7178 32.2064 94.1622C32.9886 94.6139 33.5912 94.6688 34.014 94.327C34.4369 93.9852 34.6483 93.2943 34.6482 92.2543C34.6482 91.185 34.4368 90.2426 34.0139 89.4271C33.5952 88.6141 33.0011 87.9854 32.2315 87.5411ZM45.0839 102.03L45.0837 97.518C45.0837 96.5756 44.9547 95.8395 44.6967 95.3097C44.443 94.7823 44.0392 94.3587 43.4852 94.0389C42.9736 93.7435 42.5317 93.7422 42.1596 94.0352C41.7875 94.3282 41.6015 94.8579 41.6015 95.6245L41.6016 100.019L41.0181 99.6821L41.018 95.1191C41.0179 93.4492 40.4682 92.2969 39.3687 91.6621C38.8402 91.3569 38.4004 91.3593 38.0495 91.6693C37.6985 91.9745 37.523 92.5324 37.5231 93.3429L37.5232 97.6642L36.9397 97.3273L36.9394 89.8273L37.523 90.1642L37.523 91.4093L37.5484 91.424C38.0008 90.7331 38.6625 90.6391 39.5336 91.142C40.0072 91.4155 40.4111 91.8074 40.7451 92.3176C41.0834 92.8254 41.3118 93.3699 41.4302 93.9509C41.6332 93.5261 41.9228 93.2735 42.2991 93.1929C42.6797 93.1099 43.092 93.1966 43.536 93.453C44.9568 94.2733 45.6672 95.6991 45.6673 97.7304L45.6674 102.367L45.0839 102.03ZM51.5678 105.773L51.5677 104.272L51.5424 104.257C51.3352 104.65 51.0328 104.886 50.6354 104.964C50.2421 105.04 49.8045 104.938 49.3224 104.66C48.705 104.304 48.2166 103.821 47.8572 103.214C47.4978 102.606 47.318 101.996 47.318 101.386C47.318 100.077 48.0685 99.7199 49.5696 100.313L51.5676 101.123C51.5676 99.5112 51.0432 98.4028 49.9945 97.7973C49.2799 97.3847 48.5843 97.3151 47.9078 97.5885L47.9077 96.7755C48.1488 96.695 48.4743 96.695 48.8845 96.7755C49.2989 96.8586 49.6879 97.0051 50.0516 97.215C50.7197 97.6008 51.2356 98.1379 51.5993 98.8264C51.9672 99.5173 52.1511 100.319 52.1512 101.232L52.1513 106.11L51.5678 105.773ZM49.779 101.005C49.0982 100.725 48.6204 100.632 48.3455 100.727C48.0707 100.817 47.9332 101.146 47.9333 101.712C47.9333 102.156 48.0601 102.596 48.3139 103.03C48.5718 103.467 48.9291 103.818 49.3858 104.081C50.0117 104.443 50.5318 104.477 50.9461 104.184C51.3605 103.886 51.5677 103.315 51.5677 102.47L51.5676 101.738L49.779 101.005ZM57.7995 109.372L57.7991 98.2681L58.3827 98.605L58.383 109.709L57.7995 109.372ZM64.4103 113.189L64.4102 111.687L64.3848 111.672C64.1777 112.066 63.8753 112.301 63.4778 112.379C63.0846 112.455 62.647 112.354 62.1649 112.075C61.5475 111.719 61.0591 111.237 60.6997 110.629C60.3402 110.021 60.1605 109.412 60.1605 108.801C60.1604 107.493 60.911 107.135 62.4121 107.728L64.4101 108.538C64.4101 106.926 63.8857 105.818 62.837 105.212C62.1224 104.8 61.4268 104.73 60.7502 105.004L60.7502 104.191C60.9912 104.11 61.3168 104.11 61.727 104.191C62.1414 104.274 62.5304 104.42 62.8941 104.63C63.5622 105.016 64.0781 105.553 64.4417 106.242C64.8096 106.932 64.9936 107.735 64.9936 108.648L64.9938 113.526L64.4103 113.189ZM62.6215 108.42C61.9407 108.14 61.4628 108.047 61.188 108.142C60.9131 108.232 60.7757 108.561 60.7757 109.127C60.7758 109.572 60.9026 110.011 61.1563 110.446C61.4143 110.883 61.7716 111.233 62.2283 111.497C62.8541 111.858 63.3742 111.892 63.7886 111.599C64.203 111.301 64.4102 110.73 64.4101 109.885L64.4101 109.153L62.6215 108.42ZM73.4832 108.034C73.3268 107.802 73.09 107.595 72.7728 107.412C71.9736 106.95 71.5741 107.34 71.5741 108.58L71.5741 109.825L73.293 110.818L73.2931 111.433L71.5742 110.44L71.5744 117.325L70.9908 116.988L70.9906 110.103L69.8235 109.43L69.8235 108.814L70.9906 109.488L70.9905 108.184C70.9905 107.393 71.1618 106.892 71.5043 106.679C71.851 106.469 72.2823 106.513 72.7982 106.811C73.073 106.97 73.3014 107.148 73.4832 107.346L73.4832 108.034ZM76.9039 120.585C75.9567 120.039 75.2061 119.246 74.6521 118.209C74.1024 117.169 73.8275 116.072 73.8275 114.92C73.8274 113.675 74.115 112.867 74.69 112.496C75.2693 112.127 76.0304 112.215 76.9734 112.759C77.8995 113.294 78.631 114.066 79.1681 115.074C79.7051 116.082 79.9737 117.204 79.9737 118.44C79.9737 119.607 79.6989 120.393 79.1492 120.798C78.6038 121.206 77.8553 121.135 76.9039 120.585ZM76.9481 113.36C76.1827 112.918 75.5717 112.863 75.115 113.195C74.6626 113.53 74.4364 114.227 74.4364 115.286C74.4364 116.268 74.6585 117.184 75.1025 118.037C75.5465 118.889 76.1533 119.537 76.9229 119.981C77.7052 120.433 78.3077 120.488 78.7306 120.146C79.1534 119.804 79.3648 119.113 79.3648 118.073C79.3647 117.004 79.1533 116.062 78.7304 115.246C78.3118 114.433 77.7177 113.804 76.9481 113.36ZM84.7196 118.118C84.5251 117.845 84.2967 117.632 84.0345 117.481C83.5229 117.186 83.0937 117.243 82.747 117.653C82.4002 118.063 82.2269 118.83 82.2269 119.953L82.2271 123.476L81.6562 123.146L81.656 115.646L82.2268 115.976L82.2269 117.638L82.2522 117.653C82.4002 117.167 82.6349 116.858 82.9562 116.727C83.2776 116.595 83.6497 116.651 84.0726 116.895C84.3136 117.034 84.5293 117.203 84.7195 117.401L84.7196 118.118ZM94.1151 130.34L94.1149 125.828C94.1149 124.886 93.9859 124.15 93.7279 123.62C93.4742 123.093 93.0704 122.669 92.5164 122.349C92.0048 122.054 91.5629 122.052 91.1908 122.345C90.8187 122.638 90.6327 123.168 90.6327 123.935L90.6328 128.329L90.0493 127.992L90.0492 123.429C90.0491 121.759 89.4994 120.607 88.3999 119.972C87.8714 119.667 87.4316 119.67 87.0806 119.98C86.7297 120.285 86.5542 120.843 86.5543 121.653L86.5544 125.974L85.9708 125.638L85.9706 118.138L86.5542 118.474L86.5542 119.72L86.5796 119.734C87.032 119.043 87.6937 118.949 88.5648 119.452C89.0384 119.726 89.4423 120.118 89.7763 120.628C90.1146 121.136 90.343 121.68 90.4614 122.261C90.6643 121.836 90.954 121.584 91.3303 121.503C91.7109 121.42 92.1232 121.507 92.5672 121.763C93.988 122.584 94.6984 124.009 94.6985 126.041L94.6986 130.677L94.1151 130.34ZM100.599 134.084L100.599 132.582L100.574 132.568C100.366 132.961 100.064 133.196 99.6666 133.274C99.2733 133.35 98.8357 133.249 98.3536 132.97C97.7362 132.614 97.2478 132.132 96.8884 131.524C96.5289 130.916 96.3492 130.307 96.3492 129.696C96.3492 128.388 97.0997 128.03 98.6008 128.623L100.599 129.433C100.599 127.821 100.074 126.713 99.0257 126.108C98.3111 125.695 97.6155 125.625 96.9389 125.899L96.9389 125.086C97.1799 125.005 97.5055 125.005 97.9157 125.086C98.3301 125.169 98.7191 125.315 99.0828 125.525C99.7509 125.911 100.267 126.448 100.63 127.137C100.998 127.828 101.182 128.63 101.182 129.543L101.183 134.421L100.599 134.084ZM98.8102 129.316C98.1294 129.035 97.6515 128.942 97.3767 129.037C97.1018 129.128 96.9644 129.456 96.9645 130.022C96.9645 130.467 97.0913 130.906 97.3451 131.341C97.603 131.778 97.9603 132.128 98.417 132.392C99.0428 132.753 99.5629 132.787 99.9773 132.494C100.392 132.196 100.599 131.625 100.599 130.78L100.599 130.048L98.8102 129.316ZM111.442 140.344L111.442 138.982L111.417 138.967C111.205 139.319 110.892 139.514 110.478 139.553C110.063 139.592 109.596 139.462 109.076 139.161C108.277 138.7 107.624 137.986 107.116 137.019C106.613 136.055 106.361 134.979 106.361 133.793C106.361 132.582 106.636 131.761 107.186 131.332C107.74 130.9 108.456 130.938 109.336 131.445C110.308 132.007 111.002 132.869 111.416 134.031L111.442 134.046L111.442 129.241L112.025 129.578L112.025 140.681L111.442 140.344ZM111.442 135.781C111.442 135.083 111.249 134.381 110.865 133.676C110.484 132.968 109.97 132.427 109.323 132.053C108.642 131.66 108.08 131.638 107.636 131.987C107.192 132.332 106.97 133.031 106.97 134.086C106.97 135.121 107.169 136.036 107.566 136.832C107.968 137.626 108.484 138.204 109.114 138.568C109.854 138.995 110.427 139.063 110.833 138.77C111.239 138.472 111.442 137.942 111.442 137.18L111.442 135.781ZM114.317 138.284C114.317 139.314 114.522 140.238 114.932 141.056C115.346 141.876 115.913 142.494 116.632 142.909C117.359 143.329 118.07 143.429 118.763 143.209L118.763 143.927C118.091 144.091 117.34 143.933 116.511 143.455C115.674 142.971 114.998 142.234 114.482 141.243C113.966 140.251 113.708 139.123 113.708 137.859C113.708 136.765 113.976 136 114.513 135.563C115.054 135.123 115.756 135.152 116.619 135.651C117.427 136.117 118.046 136.802 118.477 137.705C118.909 138.608 119.124 139.626 119.125 140.759L119.125 141.06L114.317 138.284ZM118.516 140.093C118.49 139.214 118.31 138.439 117.976 137.767C117.642 137.096 117.181 136.591 116.594 136.251C115.985 135.9 115.479 135.845 115.078 136.086C114.68 136.326 114.435 136.858 114.342 137.683L118.516 140.093ZM1.18265 88.9605C1.18268 89.9908 1.38779 90.9149 1.79798 91.7327C2.2124 92.5531 2.77904 93.1708 3.49789 93.5858C4.2252 94.0058 4.93559 94.1059 5.62906 93.8862L5.62908 94.604C4.95676 94.7675 4.20619 94.61 3.3774 94.1315C2.54014 93.648 1.86356 92.9107 1.34765 91.9195C0.831746 90.9283 0.573773 89.8003 0.573733 88.5357C0.573698 87.4419 0.842182 86.6766 1.37919 86.2396C1.92042 85.8001 2.62235 85.8294 3.48497 86.3275C4.29263 86.7938 4.91212 87.4787 5.34346 88.382C5.77479 89.2854 5.99048 90.3034 5.99051 91.4362L5.99052 91.7365L1.18265 88.9605ZM5.38159 90.7697C5.35619 89.8908 5.17646 89.1157 4.84238 88.4443C4.50831 87.7729 4.04739 87.2675 3.45962 86.9281C2.85071 86.5765 2.3454 86.5216 1.94371 86.7633C1.54624 87.0025 1.301 87.5347 1.208 88.3599L5.38159 90.7697ZM7.33049 95.9013L7.33047 95.0883C7.55036 95.435 7.81676 95.7621 8.12968 96.0698C8.4426 96.3774 8.71323 96.5971 8.94157 96.729C9.96066 97.3174 10.4702 97.1306 10.4702 96.1687C10.4701 95.8367 10.3581 95.4888 10.134 95.125C9.90983 94.7612 9.54617 94.3095 9.04296 93.77C8.42135 93.0986 7.98369 92.5236 7.72996 92.0451C7.48047 91.5641 7.35571 91.0844 7.3557 90.6059C7.35568 89.9955 7.55652 89.6183 7.95822 89.4743C8.36415 89.3327 8.86311 89.4328 9.45511 89.7746C10.0133 90.0969 10.4911 90.5046 10.8886 90.9978L10.8886 91.7595C10.4066 91.1199 9.90759 90.6511 9.3917 90.3532C8.96462 90.1066 8.61999 90.0371 8.35783 90.1445C8.09567 90.247 7.96459 90.5033 7.96461 90.9135C7.96462 91.2699 8.04708 91.6081 8.21201 91.9279C8.37693 92.2429 8.74059 92.7067 9.303 93.3195C9.97958 94.0618 10.4447 94.6575 10.6985 95.1067C10.9522 95.551 11.079 96.0222 11.0791 96.5203C11.0791 97.116 10.8846 97.4968 10.4956 97.6628C10.1108 97.8264 9.57799 97.7116 8.89719 97.3186C8.27136 96.9572 7.74913 96.4848 7.33049 95.9013ZM15.3494 100.758C15.0449 100.749 14.7595 100.667 14.4931 100.513C13.5332 99.9587 13.0533 99.0176 13.0532 97.6894L13.0531 92.6504L11.886 91.9765L11.8859 91.3613L13.053 92.0351L13.053 90.0869C13.146 90.1016 13.2433 90.1186 13.3447 90.1382C13.4462 90.1626 13.5435 90.1821 13.6365 90.1968L13.6366 92.3721L15.3491 93.3609L15.3492 93.9761L13.6366 92.9873L13.6368 97.9385C13.6368 98.4561 13.7066 98.8723 13.8461 99.1873C13.9899 99.4998 14.2309 99.7537 14.5692 99.949C14.8102 100.088 15.0703 100.148 15.3494 100.128L15.3494 100.758ZM20.5837 103.883L20.5837 102.382L20.5583 102.367C20.3511 102.76 20.0488 102.996 19.6513 103.074C19.2581 103.15 18.8204 103.048 18.3384 102.77C17.721 102.413 17.2326 101.931 16.8732 101.323C16.5137 100.715 16.334 100.106 16.334 99.4958C16.3339 98.1873 17.0845 97.8296 18.5856 98.4229L20.5836 99.2323C20.5835 97.621 20.0592 96.5126 19.0105 95.9071C18.2959 95.4944 17.6003 95.4248 16.9237 95.6983L16.9237 94.8853C17.1647 94.8047 17.4903 94.8047 17.9005 94.8853C18.3149 94.9683 18.7039 95.1148 19.0676 95.3248C19.7357 95.7106 20.2516 96.2477 20.6152 96.9362C20.9831 97.6271 21.1671 98.4291 21.1671 99.3422L21.1673 104.22L20.5837 103.883ZM18.7949 99.1151C18.1142 98.8343 17.6363 98.7415 17.3615 98.8367C17.0866 98.927 16.9492 99.2554 16.9492 99.8218C16.9493 100.266 17.0761 100.706 17.3298 101.14C17.5878 101.577 17.9451 101.928 18.4018 102.191C19.0276 102.553 19.5477 102.587 19.9621 102.294C20.3765 101.996 20.5837 101.425 20.5836 100.58L20.5836 99.8475L18.7949 99.1151ZM27.7971 108.048L27.797 106.686L27.7717 106.671C27.5603 107.023 27.2474 107.218 26.833 107.257C26.4186 107.296 25.9513 107.165 25.4312 106.865C24.632 106.404 23.9787 105.69 23.4712 104.723C22.968 103.758 22.7164 102.683 22.7163 101.496C22.7163 100.286 22.9911 99.4652 23.5408 99.0355C24.0947 98.6034 24.8115 98.6413 25.691 99.1491C26.6636 99.7107 27.3571 100.573 27.7715 101.735L27.7969 101.749L27.7967 96.9446L28.3803 97.2815L28.3806 108.385L27.7971 108.048ZM27.7969 103.485C27.7969 102.787 27.6045 102.085 27.2197 101.379C26.8391 100.671 26.3253 100.131 25.6783 99.757C24.9975 99.3639 24.4352 99.342 23.9912 99.6911C23.5472 100.035 23.3252 100.735 23.3253 101.789C23.3253 102.825 23.5241 103.74 23.9216 104.536C24.3233 105.329 24.8392 105.908 25.4692 106.272C26.2092 106.699 26.7822 106.766 27.1881 106.473C27.5941 106.176 27.797 105.646 27.797 104.884L27.7969 103.485ZM30.5324 109.627L30.5321 102.127L31.1157 102.464L31.1159 109.964L30.5324 109.627ZM30.5892 100.959L30.0183 100.63L31.5025 99.0843L32.1621 99.4651L30.5892 100.959ZM32.9251 110.679L32.9251 109.866C33.145 110.213 33.4114 110.54 33.7243 110.848C34.0372 111.156 34.3079 111.375 34.5362 111.507C35.5553 112.096 36.0648 111.909 36.0648 110.947C36.0648 110.615 35.9527 110.267 35.7286 109.903C35.5045 109.539 35.1408 109.088 34.6376 108.548C34.016 107.877 33.5783 107.302 33.3246 106.823C33.0751 106.342 32.9504 105.863 32.9503 105.384C32.9503 104.774 33.1512 104.396 33.5529 104.252C33.9588 104.111 34.4578 104.211 35.0498 104.553C35.6079 104.875 36.0858 105.283 36.4832 105.776L36.4833 106.538C36.0012 105.898 35.5022 105.429 34.9863 105.131C34.5593 104.885 34.2146 104.815 33.9525 104.923C33.6903 105.025 33.5592 105.282 33.5592 105.692C33.5593 106.048 33.6417 106.386 33.8066 106.706C33.9716 107.021 34.3352 107.485 34.8976 108.098C35.5742 108.84 36.0394 109.436 36.2931 109.885C36.5468 110.329 36.6737 110.8 36.6737 111.298C36.6737 111.894 36.4792 112.275 36.0902 112.441C35.7054 112.605 35.1726 112.49 34.4918 112.097C33.866 111.735 33.3438 111.263 32.9251 110.679ZM40.944 115.537C40.6396 115.527 40.3541 115.445 40.0877 115.291C39.1279 114.737 38.6479 113.796 38.6479 112.468L38.6477 107.429L37.4806 106.755L37.4806 106.139L38.6477 106.813L38.6476 104.865C38.7406 104.88 38.8379 104.897 38.9394 104.916C39.0409 104.941 39.1381 104.96 39.2311 104.975L39.2312 107.15L40.9438 108.139L40.9438 108.754L39.2312 107.765L39.2314 112.717C39.2314 113.234 39.3012 113.65 39.4407 113.965C39.5845 114.278 39.8256 114.532 40.1638 114.727C40.4049 114.866 40.6649 114.926 40.944 114.907L40.944 115.537ZM42.5817 107.195C42.4548 107.122 42.3428 107.004 42.2455 106.84C42.1483 106.676 42.0996 106.512 42.0996 106.346C42.0996 106.184 42.1482 106.083 42.2455 106.042C42.347 105.998 42.459 106.011 42.5817 106.082C42.7127 106.158 42.8269 106.272 42.9242 106.426C43.0257 106.582 43.0764 106.744 43.0764 106.91C43.0764 107.066 43.0278 107.172 42.9305 107.228C42.8333 107.284 42.717 107.273 42.5817 107.195ZM42.2966 116.42L42.2963 108.92L42.8799 109.257L42.8801 116.757L42.2966 116.42ZM49.2308 120.094C48.7488 120.158 48.1737 119.997 47.5056 119.611C46.6218 119.1 45.9093 118.34 45.368 117.329C44.8267 116.314 44.5561 115.239 44.556 114.107C44.556 112.915 44.8604 112.117 45.4693 111.712C46.0782 111.301 46.8605 111.372 47.8161 111.924C48.3109 112.21 48.7908 112.604 49.256 113.107L49.256 113.869C48.7908 113.268 48.2813 112.808 47.7273 112.488C46.9662 112.048 46.3488 112.009 45.8753 112.371C45.4017 112.727 45.1649 113.408 45.1649 114.414C45.165 115.386 45.3807 116.292 45.812 117.131C46.2475 117.974 46.8205 118.6 47.5309 119.01C48.1821 119.386 48.7487 119.513 49.2308 119.391L49.2308 120.094ZM54.7443 123.607L54.7442 122.106L54.7189 122.091C54.5117 122.484 54.2093 122.72 53.8119 122.798C53.4186 122.874 52.981 122.772 52.4989 122.494C51.8815 122.137 51.3931 121.655 51.0337 121.047C50.6743 120.439 50.4945 119.83 50.4945 119.22C50.4945 117.911 51.245 117.554 52.7461 118.147L54.7441 118.956C54.7441 117.345 54.2197 116.237 53.171 115.631C52.4564 115.218 51.7608 115.149 51.0843 115.422L51.0842 114.609C51.3253 114.529 51.6508 114.529 52.061 114.609C52.4754 114.692 52.8644 114.839 53.2281 115.049C53.8962 115.435 54.4121 115.972 54.7758 116.66C55.1437 117.351 55.3276 118.153 55.3277 119.066L55.3278 123.944L54.7443 123.607ZM52.9555 118.839C52.2747 118.558 51.7969 118.466 51.522 118.561C51.2472 118.651 51.1097 118.979 51.1098 119.546C51.1098 119.99 51.2366 120.43 51.4904 120.864C51.7483 121.301 52.1056 121.652 52.5623 121.915C53.1881 122.277 53.7083 122.311 54.1226 122.018C54.537 121.72 54.7442 121.149 54.7442 120.304L54.7441 119.572L52.9555 118.839ZM57.0102 124.586L57.0102 123.773C57.23 124.12 57.4964 124.447 57.8094 124.754C58.1223 125.062 58.3929 125.282 58.6213 125.414C59.6403 126.002 60.1499 125.815 60.1498 124.853C60.1498 124.521 60.0378 124.173 59.8136 123.81C59.5895 123.446 59.2259 122.994 58.7226 122.455C58.101 121.783 57.6634 121.208 57.4096 120.73C57.1601 120.249 57.0354 119.769 57.0354 119.291C57.0354 118.68 57.2362 118.303 57.6379 118.159C58.0438 118.017 58.5428 118.118 59.1348 118.459C59.693 118.782 60.1708 119.189 60.5683 119.683L60.5683 120.444C60.0862 119.805 59.5873 119.336 59.0714 119.038C58.6443 118.791 58.2997 118.722 58.0375 118.829C57.7754 118.932 57.6443 119.188 57.6443 119.598C57.6443 119.955 57.7268 120.293 57.8917 120.613C58.0566 120.928 58.4203 121.391 58.9827 122.004C59.6593 122.746 60.1244 123.342 60.3781 123.791C60.6319 124.236 60.7587 124.707 60.7587 125.205C60.7588 125.801 60.5643 126.182 60.1753 126.348C59.7905 126.511 59.2577 126.396 58.5769 126.003C57.951 125.642 57.4288 125.169 57.0102 124.586ZM70.7011 132.821L70.701 131.458L70.6757 131.444C70.4643 131.795 70.1514 131.99 69.737 132.03C69.3226 132.069 68.8553 131.938 68.3352 131.638C67.536 131.176 66.8827 130.462 66.3752 129.495C65.872 128.531 65.6204 127.455 65.6204 126.269C65.6203 125.058 65.8951 124.238 66.4448 123.808C66.9987 123.376 67.7155 123.414 68.595 123.922C69.5676 124.483 70.2611 125.345 70.6755 126.507L70.7009 126.522L70.7007 121.717L71.2843 122.054L71.2846 133.158L70.7011 132.821ZM70.7009 128.258C70.7009 127.559 70.5085 126.857 70.1237 126.152C69.7431 125.444 69.2293 124.903 68.5824 124.529C67.9016 124.136 67.3392 124.114 66.8952 124.464C66.4512 124.808 66.2292 125.507 66.2293 126.562C66.2293 127.597 66.4281 128.513 66.8256 129.308C67.2273 130.102 67.7432 130.681 68.3733 131.044C69.1132 131.472 69.6862 131.539 70.0921 131.246C70.4981 130.948 70.701 130.418 70.701 129.657L70.7009 128.258ZM73.5758 130.76C73.5758 131.79 73.7809 132.714 74.1911 133.532C74.6056 134.352 75.1722 134.97 75.891 135.385C76.6184 135.805 77.3287 135.905 78.0222 135.685L78.0222 136.403C77.3499 136.567 76.5994 136.409 75.7706 135.931C74.9333 135.447 74.2567 134.71 73.7408 133.719C73.2249 132.728 72.9669 131.6 72.9669 130.335C72.9669 129.241 73.2353 128.476 73.7723 128.039C74.3136 127.599 75.0155 127.629 75.8781 128.127C76.6858 128.593 77.3053 129.278 77.7366 130.181C78.1679 131.085 78.3836 132.103 78.3837 133.236L78.3837 133.536L73.5758 130.76ZM77.7747 132.569C77.7493 131.69 77.5696 130.915 77.2355 130.244C76.9015 129.572 76.4405 129.067 75.8528 128.727C75.2439 128.376 74.7386 128.321 74.3369 128.563C73.9394 128.802 73.6942 129.334 73.6012 130.159L77.7747 132.569ZM86.7528 135.292C86.5583 135.019 86.33 134.806 86.0678 134.655C85.5561 134.359 85.127 134.417 84.7802 134.827C84.4335 135.237 84.2602 136.004 84.2602 137.127L84.2603 140.65L83.6895 140.32L83.6892 132.82L84.2601 133.15L84.2601 134.812L84.2855 134.827C84.4335 134.341 84.6681 134.032 84.9895 133.9C85.3109 133.769 85.683 133.825 86.1058 134.069C86.3469 134.208 86.5625 134.376 86.7528 134.574L86.7528 135.292ZM87.9152 139.039C87.9152 140.07 88.1203 140.994 88.5305 141.811C88.9449 142.632 89.5116 143.25 90.2304 143.665C90.9578 144.085 91.6681 144.185 92.3616 143.965L92.3616 144.683C91.6893 144.846 90.9387 144.689 90.1099 144.21C89.2727 143.727 88.5961 142.989 88.0802 141.998C87.5643 141.007 87.3063 139.879 87.3063 138.614C87.3062 137.521 87.5747 136.755 88.1117 136.318C88.653 135.879 89.3549 135.908 90.2175 136.406C91.0252 136.873 91.6447 137.557 92.076 138.461C92.5073 139.364 92.723 140.382 92.7231 141.515L92.7231 141.815L87.9152 139.039ZM92.1141 140.848C92.0887 139.97 91.909 139.194 91.5749 138.523C91.2409 137.852 90.7799 137.346 90.1922 137.007C89.5833 136.655 89.078 136.6 88.6763 136.842C88.2788 137.081 88.0335 137.613 87.9405 138.439L92.1141 140.848ZM94.063 145.98L94.063 145.167C94.2829 145.514 94.5493 145.841 94.8622 146.148C95.1751 146.456 95.4458 146.676 95.6741 146.808C96.6932 147.396 97.2027 147.209 97.2027 146.247C97.2027 145.915 97.0906 145.568 96.8665 145.204C96.6424 144.84 96.2787 144.388 95.7755 143.849C95.1539 143.177 94.7162 142.602 94.4625 142.124C94.213 141.643 94.0883 141.163 94.0882 140.685C94.0882 140.074 94.2891 139.697 94.6908 139.553C95.0967 139.411 95.5957 139.512 96.1877 139.853C96.7458 140.176 97.2237 140.583 97.6212 141.077L97.6212 141.838C97.1391 141.199 96.6401 140.73 96.1242 140.432C95.6972 140.185 95.3525 140.116 95.0904 140.223C94.8282 140.326 94.6971 140.582 94.6972 140.992C94.6972 141.349 94.7796 141.687 94.9446 142.007C95.1095 142.322 95.4731 142.785 96.0355 143.398C96.7121 144.141 97.1773 144.736 97.431 145.185C97.6847 145.63 97.8116 146.101 97.8116 146.599C97.8116 147.195 97.6171 147.576 97.2281 147.742C96.8433 147.905 96.3105 147.79 95.6297 147.397C95.0039 147.036 94.4817 146.564 94.063 145.98ZM103.801 151.932L103.801 150.57L103.775 150.555C103.323 151.324 102.625 151.436 101.682 150.892C100.147 150.006 99.3798 148.447 99.3798 146.215L99.3796 141.88L99.9695 142.22L99.9697 146.388C99.9697 147.403 100.113 148.224 100.401 148.849C100.693 149.476 101.15 149.969 101.771 150.328C102.376 150.677 102.864 150.703 103.236 150.405C103.613 150.11 103.801 149.535 103.801 148.68L103.801 144.432L104.384 144.769L104.384 152.269L103.801 151.932ZM114.674 158.21L114.674 153.698C114.674 152.756 114.545 152.02 114.287 151.49C114.033 150.963 113.629 150.539 113.075 150.219C112.564 149.924 112.122 149.923 111.75 150.216C111.378 150.509 111.192 151.038 111.192 151.805L111.192 156.2L110.608 155.863L110.608 151.3C110.608 149.63 110.058 148.477 108.959 147.843C108.43 147.537 107.991 147.54 107.64 147.85C107.289 148.155 107.113 148.713 107.113 149.523L107.113 153.845L106.53 153.508L106.53 146.008L107.113 146.345L107.113 147.59L107.138 147.605C107.591 146.914 108.253 146.82 109.124 147.323C109.597 147.596 110.001 147.988 110.335 148.498C110.674 149.006 110.902 149.55 111.02 150.131C111.223 149.707 111.513 149.454 111.889 149.373C112.27 149.29 112.682 149.377 113.126 149.634C114.547 150.454 115.257 151.88 115.257 153.911L115.258 158.547L114.674 158.21ZM117.416 156.073C117.416 157.103 117.621 158.027 118.031 158.845C118.445 159.665 119.012 160.283 119.731 160.698C120.458 161.118 121.168 161.218 121.862 160.998L121.862 161.716C121.19 161.88 120.439 161.722 119.61 161.243C118.773 160.76 118.096 160.023 117.581 159.031C117.065 158.04 116.807 156.912 116.807 155.648C116.807 154.554 117.075 153.789 117.612 153.352C118.153 152.912 118.855 152.941 119.718 153.44C120.525 153.906 121.145 154.591 121.576 155.494C122.008 156.397 122.223 157.415 122.223 158.548L122.223 158.849L117.416 156.073ZM121.614 157.882C121.589 157.003 121.409 156.228 121.075 155.556C120.741 154.885 120.28 154.379 119.692 154.04C119.084 153.689 118.578 153.634 118.177 153.875C117.779 154.115 117.534 154.647 117.441 155.472L121.614 157.882ZM128.314 166.086L128.314 161.721C128.314 159.919 127.752 158.693 126.627 158.044C126.001 157.683 125.487 157.652 125.085 157.952C124.684 158.248 124.483 158.786 124.483 159.567L124.483 163.874L123.9 163.537L123.899 156.037L124.483 156.374L124.483 157.736L124.508 157.751C124.982 156.994 125.722 156.906 126.728 157.487C127.43 157.893 127.967 158.474 128.339 159.23C128.711 159.982 128.898 160.859 128.898 161.86L128.898 166.423L128.314 166.086ZM2.62949 111.047C2.39272 111.584 2.13056 111.933 1.84303 112.094C1.5555 112.255 1.1855 112.205 0.733047 111.944C0.542762 111.834 0.373618 111.702 0.225617 111.549L0.225595 110.875C0.377825 111.031 0.555426 111.168 0.758397 111.285C1.27851 111.585 1.68867 111.407 1.98887 110.75L2.59139 109.436L0.130126 100.573L0.783439 100.95L2.74357 108.191C2.78586 108.347 2.81546 108.464 2.83238 108.542C2.8493 108.645 2.86833 108.739 2.88947 108.824L2.91485 108.839L3.06706 108.421L5.16 103.477L5.79428 103.844L2.62949 111.047ZM14.5063 116.374L14.5062 114.872L14.4809 114.858C14.2737 115.251 13.9714 115.486 13.5739 115.564C13.1806 115.64 12.743 115.539 12.2609 115.26C11.6436 114.904 11.1552 114.422 10.7957 113.814C10.4363 113.206 10.2565 112.597 10.2565 111.986C10.2565 110.678 11.007 110.32 12.5082 110.914L14.5061 111.723C14.5061 110.112 13.9817 109.003 12.933 108.398C12.2184 107.985 11.5228 107.915 10.8463 108.189L10.8463 107.376C11.0873 107.295 11.4129 107.295 11.823 107.376C12.2374 107.459 12.6265 107.605 12.9901 107.815C13.6582 108.201 14.1741 108.738 14.5378 109.427C14.9057 110.118 15.0896 110.92 15.0897 111.833L15.0898 116.711L14.5063 116.374ZM12.7175 111.606C12.0367 111.325 11.5589 111.232 11.284 111.327C11.0092 111.418 10.8718 111.746 10.8718 112.312C10.8718 112.757 10.9987 113.196 11.2524 113.631C11.5103 114.068 11.8677 114.418 12.3243 114.682C12.9502 115.043 13.4703 115.077 13.8847 114.784C14.299 114.487 14.5062 113.915 14.5062 113.071L14.5062 112.338L12.7175 111.606ZM22.3032 120.319C22.3032 121.73 22.0368 122.609 21.5041 122.956C20.9713 123.302 20.1425 123.151 19.0177 122.502C18.3919 122.14 17.747 121.577 17.0831 120.813L17.0831 120.11C17.7681 120.945 18.4172 121.54 19.0304 121.894C20.8233 122.929 21.7197 122.353 21.7196 120.165L21.7196 119.191L21.6942 119.176C21.1826 119.902 20.4024 119.961 19.3538 119.356C18.5546 118.894 17.9012 118.183 17.3938 117.221C16.8906 116.261 16.6389 115.183 16.6389 113.987C16.6389 112.791 16.9116 111.972 17.457 111.53C18.0025 111.088 18.7213 111.125 19.6136 111.64C20.5692 112.192 21.2627 113.048 21.6941 114.211L21.7194 114.225L21.7194 113.039L22.3029 113.376L22.3032 120.319ZM21.7195 115.917C21.7195 115.253 21.5249 114.567 21.1359 113.859C20.7511 113.153 20.2479 112.621 19.6263 112.262C18.9116 111.85 18.3366 111.828 17.901 112.196C17.4655 112.565 17.2478 113.26 17.2478 114.28C17.2478 115.305 17.4466 116.219 17.8441 117.019C18.2458 117.818 18.7744 118.406 19.4298 118.785C20.1276 119.187 20.6836 119.247 21.098 118.964C21.5124 118.681 21.7196 118.161 21.7195 117.404L21.7195 115.917ZM27.5183 117.09C27.3238 116.817 27.0954 116.604 26.8333 116.453C26.3216 116.157 25.8924 116.215 25.5457 116.625C25.199 117.035 25.0256 117.802 25.0257 118.925L25.0258 122.448L24.4549 122.118L24.4547 114.618L25.0255 114.948L25.0256 116.61L25.051 116.625C25.1989 116.139 25.4336 115.83 25.755 115.698C26.0763 115.567 26.4484 115.623 26.8713 115.867C27.1123 116.006 27.328 116.175 27.5183 116.372L27.5183 117.09ZM28.6807 120.837C28.6807 121.868 28.8858 122.792 29.296 123.61C29.7104 124.43 30.277 125.048 30.9959 125.463C31.7232 125.883 32.4336 125.983 33.1271 125.763L33.1271 126.481C32.4548 126.644 31.7042 126.487 30.8754 126.008C30.0381 125.525 29.3616 124.788 28.8457 123.796C28.3298 122.805 28.0718 121.677 28.0717 120.413C28.0717 119.319 28.3402 118.553 28.8772 118.116C29.4184 117.677 30.1204 117.706 30.983 118.204C31.7906 118.671 32.4101 119.356 32.8415 120.259C33.2728 121.162 33.4885 122.18 33.4885 123.313L33.4885 123.613L28.6807 120.837ZM32.8796 122.647C32.8542 121.768 32.6745 120.993 32.3404 120.321C32.0063 119.65 31.5454 119.144 30.9576 118.805C30.3487 118.453 29.8434 118.398 29.4417 118.64C29.0442 118.879 28.799 119.412 28.706 120.237L32.8796 122.647ZM40.3595 130.745C40.3595 132.156 40.0931 133.035 39.5604 133.381C39.0276 133.728 38.1988 133.577 37.074 132.927C36.4482 132.566 35.8033 132.003 35.1394 131.239L35.1394 130.536C35.8244 131.371 36.4735 131.965 37.0867 132.319C38.8796 133.354 39.776 132.778 39.7759 130.591L39.7759 129.617L39.7505 129.602C39.2389 130.327 38.4587 130.387 37.4101 129.781C36.6109 129.32 35.9575 128.608 35.4501 127.646C34.9469 126.687 34.6952 125.609 34.6952 124.413C34.6952 123.216 34.9679 122.397 35.5133 121.955C36.0588 121.514 36.7776 121.55 37.6699 122.065C38.6255 122.617 39.319 123.474 39.7504 124.636L39.7757 124.651L39.7757 123.464L40.3592 123.801L40.3595 130.745ZM39.7758 126.343C39.7758 125.679 39.5812 124.993 39.1922 124.285C38.8074 123.579 38.3042 123.047 37.6826 122.688C36.9679 122.275 36.3929 122.253 35.9573 122.622C35.5218 122.991 35.3041 123.685 35.3041 124.706C35.3041 125.731 35.5029 126.644 35.9004 127.445C36.3021 128.243 36.8307 128.832 37.4861 129.21C38.1839 129.613 38.7399 129.673 39.1543 129.39C39.5687 129.106 39.7759 128.586 39.7758 127.83L39.7758 126.343ZM46.393 134.785L46.393 133.284L46.3676 133.269C46.1604 133.662 45.8581 133.898 45.4606 133.976C45.0674 134.051 44.6297 133.95 44.1477 133.672C43.5303 133.315 43.0419 132.833 42.6825 132.225C42.323 131.617 42.1433 131.008 42.1433 130.398C42.1432 129.089 42.8938 128.731 44.3949 129.325L46.3929 130.134C46.3928 128.523 45.8685 127.414 44.8198 126.809C44.1052 126.396 43.4096 126.327 42.733 126.6L42.733 125.787C42.974 125.707 43.2996 125.707 43.7098 125.787C44.1242 125.87 44.5132 126.017 44.8769 126.227C45.545 126.612 46.0609 127.149 46.4245 127.838C46.7924 128.529 46.9764 129.331 46.9764 130.244L46.9766 135.122L46.393 134.785ZM44.6042 130.017C43.9234 129.736 43.4456 129.643 43.1708 129.739C42.8959 129.829 42.7585 130.157 42.7585 130.724C42.7585 131.168 42.8854 131.607 43.1391 132.042C43.3971 132.479 43.7544 132.829 44.2111 133.093C44.8369 133.454 45.357 133.489 45.7714 133.196C46.1858 132.898 46.393 132.326 46.3929 131.482L46.3929 130.749L44.6042 130.017ZM53.2004 138.386C52.7184 138.449 52.1433 138.288 51.4752 137.902C50.5914 137.392 49.8789 136.632 49.3376 135.621C48.7963 134.605 48.5257 133.531 48.5256 132.398C48.5256 131.207 48.83 130.409 49.4389 130.003C50.0478 129.593 50.8301 129.664 51.7857 130.216C52.2805 130.501 52.7604 130.896 53.2256 131.399L53.2256 132.16C52.7604 131.56 52.2509 131.1 51.6969 130.78C50.9358 130.34 50.3184 130.301 49.8449 130.662C49.3713 131.019 49.1345 131.7 49.1345 132.706C49.1346 133.678 49.3503 134.583 49.7816 135.423C50.2172 136.265 50.7901 136.892 51.5005 137.302C52.1517 137.678 52.7183 137.805 53.2004 137.683L53.2004 138.386ZM55.1172 130.433C54.9903 130.36 54.8783 130.241 54.781 130.078C54.6838 129.914 54.6351 129.749 54.6351 129.583C54.6351 129.422 54.6837 129.321 54.781 129.279C54.8825 129.235 54.9945 129.249 55.1172 129.319C55.2482 129.395 55.3624 129.51 55.4597 129.664C55.5612 129.82 55.6119 129.981 55.6119 130.147C55.6119 130.303 55.5633 130.41 55.466 130.466C55.3688 130.522 55.2525 130.511 55.1172 130.433ZM54.8321 139.658L54.8318 132.158L55.4154 132.495L55.4156 139.995L54.8321 139.658ZM60.1679 142.922C59.2207 142.375 58.4701 141.582 57.9162 140.545C57.3664 139.505 57.0916 138.409 57.0915 137.256C57.0915 136.011 57.379 135.203 57.954 134.832C58.5333 134.463 59.2945 134.551 60.2374 135.096C61.1635 135.63 61.895 136.402 62.4321 137.41C62.9691 138.419 63.2377 139.54 63.2377 140.776C63.2378 141.943 62.9629 142.729 62.4133 143.134C61.8678 143.542 61.1193 143.471 60.1679 142.922ZM60.2121 135.696C59.4467 135.254 58.8357 135.199 58.379 135.531C57.9266 135.866 57.7004 136.563 57.7004 137.622C57.7005 138.604 57.9225 139.521 58.3665 140.373C58.8105 141.225 59.4173 141.873 60.1869 142.317C60.9692 142.769 61.5718 142.824 61.9946 142.482C62.4174 142.14 62.6289 141.45 62.6288 140.409C62.6288 139.34 62.4173 138.398 61.9945 137.582C61.5758 136.769 60.9817 136.141 60.2121 135.696ZM69.3348 148.031L69.3347 143.666C69.3346 141.864 68.7722 140.639 67.6474 139.989C67.0216 139.628 66.5078 139.597 66.1061 139.898C65.7044 140.193 65.5036 140.731 65.5036 141.513L65.5038 145.819L64.9202 145.482L64.92 137.982L65.5035 138.319L65.5036 139.682L65.5289 139.696C66.0025 138.94 66.7425 138.852 67.7489 139.433C68.4508 139.838 68.9879 140.419 69.36 141.176C69.7321 141.928 69.9182 142.804 69.9182 143.805L69.9184 148.368L69.3348 148.031ZM72.0764 145.894C72.0764 146.924 72.2815 147.848 72.6917 148.666C73.1061 149.486 73.6727 150.104 74.3916 150.519C75.1189 150.939 75.8293 151.039 76.5228 150.819L76.5228 151.537C75.8505 151.701 75.0999 151.543 74.2711 151.065C73.4339 150.581 72.7573 149.844 72.2414 148.853C71.7255 147.861 71.4675 146.734 71.4674 145.469C71.4674 144.375 71.7359 143.61 72.2729 143.173C72.8141 142.733 73.5161 142.763 74.3787 143.261C75.1863 143.727 75.8058 144.412 76.2372 145.315C76.6685 146.219 76.8842 147.237 76.8842 148.369L76.8842 148.67L72.0764 145.894ZM76.2753 147.703C76.2499 146.824 76.0702 146.049 75.7361 145.377C75.402 144.706 74.9411 144.201 74.3533 143.861C73.7444 143.51 73.2391 143.455 72.8374 143.696C72.4399 143.936 72.1947 144.468 72.1017 145.293L76.2753 147.703ZM78.2242 152.834L78.2242 152.022C78.4441 152.368 78.7105 152.695 79.0234 153.003C79.3363 153.311 79.6069 153.53 79.8353 153.662C80.8544 154.251 81.3639 154.064 81.3639 153.102C81.3638 152.77 81.2518 152.422 81.0277 152.058C80.8035 151.694 80.4399 151.243 79.9367 150.703C79.3151 150.032 78.8774 149.457 78.6237 148.978C78.3742 148.497 78.2494 148.018 78.2494 147.539C78.2494 146.929 78.4502 146.552 78.8519 146.408C79.2579 146.266 79.7568 146.366 80.3488 146.708C80.907 147.03 81.3848 147.438 81.7823 147.931L81.7823 148.693C81.3003 148.053 80.8013 147.584 80.2854 147.286C79.8583 147.04 79.5137 146.97 79.2515 147.078C78.9894 147.18 78.8583 147.437 78.8583 147.847C78.8583 148.203 78.9408 148.541 79.1057 148.861C79.2706 149.176 79.6343 149.64 80.1967 150.253C80.8733 150.995 81.3384 151.591 81.5922 152.04C81.8459 152.484 81.9728 152.955 81.9728 153.454C81.9728 154.049 81.7783 154.43 81.3893 154.596C81.0045 154.76 80.4717 154.645 79.7909 154.252C79.1651 153.89 78.6428 153.418 78.2242 152.834ZM84.0738 156.673C83.9301 156.59 83.8096 156.465 83.7123 156.296C83.615 156.123 83.5664 155.953 83.5664 155.787C83.5664 155.616 83.615 155.505 83.7123 155.454C83.8095 155.398 83.93 155.411 84.0738 155.494C84.2176 155.577 84.3402 155.704 84.4417 155.875C84.5432 156.041 84.5939 156.21 84.5939 156.38C84.5939 156.547 84.5432 156.659 84.4417 156.717C84.3402 156.771 84.2176 156.756 84.0738 156.673Z" fill="white"/>
</svg>
