<svg width="165" height="187" viewBox="0 0 165 187" fill="none" xmlns="http://www.w3.org/2000/svg">
<path d="M3.8539 93.7242L3.85384 95.5553L3.0927 95.9948L3.09248 102.836L3.85362 102.396L3.85357 104.227L0.282545 106.289L0.282603 104.458L1.04374 104.019L1.04396 97.1777L0.282821 97.6172L0.28288 95.7861L3.8539 93.7242ZM13.6086 98.5947L11.5408 99.7886L7.79243 95.3539C7.57256 95.0951 7.42034 94.8925 7.33577 94.746L7.3104 94.7607C7.34422 95.1122 7.36111 95.6689 7.36109 96.4306L7.3609 102.202L5.42634 103.319L5.42667 92.8161L7.63398 91.5417L11.2429 95.8518C11.4078 96.0447 11.56 96.2425 11.6995 96.4451L11.7249 96.4304C11.6911 96.2058 11.6742 95.7346 11.6742 95.0169L11.6744 89.2088L13.6089 88.0918L13.6086 98.5947ZM15.5302 97.0823L15.5303 94.7386C15.8982 94.8826 16.2978 94.9204 16.7291 94.8521C17.1604 94.7788 17.5959 94.6152 18.0357 94.3613C18.2937 94.2124 18.5178 94.0561 18.7081 93.8925C18.9026 93.7265 19.0633 93.5605 19.1901 93.3945C19.3212 93.2211 19.4185 93.0527 19.4819 92.8891C19.5453 92.7206 19.577 92.5607 19.5771 92.4093C19.5771 92.2043 19.5263 92.0505 19.4248 91.9479C19.3234 91.8454 19.1838 91.777 19.0062 91.7429C18.8329 91.7062 18.6257 91.694 18.3846 91.7062C18.1436 91.7185 17.8836 91.7392 17.6045 91.7685C16.8941 91.8369 16.3634 91.7258 16.0125 91.4353C15.6657 91.1424 15.4924 90.6468 15.4924 89.9485C15.4924 89.4017 15.5876 88.878 15.7779 88.3775C15.9682 87.8721 16.2261 87.3985 16.5517 86.9566C16.8816 86.5122 17.2622 86.1069 17.6935 85.7407C18.1248 85.3696 18.5815 85.0449 19.0635 84.7665C19.5371 84.4931 19.9558 84.2855 20.3194 84.1439C20.6873 83.995 21.0256 83.8998 21.3343 83.8583L21.3342 86.0482C21.182 86.014 21.0149 86.003 20.8331 86.0153C20.6555 86.025 20.4716 86.0555 20.2813 86.1068C20.091 86.1532 19.9007 86.2167 19.7104 86.2973C19.5244 86.3754 19.3468 86.4633 19.1776 86.561C18.9451 86.6952 18.7336 86.8442 18.5434 87.0078C18.3531 87.1665 18.1924 87.33 18.0613 87.4985C17.9302 87.667 17.8287 87.8379 17.7568 88.0112C17.6849 88.1797 17.649 88.3445 17.649 88.5056C17.649 88.6814 17.6892 88.8169 17.7695 88.9121C17.8498 89.0024 17.964 89.0683 18.112 89.1098C18.26 89.1464 18.4397 89.1647 18.6511 89.1647C18.8625 89.1598 19.1015 89.144 19.3678 89.1171C19.7315 89.0829 20.0571 89.0829 20.3446 89.1171C20.6364 89.1439 20.8859 89.222 21.0931 89.3514C21.3003 89.4808 21.4588 89.6749 21.5687 89.9337C21.6787 90.1876 21.7336 90.5269 21.7336 90.9517C21.7336 91.5377 21.6363 92.087 21.4418 92.5997C21.2515 93.1051 20.9914 93.5775 20.6616 94.017C20.3318 94.4515 19.947 94.8495 19.5072 95.2109C19.0716 95.5698 18.6107 95.8896 18.1245 96.1704C17.6255 96.4585 17.1498 96.6843 16.6973 96.8479C16.2491 97.0091 15.8601 97.0872 15.5302 97.0823ZM26.3005 80.7638L26.3004 82.5948L25.5393 83.0343L25.539 89.8751L26.3002 89.4356L26.3001 91.2667L22.7291 93.3286L22.7292 91.4975L23.4903 91.058L23.4905 84.2172L22.7294 84.6567L22.7294 82.8256L26.3005 80.7638ZM35.3384 85.3449C34.4504 86.4485 33.3468 87.3811 32.0275 88.1429C30.5644 88.9876 29.41 89.1879 28.5643 88.7436C27.7229 88.2919 27.3022 87.2458 27.3022 85.6052C27.3023 83.9548 27.7632 82.3434 28.6851 80.7712C29.6069 79.1989 30.8332 77.9708 32.364 77.087C33.3281 76.5303 34.178 76.1933 34.9138 76.0761L34.9137 78.2954C34.2118 78.2319 33.3534 78.4932 32.3385 79.0791C31.4886 79.5699 30.7951 80.2901 30.2581 81.2399C29.7252 82.1823 29.4588 83.1857 29.4588 84.2501C29.4587 85.3292 29.6976 86.0262 30.1754 86.3412C30.6575 86.6537 31.3065 86.5743 32.1227 86.1031C32.6132 85.8199 33.0022 85.5147 33.2898 85.1875L33.2898 83.1367L31.4694 84.1878L31.4695 82.2982L35.3386 80.0642L35.3384 85.3449ZM45.2393 80.3313L43.1843 81.5179L43.1844 77.2406L39.4168 79.416L39.4166 83.6933L37.3679 84.8762L37.3682 74.3733L39.417 73.1904L39.4168 77.3798L43.1845 75.2044L43.1846 71.015L45.2397 69.8284L45.2393 80.3313ZM53.9735 66.7118L51.3792 68.2097L51.379 76.7863L49.3239 77.9729L49.3242 69.3963L46.7426 70.8868L46.7427 68.9606L53.9735 64.7855L53.9735 66.7118ZM54.9751 74.8931C54.6453 75.0835 54.3704 75.125 54.1505 75.0176C53.9307 74.9102 53.8207 74.6856 53.8207 74.3438C53.8208 73.9922 53.9328 73.6394 54.1569 73.2854C54.3853 72.929 54.6686 72.6531 55.0069 72.4578C55.3494 72.26 55.6285 72.2136 55.8441 72.3186C56.064 72.4162 56.1739 72.6384 56.1739 72.9851C56.1739 73.3415 56.0619 73.6992 55.8377 74.0581C55.6178 74.4097 55.3303 74.688 54.9751 74.8931ZM62.0152 70.6451L62.0155 60.1422L66.2652 57.6884L66.2652 58.3549L62.6434 60.4461L62.6433 64.6575L66.005 62.7165L66.005 63.3757L62.6433 65.3167L62.6431 69.6233L66.4742 67.4113L66.4742 68.0705L62.0152 70.6451ZM68.307 66.6826L68.307 65.8696C68.5269 65.9624 68.7933 65.9819 69.1062 65.9282C69.4191 65.8745 69.6898 65.7817 69.9181 65.6499C70.9372 65.0615 71.4467 64.2863 71.4468 63.3244C71.4468 62.9923 71.3347 62.7738 71.1106 62.6689C70.8865 62.5639 70.5229 62.5322 70.0197 62.5737C69.3981 62.6201 68.9604 62.5505 68.7067 62.365C68.4573 62.1721 68.3325 61.8364 68.3326 61.3579C68.3326 60.7476 68.5334 60.1384 68.9352 59.5305C69.3411 58.9201 69.8401 58.4441 70.4321 58.1022C70.9903 57.78 71.4681 57.6359 71.8656 57.6701L71.8655 58.4318C71.3835 58.3488 70.8845 58.4562 70.3687 58.7541C69.9416 59.0007 69.5969 59.3291 69.3348 59.7392C69.0726 60.1445 68.9415 60.5522 68.9415 60.9624C68.9415 61.3188 69.0239 61.5618 69.1888 61.6912C69.3537 61.8157 69.7174 61.8596 70.2798 61.823C70.9563 61.7839 71.4214 61.8424 71.6751 61.9987C71.9289 62.15 72.0557 62.4748 72.0557 62.9728C72.0557 63.5685 71.8611 64.174 71.4721 64.7892C71.0873 65.3971 70.5545 65.8977 69.8737 66.2907C69.2479 66.6521 68.7256 66.7827 68.307 66.6826ZM77.7764 61.5447L77.7767 50.4412L78.3603 50.1042L78.3599 61.2078L77.7764 61.5447ZM84.582 57.6152L84.582 56.1137L84.5567 56.1284C84.3494 56.7607 84.0471 57.3454 83.6496 57.8825C83.2563 58.4123 82.8187 58.8164 82.3366 59.0947C81.7192 59.4512 81.2308 59.533 80.8714 59.3401C80.512 59.1473 80.3323 58.7457 80.3323 58.1353C80.3324 56.8267 81.083 55.6023 82.5841 54.4622L84.5821 52.9643C84.5822 51.353 84.0579 50.8501 83.0092 51.4556C82.2946 51.8682 81.5989 52.6018 80.9224 53.6565L80.9224 52.8436C81.1634 52.4847 81.489 52.1087 81.8992 51.7156C82.3136 51.3201 82.7026 51.0173 83.0663 50.8074C83.7344 50.4216 84.2503 50.363 84.6139 50.6315C84.9818 50.8976 85.1657 51.4872 85.1657 52.4003L85.1655 57.2782L84.582 57.6152ZM82.7934 54.9126C82.1126 55.418 81.6348 55.877 81.3599 56.2896C81.0851 56.6973 80.9476 57.1844 80.9476 57.7508C80.9476 58.1951 81.0744 58.4881 81.3281 58.6297C81.5861 58.7688 81.9434 58.7066 82.4001 58.4429C83.0259 58.0815 83.546 57.5151 83.9604 56.7436C84.3748 55.9672 84.5821 55.1567 84.5821 54.3119L84.5821 53.5795L82.7934 54.9126ZM95.4087 51.0343C94.9266 51.6544 94.3516 52.1574 93.6834 52.5432C92.7997 53.0534 92.0872 53.1157 91.5459 52.73C91.0047 52.3394 90.7341 51.5777 90.7341 50.4449C90.7342 49.2535 91.0387 48.1035 91.6476 46.9951C92.2565 45.8818 93.0388 45.0493 93.9945 44.4975C94.4892 44.2118 94.9692 44.0519 95.4343 44.0177L95.4343 44.7794C94.9692 44.716 94.4596 44.8442 93.9057 45.164C93.1445 45.6035 92.5272 46.2773 92.0535 47.1855C91.5799 48.0889 91.3431 49.0435 91.3431 50.0493C91.343 51.021 91.5587 51.6777 91.99 52.0195C92.4255 52.3589 92.9984 52.3234 93.7088 51.9133C94.36 51.5373 94.9267 51.0099 95.4087 50.3312L95.4087 51.0343ZM101.117 48.068L101.117 46.5665L101.092 46.5811C100.884 47.2135 100.582 47.7982 100.185 48.3353C99.7914 48.8651 99.3537 49.2692 98.8716 49.5475C98.2543 49.904 97.7659 49.9858 97.4065 49.7929C97.047 49.6001 96.8673 49.1985 96.8674 48.5881C96.8674 47.2795 97.618 46.0551 99.1192 44.9149L101.117 43.4171C101.117 41.8058 100.593 41.3028 99.5442 41.9083C98.8296 42.321 98.134 43.0546 97.4574 44.1093L97.4574 43.2963C97.6984 42.9375 98.024 42.5615 98.4342 42.1684C98.8486 41.7729 99.2377 41.4701 99.6013 41.2601C100.269 40.8744 100.785 40.8158 101.149 41.0843C101.517 41.3504 101.701 41.94 101.701 42.8531L101.701 47.731L101.117 48.068ZM99.3284 45.3654C98.6476 45.8708 98.1698 46.3298 97.8949 46.7424C97.6201 47.1501 97.4826 47.6372 97.4826 48.2036C97.4826 48.6479 97.6095 48.9409 97.8632 49.0825C98.1211 49.2216 98.4784 49.1594 98.9351 48.8957C99.5609 48.5343 100.081 47.9679 100.495 47.1964C100.91 46.42 101.117 45.6095 101.117 44.7647L101.117 44.0323L99.3284 45.3654ZM104.523 44.7684L104.498 44.7831L104.497 49.5658L103.914 49.9027L103.914 38.953L104.498 38.6161L104.498 40.1615L104.523 40.1469C104.756 39.4608 105.088 38.8444 105.519 38.2975C105.954 37.7432 106.432 37.316 106.952 37.0157C107.777 36.5396 108.42 36.4981 108.881 36.8911C109.346 37.2768 109.578 38.0337 109.578 39.1616C109.578 40.4165 109.312 41.5859 108.779 42.6699C108.25 43.7466 107.551 44.5364 106.679 45.0394C105.707 45.6009 104.988 45.5106 104.523 44.7684ZM104.498 41.9926L104.498 42.9374C104.498 43.6893 104.703 44.2179 105.113 44.5231C105.523 44.8233 106.062 44.7806 106.73 44.3948C107.394 44.0115 107.933 43.3731 108.348 42.4795C108.762 41.5811 108.969 40.5972 108.969 39.5278C108.969 38.5903 108.779 37.9556 108.399 37.6235C108.018 37.2915 107.511 37.3086 106.876 37.6749C106.119 38.1119 105.534 38.743 105.119 39.5682C104.705 40.3934 104.498 41.2015 104.498 41.9926ZM115.337 39.8574L115.337 38.3559L115.312 38.3705C115.105 39.0029 114.802 39.5876 114.405 40.1247C114.012 40.6545 113.574 41.0586 113.092 41.3369C112.474 41.6934 111.986 41.7752 111.627 41.5823C111.267 41.3895 111.087 40.9879 111.088 40.3775C111.088 39.0689 111.838 37.8445 113.339 36.7043L115.337 35.2065C115.337 33.5951 114.813 33.0922 113.764 33.6977C113.05 34.1104 112.354 34.844 111.678 35.8987L111.678 35.0857C111.919 34.7268 112.244 34.3509 112.654 33.9578C113.069 33.5623 113.458 33.2595 113.821 33.0495C114.49 32.6638 115.005 32.6052 115.369 32.8737C115.737 33.1398 115.921 33.7294 115.921 34.6425L115.921 39.5204L115.337 39.8574ZM113.549 37.1548C112.868 37.6602 112.39 38.1192 112.115 38.5318C111.84 38.9395 111.703 39.4266 111.703 39.993C111.703 40.4373 111.83 40.7303 112.083 40.8719C112.341 41.011 112.699 40.9487 113.155 40.6851C113.781 40.3237 114.301 39.7573 114.716 38.9858C115.13 38.2094 115.337 37.3989 115.337 36.5541L115.337 35.8217L113.549 37.1548ZM122.339 35.4847C121.857 36.1049 121.282 36.6078 120.614 36.9936C119.73 37.5038 119.018 37.5661 118.477 37.1804C117.935 36.7898 117.665 36.0281 117.665 34.8953C117.665 33.7039 117.969 32.554 118.578 31.4455C119.187 30.3322 119.97 29.4997 120.925 28.9479C121.42 28.6622 121.9 28.5023 122.365 28.4681L122.365 29.2298C121.9 29.1664 121.39 29.2946 120.836 29.6144C120.075 30.0539 119.458 30.7277 118.984 31.6359C118.511 32.5393 118.274 33.4939 118.274 34.4997C118.274 35.4714 118.489 36.1282 118.921 36.4699C119.356 36.8093 119.929 36.7739 120.64 36.3637C121.291 35.9877 121.857 35.4603 122.339 34.7816L122.339 35.4847ZM124.452 25.2053C124.325 25.2785 124.213 25.2895 124.115 25.2382C124.018 25.187 123.97 25.0783 123.97 24.9123C123.97 24.7512 124.018 24.5937 124.115 24.4399C124.217 24.2787 124.329 24.1628 124.452 24.092C124.583 24.0163 124.697 23.9992 124.794 24.0407C124.896 24.0798 124.946 24.1823 124.946 24.3483C124.946 24.5046 124.898 24.6669 124.8 24.8354C124.703 25.0038 124.587 25.1271 124.452 25.2053ZM124.166 34.7597L124.166 27.2597L124.75 26.9228L124.749 34.4228L124.166 34.7597ZM131.701 30.409L131.701 29.0467L131.676 29.0614C131.464 29.6571 131.151 30.2137 130.737 30.7313C130.322 31.2489 129.855 31.6579 129.335 31.9582C128.536 32.4196 127.883 32.4599 127.375 32.0791C126.872 31.6958 126.62 30.9109 126.62 29.7244C126.62 28.5134 126.895 27.3757 127.445 26.3113C127.999 25.2395 128.716 24.4496 129.595 23.9418C130.568 23.3803 131.261 23.4413 131.676 24.1248L131.701 24.1102L131.701 19.3055L132.285 18.9686L132.284 30.0721L131.701 30.409ZM131.701 25.846C131.701 25.1478 131.509 24.6681 131.124 24.4068C130.743 24.1383 130.23 24.1908 129.583 24.5644C128.902 24.9575 128.339 25.5849 127.895 26.4467C127.451 27.3037 127.229 28.2595 127.229 29.3142C127.229 30.3494 127.428 31.0354 127.825 31.3723C128.227 31.7019 128.743 31.6848 129.373 31.321C130.113 30.8937 130.686 30.2992 131.092 29.5375C131.498 28.7708 131.701 28.0067 131.701 27.245L131.701 25.846ZM138.513 26.4758L138.513 24.9744L138.488 24.989C138.28 25.6214 137.978 26.2061 137.581 26.7432C137.187 27.273 136.75 27.6771 136.268 27.9554C135.65 28.3119 135.162 28.3937 134.802 28.2008C134.443 28.008 134.263 27.6064 134.263 26.996C134.263 25.6874 135.014 24.463 136.515 23.3228L138.513 21.825C138.513 20.2136 137.989 19.7107 136.94 20.3162C136.225 20.7289 135.53 21.4625 134.853 22.5172L134.853 21.7042C135.094 21.3453 135.42 20.9694 135.83 20.5763C136.245 20.1808 136.634 19.878 136.997 19.668C137.665 19.2823 138.181 19.2237 138.545 19.4922C138.913 19.7583 139.097 20.3479 139.097 21.261L139.096 26.1389L138.513 26.4758ZM136.724 23.7733C136.044 24.2787 135.566 24.7377 135.291 25.1503C135.016 25.558 134.879 26.0451 134.879 26.6115C134.878 27.0558 135.005 27.3488 135.259 27.4904C135.517 27.6295 135.874 27.5672 136.331 27.3036C136.957 26.9422 137.477 26.3758 137.891 25.6043C138.306 24.8279 138.513 24.0174 138.513 23.1726L138.513 22.4402L136.724 23.7733ZM145.921 22.1984L145.921 20.8361L145.896 20.8508C145.684 21.4465 145.371 22.0031 144.957 22.5207C144.543 23.0383 144.075 23.4473 143.555 23.7476C142.756 24.209 142.103 24.2493 141.595 23.8685C141.092 23.4852 140.841 22.7003 140.841 21.5138C140.841 20.3028 141.115 19.1651 141.665 18.1007C142.219 17.0289 142.936 16.239 143.815 15.7312C144.788 15.1696 145.482 15.2307 145.896 15.9142L145.921 15.8996L145.921 11.0949L146.505 10.758L146.505 21.8615L145.921 22.1984ZM145.921 17.6354C145.921 16.9372 145.729 16.4575 145.344 16.1962C144.964 15.9277 144.45 15.9802 143.803 16.3538C143.122 16.7468 142.56 17.3743 142.116 18.2361C141.672 19.0931 141.45 20.0489 141.449 21.1036C141.449 22.1387 141.648 22.8248 142.046 23.1617C142.447 23.4913 142.963 23.4742 143.593 23.1104C144.333 22.6831 144.906 22.0886 145.312 21.3269C145.718 20.5602 145.921 19.7961 145.921 19.0344L145.921 17.6354ZM5.65442 119.187L5.65447 117.825L5.62909 117.839C5.41765 118.435 5.10473 118.992 4.69032 119.509C4.27591 120.027 3.80865 120.436 3.28854 120.736C2.48934 121.198 1.83604 121.238 1.32863 120.857C0.825453 120.474 0.573883 119.689 0.573921 118.502C0.573959 117.291 0.848847 116.154 1.39858 115.089C1.95255 114.018 2.6693 113.228 3.54884 112.72C4.52141 112.158 5.21488 112.219 5.62925 112.903L5.65462 112.888L5.65478 108.084L6.23832 107.747L6.23796 118.85L5.65442 119.187ZM5.65457 114.624C5.65459 113.926 5.46221 113.446 5.07743 113.185C4.69687 112.916 4.18311 112.969 3.53614 113.342C2.85534 113.736 2.29293 114.363 1.84891 115.225C1.4049 116.082 1.18287 117.038 1.18284 118.092C1.1828 119.127 1.38152 119.813 1.77899 120.15C2.18068 120.48 2.69656 120.463 3.32661 120.099C4.06661 119.672 4.63959 119.077 5.04555 118.316C5.45151 117.549 5.6545 116.785 5.65452 116.023L5.65457 114.624ZM8.72422 113.694C8.72419 114.724 8.92925 115.411 9.3394 115.756C9.75378 116.097 10.3204 116.061 11.0393 115.646C11.7666 115.226 12.477 114.506 13.1705 113.485L13.1705 114.203C12.4981 115.143 11.7475 115.852 10.9187 116.331C10.0815 116.814 9.40491 116.858 8.88905 116.463C8.37318 116.067 8.11527 115.237 8.11531 113.972C8.11535 112.879 8.38389 111.803 8.92094 110.746C9.46222 109.681 10.1642 108.9 11.0268 108.402C11.8345 107.936 12.4539 107.905 12.8852 108.311C13.3165 108.716 13.5321 109.485 13.5321 110.618L13.5321 110.918L8.72422 113.694ZM12.9232 110.654C12.8979 109.805 12.7182 109.237 12.3841 108.951C12.0501 108.666 11.5892 108.693 11.0014 109.032C10.3925 109.384 9.88718 109.912 9.48545 110.618C9.08795 111.316 8.84267 112.131 8.74962 113.064L12.9232 110.654ZM19.5131 101.796C19.3862 101.869 19.2742 101.88 19.1769 101.829C19.0797 101.777 19.031 101.669 19.031 101.503C19.031 101.342 19.0797 101.184 19.1769 101.03C19.2784 100.869 19.3905 100.753 19.5131 100.682C19.6442 100.607 19.7584 100.59 19.8556 100.631C19.9571 100.67 20.0078 100.773 20.0078 100.939C20.0078 101.095 19.9592 101.257 19.8619 101.426C19.7647 101.594 19.6484 101.718 19.5131 101.796ZM19.2273 111.35L19.2276 103.85L19.8111 103.513L19.8109 111.013L19.2273 111.35ZM26.5658 107.113L26.5659 102.748C26.566 100.946 26.0036 100.37 24.8788 101.019C24.253 101.381 23.7392 101.943 23.3375 102.708C22.9357 103.467 22.7348 104.237 22.7348 105.018L22.7347 109.325L22.1511 109.662L22.1514 102.162L22.7349 101.825L22.7349 103.187L22.7603 103.173C23.2339 101.869 23.9739 100.927 24.9803 100.345C25.6822 99.9402 26.2193 99.9011 26.5914 100.228C26.9634 100.551 27.1495 101.212 27.1495 102.213L27.1493 106.776L26.5658 107.113ZM31.9316 103.912C31.6271 104.254 31.3417 104.502 31.0753 104.656C30.1154 105.21 29.6355 104.823 29.6355 103.495L29.6357 98.4558L28.4686 99.1297L28.4686 98.5145L29.6357 97.8406L29.6357 95.8924C29.7288 95.7996 29.826 95.7044 29.9275 95.6067C30.029 95.5139 30.1263 95.4212 30.2193 95.3284L30.2192 97.5037L31.9318 96.5149L31.9318 97.1301L30.2192 98.1189L30.219 103.07C30.219 103.588 30.2888 103.923 30.4283 104.077C30.5721 104.224 30.8131 104.199 31.1514 104.004C31.3924 103.865 31.6525 103.624 31.9316 103.282L31.9316 103.912ZM33.6186 99.3201C33.6186 100.35 33.8236 101.038 34.2338 101.382C34.6482 101.724 35.2148 101.687 35.9336 101.272C36.661 100.852 37.3714 100.132 38.0649 99.1112L38.0648 99.829C37.3925 100.769 36.6419 101.478 35.8131 101.957C34.9759 102.44 34.2993 102.484 33.7834 102.089C33.2676 101.693 33.0097 100.863 33.0097 99.5985C33.0097 98.5047 33.2783 97.4293 33.8153 96.3721C34.3566 95.3076 35.0586 94.5264 35.9212 94.0283C36.7288 93.562 37.3483 93.5314 37.7796 93.9367C38.2109 94.3419 38.4265 95.111 38.4265 96.2438L38.4265 96.5441L33.6186 99.3201ZM37.8176 96.2804C37.7923 95.4308 37.6126 94.8632 37.2785 94.5776C36.9445 94.2919 36.4836 94.3188 35.8958 94.6582C35.2869 95.0098 34.7816 95.5383 34.3798 96.2439C33.9823 96.9422 33.7371 97.7576 33.644 98.6902L37.8176 96.2804ZM43.3611 90.6188C43.1666 90.57 42.9382 90.6212 42.676 90.7726C42.1644 91.068 41.7352 91.621 41.3884 92.4316C41.0417 93.2422 40.8683 94.209 40.8682 95.332L40.8681 98.8549L40.2973 99.1846L40.2975 91.6846L40.8684 91.3549L40.8683 93.0175L40.8937 93.0029C41.0417 92.3462 41.2764 91.7663 41.5978 91.2634C41.9191 90.7604 42.2913 90.3869 42.7141 90.1427C42.9552 90.0036 43.1708 89.923 43.3611 89.901L43.3611 90.6188ZM45.4538 94.8742L45.4284 94.8889L45.4283 99.6716L44.8447 100.009L44.8451 89.0588L45.4286 88.7219L45.4286 90.2673L45.4539 90.2527C45.6865 89.5666 46.0185 88.9501 46.4498 88.4033C46.8853 87.849 47.3632 87.4218 47.8833 87.1215C48.7079 86.6454 49.3506 86.6038 49.8115 86.9969C50.2766 87.3826 50.5091 88.1395 50.5091 89.2674C50.5091 90.5223 50.2426 91.6917 49.7098 92.7757C49.1812 93.8524 48.4814 94.6422 47.6103 95.1452C46.6377 95.7067 45.9189 95.6164 45.4538 94.8742ZM45.4285 92.0984L45.4285 93.0432C45.4284 93.7951 45.6335 94.3237 46.0437 94.6289C46.4538 94.9291 46.9929 94.8864 47.6611 94.5006C48.3249 94.1173 48.8641 93.4789 49.2785 92.5853C49.6929 91.6868 49.9002 90.7029 49.9002 89.6336C49.9002 88.6961 49.71 88.0614 49.3294 87.7293C48.9489 87.3973 48.4414 87.4144 47.8072 87.7807C47.0502 88.2177 46.4646 88.8488 46.0502 89.674C45.6357 90.4992 45.4285 91.3073 45.4285 92.0984ZM55.45 83.6387C55.2555 83.5899 55.0272 83.6412 54.765 83.7925C54.2533 84.088 53.8241 84.641 53.4774 85.4515C53.1306 86.2621 52.9572 87.2289 52.9572 88.3519L52.9571 91.8749L52.3862 92.2045L52.3864 84.7045L52.9573 84.3749L52.9573 86.0375L52.9826 86.0228C53.1306 85.3661 53.3653 84.7862 53.6867 84.2833C54.0081 83.7804 54.3802 83.4068 54.8031 83.1627C55.0441 83.0235 55.2598 82.9429 55.45 82.9209L55.45 83.6387ZM56.807 85.9313C56.807 86.9616 57.0121 87.6488 57.4222 87.993C57.8366 88.3348 58.4032 88.2982 59.1221 87.8831C59.8494 87.4632 60.5598 86.7429 61.2533 85.7224L61.2533 86.4402C60.5809 87.3801 59.8303 88.0894 59.0015 88.5679C58.1643 89.0514 57.4877 89.0953 56.9719 88.6998C56.456 88.3044 56.1981 87.4743 56.1981 86.2096C56.1982 85.1159 56.4667 84.0404 57.0038 82.9833C57.545 81.9188 58.247 81.1375 59.1096 80.6395C59.9173 80.1731 60.5367 80.1426 60.968 80.5479C61.3993 80.9531 61.615 81.7222 61.6149 82.855L61.6149 83.1553L56.807 85.9313ZM61.006 82.8916C60.9807 82.042 60.801 81.4744 60.4669 81.1887C60.1329 80.9031 59.672 80.93 59.0842 81.2694C58.4753 81.6209 57.97 82.1495 57.5683 82.8551C57.1708 83.5534 56.9255 84.3688 56.8324 85.3014L61.006 82.8916ZM66.0545 84.21C65.7501 84.5518 65.4646 84.7996 65.1982 84.9534C64.2384 85.5076 63.7584 85.1207 63.7585 83.7925L63.7586 78.7535L62.5916 79.4273L62.5916 78.8121L63.7587 78.1382L63.7587 76.19C63.8518 76.0972 63.949 76.002 64.0505 75.9044C64.152 75.8116 64.2492 75.7188 64.3423 75.626L64.3422 77.8013L66.0548 76.8125L66.0548 77.4277L64.3422 78.4166L64.342 83.3677C64.342 83.8853 64.4118 84.221 64.5513 84.3748C64.6951 84.5213 64.9361 84.4969 65.2744 84.3015C65.5154 84.1624 65.7755 83.9219 66.0546 83.5801L66.0545 84.21ZM71.4837 81.1777L71.4838 79.6762L71.4584 79.6909C71.2512 80.3232 70.9489 80.9079 70.5514 81.4451C70.1581 81.9749 69.7204 82.3789 69.2384 82.6573C68.621 83.0137 68.1326 83.0955 67.7732 82.9027C67.4138 82.7098 67.2341 82.3082 67.2341 81.6979C67.2341 80.3893 67.9847 79.1649 69.4859 78.0247L71.4839 76.5268C71.4839 74.9155 70.9596 74.4126 69.9109 75.0181C69.1963 75.4307 68.5007 76.1644 67.8241 77.2191L67.8241 76.4061C68.0652 76.0472 68.3908 75.6712 68.801 75.2781C69.2154 74.8826 69.6044 74.5799 69.9681 74.3699C70.6362 73.9841 71.152 73.9255 71.5157 74.1941C71.8836 74.4602 72.0675 75.0498 72.0674 75.9628L72.0673 80.8408L71.4837 81.1777ZM69.6952 78.4751C69.0144 78.9805 68.5365 79.4395 68.2617 79.8521C67.9868 80.2598 67.8494 80.7469 67.8494 81.3133C67.8493 81.7577 67.9762 82.0506 68.2299 82.1922C68.4878 82.3314 68.8451 82.2691 69.3018 82.0054C69.9277 81.6441 70.4478 81.0776 70.8622 80.3061C71.2766 79.5298 71.4838 78.7192 71.4839 77.8745L71.4839 77.1421L69.6952 78.4751ZM77.3445 70.997C77.15 70.9482 76.9217 70.9994 76.6595 71.1508C76.1478 71.4463 75.7186 71.9992 75.3719 72.8098C75.0251 73.6204 74.8517 74.5872 74.8517 75.7102L74.8515 79.2332L74.2807 79.5628L74.2809 72.0628L74.8518 71.7332L74.8517 73.3958L74.8771 73.3811C75.0251 72.7244 75.2598 72.1445 75.5812 71.6416C75.9026 71.1386 76.2747 70.7651 76.6976 70.5209C76.9386 70.3818 77.1542 70.3012 77.3445 70.2792L77.3445 70.997ZM84.2384 75.344C84.0016 76.1545 83.7394 76.8064 83.4518 77.2996C83.1643 77.7928 82.7943 78.17 82.3418 78.4312C82.1515 78.5411 81.9824 78.6046 81.8344 78.6217L81.8344 77.9478C81.9866 77.9283 82.1642 77.8599 82.3672 77.7427C82.8873 77.4424 83.2975 76.7906 83.5978 75.7871L84.2004 73.7766L81.7396 67.7562L82.3929 67.379L84.3527 72.3557C84.3949 72.4631 84.4245 72.5461 84.4415 72.6047C84.4584 72.6877 84.4774 72.7598 84.4985 72.8208L84.5239 72.8061L84.6761 72.2129L86.7695 64.852L87.4038 64.4857L84.2384 75.344ZM95.687 60.4062C95.4925 60.3574 95.2641 60.4086 95.002 60.56C94.4903 60.8554 94.0611 61.4084 93.7143 62.219C93.3676 63.0295 93.1942 63.9963 93.1941 65.1194L93.194 68.6423L92.6232 68.9719L92.6234 61.4719L93.1943 61.1423L93.1942 62.8049L93.2196 62.7903C93.3676 62.1335 93.6023 61.5537 93.9237 61.0508C94.2451 60.5478 94.6172 60.1743 95.04 59.9301C95.2811 59.791 95.4967 59.7104 95.687 59.6884L95.687 60.4062ZM97.044 62.6988C97.044 63.729 97.249 64.4163 97.6592 64.7605C98.0736 65.1023 98.6402 65.0657 99.359 64.6506C100.086 64.2306 100.797 63.5104 101.49 62.4899L101.49 63.2077C100.818 64.1476 100.067 64.8569 99.2385 65.3354C98.4012 65.8188 97.7247 65.8628 97.2088 65.4673C96.693 65.0718 96.4351 64.2417 96.4351 62.9771C96.4351 61.8833 96.7037 60.8079 97.2407 59.7508C97.782 58.6863 98.484 57.905 99.3466 57.4069C100.154 56.9406 100.774 56.9101 101.205 57.3153C101.636 57.7206 101.852 58.4896 101.852 59.6224L101.852 59.9227L97.044 62.6988ZM101.243 59.6591C101.218 58.8095 101.038 58.2418 100.704 57.9562C100.37 57.6706 99.909 57.6974 99.3212 58.0368C98.7123 58.3884 98.207 58.917 97.8052 59.6226C97.4077 60.3208 97.1625 61.1363 97.0694 62.0689L101.243 59.6591ZM103.386 62.4277L103.387 61.6147C103.606 61.7075 103.873 61.727 104.186 61.6733C104.499 61.6196 104.769 61.5268 104.998 61.3949C106.017 60.8065 106.526 60.0314 106.526 59.0695C106.526 58.7374 106.414 58.5189 106.19 58.4139C105.966 58.309 105.602 58.2772 105.099 58.3188C104.478 58.3652 104.04 58.2956 103.786 58.1101C103.537 57.9172 103.412 57.5815 103.412 57.103C103.412 56.4926 103.613 55.8835 104.015 55.2756C104.421 54.6652 104.92 54.1891 105.512 53.8473C106.07 53.525 106.548 53.381 106.945 53.4151L106.945 54.1769C106.463 54.0939 105.964 54.2013 105.448 54.4992C105.021 54.7458 104.676 55.0742 104.414 55.4843C104.152 55.8896 104.021 56.2973 104.021 56.7075C104.021 57.0639 104.103 57.3068 104.268 57.4362C104.433 57.5607 104.797 57.6047 105.359 57.568C106.036 57.5289 106.501 57.5875 106.755 57.7438C107.008 57.8951 107.135 58.2198 107.135 58.7179C107.135 59.3136 106.941 59.9191 106.552 60.5343C106.167 61.1422 105.634 61.6427 104.953 62.0358C104.327 62.3972 103.805 62.5278 103.386 62.4277ZM109.64 57.8134L109.615 57.828L109.615 62.6108L109.031 62.9477L109.032 51.998L109.615 51.6611L109.615 53.2065L109.64 53.1918C109.873 52.5058 110.205 51.8893 110.636 51.3424C111.072 50.7882 111.55 50.3609 112.07 50.0606C112.894 49.5845 113.537 49.543 113.998 49.9361C114.463 50.3218 114.696 51.0786 114.696 52.2065C114.696 53.4614 114.429 54.6309 113.896 55.7149C113.368 56.7915 112.668 57.5814 111.797 58.0843C110.824 58.6459 110.105 58.5556 109.64 57.8134ZM109.615 55.0375L109.615 55.9823C109.615 56.7343 109.82 57.2629 110.23 57.568C110.64 57.8683 111.179 57.8256 111.848 57.4398C112.511 57.0565 113.051 56.418 113.465 55.5245C113.879 54.626 114.087 53.6421 114.087 52.5728C114.087 51.6353 113.896 51.0005 113.516 50.6685C113.135 50.3365 112.628 50.3536 111.994 50.7198C111.237 51.1569 110.651 51.788 110.237 52.6132C109.822 53.4384 109.615 54.2465 109.615 55.0375ZM119.18 53.8215C118.232 54.3684 117.482 54.4429 116.928 54.045C116.378 53.6397 116.103 52.8609 116.103 51.7086C116.104 50.4635 116.391 49.3233 116.966 48.2882C117.546 47.2505 118.307 46.4595 119.25 45.915C120.176 45.3803 120.907 45.3071 121.444 45.6952C121.981 46.0834 122.25 46.8952 122.25 48.1305C122.25 49.2975 121.975 50.401 121.425 51.4411C120.88 52.4787 120.131 53.2722 119.18 53.8215ZM119.224 46.5449C118.459 46.9868 117.848 47.6375 117.391 48.4969C116.939 49.3538 116.712 50.3121 116.712 51.3717C116.712 52.3531 116.934 53.0135 117.378 53.3528C117.822 53.6922 118.429 53.6397 119.199 53.1953C119.981 52.7436 120.584 52.1027 121.006 51.2727C121.429 50.4426 121.641 49.5075 121.641 48.4675C121.641 47.3981 121.429 46.6999 121.007 46.3727C120.588 46.0432 119.994 46.1006 119.224 46.5449ZM128.541 48.233L128.542 43.8678C128.542 42.066 127.979 41.4899 126.854 42.1393C126.229 42.5007 125.715 43.0634 125.313 43.8276C124.911 44.5869 124.711 45.3572 124.71 46.1384L124.71 50.445L124.127 50.782L124.127 43.282L124.711 42.945L124.711 44.3073L124.736 44.2927C125.21 42.989 125.95 42.0466 126.956 41.4655C127.658 41.0602 128.195 41.0211 128.567 41.3482C128.939 41.6705 129.125 42.3321 129.125 43.3331L129.125 47.8961L128.541 48.233ZM135.95 43.9556L135.95 42.5933L135.924 42.6079C135.713 43.2036 135.4 43.7603 134.986 44.2779C134.571 44.7955 134.104 45.2044 133.584 45.5047C132.785 45.9662 132.131 46.0065 131.624 45.6256C131.121 45.2424 130.869 44.4574 130.869 43.2709C130.869 42.06 131.144 40.9223 131.694 39.8578C132.248 38.786 132.964 37.9962 133.844 37.4884C134.817 36.9268 135.51 36.9878 135.924 37.6714L135.95 37.6567L135.95 32.8521L136.534 32.5151L136.533 43.6186L135.95 43.9556ZM135.95 39.3926C135.95 38.6943 135.757 38.2146 135.373 37.9534C134.992 37.6849 134.478 37.7374 133.831 38.1109C133.151 38.504 132.588 39.1315 132.144 39.9933C131.7 40.8502 131.478 41.8061 131.478 42.8607C131.478 43.8959 131.677 44.5819 132.074 44.9188C132.476 45.2484 132.992 45.2313 133.622 44.8675C134.362 44.4402 134.935 43.8457 135.341 43.084C135.747 42.3174 135.95 41.5532 135.95 40.7915L135.95 39.3926ZM139.019 38.4625C139.019 39.4927 139.224 40.18 139.635 40.5242C140.049 40.866 140.616 40.8294 141.334 40.4143C142.062 39.9943 142.772 39.2741 143.466 38.2536L143.466 38.9714C142.793 39.9113 142.043 40.6206 141.214 41.0991C140.377 41.5825 139.7 41.6265 139.184 41.231C138.668 40.8355 138.41 40.0054 138.411 38.7408C138.411 37.647 138.679 36.5716 139.216 35.5145C139.757 34.45 140.459 33.6687 141.322 33.1706C142.13 32.7043 142.749 32.6738 143.18 33.079C143.612 33.4843 143.827 34.2533 143.827 35.3861L143.827 35.6864L139.019 38.4625ZM143.218 35.4228C143.193 34.5732 143.013 34.0055 142.679 33.7199C142.345 33.4343 141.884 33.4611 141.297 33.8005C140.688 34.1521 140.182 34.6807 139.781 35.3863C139.383 36.0845 139.138 36.9 139.045 37.8326L143.218 35.4228ZM148.762 29.7611C148.567 29.7123 148.339 29.7636 148.077 29.915C147.565 30.2104 147.136 30.7634 146.789 31.5739C146.442 32.3845 146.269 33.3513 146.269 34.4743L146.269 37.9973L145.698 38.3269L145.698 30.8269L146.269 30.4973L146.269 32.1599L146.294 32.1452C146.442 31.4885 146.677 30.9086 146.999 30.4057C147.32 29.9028 147.692 29.5292 148.115 29.2851C148.356 29.1459 148.572 29.0653 148.762 29.0433L148.762 29.7611ZM4.92449 135.608L4.92453 134.107L4.89916 134.121C4.69195 134.754 4.38959 135.338 3.9921 135.876C3.59883 136.405 3.16117 136.809 2.67911 137.088C2.06174 137.444 1.57335 137.526 1.21394 137.333C0.854521 137.14 0.674823 136.739 0.674842 136.128C0.674884 134.82 1.42548 133.595 2.92663 132.455L4.92463 130.957C4.92469 129.346 4.40037 128.843 3.35169 129.449C2.63706 129.861 1.94145 130.595 1.26486 131.65L1.26488 130.837C1.50592 130.478 1.83152 130.102 2.2417 129.709C2.6561 129.313 3.04513 129.01 3.40879 128.8C4.0769 128.415 4.59278 128.356 4.95642 128.625C5.32429 128.891 5.50821 129.48 5.50818 130.393L5.50803 135.271L4.92449 135.608ZM3.13592 132.906C2.45512 133.411 1.97729 133.87 1.70242 134.283C1.42756 134.69 1.29012 135.177 1.2901 135.744C1.29008 136.188 1.41693 136.481 1.67063 136.623C1.92857 136.762 2.28588 136.7 2.74256 136.436C3.36839 136.075 3.88851 135.508 4.30293 134.737C4.71734 133.96 4.92456 133.15 4.92459 132.305L4.92461 131.573L3.13592 132.906ZM7.72143 133.993L7.72178 122.89L8.30532 122.553L8.30497 133.656L7.72143 133.993ZM15.0787 128.412L15.0533 128.427L15.0531 133.21L14.4696 133.547L14.4699 122.597L15.0535 122.26L15.0534 123.805L15.0788 123.791C15.3114 123.105 15.6434 122.488 16.0747 121.941C16.5102 121.387 16.9881 120.96 17.5082 120.66C18.3327 120.183 18.9755 120.142 19.4364 120.535C19.9015 120.921 20.134 121.678 20.134 122.805C20.134 124.06 19.8675 125.23 19.3347 126.314C18.8061 127.39 18.1063 128.18 17.2352 128.683C16.2626 129.245 15.5438 129.154 15.0787 128.412ZM15.0534 125.636L15.0533 126.581C15.0533 127.333 15.2584 127.862 15.6685 128.167C16.0787 128.467 16.6178 128.424 17.2859 128.039C17.9498 127.655 18.489 127.017 18.9034 126.123C19.3178 125.225 19.525 124.241 19.5251 123.172C19.5251 122.234 19.3348 121.599 18.9543 121.267C18.5737 120.935 18.0663 120.953 17.432 121.319C16.6751 121.756 16.0895 122.387 15.675 123.212C15.2606 124.037 15.0534 124.845 15.0534 125.636ZM25.0749 117.177C24.8804 117.128 24.6521 117.179 24.3899 117.331C23.8782 117.626 23.449 118.179 23.1023 118.99C22.7555 119.8 22.5821 120.767 22.5821 121.89L22.5819 125.413L22.0111 125.743L22.0113 118.243L22.5822 117.913L22.5821 119.576L22.6075 119.561C22.7555 118.904 22.9902 118.324 23.3116 117.821C23.633 117.318 24.0051 116.945 24.428 116.701C24.669 116.562 24.8846 116.481 25.0749 116.459L25.0749 117.177ZM26.4319 119.469C26.4319 120.5 26.6369 121.187 27.0471 121.531C27.4615 121.873 28.0281 121.836 28.747 121.421C29.4743 121.001 30.1847 120.281 30.8782 119.26L30.8782 119.978C30.2058 120.918 29.4552 121.627 28.6264 122.106C27.7892 122.589 27.1126 122.633 26.5967 122.238C26.0809 121.842 25.823 121.012 25.823 119.748C25.823 118.654 26.0916 117.579 26.6286 116.521C27.1699 115.457 27.8719 114.676 28.7345 114.178C29.5422 113.711 30.1616 113.681 30.5929 114.086C31.0242 114.491 31.2398 115.26 31.2398 116.393L31.2398 116.693L26.4319 119.469ZM30.6309 116.43C30.6056 115.58 30.4259 115.012 30.0918 114.727C29.7578 114.441 29.2969 114.468 28.7091 114.807C28.1002 115.159 27.5949 115.688 27.1931 116.393C26.7956 117.091 26.5504 117.907 26.4573 118.839L30.6309 116.43ZM32.7744 119.198L32.7744 118.385C32.9943 118.478 33.2607 118.498 33.5736 118.444C33.8865 118.39 34.1571 118.297 34.3855 118.166C35.4046 117.577 35.9141 116.802 35.9142 115.84C35.9142 115.508 35.8021 115.29 35.578 115.185C35.3539 115.08 34.9903 115.048 34.4871 115.089C33.8655 115.136 33.4278 115.066 33.1741 114.881C32.9247 114.688 32.7999 114.352 32.7999 113.874C32.8 113.263 33.0008 112.654 33.4026 112.046C33.8085 111.436 34.3075 110.96 34.8995 110.618C35.4577 110.296 35.9355 110.152 36.333 110.186L36.3329 110.947C35.8509 110.864 35.3519 110.972 34.836 111.27C34.409 111.516 34.0643 111.845 33.8021 112.255C33.54 112.66 33.4089 113.068 33.4089 113.478C33.4088 113.835 33.4913 114.077 33.6562 114.207C33.8211 114.331 34.1848 114.375 34.7471 114.339C35.4237 114.3 35.8888 114.358 36.1425 114.514C36.3962 114.666 36.5231 114.99 36.5231 115.488C36.523 116.084 36.3285 116.69 35.9395 117.305C35.5547 117.913 35.0219 118.413 34.3411 118.806C33.7152 119.168 33.193 119.298 32.7744 119.198ZM38.5589 112.467C38.5589 113.498 38.764 114.185 39.1741 114.529C39.5885 114.871 40.1551 114.834 40.874 114.419C41.6013 113.999 42.3117 113.279 43.0052 112.258L43.0052 112.976C42.3328 113.916 41.5822 114.625 40.7534 115.104C39.9162 115.587 39.2396 115.631 38.7237 115.236C38.2079 114.84 37.95 114.01 37.95 112.746C37.95 111.652 38.2186 110.576 38.7556 109.519C39.2969 108.455 39.9989 107.674 40.8615 107.176C41.6692 106.709 42.2886 106.679 42.7199 107.084C43.1512 107.489 43.3668 108.258 43.3668 109.391L43.3668 109.691L38.5589 112.467ZM42.7579 109.428C42.7326 108.578 42.5529 108.01 42.2188 107.725C41.8848 107.439 41.4239 107.466 40.8361 107.805C40.2272 108.157 39.7219 108.686 39.3202 109.391C38.9227 110.089 38.6774 110.905 38.5843 111.837L42.7579 109.428ZM49.6522 109.783L49.6523 105.418C49.6524 103.616 49.09 103.04 47.9652 103.689C47.3394 104.05 46.8256 104.613 46.4239 105.377C46.0222 106.137 45.8213 106.907 45.8212 107.688L45.8211 111.995L45.2376 112.332L45.2378 104.832L45.8213 104.495L45.8213 105.857L45.8467 105.842C46.3203 104.539 47.0603 103.596 48.0667 103.015C48.7687 102.61 49.3057 102.571 49.6778 102.898C50.0499 103.22 50.2359 103.882 50.2359 104.883L50.2357 109.446L49.6522 109.783ZM55.018 106.582C54.7135 106.924 54.4281 107.172 54.1617 107.326C53.2018 107.88 52.7219 107.493 52.7219 106.165L52.7221 101.126L51.555 101.799L51.555 101.184L52.7221 100.51L52.7222 98.5621C52.8152 98.4694 52.9125 98.3741 53.0139 98.2765C53.1154 98.1837 53.2127 98.0909 53.3057 97.9982L53.3057 100.173L55.0182 99.1846L55.0182 99.7999L53.3056 100.789L53.3055 105.74C53.3055 106.257 53.3752 106.593 53.5148 106.747C53.6585 106.893 53.8995 106.869 54.2378 106.674C54.4789 106.534 54.7389 106.294 55.018 105.952L55.018 106.582ZM56.705 101.99C56.705 103.02 56.9101 103.707 57.3202 104.052C57.7346 104.393 58.3012 104.357 59.0201 103.942C59.7474 103.522 60.4578 102.802 61.1513 101.781L61.1513 102.499C60.4789 103.439 59.7283 104.148 58.8995 104.627C58.0623 105.11 57.3857 105.154 56.8699 104.758C56.354 104.363 56.0961 103.533 56.0961 102.268C56.0962 101.174 56.3647 100.099 56.9018 99.0419C57.443 97.9774 58.145 97.1961 59.0076 96.6981C59.8153 96.2317 60.4347 96.2012 60.866 96.6065C61.2973 97.0117 61.513 97.7808 61.5129 98.9136L61.5129 99.2139L56.705 101.99ZM60.904 98.9502C60.8787 98.1006 60.699 97.533 60.3649 97.2473C60.0309 96.9617 59.57 96.9886 58.9822 97.328C58.3733 97.6795 57.868 98.2081 57.4663 98.9137C57.0688 99.612 56.8235 100.427 56.7304 101.36L60.904 98.9502ZM63.7833 101.755C63.6395 101.838 63.519 101.852 63.4217 101.796C63.3245 101.735 63.2759 101.621 63.2759 101.455C63.2759 101.284 63.3245 101.117 63.4218 100.953C63.519 100.785 63.6395 100.659 63.7833 100.576C63.9271 100.493 64.0497 100.479 64.1512 100.532C64.2527 100.581 64.3034 100.691 64.3034 100.862C64.3034 101.028 64.2527 101.199 64.1512 101.375C64.0497 101.545 63.927 101.672 63.7833 101.755ZM70.4872 97.7528L70.4875 87.2499L72.8787 85.8692C73.5934 85.4566 74.1621 85.3504 74.5849 85.5506C75.0078 85.7507 75.2192 86.217 75.2192 86.9495C75.2192 87.5598 75.0775 88.1714 74.7942 88.7842C74.5151 89.3897 74.1239 89.9304 73.6207 90.4065L73.6207 90.4358C74.2508 90.1404 74.7476 90.1148 75.1112 90.3589C75.4749 90.5981 75.6567 91.0669 75.6567 91.7651C75.6566 92.6489 75.4093 93.5144 74.9145 94.3616C74.4197 95.2039 73.758 95.8643 72.9292 96.3428L70.4872 97.7528ZM71.1154 87.5538L71.1153 91.6188L72.3839 90.8863C73.0435 90.5054 73.5721 90.0049 73.9696 89.3848C74.3671 88.7647 74.5658 88.1201 74.5659 87.4512C74.5659 86.1914 73.9211 85.9339 72.6314 86.6785L71.1154 87.5538ZM71.1153 92.278L71.1151 96.7311L72.8023 95.7569C73.5169 95.3443 74.0624 94.8316 74.4388 94.2188C74.8194 93.6035 75.0097 92.9321 75.0097 92.2046C75.0097 90.7544 74.1577 90.5213 72.4536 91.5052L71.1153 92.278ZM81.9738 91.1205L81.9738 89.7582L81.9485 89.7729C81.496 91.0644 80.7982 91.9824 79.8553 92.5269C78.3203 93.4131 77.5529 92.7405 77.5529 90.5091L77.5531 86.1732L78.143 85.8326L78.1428 90.0001C78.1428 91.0157 78.2865 91.67 78.5741 91.9629C78.8658 92.2534 79.3225 92.2193 79.9441 91.8603C80.5488 91.5112 81.0372 90.9729 81.4093 90.2453C81.7857 89.5153 81.9739 88.7231 81.9739 87.8686L81.974 83.6205L82.5576 83.2836L82.5573 90.7836L81.9738 91.1205ZM84.5614 89.2969L84.5615 88.4839C84.7813 88.5766 85.0477 88.5962 85.3606 88.5424C85.6735 88.4887 85.9442 88.3959 86.1725 88.2641C87.1916 87.6757 87.7012 86.9005 87.7012 85.9386C87.7012 85.6066 87.5891 85.3881 87.365 85.2831C87.1409 85.1781 86.7773 85.1464 86.2741 85.1879C85.6525 85.2343 85.2149 85.1648 84.9612 84.9792C84.7117 84.7864 84.587 84.4507 84.587 83.9722C84.587 83.3618 84.7879 82.7527 85.1896 82.1447C85.5955 81.5344 86.0945 81.0583 86.6865 80.7165C87.2447 80.3942 87.7225 80.2501 88.12 80.2843L88.12 81.046C87.6379 80.963 87.139 81.0705 86.6231 81.3683C86.196 81.6149 85.8514 81.9433 85.5892 82.3535C85.327 82.7588 85.1959 83.1665 85.1959 83.5766C85.1959 83.9331 85.2783 84.176 85.4432 84.3054C85.6081 84.4299 85.9718 84.4738 86.5342 84.4372C87.2107 84.3981 87.6759 84.4567 87.9296 84.6129C88.1833 84.7643 88.3101 85.089 88.3101 85.587C88.3101 86.1827 88.1156 86.7882 87.7265 87.4035C87.3417 88.0114 86.8089 88.5119 86.1281 88.905C85.5023 89.2663 84.98 89.3969 84.5614 89.2969ZM94.4116 83.6094C93.9295 84.2296 93.3545 84.7325 92.6863 85.1183C91.8026 85.6286 91.0901 85.6908 90.5488 85.3051C90.0076 84.9145 89.737 84.1528 89.737 83.02C89.7371 81.8286 90.0416 80.6787 90.6505 79.5703C91.2594 78.457 92.0417 77.6244 92.9974 77.0726C93.4921 76.787 93.9721 76.627 94.4372 76.5928L94.4372 77.3546C93.9721 77.2911 93.4625 77.4193 92.9086 77.7391C92.1474 78.1786 91.5301 78.8525 91.0564 79.7607C90.5828 80.664 90.346 81.6186 90.346 82.6245C90.3459 83.5961 90.5616 84.2529 90.9929 84.5947C91.4284 84.934 92.0013 84.8986 92.7117 84.4884C93.3629 84.1124 93.9296 83.585 94.4116 82.9063L94.4116 83.6094ZM100.12 80.6431L100.12 79.1416L100.095 79.1563C99.8874 79.7886 99.585 80.3733 99.1875 80.9105C98.7943 81.4403 98.3566 81.8443 97.8745 82.1227C97.2572 82.4791 96.7688 82.5609 96.4094 82.3681C96.0499 82.1752 95.8702 81.7736 95.8703 81.1633C95.8703 79.8547 96.6209 78.6303 98.122 77.4901L100.12 75.9922C100.12 74.3809 99.5958 73.878 98.5471 74.4835C97.8325 74.8961 97.1369 75.6298 96.4603 76.6845L96.4603 75.8715C96.7013 75.5126 97.0269 75.1366 97.4371 74.7435C97.8515 74.348 98.2406 74.0453 98.6042 73.8353C99.2723 73.4495 99.7882 73.3909 100.152 73.6595C100.52 73.9256 100.704 74.5151 100.704 75.4282L100.703 80.3062L100.12 80.6431ZM98.3313 77.9405C97.6505 78.4459 97.1727 78.9049 96.8978 79.3175C96.623 79.7252 96.4855 80.2123 96.4855 80.7787C96.4855 81.223 96.6124 81.516 96.8661 81.6576C97.124 81.7968 97.4813 81.7345 97.938 81.4708C98.5638 81.1095 99.0839 80.543 99.4983 79.7715C99.9128 78.9952 100.12 78.1846 100.12 77.3399L100.12 76.6075L98.3313 77.9405ZM106.741 76.8199L106.742 65.7164L107.325 65.3795L107.325 76.483L106.741 76.8199ZM113.547 72.8904L113.547 71.389L113.522 71.4036C113.314 72.0359 113.012 72.6207 112.615 73.1578C112.221 73.6876 111.784 74.0917 111.302 74.37C110.684 74.7265 110.196 74.8083 109.836 74.6154C109.477 74.4225 109.297 74.0209 109.297 73.4106C109.297 72.102 110.048 70.8776 111.549 69.7374L113.547 68.2395C113.547 66.6282 113.023 66.1253 111.974 66.7308C111.26 67.1434 110.564 67.8771 109.887 68.9318L109.887 68.1188C110.128 67.7599 110.454 67.3839 110.864 66.9908C111.279 66.5953 111.668 66.2926 112.031 66.0826C112.699 65.6968 113.215 65.6382 113.579 65.9068C113.947 66.1729 114.131 66.7625 114.131 67.6756L114.13 72.5535L113.547 72.8904ZM111.758 70.1878C111.078 70.6932 110.6 71.1522 110.325 71.5648C110.05 71.9726 109.913 72.4596 109.913 73.026C109.913 73.4704 110.039 73.7633 110.293 73.9049C110.551 74.0441 110.908 73.9818 111.365 73.7181C111.991 73.3568 112.511 72.7904 112.925 72.0189C113.34 71.2425 113.547 70.4319 113.547 69.5872L113.547 68.8548L111.758 70.1878ZM124.374 66.3096C123.892 66.9297 123.317 67.4326 122.648 67.8184C121.765 68.3287 121.052 68.391 120.511 68.0052C119.97 67.6146 119.699 66.8529 119.699 65.7201C119.699 64.5287 120.004 63.3788 120.613 62.2704C121.222 61.1571 122.004 60.3245 122.959 59.7727C123.454 59.4871 123.934 59.3271 124.399 59.293L124.399 60.0547C123.934 59.9912 123.425 60.1194 122.871 60.4392C122.11 60.8787 121.492 61.5526 121.019 62.4608C120.545 63.3641 120.308 64.3187 120.308 65.3246C120.308 66.2963 120.524 66.953 120.955 67.2948C121.39 67.6341 121.963 67.5987 122.674 67.1885C123.325 66.8125 123.892 66.2852 124.374 65.6064L124.374 66.3096ZM130.082 63.3432L130.082 61.8418L130.057 61.8564C129.849 62.4887 129.547 63.0735 129.15 63.6106C128.756 64.1404 128.319 64.5444 127.837 64.8228C127.219 65.1792 126.731 65.261 126.371 65.0682C126.012 64.8753 125.832 64.4737 125.832 63.8634C125.832 62.5548 126.583 61.3304 128.084 60.1902L130.082 58.6923C130.082 57.081 129.558 56.5781 128.509 57.1836C127.795 57.5962 127.099 58.3299 126.422 59.3846L126.422 58.5716C126.663 58.2127 126.989 57.8367 127.399 57.4436C127.814 57.0481 128.203 56.7454 128.566 56.5354C129.234 56.1496 129.75 56.091 130.114 56.3596C130.482 56.6257 130.666 57.2153 130.666 58.1284L130.666 63.0063L130.082 63.3432ZM128.293 60.6406C127.613 61.146 127.135 61.605 126.86 62.0176C126.585 62.4254 126.448 62.9124 126.448 63.4788C126.448 63.9232 126.574 64.2161 126.828 64.3577C127.086 64.4969 127.443 64.4346 127.9 64.1709C128.526 63.8096 129.046 63.2432 129.46 62.4717C129.875 61.6953 130.082 60.8847 130.082 60.04L130.082 59.3076L128.293 60.6406ZM137.167 59.2526L137.167 57.8903L137.141 57.9049C136.689 59.1964 135.991 60.1144 135.048 60.6589C133.513 61.5452 132.746 60.8726 132.746 58.6411L132.746 54.3052L133.336 53.9646L133.336 58.1321C133.336 59.1477 133.479 59.802 133.767 60.095C134.059 60.3855 134.515 60.3513 135.137 59.9924C135.742 59.6432 136.23 59.1049 136.602 58.3773C136.979 57.6473 137.167 56.8551 137.167 56.0006L137.167 51.7526L137.75 51.4156L137.75 58.9156L137.167 59.2526ZM139.754 57.4289L139.754 56.6159C139.974 56.7087 140.241 56.7282 140.554 56.6745C140.866 56.6208 141.137 56.528 141.365 56.3961C142.384 55.8077 142.894 55.0326 142.894 54.0706C142.894 53.7386 142.782 53.5201 142.558 53.4151C142.334 53.3102 141.97 53.2784 141.467 53.32C140.845 53.3664 140.408 53.2968 140.154 53.1113C139.905 52.9184 139.78 52.5827 139.78 52.1042C139.78 51.4938 139.981 50.8847 140.382 50.2768C140.788 49.6664 141.287 49.1903 141.879 48.8485C142.438 48.5262 142.915 48.3822 143.313 48.4163L143.313 49.178C142.831 49.0951 142.332 49.2025 141.816 49.5004C141.389 49.747 141.044 50.0753 140.782 50.4855C140.52 50.8908 140.389 51.2985 140.389 51.7087C140.389 52.0651 140.471 52.308 140.636 52.4374C140.801 52.5619 141.165 52.6058 141.727 52.5692C142.404 52.5301 142.869 52.5887 143.122 52.7449C143.376 52.8963 143.503 53.221 143.503 53.7191C143.503 54.3148 143.308 54.9202 142.919 55.5355C142.535 56.1434 142.002 56.6439 141.321 57.037C140.695 57.3983 140.173 57.529 139.754 57.4289ZM149.281 52.2578L149.281 50.7564L149.256 50.771C149.048 51.4033 148.746 51.9881 148.349 52.5252C147.955 53.055 147.518 53.4591 147.036 53.7374C146.418 54.0939 145.93 54.1757 145.57 53.9828C145.211 53.7899 145.031 53.3883 145.031 52.778C145.031 51.4694 145.782 50.245 147.283 49.1048L149.281 47.607C149.281 45.9956 148.757 45.4927 147.708 46.0982C146.994 46.5108 146.298 47.2445 145.621 48.2992L145.621 47.4862C145.862 47.1273 146.188 46.7513 146.598 46.3583C147.013 45.9627 147.402 45.66 147.765 45.45C148.433 45.0643 148.949 45.0056 149.313 45.2742C149.681 45.5403 149.865 46.1299 149.865 47.043L149.865 51.9209L149.281 52.2578ZM147.492 49.5553C146.812 50.0606 146.334 50.5196 146.059 50.9323C145.784 51.34 145.647 51.827 145.647 52.3934C145.647 52.8378 145.773 53.1307 146.027 53.2723C146.285 53.4115 146.642 53.3492 147.099 53.0855C147.725 52.7242 148.245 52.1578 148.659 51.3863C149.074 50.6099 149.281 49.7993 149.281 48.9546L149.281 48.2222L147.492 49.5553ZM4.10597 145.284C3.91146 145.235 3.68312 145.286 3.42095 145.438C2.90929 145.733 2.48008 146.286 2.13332 147.097C1.78656 147.907 1.61316 148.874 1.61312 149.997L1.61301 153.52L1.04216 153.85L1.04239 146.35L1.61325 146.02L1.6132 147.683L1.63857 147.668C1.78659 147.011 2.02129 146.431 2.34267 145.928C2.66405 145.425 3.03617 145.052 3.45902 144.808C3.70005 144.669 3.91571 144.588 4.10599 144.566L4.10597 145.284ZM9.47154 148.983L9.47159 147.481L9.44622 147.496C9.239 148.128 8.93665 148.713 8.53915 149.25C8.14589 149.78 7.70822 150.184 7.22617 150.462C6.6088 150.819 6.12041 150.9 5.76099 150.707C5.40158 150.515 5.22188 150.113 5.2219 149.503C5.22194 148.194 5.97253 146.97 7.47368 145.83L9.47169 144.332C9.47174 142.72 8.94742 142.217 7.89874 142.823C7.18411 143.236 6.4885 143.969 5.81191 145.024L5.81194 144.211C6.05297 143.852 6.37858 143.476 6.78876 143.083C7.20316 142.687 7.59219 142.385 7.95585 142.175C8.62396 141.789 9.13984 141.73 9.50348 141.999C9.87135 142.265 10.0553 142.855 10.0552 143.768L10.0551 148.646L9.47154 148.983ZM7.68298 146.28C7.00218 146.785 6.52434 147.244 6.24948 147.657C5.97461 148.065 5.83717 148.552 5.83715 149.118C5.83714 149.562 5.96398 149.855 6.21769 149.997C6.47562 150.136 6.83293 150.074 7.28962 149.81C7.91544 149.449 8.43557 148.882 8.84998 148.111C9.2644 147.335 9.47162 146.524 9.47165 145.679L9.47167 144.947L7.68298 146.28ZM12.2685 147.368L12.2687 139.868L12.8523 139.531L12.852 147.031L12.2685 147.368ZM12.3258 138.633L11.755 138.963L13.2393 135.704L13.8989 135.323L12.3258 138.633ZM15.465 144.907L19.6577 142.486L19.6576 143.101L14.5136 146.071L14.5136 145.815L18.8269 136.696L14.8246 139.007L14.8246 138.392L19.8164 135.51L19.8164 135.693L15.465 144.907ZM29.1841 137.601L29.1841 136.099L29.1588 136.114C28.9515 136.746 28.6492 137.331 28.2517 137.868C27.8584 138.398 27.4208 138.802 26.9387 139.08C26.3213 139.437 25.8329 139.518 25.4735 139.326C25.1141 139.133 24.9344 138.731 24.9344 138.121C24.9345 136.812 25.6851 135.588 27.1862 134.448L29.1842 132.95C29.1843 131.338 28.66 130.836 27.6113 131.441C26.8967 131.854 26.201 132.587 25.5245 133.642L25.5245 132.829C25.7655 132.47 26.0911 132.094 26.5013 131.701C26.9157 131.306 27.3047 131.003 27.6684 130.793C28.3365 130.407 28.8524 130.348 29.216 130.617C29.5839 130.883 29.7678 131.473 29.7678 132.386L29.7676 137.264L29.1841 137.601ZM27.3955 134.898C26.7147 135.403 26.2369 135.862 25.962 136.275C25.6872 136.683 25.5497 137.17 25.5497 137.736C25.5497 138.181 25.6765 138.474 25.9302 138.615C26.1882 138.754 26.5455 138.692 27.0022 138.428C27.628 138.067 28.1481 137.501 28.5625 136.729C28.9769 135.953 29.1842 135.142 29.1842 134.297L29.1842 133.565L27.3955 134.898ZM38.3744 132.192C38.0699 132.534 37.7845 132.781 37.5181 132.935C36.5582 133.489 36.0783 133.102 36.0783 131.774L36.0785 126.735L34.9114 127.409L34.9114 126.794L36.0785 126.12L36.0785 124.172C36.1716 124.079 36.2688 123.984 36.3703 123.886C36.4718 123.793 36.5691 123.701 36.6621 123.608L36.662 125.783L38.3746 124.794L38.3746 125.409L36.662 126.398L36.6618 131.349C36.6618 131.867 36.7316 132.203 36.8711 132.357C37.0149 132.503 37.2559 132.479 37.5942 132.283C37.8352 132.144 38.0953 131.904 38.3744 131.562L38.3744 132.192ZM42.9856 122.835C42.7911 122.786 42.5627 122.837 42.3005 122.989C41.7889 123.284 41.3597 123.837 41.0129 124.648C40.6662 125.458 40.4928 126.425 40.4927 127.548L40.4926 131.071L39.9218 131.401L39.922 123.901L40.4929 123.571L40.4928 125.234L40.5182 125.219C40.6662 124.562 40.9009 123.983 41.2223 123.48C41.5436 122.977 41.9158 122.603 42.3386 122.359C42.5797 122.22 42.7953 122.139 42.9856 122.117L42.9856 122.835ZM48.3511 126.534L48.3512 125.032L48.3258 125.047C48.1186 125.679 47.8162 126.264 47.4188 126.801C47.0255 127.331 46.5878 127.735 46.1058 128.013C45.4884 128.37 45 128.452 44.6406 128.259C44.2812 128.066 44.1015 127.664 44.1015 127.054C44.1015 125.745 44.8521 124.521 46.3533 123.381L48.3513 121.883C48.3513 120.272 47.827 119.769 46.7783 120.374C46.0637 120.787 45.3681 121.52 44.6915 122.575L44.6915 121.762C44.9326 121.403 45.2582 121.027 45.6684 120.634C46.0828 120.239 46.4718 119.936 46.8354 119.726C47.5036 119.34 48.0194 119.282 48.3831 119.55C48.7509 119.816 48.9349 120.406 48.9348 121.319L48.9347 126.197L48.3511 126.534ZM46.5626 123.831C45.8818 124.337 45.4039 124.796 45.1291 125.208C44.8542 125.616 44.7168 126.103 44.7168 126.669C44.7167 127.114 44.8436 127.407 45.0973 127.548C45.3552 127.687 45.7125 127.625 46.1692 127.361C46.795 127 47.3152 126.434 47.7296 125.662C48.144 124.886 48.3512 124.075 48.3512 123.23L48.3513 122.498L46.5626 123.831ZM53.2793 123.688L52.7465 123.996L50.2349 117.946L50.8883 117.569L52.8226 122.421C52.9157 122.656 52.9812 122.879 53.0192 123.091L53.0446 123.077C53.0996 122.737 53.1609 122.45 53.2286 122.216L55.2268 115.064L55.8611 114.698L53.2793 123.688ZM57.4337 117.569C57.4337 118.599 57.6387 119.286 58.0489 119.631C58.4633 119.972 59.0299 119.936 59.7487 119.521C60.4761 119.101 61.1865 118.381 61.88 117.36L61.8799 118.078C61.2076 119.018 60.457 119.727 59.6282 120.206C58.7909 120.689 58.1144 120.733 57.5985 120.337C57.0827 119.942 56.8248 119.112 56.8248 117.847C56.8248 116.753 57.0934 115.678 57.6304 114.621C58.1717 113.556 58.8737 112.775 59.7363 112.277C60.5439 111.811 61.1634 111.78 61.5947 112.185C62.026 112.591 62.2416 113.36 62.2416 114.493L62.2416 114.793L57.4337 117.569ZM61.6327 114.529C61.6073 113.68 61.4277 113.112 61.0936 112.826C60.7596 112.541 60.2987 112.568 59.7109 112.907C59.102 113.259 58.5967 113.787 58.1949 114.493C57.7974 115.191 57.5522 116.006 57.4591 116.939L61.6327 114.529ZM59.3557 111.479L58.7849 111.808L60.2692 108.549L60.9288 108.168L59.3557 111.479ZM63.7762 117.298L63.7762 116.485C63.9961 116.578 64.2625 116.597 64.5754 116.543C64.8883 116.49 65.1589 116.397 65.3873 116.265C66.4064 115.677 66.9159 114.901 66.9159 113.94C66.9159 113.608 66.8039 113.389 66.5798 113.284C66.3557 113.179 65.992 113.147 65.4888 113.189C64.8673 113.235 64.4296 113.166 64.1759 112.98C63.9264 112.787 63.8017 112.452 63.8017 111.973C63.8017 111.363 64.0026 110.754 64.4043 110.146C64.8103 109.535 65.3093 109.059 65.9013 108.717C66.4594 108.395 66.9373 108.251 67.3347 108.285L67.3347 109.047C66.8527 108.964 66.3537 109.071 65.8378 109.369C65.4107 109.616 65.0661 109.944 64.8039 110.354C64.5417 110.76 64.4107 111.167 64.4106 111.578C64.4106 111.934 64.4931 112.177 64.658 112.306C64.8229 112.431 65.1865 112.475 65.7489 112.438C66.4255 112.399 66.8906 112.458 67.1443 112.614C67.398 112.765 67.5249 113.09 67.5249 113.588C67.5248 114.184 67.3303 114.789 66.9413 115.404C66.5565 116.012 66.0236 116.513 65.3428 116.906C64.717 117.267 64.1948 117.398 63.7762 117.298ZM77.8568 109.497L77.8568 108.135L77.8314 108.15C77.62 108.745 77.3071 109.302 76.8927 109.82C76.4783 110.337 76.011 110.746 75.4909 111.047C74.6917 111.508 74.0384 111.548 73.531 111.167C73.0278 110.784 72.7762 109.999 72.7763 108.813C72.7763 107.602 73.0512 106.464 73.6009 105.4C74.1549 104.328 74.8717 103.538 75.7512 103.03C76.7238 102.469 77.4172 102.53 77.8316 103.213L77.857 103.199L77.8571 98.3939L78.4407 98.0569L78.4403 109.16L77.8568 109.497ZM77.8569 104.934C77.8569 104.236 77.6646 103.756 77.2798 103.495C76.8992 103.227 76.3855 103.279 75.7385 103.653C75.0577 104.046 74.4953 104.673 74.0513 105.535C73.6072 106.392 73.3852 107.348 73.3852 108.403C73.3852 109.438 73.5839 110.124 73.9813 110.461C74.383 110.79 74.8989 110.773 75.529 110.409C76.269 109.982 76.8419 109.388 77.2479 108.626C77.6539 107.859 77.8569 107.095 77.8569 106.333L77.8569 104.934ZM80.9266 104.004C80.9265 105.035 81.1316 105.722 81.5418 106.066C81.9561 106.408 82.5228 106.371 83.2416 105.956C83.9689 105.536 84.6793 104.816 85.3728 103.795L85.3728 104.513C84.7005 105.453 83.9499 106.162 83.1211 106.641C82.2838 107.124 81.6073 107.168 81.0914 106.773C80.5755 106.377 80.3176 105.547 80.3177 104.283C80.3177 103.189 80.5862 102.113 81.1233 101.056C81.6646 99.9918 82.3665 99.2105 83.2292 98.7124C84.0368 98.2461 84.6563 98.2156 85.0876 98.6208C85.5189 99.0261 85.7345 99.7951 85.7345 100.928L85.7345 101.228L80.9266 104.004ZM85.1256 100.965C85.1002 100.115 84.9205 99.5473 84.5865 99.2617C84.2524 98.9761 83.7915 99.0029 83.2038 99.3423C82.5949 99.6939 82.0895 100.222 81.6878 100.928C81.2903 101.626 81.045 102.442 80.952 103.374L85.1256 100.965ZM95.635 98.9028C95.1529 99.5229 94.5779 100.026 93.9097 100.412C93.026 100.922 92.3135 100.984 91.7722 100.598C91.231 100.208 90.9604 99.4461 90.9604 98.3133C90.9605 97.1219 91.265 95.972 91.8739 94.8636C92.4828 93.7503 93.2651 92.9177 94.2208 92.3659C94.7155 92.0803 95.1955 91.9204 95.6606 91.8862L95.6606 92.6479C95.1955 92.5844 94.6859 92.7126 94.132 93.0325C93.3708 93.4719 92.7535 94.1458 92.2798 95.054C91.8062 95.9573 91.5694 96.9119 91.5694 97.9178C91.5693 98.8895 91.785 99.5462 92.2163 99.888C92.6518 100.227 93.2247 100.192 93.9351 99.7817C94.5863 99.4057 95.153 98.8784 95.635 98.1996L95.635 98.9028ZM100.068 96.8556C99.1212 97.4026 98.3706 97.477 97.8167 97.0791C97.267 96.6739 96.9922 95.8951 96.9922 94.7427C96.9923 93.4976 97.2799 92.3574 97.855 91.3223C98.4343 90.2847 99.1954 89.4936 100.138 88.9492C101.064 88.4145 101.796 88.3412 102.333 88.7294C102.87 89.1175 103.138 89.9293 103.138 91.1646C103.138 92.3316 102.864 93.4351 102.314 94.4752C101.768 95.5128 101.02 96.3063 100.068 96.8556ZM100.113 89.579C99.3477 90.021 98.7366 90.6716 98.2799 91.531C97.8274 92.3879 97.6012 93.3462 97.6012 94.4058C97.6011 95.3872 97.8231 96.0476 98.2671 96.387C98.7111 96.7263 99.3178 96.6738 100.087 96.2294C100.87 95.7777 101.472 95.1369 101.895 94.3068C102.318 93.4767 102.53 92.5416 102.53 91.5016C102.53 90.4322 102.318 89.734 101.895 89.4069C101.477 89.0773 100.883 89.1347 100.113 89.579ZM108.079 85.2503C107.885 85.2015 107.657 85.2528 107.394 85.4041C106.883 85.6996 106.453 86.2526 106.107 87.0631C105.76 87.8737 105.587 88.8405 105.587 89.9635L105.586 93.4865L105.016 93.8161L105.016 86.3161L105.587 85.9865L105.587 87.6491L105.612 87.6344C105.76 86.9777 105.995 86.3978 106.316 85.8949C106.637 85.392 107.01 85.0184 107.432 84.7743C107.673 84.6351 107.889 84.5545 108.079 84.5325L108.079 85.2503ZM112.627 82.6246C112.432 82.5758 112.204 82.627 111.942 82.7784C111.43 83.0738 111.001 83.6268 110.654 84.4374C110.308 85.2479 110.134 86.2148 110.134 87.3378L110.134 90.8607L109.563 91.1904L109.563 83.6904L110.134 83.3607L110.134 85.0233L110.16 85.0087C110.308 84.352 110.542 83.7721 110.864 83.2692C111.185 82.7662 111.557 82.3927 111.98 82.1485C112.221 82.0094 112.437 81.9288 112.627 81.9068L112.627 82.6246ZM113.984 84.9172C113.984 85.9474 114.189 86.6347 114.599 86.9789C115.014 87.3207 115.58 87.2841 116.299 86.869C117.026 86.4491 117.737 85.7288 118.43 84.7083L118.43 85.4261C117.758 86.366 117.007 87.0753 116.178 87.5538C115.341 88.0372 114.665 88.0812 114.149 87.6857C113.633 87.2902 113.375 86.4602 113.375 85.1955C113.375 84.1018 113.644 83.0263 114.181 81.9692C114.722 80.9047 115.424 80.1234 116.287 79.6253C117.094 79.159 117.714 79.1285 118.145 79.5337C118.576 79.939 118.792 80.708 118.792 81.8408L118.792 82.1411L113.984 84.9172ZM118.183 81.8775C118.158 81.0279 117.978 80.4603 117.644 80.1746C117.31 79.889 116.849 79.9159 116.261 80.2552C115.652 80.6068 115.147 81.1354 114.745 81.841C114.348 82.5392 114.102 83.3547 114.009 84.2873L118.183 81.8775ZM120.663 84.7816L120.663 73.6781L121.246 73.3412L121.246 84.4447L120.663 84.7816ZM127.468 80.8521L127.468 79.3506L127.443 79.3653C127.236 79.9976 126.933 80.5823 126.536 81.1195C126.143 81.6493 125.705 82.0533 125.223 82.3317C124.605 82.6881 124.117 82.7699 123.758 82.5771C123.398 82.3842 123.219 81.9826 123.219 81.3722C123.219 80.0637 123.969 78.8393 125.47 77.6991L127.468 76.2012C127.468 74.5899 126.944 74.087 125.895 74.6925C125.181 75.1051 124.485 75.8388 123.809 76.8935L123.809 76.0805C124.05 75.7216 124.375 75.3456 124.785 74.9525C125.2 74.557 125.589 74.2543 125.953 74.0443C126.621 73.6585 127.137 73.5999 127.5 73.8684C127.868 74.1345 128.052 74.7241 128.052 75.6372L128.052 80.5152L127.468 80.8521ZM125.68 78.1495C124.999 78.6549 124.521 79.1139 124.246 79.5265C123.971 79.9342 123.834 80.4213 123.834 80.9877C123.834 81.432 123.961 81.725 124.214 81.8666C124.472 82.0058 124.83 81.9435 125.286 81.6798C125.912 81.3185 126.432 80.752 126.847 79.9805C127.261 79.2041 127.468 78.3936 127.468 77.5489L127.468 76.8164L125.68 78.1495ZM134.47 76.4795C133.988 77.0996 133.413 77.6025 132.745 77.9883C131.861 78.4986 131.149 78.5609 130.608 78.1751C130.066 77.7845 129.796 77.0228 129.796 75.89C129.796 74.6986 130.1 73.5487 130.709 72.4403C131.318 71.327 132.101 70.4944 133.056 69.9426C133.551 69.657 134.031 69.497 134.496 69.4629L134.496 70.2246C134.031 70.1611 133.521 70.2893 132.967 70.6091C132.206 71.0486 131.589 71.7225 131.115 72.6307C130.642 73.534 130.405 74.4886 130.405 75.4945C130.405 76.4662 130.62 77.1229 131.052 77.4647C131.487 77.804 132.06 77.7686 132.771 77.3584C133.422 76.9824 133.988 76.4551 134.47 75.7763L134.47 76.4795ZM136.583 66.2C136.456 66.2732 136.344 66.2842 136.247 66.233C136.149 66.1817 136.101 66.0731 136.101 65.907C136.101 65.7459 136.149 65.5884 136.247 65.4346C136.348 65.2735 136.46 65.1575 136.583 65.0867C136.714 65.011 136.828 64.9939 136.925 65.0354C137.027 65.0745 137.077 65.177 137.077 65.343C137.077 65.4993 137.029 65.6616 136.932 65.8301C136.834 65.9986 136.718 66.1219 136.583 66.2ZM136.297 75.7544L136.297 68.2544L136.881 67.9175L136.88 75.4175L136.297 75.7544ZM141.828 72.7442C140.88 73.2911 140.13 73.3656 139.576 72.9676C139.026 72.5624 138.751 71.7836 138.751 70.6312C138.752 69.3861 139.039 68.246 139.614 67.2108C140.194 66.1732 140.955 65.3821 141.898 64.8377C142.824 64.303 143.555 64.2297 144.092 64.6179C144.629 65.006 144.898 65.8178 144.898 67.0531C144.898 68.2201 144.623 69.3237 144.073 70.3637C143.528 71.4013 142.779 72.1948 141.828 72.7442ZM141.872 65.4675C141.107 65.9095 140.496 66.5601 140.039 67.4195C139.587 68.2765 139.36 69.2347 139.36 70.2943C139.36 71.2757 139.582 71.9361 140.026 72.2755C140.47 72.6148 141.077 72.5623 141.847 72.1179C142.629 71.6663 143.232 71.0254 143.654 70.1953C144.077 69.3652 144.289 68.4301 144.289 67.3901C144.289 66.3207 144.077 65.6225 143.655 65.2954C143.236 64.9658 142.642 65.0232 141.872 65.4675ZM151.189 67.1556L151.19 62.7904C151.19 60.9886 150.627 60.4125 149.502 61.0619C148.877 61.4233 148.363 61.986 147.961 62.7502C147.559 63.5095 147.359 64.2798 147.358 65.061L147.358 69.3677L146.775 69.7046L146.775 62.2046L147.359 61.8677L147.359 63.23L147.384 63.2153C147.858 61.9116 148.598 60.9692 149.604 60.3881C150.306 59.9828 150.843 59.9437 151.215 60.2709C151.587 60.5931 151.773 61.2547 151.773 62.2557L151.773 66.8187L151.189 67.1556ZM154.126 61.7394C154.126 62.7697 154.331 63.4569 154.741 63.8012C155.156 64.143 155.722 64.1063 156.441 63.6913C157.168 63.2713 157.879 62.5511 158.572 61.5305L158.572 62.2483C157.9 63.1883 157.149 63.8975 156.321 64.3761C155.483 64.8595 154.807 64.9035 154.291 64.508C153.775 64.1125 153.517 63.2824 153.517 62.0178C153.517 60.924 153.786 59.8486 154.323 58.7914C154.864 57.7269 155.566 56.9457 156.429 56.4476C157.236 55.9813 157.856 55.9507 158.287 56.356C158.718 56.7612 158.934 57.5303 158.934 58.6631L158.934 58.9634L154.126 61.7394ZM158.325 58.6997C158.3 57.8501 158.12 57.2825 157.786 56.9969C157.452 56.7112 156.991 56.7381 156.403 57.0775C155.794 57.4291 155.289 57.9576 154.887 58.6632C154.49 59.3615 154.244 60.1769 154.151 61.1095L158.325 58.6997ZM160.469 61.4684L160.469 60.6554C160.688 60.7481 160.955 60.7677 161.268 60.714C161.581 60.6602 161.851 60.5674 162.08 60.4356C163.099 59.8472 163.608 59.072 163.608 58.1101C163.608 57.7781 163.496 57.5596 163.272 57.4546C163.048 57.3496 162.684 57.3179 162.181 57.3594C161.56 57.4058 161.122 57.3363 160.868 57.1507C160.619 56.9579 160.494 56.6222 160.494 56.1437C160.494 55.5333 160.695 54.9242 161.097 54.3163C161.503 53.7059 162.002 53.2298 162.594 52.888C163.152 52.5657 163.63 52.4216 164.027 52.4558L164.027 53.2175C163.545 53.1345 163.046 53.242 162.53 53.5398C162.103 53.7864 161.758 54.1148 161.496 54.525C161.234 54.9303 161.103 55.338 161.103 55.7481C161.103 56.1046 161.185 56.3475 161.35 56.4769C161.515 56.6014 161.879 56.6453 162.441 56.6087C163.118 56.5696 163.583 56.6282 163.837 56.7844C164.09 56.9358 164.217 57.2605 164.217 57.7585C164.217 58.3542 164.023 58.9597 163.634 59.575C163.249 60.1829 162.716 60.6834 162.035 61.0765C161.409 61.4378 160.887 61.5685 160.469 61.4684ZM1.18131 166.048C1.18127 167.079 1.38633 167.766 1.79648 168.11C2.21087 168.452 2.77748 168.415 3.49634 168C4.22365 167.58 4.93406 166.86 5.62756 165.839L5.62754 166.557C4.95518 167.497 4.2046 168.206 3.37581 168.685C2.53855 169.168 1.86199 169.212 1.34613 168.817C0.830266 168.421 0.572355 167.591 0.572396 166.327C0.572431 165.233 0.840974 164.157 1.37802 163.1C1.9193 162.036 2.62126 161.255 3.48388 160.756C4.29154 160.29 4.91101 160.26 5.34231 160.665C5.7736 161.07 5.98923 161.839 5.98919 162.972L5.98918 163.272L1.18131 166.048ZM5.38029 163.009C5.35494 162.159 5.17525 161.591 4.84121 161.306C4.50717 161.02 4.04626 161.047 3.45849 161.386C2.84958 161.738 2.34426 162.267 1.94253 162.972C1.54503 163.67 1.29975 164.486 1.2067 165.418L5.38029 163.009ZM7.52379 165.777L7.52381 164.964C7.74369 165.057 8.01009 165.077 8.323 165.023C8.6359 164.969 8.90653 164.876 9.13487 164.744C10.154 164.156 10.6635 163.381 10.6635 162.419C10.6636 162.087 10.5515 161.868 10.3274 161.763C10.1033 161.659 9.73965 161.627 9.23646 161.668C8.61487 161.715 8.17722 161.645 7.92352 161.46C7.67404 161.267 7.54931 160.931 7.54933 160.453C7.54935 159.842 7.75022 159.233 8.15195 158.625C8.5579 158.015 9.05688 157.539 9.64887 157.197C10.207 156.875 10.6849 156.731 11.0823 156.765L11.0823 157.526C10.6003 157.443 10.1013 157.551 9.58543 157.849C9.15834 158.095 8.81371 158.424 8.55153 158.834C8.28935 159.239 8.15826 159.647 8.15824 160.057C8.15823 160.413 8.24068 160.656 8.40559 160.786C8.57049 160.91 8.93414 160.954 9.49653 160.918C10.1731 160.878 10.6382 160.937 10.8919 161.093C11.1456 161.245 11.2725 161.569 11.2725 162.067C11.2724 162.663 11.0779 163.269 10.6889 163.884C10.3041 164.492 9.77125 164.992 9.09045 165.385C8.46463 165.747 7.9424 165.877 7.52379 165.777ZM15.7375 161.262C15.433 161.604 15.1476 161.851 14.8812 162.005C13.9213 162.559 13.4414 162.172 13.4415 160.844L13.4416 155.805L12.2745 156.479L12.2746 155.864L13.4416 155.19L13.4417 153.242C13.5347 153.149 13.632 153.054 13.7335 152.956C13.835 152.863 13.9322 152.771 14.0252 152.678L14.0252 154.853L15.7377 153.864L15.7377 154.48L14.0252 155.468L14.025 160.42C14.025 160.937 14.0947 161.273 14.2343 161.427C14.378 161.573 14.6191 161.549 14.9574 161.353C15.1984 161.214 15.4584 160.974 15.7375 160.632L15.7375 161.262ZM21.1667 158.23L21.1668 156.728L21.1414 156.743C20.9342 157.375 20.6318 157.96 20.2343 158.497C19.8411 159.027 19.4034 159.431 18.9214 159.709C18.304 160.066 17.8156 160.147 17.4562 159.954C17.0968 159.762 16.9171 159.36 16.9171 158.75C16.9171 157.441 17.6677 156.217 19.1689 155.076L21.1669 153.579C21.1669 151.967 20.6426 151.464 19.5939 152.07C18.8793 152.483 18.1837 153.216 17.5071 154.271L17.5071 153.458C17.7482 153.099 18.0738 152.723 18.4839 152.33C18.8983 151.934 19.2874 151.632 19.651 151.422C20.3191 151.036 20.835 150.977 21.1987 151.246C21.5665 151.512 21.7505 152.102 21.7504 153.015L21.7503 157.893L21.1667 158.23ZM19.3782 155.527C18.6974 156.032 18.2195 156.491 17.9447 156.904C17.6698 157.312 17.5324 157.799 17.5323 158.365C17.5323 158.809 17.6592 159.102 17.9129 159.244C18.1708 159.383 18.5281 159.321 18.9848 159.057C19.6106 158.696 20.1307 158.129 20.5452 157.358C20.9596 156.582 21.1668 155.771 21.1668 154.926L21.1669 154.194L19.3782 155.527ZM28.5749 153.952L28.575 152.59L28.5496 152.604C28.3381 153.2 28.0252 153.757 27.6108 154.274C27.1964 154.792 26.7291 155.201 26.209 155.501C25.4098 155.963 24.7565 156.003 24.2491 155.622C23.7459 155.239 23.4944 154.454 23.4944 153.267C23.4945 152.056 23.7693 150.919 24.3191 149.854C24.873 148.783 25.5898 147.993 26.4693 147.485C27.4419 146.923 28.1354 146.984 28.5497 147.668L28.5751 147.653L28.5753 142.849L29.1588 142.512L29.1585 153.615L28.5749 153.952ZM28.5751 149.389C28.5751 148.691 28.3827 148.211 27.9979 147.95C27.6174 147.681 27.1036 147.734 26.4566 148.107C25.7758 148.501 25.2134 149.128 24.7694 149.99C24.3254 150.847 24.1034 151.803 24.1033 152.857C24.1033 153.892 24.302 154.578 24.6995 154.915C25.1012 155.245 25.617 155.228 26.2471 154.864C26.9871 154.437 27.5601 153.842 27.966 153.081C28.372 152.314 28.575 151.55 28.575 150.788L28.5751 149.389ZM31.5051 152.26L31.5053 144.76L32.0888 144.423L32.0886 151.923L31.5051 152.26ZM31.5624 143.526L30.9916 143.856L32.4759 140.596L33.1355 140.216L31.5624 143.526ZM34.0927 150.437L34.0927 149.624C34.3126 149.716 34.579 149.736 34.8919 149.682C35.2048 149.628 35.4754 149.536 35.7038 149.404C36.7229 148.815 37.2324 148.04 37.2324 147.078C37.2325 146.746 37.1204 146.528 36.8963 146.423C36.6722 146.318 36.3085 146.286 35.8054 146.328C35.1838 146.374 34.7461 146.304 34.4924 146.119C34.2429 145.926 34.1182 145.59 34.1182 145.112C34.1182 144.502 34.3191 143.892 34.7208 143.284C35.1268 142.674 35.6258 142.198 36.2178 141.856C36.7759 141.534 37.2538 141.39 37.6512 141.424L37.6512 142.186C37.1692 142.103 36.6702 142.21 36.1543 142.508C35.7272 142.755 35.3826 143.083 35.1204 143.493C34.8583 143.898 34.7272 144.306 34.7271 144.716C34.7271 145.073 34.8096 145.316 34.9745 145.445C35.1394 145.57 35.503 145.614 36.0654 145.577C36.742 145.538 37.2071 145.596 37.4608 145.753C37.7145 145.904 37.8414 146.229 37.8414 146.727C37.8413 147.322 37.6468 147.928 37.2578 148.543C36.873 149.151 36.3402 149.652 35.6594 150.045C35.0335 150.406 34.5113 150.537 34.0927 150.437ZM42.3064 145.921C42.0019 146.263 41.7165 146.511 41.4501 146.665C40.4902 147.219 40.0103 146.832 40.0104 145.504L40.0105 140.465L38.8434 141.138L38.8435 140.523L40.0105 139.849L40.0106 137.901C40.1036 137.808 40.2009 137.713 40.3024 137.615C40.4039 137.523 40.5011 137.43 40.5941 137.337L40.5941 139.512L42.3066 138.524L42.3066 139.139L40.5941 140.128L40.5939 145.079C40.5939 145.596 40.6636 145.932 40.8032 146.086C40.9469 146.232 41.188 146.208 41.5263 146.013C41.7673 145.873 42.0273 145.633 42.3064 145.291L42.3064 145.921ZM44.1395 135.576C44.0127 135.649 43.9006 135.66 43.8034 135.609C43.7061 135.557 43.6575 135.449 43.6575 135.283C43.6575 135.122 43.7061 134.964 43.8034 134.81C43.9049 134.649 44.0169 134.533 44.1396 134.462C44.2707 134.387 44.3848 134.37 44.4821 134.411C44.5836 134.45 44.6343 134.553 44.6343 134.719C44.6343 134.875 44.5857 135.037 44.4884 135.206C44.3911 135.374 44.2749 135.498 44.1395 135.576ZM43.8538 145.13L43.854 137.63L44.4376 137.293L44.4374 144.793L43.8538 145.13ZM50.9829 140.684C50.5009 141.304 49.9258 141.807 49.2577 142.193C48.3739 142.703 47.6614 142.766 47.1201 142.38C46.5789 141.989 46.3083 141.228 46.3084 140.095C46.3084 138.903 46.6129 137.754 47.2218 136.645C47.8307 135.532 48.613 134.699 49.5687 134.147C50.0634 133.862 50.5434 133.702 51.0085 133.668L51.0085 134.429C50.5434 134.366 50.0338 134.494 49.4799 134.814C48.7187 135.253 48.1014 135.927 47.6277 136.835C47.1541 137.739 46.9173 138.693 46.9173 139.699C46.9172 140.671 47.1329 141.328 47.5642 141.669C47.9997 142.009 48.5726 141.973 49.283 141.563C49.9342 141.187 50.5009 140.66 50.9829 139.981L50.9829 140.684ZM56.6912 137.718L56.6913 136.216L56.6659 136.231C56.4587 136.863 56.1563 137.448 55.7588 137.985C55.3656 138.515 54.9279 138.919 54.4458 139.197C53.8285 139.554 53.3401 139.636 52.9807 139.443C52.6212 139.25 52.4416 138.848 52.4416 138.238C52.4416 136.929 53.1922 135.705 54.6934 134.565L56.6914 133.067C56.6914 131.456 56.1671 130.953 55.1184 131.558C54.4038 131.971 53.7082 132.705 53.0316 133.759L53.0316 132.946C53.2726 132.587 53.5983 132.211 54.0084 131.818C54.4228 131.423 54.8119 131.12 55.1755 130.91C55.8436 130.524 56.3595 130.466 56.7232 130.734C57.091 131 57.2749 131.59 57.2749 132.503L57.2748 137.381L56.6912 137.718ZM54.9027 135.015C54.2218 135.521 53.744 135.98 53.4692 136.392C53.1943 136.8 53.0568 137.287 53.0568 137.854C53.0568 138.298 53.1837 138.591 53.4374 138.732C53.6953 138.872 54.0526 138.809 54.5093 138.546C55.1351 138.184 55.6552 137.618 56.0697 136.846C56.4841 136.07 56.6913 135.259 56.6913 134.415L56.6913 133.682L54.9027 135.015ZM59.152 135.968L59.152 135.155C59.3719 135.247 59.6383 135.267 59.9512 135.213C60.2641 135.159 60.5347 135.067 60.7631 134.935C61.7822 134.346 62.2917 133.571 62.2918 132.609C62.2918 132.277 62.1797 132.059 61.9556 131.954C61.7315 131.849 61.3679 131.817 60.8647 131.859C60.2431 131.905 59.8054 131.835 59.5517 131.65C59.3023 131.457 59.1775 131.121 59.1775 130.643C59.1776 130.032 59.3784 129.423 59.7802 128.815C60.1861 128.205 60.6851 127.729 61.2771 127.387C61.8353 127.065 62.3131 126.921 62.7106 126.955L62.7105 127.717C62.2285 127.634 61.7295 127.741 61.2136 128.039C60.7866 128.286 60.4419 128.614 60.1797 129.024C59.9176 129.429 59.7865 129.837 59.7865 130.247C59.7864 130.604 59.8689 130.847 60.0338 130.976C60.1987 131.101 60.5624 131.144 61.1247 131.108C61.8013 131.069 62.2664 131.127 62.5201 131.284C62.7738 131.435 62.9007 131.76 62.9007 132.258C62.9006 132.853 62.7061 133.459 62.3171 134.074C61.9323 134.682 61.3995 135.183 60.7187 135.576C60.0928 135.937 59.5706 136.068 59.152 135.968ZM64.5494 134.997L64.0547 135.283L65.0062 131.254L65.6532 130.881L64.5494 134.997ZM76.3847 126.347L76.3848 124.985L76.3594 124.999C76.148 125.595 75.835 126.152 75.4206 126.669C75.0062 127.187 74.539 127.596 74.0188 127.896C73.2196 128.358 72.5663 128.398 72.0589 128.017C71.5558 127.634 71.3042 126.849 71.3042 125.662C71.3043 124.451 71.5791 123.314 72.1289 122.249C72.6829 121.177 73.3996 120.388 74.2791 119.88C75.2517 119.318 75.9452 119.379 76.3596 120.063L76.3849 120.048L76.3851 115.244L76.9686 114.907L76.9683 126.01L76.3847 126.347ZM76.3849 121.784C76.3849 121.086 76.1925 120.606 75.8077 120.345C75.4272 120.076 74.9134 120.129 74.2664 120.502C73.5856 120.895 73.0232 121.523 72.5792 122.385C72.1352 123.242 71.9132 124.198 71.9131 125.252C71.9131 126.287 72.1118 126.973 72.5093 127.31C72.911 127.64 73.4269 127.623 74.0569 127.259C74.7969 126.832 75.3699 126.237 75.7759 125.475C76.1818 124.709 76.3848 123.945 76.3848 123.183L76.3849 121.784ZM79.4545 120.854C79.4545 121.884 79.6596 122.571 80.0697 122.916C80.4841 123.257 81.0507 123.221 81.7696 122.806C82.4969 122.386 83.2073 121.666 83.9008 120.645L83.9008 121.363C83.2284 122.303 82.4778 123.012 81.649 123.491C80.8118 123.974 80.1352 124.018 79.6194 123.622C79.1035 123.227 78.8456 122.397 78.8456 121.132C78.8457 120.039 79.1142 118.963 79.6512 117.906C80.1925 116.841 80.8945 116.06 81.7571 115.562C82.5648 115.096 83.1842 115.065 83.6155 115.47C84.0468 115.876 84.2625 116.645 84.2624 117.778L84.2624 118.078L79.4545 120.854ZM83.6535 117.814C83.6282 116.965 83.4485 116.397 83.1144 116.111C82.7804 115.826 82.3195 115.853 81.7317 116.192C81.1228 116.544 80.6175 117.072 80.2158 117.778C79.8183 118.476 79.573 119.291 79.4799 120.224L83.6535 117.814ZM85.797 120.583L85.797 119.77C86.0169 119.863 86.2833 119.882 86.5962 119.828C86.9091 119.775 87.1798 119.682 87.4081 119.55C88.4272 118.962 88.9367 118.187 88.9368 117.225C88.9368 116.893 88.8247 116.674 88.6006 116.569C88.3765 116.464 88.0129 116.432 87.5097 116.474C86.8881 116.52 86.4504 116.451 86.1967 116.265C85.9473 116.072 85.8225 115.737 85.8226 115.258C85.8226 114.648 86.0234 114.039 86.4252 113.431C86.8311 112.82 87.3301 112.344 87.9221 112.002C88.4803 111.68 88.9581 111.536 89.3556 111.57L89.3555 112.332C88.8735 112.249 88.3745 112.356 87.8587 112.654C87.4316 112.901 87.0869 113.229 86.8248 113.639C86.5626 114.045 86.4315 114.452 86.4315 114.863C86.4315 115.219 86.5139 115.462 86.6788 115.591C86.8437 115.716 87.2074 115.76 87.7698 115.723C88.4463 115.684 88.9114 115.743 89.1652 115.899C89.4189 116.05 89.5457 116.375 89.5457 116.873C89.5457 117.469 89.3511 118.074 88.9621 118.689C88.5773 119.297 88.0445 119.798 87.3637 120.191C86.7379 120.552 86.2156 120.683 85.797 120.583ZM96.6367 114.097C96.6366 115.508 96.3702 116.695 95.8374 117.657C95.3046 118.619 94.4758 119.424 93.351 120.074C92.7251 120.435 92.0803 120.617 91.4164 120.619L91.4164 119.916C92.1014 119.96 92.7505 119.805 93.3637 119.451C95.1566 118.416 96.0531 116.805 96.0531 114.617L96.0532 113.643L96.0278 113.658C95.5161 114.974 94.7359 115.934 93.6872 116.54C92.888 117.001 92.2347 117.044 91.7273 116.668C91.2242 116.29 90.9726 115.502 90.9726 114.306C90.9727 113.11 91.2454 111.976 91.7909 110.904C92.3364 109.832 93.0553 109.039 93.9475 108.523C94.9032 107.972 95.5967 108.028 96.028 108.692L96.0533 108.677L96.0534 107.491L96.6369 107.154L96.6367 114.097ZM96.0533 110.369C96.0533 109.705 95.8588 109.244 95.4698 108.985C95.085 108.724 94.5818 108.772 93.9602 109.131C93.2456 109.544 92.6705 110.186 92.2349 111.058C91.7994 111.929 91.5816 112.875 91.5815 113.896C91.5815 114.921 91.7802 115.605 92.1777 115.947C92.5794 116.281 93.1079 116.259 93.7634 115.881C94.4611 115.478 95.0171 114.895 95.4316 114.134C95.846 113.372 96.0532 112.613 96.0532 111.856L96.0533 110.369ZM98.9833 113.299L98.9836 102.195L99.5672 101.858L99.5668 112.962L98.9833 113.299ZM104.514 110.289C103.567 110.835 102.816 110.91 102.262 110.512C101.713 110.107 101.438 109.328 101.438 108.176C101.438 106.93 101.725 105.79 102.301 104.755C102.88 103.718 103.641 102.926 104.584 102.382C105.51 101.847 106.242 101.774 106.779 102.162C107.316 102.55 107.584 103.362 107.584 104.598C107.584 105.764 107.309 106.868 106.759 107.908C106.214 108.946 105.465 109.739 104.514 110.289ZM104.559 103.012C103.793 103.454 103.182 104.104 102.725 104.964C102.273 105.821 102.047 106.779 102.047 107.839C102.047 108.82 102.269 109.48 102.713 109.82C103.157 110.159 103.763 110.107 104.533 109.662C105.315 109.211 105.918 108.57 106.341 107.74C106.764 106.91 106.975 105.974 106.975 104.934C106.975 103.865 106.764 103.167 106.341 102.84C105.922 102.51 105.328 102.568 104.559 103.012ZM109.125 107.113L109.125 106.3C109.345 106.393 109.611 106.413 109.924 106.359C110.237 106.305 110.508 106.213 110.736 106.081C111.755 105.492 112.265 104.717 112.265 103.755C112.265 103.423 112.153 103.205 111.929 103.1C111.704 102.995 111.341 102.963 110.838 103.005C110.216 103.051 109.778 102.981 109.525 102.796C109.275 102.603 109.15 102.267 109.151 101.789C109.151 101.178 109.351 100.569 109.753 99.9613C110.159 99.351 110.658 98.8749 111.25 98.5331C111.808 98.2108 112.286 98.0667 112.684 98.1009L112.684 98.8626C112.201 98.7796 111.702 98.8871 111.187 99.1849C110.76 99.4315 110.415 99.7599 110.153 100.17C109.891 100.575 109.759 100.983 109.759 101.393C109.759 101.75 109.842 101.993 110.007 102.122C110.172 102.246 110.535 102.29 111.098 102.254C111.774 102.215 112.239 102.273 112.493 102.43C112.747 102.581 112.874 102.906 112.874 103.404C112.874 103.999 112.679 104.605 112.29 105.22C111.905 105.828 111.372 106.328 110.692 106.722C110.066 107.083 109.544 107.214 109.125 107.113ZM114.91 100.382C114.909 101.413 115.115 102.1 115.525 102.444C115.939 102.786 116.506 102.749 117.225 102.334C117.952 101.914 118.662 101.194 119.356 100.174L119.356 100.891C118.683 101.831 117.933 102.541 117.104 103.019C116.267 103.503 115.59 103.547 115.074 103.151C114.558 102.756 114.301 101.925 114.301 100.661C114.301 99.5671 114.569 98.4916 115.106 97.4345C115.648 96.37 116.349 95.5887 117.212 95.0906C118.02 94.6243 118.639 94.5938 119.071 94.999C119.502 95.4043 119.717 96.1733 119.717 97.3061L119.717 97.6064L114.91 100.382ZM119.108 97.3428C119.083 96.4932 118.903 95.9256 118.569 95.6399C118.235 95.3543 117.774 95.3812 117.187 95.7205C116.578 96.0721 116.072 96.6007 115.671 97.3063C115.273 98.0045 115.028 98.82 114.935 99.7526L119.108 97.3428ZM121.252 100.111L121.252 99.2984C121.472 99.3912 121.738 99.4107 122.051 99.357C122.364 99.3033 122.635 99.2105 122.863 99.0787C123.882 98.4902 124.392 97.7151 124.392 96.7532C124.392 96.4211 124.28 96.2026 124.056 96.0977C123.831 95.9927 123.468 95.961 122.965 96.0025C122.343 96.0489 121.905 95.9793 121.652 95.7938C121.402 95.6009 121.278 95.2652 121.278 94.7867C121.278 94.1764 121.478 93.5672 121.88 92.9593C122.286 92.3489 122.785 91.8728 123.377 91.531C123.935 91.2087 124.413 91.0647 124.811 91.0989L124.811 91.8606C124.328 91.7776 123.83 91.885 123.314 92.1829C122.887 92.4295 122.542 92.7579 122.28 93.168C122.018 93.5733 121.886 93.981 121.886 94.3912C121.886 94.7476 121.969 94.9905 122.134 95.1199C122.299 95.2444 122.662 95.2884 123.225 95.2517C123.901 95.2127 124.366 95.2712 124.62 95.4275C124.874 95.5788 125.001 95.9035 125.001 96.4016C125.001 96.9973 124.806 97.6028 124.417 98.218C124.032 98.8259 123.499 99.3264 122.819 99.7195C122.193 100.081 121.671 100.212 121.252 100.111ZM132.307 95.5887C132.07 96.3992 131.808 97.0511 131.52 97.5442C131.233 98.0374 130.863 98.4146 130.41 98.6759C130.22 98.7857 130.051 98.8492 129.903 98.8663L129.903 98.1925C130.055 98.173 130.233 98.1046 130.436 97.9874C130.956 97.6871 131.366 97.0352 131.666 96.0318L132.269 94.0213L129.808 88.0008L130.462 87.6236L132.421 92.6004C132.464 92.7078 132.493 92.7908 132.51 92.8494C132.527 92.9324 132.546 93.0044 132.567 93.0655L132.592 93.0508L132.745 92.4575L134.838 85.0966L135.472 84.7304L132.307 95.5887ZM5.65238 183.187L5.65243 181.825L5.62705 181.839C5.41561 182.435 5.10269 182.992 4.68828 183.509C4.27387 184.027 3.80661 184.436 3.2865 184.736C2.4873 185.198 1.834 185.238 1.32659 184.857C0.823412 184.474 0.571842 183.689 0.57188 182.502C0.571918 181.291 0.846806 180.154 1.39654 179.089C1.95051 178.018 2.66726 177.228 3.5468 176.72C4.51937 176.158 5.21284 176.219 5.62721 176.903L5.65258 176.888L5.65274 172.084L6.23628 171.747L6.23592 182.85L5.65238 183.187ZM5.65253 178.624C5.65255 177.926 5.46017 177.446 5.07539 177.185C4.69483 176.916 4.18107 176.969 3.5341 177.342C2.8533 177.736 2.29089 178.363 1.84687 179.225C1.40285 180.082 1.18083 181.038 1.18079 182.092C1.18076 183.127 1.37948 183.813 1.77695 184.15C2.17864 184.48 2.69452 184.463 3.32457 184.099C4.06457 183.672 4.63755 183.077 5.04351 182.316C5.44947 181.549 5.65246 180.785 5.65248 180.023L5.65253 178.624ZM8.72218 177.694C8.72215 178.724 8.92721 179.411 9.33736 179.756C9.75174 180.098 10.3184 180.061 11.0372 179.646C11.7645 179.226 12.4749 178.506 13.1684 177.485L13.1684 178.203C12.4961 179.143 11.7455 179.852 10.9167 180.331C10.0794 180.814 9.40287 180.858 8.88701 180.463C8.37114 180.067 8.11323 179.237 8.11327 177.972C8.11331 176.879 8.38185 175.803 8.9189 174.746C9.46018 173.681 10.1621 172.9 11.0248 172.402C11.8324 171.936 12.4519 171.905 12.8832 172.311C13.3145 172.716 13.5301 173.485 13.5301 174.618L13.5301 174.918L8.72218 177.694ZM12.9212 174.654C12.8958 173.805 12.7161 173.237 12.3821 172.951C12.048 172.666 11.5871 172.693 10.9994 173.032C10.3905 173.384 9.88514 173.912 9.48341 174.618C9.08591 175.316 8.84063 176.131 8.74757 177.064L12.9212 174.654ZM15.0647 177.423L15.0647 176.61C15.2846 176.703 15.551 176.722 15.8639 176.668C16.1768 176.615 16.4474 176.522 16.6758 176.39C17.6948 175.802 18.2044 175.027 18.2044 174.065C18.2044 173.733 18.0924 173.514 17.8683 173.409C17.6442 173.304 17.2805 173.272 16.7773 173.314C16.1557 173.36 15.7181 173.291 15.4644 173.105C15.2149 172.912 15.0902 172.577 15.0902 172.098C15.0902 171.488 15.2911 170.879 15.6928 170.271C16.0988 169.66 16.5978 169.184 17.1898 168.843C17.7479 168.52 18.2257 168.376 18.6232 168.41L18.6232 169.172C18.1412 169.089 17.6422 169.197 17.1263 169.494C16.6992 169.741 16.3546 170.069 16.0924 170.48C15.8302 170.885 15.6991 171.293 15.6991 171.703C15.6991 172.059 15.7816 172.302 15.9465 172.431C16.1114 172.556 16.475 172.6 17.0374 172.563C17.714 172.524 18.1791 172.583 18.4328 172.739C18.6865 172.89 18.8134 173.215 18.8133 173.713C18.8133 174.309 18.6188 174.914 18.2297 175.53C17.8449 176.137 17.3121 176.638 16.6313 177.031C16.0055 177.392 15.4833 177.523 15.0647 177.423ZM24.9148 171.735C24.4328 172.356 23.8577 172.859 23.1896 173.244C22.3058 173.755 21.5933 173.817 21.0521 173.431C20.5108 173.041 20.2402 172.279 20.2403 171.146C20.2403 169.955 20.5448 168.805 21.1537 167.696C21.7627 166.583 22.545 165.75 23.5006 165.199C23.9954 164.913 24.4753 164.753 24.9404 164.719L24.9404 165.481C24.4753 165.417 23.9657 165.545 23.4118 165.865C22.6507 166.305 22.0333 166.979 21.5597 167.887C21.086 168.79 20.8492 169.745 20.8492 170.751C20.8492 171.722 21.0648 172.379 21.4961 172.721C21.9316 173.06 22.5046 173.025 23.215 172.614C23.8662 172.238 24.4328 171.711 24.9149 171.032L24.9148 171.735ZM31.0291 168.535L31.0291 167.172L31.0038 167.187C30.5513 168.479 29.8535 169.397 28.9106 169.941C27.3756 170.827 26.6082 170.155 26.6082 167.923L26.6084 163.587L27.1982 163.247L27.1981 167.414C27.1981 168.43 27.3418 169.084 27.6294 169.377C27.9211 169.668 28.3778 169.633 28.9994 169.275C29.6041 168.925 30.0925 168.387 30.4646 167.66C30.841 166.93 31.0292 166.137 31.0292 165.283L31.0293 161.035L31.6129 160.698L31.6126 168.198L31.0291 168.535ZM34.5618 165.162L34.5365 165.177L34.5364 166.51L33.9529 166.847L33.9532 155.743L34.5368 155.406L34.5366 160.555L34.562 160.54C34.7946 159.854 35.1265 159.238 35.5578 158.691C35.9934 158.137 36.4712 157.71 36.9913 157.409C37.8159 156.933 38.4586 156.892 38.9195 157.285C39.3847 157.67 39.6172 158.427 39.6172 159.555C39.6171 160.81 39.3486 161.981 38.8115 163.067C38.2745 164.149 37.5768 164.937 36.7184 165.433C35.7458 165.994 35.0269 165.904 34.5618 165.162ZM34.5366 162.386L34.5365 163.331C34.5365 164.083 34.7416 164.611 35.1517 164.917C35.5619 165.217 36.101 165.174 36.7691 164.788C37.433 164.405 37.9722 163.767 38.3866 162.873C38.801 161.975 39.0082 160.991 39.0083 159.921C39.0083 158.984 38.818 158.349 38.4375 158.017C38.0569 157.685 37.5495 157.702 36.9152 158.068C36.1583 158.505 35.5726 159.137 35.1582 159.962C34.7438 160.787 34.5366 161.595 34.5366 162.386ZM44.5581 153.926C44.3636 153.878 44.1352 153.929 43.8731 154.08C43.3614 154.376 42.9322 154.929 42.5854 155.739C42.2387 156.55 42.0653 157.517 42.0652 158.64L42.0651 162.163L41.4943 162.492L41.4945 154.992L42.0654 154.663L42.0653 156.325L42.0907 156.311C42.2387 155.654 42.4734 155.074 42.7948 154.571C43.1162 154.068 43.4883 153.695 43.9111 153.45C44.1522 153.311 44.3678 153.231 44.5581 153.209L44.5581 153.926ZM46.3276 150.312C46.2007 150.385 46.0886 150.396 45.9914 150.345C45.8941 150.294 45.8455 150.185 45.8455 150.019C45.8455 149.858 45.8942 149.7 45.9914 149.547C46.0929 149.386 46.205 149.27 46.3276 149.199C46.4587 149.123 46.5728 149.106 46.6701 149.147C46.7716 149.187 46.8223 149.289 46.8223 149.455C46.8223 149.611 46.7737 149.774 46.6764 149.942C46.5792 150.111 46.4629 150.234 46.3276 150.312ZM46.0418 159.867L46.0421 152.367L46.6256 152.03L46.6254 159.53L46.0418 159.867ZM57.1098 153.476L57.11 148.964C57.11 148.022 56.9811 147.435 56.7231 147.203C56.4694 146.968 56.0656 147.011 55.5117 147.331C55 147.626 54.5581 148.135 54.186 148.858C53.8139 149.581 53.6278 150.325 53.6278 151.092L53.6276 155.487L53.0441 155.823L53.0442 151.26C53.0443 149.591 52.4946 149.073 51.3952 149.708C50.8666 150.013 50.4268 150.523 50.0758 151.239C49.7248 151.949 49.5493 152.71 49.5493 153.52L49.5492 157.841L48.9656 158.178L48.9659 150.678L49.5494 150.341L49.5494 151.587L49.5747 151.572C50.0272 150.358 50.689 149.5 51.5601 148.997C52.0337 148.724 52.4375 148.649 52.7716 148.774C53.1098 148.891 53.3382 149.172 53.4566 149.616C53.6595 148.957 53.9492 148.37 54.3256 147.855C54.7061 147.332 55.1184 146.943 55.5624 146.686C56.9832 145.866 57.6936 146.472 57.6935 148.503L57.6934 153.139L57.1098 153.476ZM60.1925 142.307C60.0656 142.38 59.9536 142.391 59.8563 142.34C59.7591 142.288 59.7105 142.18 59.7105 142.014C59.7105 141.852 59.7591 141.695 59.8564 141.541C59.9579 141.38 60.0699 141.264 60.1925 141.193C60.3236 141.118 60.4378 141.1 60.535 141.142C60.6365 141.181 60.6873 141.284 60.6873 141.45C60.6873 141.606 60.6386 141.768 60.5414 141.937C60.4441 142.105 60.3278 142.228 60.1925 142.307ZM59.9068 151.861L59.907 144.361L60.4906 144.024L60.4903 151.524L59.9068 151.861ZM62.9702 146.372C62.9702 147.402 63.1753 148.089 63.5854 148.433C63.9998 148.775 64.5664 148.738 65.2853 148.323C66.0126 147.903 66.723 147.183 67.4165 146.163L67.4165 146.88C66.7441 147.82 65.9935 148.53 65.1647 149.008C64.3275 149.492 63.6509 149.536 63.1351 149.14C62.6192 148.745 62.3613 147.915 62.3613 146.65C62.3614 145.556 62.6299 144.481 63.167 143.424C63.7082 142.359 64.4102 141.578 65.2728 141.08C66.0805 140.613 66.6999 140.583 67.1312 140.988C67.5625 141.393 67.7782 142.162 67.7781 143.295L67.7781 143.596L62.9702 146.372ZM67.1692 143.332C67.1439 142.482 66.9642 141.915 66.6301 141.629C66.2961 141.343 65.8352 141.37 65.2474 141.71C64.6385 142.061 64.1332 142.59 63.7315 143.295C63.334 143.994 63.0887 144.809 62.9956 145.742L67.1692 143.332ZM74.0635 143.687L74.0636 139.322C74.0637 137.52 73.5013 136.944 72.3765 137.593C71.7507 137.955 71.2369 138.517 70.8352 139.282C70.4335 140.041 70.2326 140.811 70.2326 141.592L70.2324 145.899L69.6489 146.236L69.6491 138.736L70.2327 138.399L70.2326 139.761L70.258 139.747C70.7316 138.443 71.4716 137.501 72.478 136.919C73.18 136.514 73.717 136.475 74.0891 136.802C74.4612 137.124 74.6472 137.786 74.6472 138.787L74.647 143.35L74.0635 143.687ZM79.4293 140.486C79.1248 140.828 78.8394 141.076 78.573 141.23C77.6131 141.784 77.1332 141.397 77.1332 140.069L77.1334 135.03L75.9663 135.704L75.9663 135.088L77.1334 134.415L77.1335 132.466C77.2265 132.374 77.3238 132.278 77.4253 132.181C77.5267 132.088 77.624 131.995 77.717 131.902L77.717 134.078L79.4295 133.089L79.4295 133.704L77.7169 134.693L77.7168 139.644C77.7168 140.162 77.7865 140.497 77.9261 140.651C78.0698 140.798 78.3108 140.773 78.6491 140.578C78.8902 140.439 79.1502 140.198 79.4293 139.856L79.4293 140.486ZM83.5836 138.373C82.6364 138.92 81.8858 138.995 81.3319 138.597C80.7822 138.191 80.5074 137.413 80.5074 136.26C80.5075 135.015 80.7951 133.875 81.3702 132.84C81.9495 131.802 82.7106 131.011 83.6536 130.467C84.5797 129.932 85.3112 129.859 85.8482 130.247C86.3852 130.635 86.6537 131.447 86.6537 132.682C86.6536 133.849 86.3787 134.953 85.829 135.993C85.2835 137.03 84.535 137.824 83.5836 138.373ZM83.6282 131.097C82.8629 131.539 82.2518 132.189 81.7951 133.049C81.3426 133.906 81.1164 134.864 81.1164 135.923C81.1163 136.905 81.3383 137.565 81.7823 137.905C82.2263 138.244 82.833 138.191 83.6026 137.747C84.3849 137.295 84.9875 136.654 85.4104 135.824C85.8333 134.994 86.0447 134.059 86.0447 133.019C86.0448 131.95 85.8334 131.252 85.4105 130.924C84.9919 130.595 84.3978 130.652 83.6282 131.097ZM96.9665 130.463L96.9665 129.101L96.9412 129.115C96.7297 129.711 96.4168 130.268 96.0024 130.785C95.588 131.303 95.1207 131.712 94.6006 132.012C93.8014 132.474 93.1481 132.514 92.6407 132.133C92.1375 131.75 91.886 130.965 91.886 129.778C91.886 128.567 92.1609 127.43 92.7107 126.365C93.2646 125.293 93.9814 124.504 94.8609 123.996C95.8335 123.434 96.527 123.495 96.9413 124.179L96.9667 124.164L96.9668 119.359L97.5504 119.023L97.55 130.126L96.9665 130.463ZM96.9666 125.9C96.9667 125.202 96.7743 124.722 96.3895 124.461C96.0089 124.192 95.4952 124.245 94.8482 124.618C94.1674 125.011 93.605 125.639 93.161 126.501C92.717 127.358 92.4949 128.313 92.4949 129.368C92.4949 130.403 92.6936 131.089 93.0911 131.426C93.4927 131.756 94.0086 131.739 94.6387 131.375C95.3787 130.948 95.9517 130.353 96.3576 129.591C96.7636 128.825 96.9666 128.061 96.9666 127.299L96.9666 125.9ZM100.036 124.97C100.036 126 100.241 126.687 100.651 127.032C101.066 127.373 101.632 127.337 102.351 126.922C103.079 126.502 103.789 125.782 104.483 124.761L104.483 125.479C103.81 126.419 103.06 127.128 102.231 127.607C101.394 128.09 100.717 128.134 100.201 127.738C99.6853 127.343 99.4273 126.513 99.4274 125.248C99.4274 124.154 99.696 123.079 100.233 122.022C100.774 120.957 101.476 120.176 102.339 119.678C103.147 119.212 103.766 119.181 104.197 119.586C104.629 119.992 104.844 120.761 104.844 121.894L104.844 122.194L100.036 124.97ZM104.235 121.93C104.21 121.081 104.03 120.513 103.696 120.227C103.362 119.942 102.901 119.969 102.313 120.308C101.705 120.66 101.199 121.188 100.798 121.894C100.4 122.592 100.155 123.407 100.062 124.34L104.235 121.93ZM115.151 119.964L115.151 118.601L115.125 118.616C114.914 119.212 114.601 119.768 114.187 120.286C113.772 120.803 113.305 121.212 112.785 121.513C111.986 121.974 111.332 122.014 110.825 121.634C110.322 121.25 110.07 120.465 110.07 119.279C110.07 118.068 110.345 116.93 110.895 115.866C111.449 114.794 112.166 114.004 113.045 113.496C114.018 112.935 114.711 112.996 115.125 113.679L115.151 113.665L115.151 108.86L115.735 108.523L115.734 119.627L115.151 119.964ZM115.151 115.401C115.151 114.702 114.958 114.223 114.574 113.961C114.193 113.693 113.679 113.745 113.032 114.119C112.352 114.512 111.789 115.139 111.345 116.001C110.901 116.858 110.679 117.814 110.679 118.869C110.679 119.904 110.878 120.59 111.275 120.927C111.677 121.256 112.193 121.239 112.823 120.876C113.563 120.448 114.136 119.854 114.542 119.092C114.948 118.325 115.151 117.561 115.151 116.8L115.151 115.401ZM121.963 116.03L121.963 114.529L121.937 114.544C121.73 115.176 121.428 115.761 121.03 116.298C120.637 116.828 120.199 117.232 119.717 117.51C119.1 117.866 118.611 117.948 118.252 117.755C117.893 117.563 117.713 117.161 117.713 116.551C117.713 115.242 118.464 114.018 119.965 112.877L121.963 111.38C121.963 109.768 121.439 109.265 120.39 109.871C119.675 110.283 118.98 111.017 118.303 112.072L118.303 111.259C118.544 110.9 118.87 110.524 119.28 110.131C119.694 109.735 120.083 109.433 120.447 109.223C121.115 108.837 121.631 108.778 121.995 109.047C122.362 109.313 122.546 109.902 122.546 110.816L122.546 115.693L121.963 116.03ZM120.174 113.328C119.493 113.833 119.015 114.292 118.741 114.705C118.466 115.113 118.328 115.6 118.328 116.166C118.328 116.61 118.455 116.903 118.709 117.045C118.967 117.184 119.324 117.122 119.781 116.858C120.407 116.497 120.927 115.93 121.341 115.159C121.755 114.382 121.963 113.572 121.963 112.727L121.963 111.995L120.174 113.328ZM127.328 112.83C127.024 113.171 126.739 113.419 126.472 113.573C125.512 114.127 125.032 113.74 125.032 112.412L125.033 107.373L123.865 108.047L123.865 107.432L125.033 106.758L125.033 104.81C125.126 104.717 125.223 104.622 125.324 104.524C125.426 104.431 125.523 104.339 125.616 104.246L125.616 106.421L127.329 105.432L127.329 106.047L125.616 107.036L125.616 111.987C125.616 112.505 125.686 112.841 125.825 112.995C125.969 113.141 126.21 113.117 126.548 112.921C126.789 112.782 127.049 112.542 127.328 112.2L127.328 112.83ZM131.483 110.717C130.536 111.264 129.785 111.338 129.231 110.94C128.681 110.535 128.407 109.756 128.407 108.604C128.407 107.359 128.694 106.218 129.269 105.183C129.849 104.146 130.61 103.355 131.553 102.81C132.479 102.275 133.21 102.202 133.747 102.59C134.284 102.979 134.553 103.79 134.553 105.026C134.553 106.193 134.278 107.296 133.728 108.336C133.183 109.374 132.434 110.167 131.483 110.717ZM131.527 103.44C130.762 103.882 130.151 104.533 129.694 105.392C129.242 106.249 129.016 107.207 129.015 108.267C129.015 109.248 129.237 109.909 129.681 110.248C130.125 110.587 130.732 110.535 131.502 110.09C132.284 109.639 132.887 108.998 133.31 108.168C133.732 107.338 133.944 106.403 133.944 105.363C133.944 104.293 133.732 103.595 133.31 103.268C132.891 102.938 132.297 102.996 131.527 103.44ZM136.094 107.542L136.094 106.729C136.314 106.821 136.58 106.841 136.893 106.787C137.206 106.733 137.476 106.641 137.705 106.509C138.724 105.92 139.233 105.145 139.233 104.183C139.233 103.851 139.121 103.633 138.897 103.528C138.673 103.423 138.31 103.391 137.806 103.433C137.185 103.479 136.747 103.41 136.493 103.224C136.244 103.031 136.119 102.695 136.119 102.217C136.119 101.607 136.32 100.997 136.722 100.389C137.128 99.7791 137.627 99.303 138.219 98.9612C138.777 98.6389 139.255 98.4949 139.652 98.529L139.652 99.2908C139.17 99.2078 138.671 99.3152 138.155 99.6131C137.728 99.8597 137.384 100.188 137.121 100.598C136.859 101.003 136.728 101.411 136.728 101.821C136.728 102.178 136.811 102.421 136.976 102.55C137.14 102.675 137.504 102.719 138.066 102.682C138.743 102.643 139.208 102.701 139.462 102.858C139.716 103.009 139.842 103.334 139.842 103.832C139.842 104.427 139.648 105.033 139.259 105.648C138.874 106.256 138.341 106.757 137.66 107.15C137.035 107.511 136.512 107.642 136.094 107.542ZM142.138 104.513C141.994 104.596 141.874 104.609 141.777 104.553C141.679 104.492 141.631 104.379 141.631 104.213C141.631 104.042 141.679 103.875 141.777 103.711C141.874 103.543 141.994 103.417 142.138 103.334C142.282 103.251 142.405 103.236 142.506 103.29C142.608 103.339 142.658 103.449 142.658 103.619C142.658 103.785 142.608 103.956 142.506 104.132C142.405 104.303 142.282 104.43 142.138 104.513Z" fill="white"/>
</svg>
