<svg width="126" height="129" viewBox="0 0 126 129" fill="none" xmlns="http://www.w3.org/2000/svg">
<path d="M2.48465 21.5765L2.48343 2.30631L8.55832 5.81365C10.4204 6.8887 11.8518 8.10933 12.8527 9.47553C13.8536 10.8417 14.3541 12.2415 14.3542 13.6749C14.3543 14.7141 14.0479 15.4465 13.435 15.8721C12.8299 16.3021 12.0541 16.3961 11.1075 16.1543L11.1076 16.208C12.2946 17.0636 13.2412 18.1162 13.9473 19.366C14.6611 20.6202 15.018 21.852 15.0181 23.0614C15.0182 24.8263 14.4713 25.9126 13.3775 26.3202C12.2836 26.7188 10.7901 26.3717 8.89704 25.2787L2.48465 21.5765ZM6.24262 7.67483L6.24291 12.2438L7.89546 13.1979C8.67131 13.6458 9.28034 13.7824 9.72255 13.6077C10.1725 13.4286 10.3975 12.9582 10.3974 12.1967C10.3973 10.7813 9.48178 9.54496 7.65078 8.48783L6.24262 7.67483ZM6.24311 15.4689L6.24344 20.5485L8.28004 21.7244C9.14899 22.226 9.82784 22.3851 10.3166 22.2014C10.8131 22.0222 11.0613 21.5295 11.0613 20.7232C11.0612 19.9528 10.8168 19.2069 10.328 18.4858C9.84694 17.7691 9.17194 17.1599 8.30299 16.6582L6.24311 15.4689ZM31.1184 29.7635C31.1188 35.5508 28.7837 37.0962 24.1131 34.3996C19.5821 31.7837 17.3165 27.6492 17.3161 21.9963L17.3154 10.8695L21.086 13.0465L21.0867 24.227C21.0869 27.3446 22.1422 29.5127 24.2525 30.731C26.324 31.927 27.3597 31.02 27.3595 28.0098L27.3587 16.6681L31.1177 18.8383L31.1184 29.7635ZM33.7313 38.8777L33.731 34.5775C34.406 35.6212 35.1392 36.5372 35.9306 37.3256C36.722 38.105 37.5211 38.7276 38.328 39.1935C38.8013 39.4667 39.2125 39.6549 39.5616 39.7579C39.9185 39.8654 40.2133 39.9012 40.446 39.8654C40.6865 39.8251 40.865 39.7221 40.9813 39.5563C41.0977 39.3816 41.1559 39.1554 41.1559 38.8777C41.1558 38.5014 41.0627 38.1117 40.8765 37.7086C40.6903 37.3054 40.4342 36.8844 40.1083 36.4454C39.7902 36.0109 39.41 35.5495 38.9678 35.0613C38.5256 34.573 38.0484 34.0601 37.5363 33.5226C36.2328 32.143 35.2591 30.8148 34.6151 29.5382C33.9788 28.2661 33.6607 26.9895 33.6606 25.7084C33.6605 24.705 33.835 23.9457 34.1841 23.4306C34.5332 22.9065 35.0064 22.584 35.6038 22.4631C36.2089 22.3466 36.9072 22.4093 37.6985 22.6512C38.4899 22.8841 39.3278 23.2559 40.2123 23.7666C41.0812 24.2683 41.8493 24.7744 42.5166 25.2851C43.1916 25.7912 43.8122 26.3332 44.3786 26.9111L44.3789 30.9291C44.0996 30.5438 43.7931 30.1698 43.4595 29.807C43.1336 29.4486 42.7961 29.1149 42.447 28.8059C42.0978 28.4878 41.7487 28.2011 41.3995 27.9458C41.0582 27.695 40.7323 27.48 40.422 27.3008C39.9953 27.0544 39.6073 26.8797 39.2582 26.7767C38.9091 26.6647 38.6143 26.6244 38.3738 26.6558C38.1333 26.6871 37.9471 26.7857 37.8152 26.9514C37.6833 27.1082 37.6174 27.3344 37.6174 27.63C37.6174 27.9525 37.6911 28.2862 37.8386 28.6312C37.986 28.9671 38.1955 29.3299 38.4671 29.7196C38.7386 30.1004 39.0684 30.5147 39.4563 30.9627C39.8442 31.4016 40.2826 31.8787 40.7714 32.3938C41.4387 33.1016 42.0361 33.7914 42.5637 34.4633C43.099 35.1307 43.5568 35.8026 43.937 36.479C44.3172 37.1554 44.6082 37.8474 44.8099 38.5552C45.0117 39.254 45.1126 39.9931 45.1127 40.7725C45.1127 41.8475 44.9343 42.6493 44.5775 43.1779C44.2284 43.702 43.7513 44.0178 43.1462 44.1253C42.541 44.2238 41.835 44.1387 41.0282 43.87C40.2291 43.6057 39.3834 43.216 38.4912 42.7008C37.5757 42.1723 36.7028 41.5788 35.8727 40.9203C35.0502 40.2663 34.3364 39.5854 33.7313 38.8777ZM52.7516 31.3287L52.7518 34.6882L51.3553 33.8819L51.3561 46.4331L52.7526 47.2394L52.7528 50.5989L46.2008 46.8161L46.2006 43.4565L47.5971 44.2628L47.5963 31.7116L46.1998 30.9054L46.1996 27.5458L52.7516 31.3287ZM69.9124 60.5059L66.1185 58.3155L59.2398 42.2368C58.8363 41.2962 58.557 40.6019 58.4018 40.1539L58.3552 40.1271C58.4173 40.8438 58.4484 41.9009 58.4485 43.2985L58.4492 53.8877L54.8997 51.8384L54.8985 32.5681L58.9484 34.9064L65.571 50.461C65.8736 51.1642 66.153 51.8496 66.409 52.517L66.4556 52.5439C66.3935 52.0601 66.3624 51.1597 66.3623 49.8428L66.3616 39.1864L69.9111 41.2357L69.9124 60.5059ZM83.4758 68.3368L73.4674 62.5584L73.4661 43.2882L83.0905 48.8448L83.0908 52.3791L77.2253 48.9927L77.2256 53.2794L82.6837 56.4306L82.6839 59.9514L77.2258 56.8002L77.2261 61.2079L83.4756 64.816L83.4758 68.3368ZM85.1222 68.5483L85.1219 64.2481C85.7969 65.2918 86.5301 66.2078 87.3215 66.9962C88.1129 67.7756 88.912 68.3982 89.7189 68.864C90.1922 69.1373 90.6034 69.3254 90.9525 69.4284C91.3094 69.536 91.6042 69.5718 91.837 69.536C92.0775 69.4956 92.2559 69.3926 92.3723 69.2269C92.4886 69.0522 92.5468 68.826 92.5468 68.5483C92.5467 68.172 92.4536 67.7823 92.2674 67.3791C92.0812 66.976 91.8251 66.5549 91.4993 66.116C91.1811 65.6815 90.801 65.2201 90.3587 64.7318C89.9165 64.2436 89.4393 63.7307 88.9272 63.1932C87.6238 61.8135 86.65 60.4854 86.006 59.2088C85.3698 57.9366 85.0516 56.66 85.0515 55.3789C85.0514 54.3755 85.226 53.6163 85.575 53.1012C85.9241 52.5771 86.3974 52.2546 86.9947 52.1336C87.5999 52.0172 88.2981 52.0799 89.0895 52.3218C89.8808 52.5547 90.7187 52.9265 91.6032 53.4371C92.4721 53.9388 93.2402 54.445 93.9075 54.9556C94.5825 55.4618 95.2032 56.0038 95.7695 56.5816L95.7698 60.5996C95.4905 60.2144 95.184 59.8404 94.8504 59.4775C94.5245 59.1192 94.187 58.7855 93.8379 58.4764C93.4887 58.1584 93.1396 57.8717 92.7905 57.6164C92.4491 57.3655 92.1232 57.1505 91.8129 56.9713C91.3862 56.725 90.9982 56.5503 90.6491 56.4473C90.3 56.3353 90.0052 56.295 89.7647 56.3263C89.5242 56.3577 89.338 56.4562 89.2061 56.6219C89.0742 56.7787 89.0083 57.0049 89.0083 57.3006C89.0083 57.6231 89.0821 57.9568 89.2295 58.3017C89.3769 58.6377 89.5864 59.0005 89.858 59.3902C90.1295 59.7709 90.4593 60.1853 90.8472 60.6332C91.2352 61.0722 91.6735 61.5492 92.1623 62.0644C92.8296 62.7721 93.427 63.4619 93.9546 64.1338C94.49 64.8013 94.9477 65.4732 95.3279 66.1496C95.7081 66.8259 95.9991 67.518 96.2009 68.2257C96.4026 68.9245 96.5035 69.6636 96.5036 70.443C96.5036 71.5181 96.3253 72.3199 95.9684 72.8484C95.6193 73.3725 95.1422 73.6883 94.5371 73.7958C93.9319 73.8944 93.2259 73.8093 92.4191 73.5405C91.62 73.2762 90.7743 72.8865 89.8821 72.3714C88.9666 71.8428 88.0937 71.2493 87.2636 70.5908C86.4412 69.9369 85.7274 69.256 85.1222 68.5483ZM98.2201 76.1104L98.2198 71.8102C98.8949 72.8539 99.6281 73.7699 100.419 74.5583C101.211 75.3377 102.01 75.9603 102.817 76.4261C103.29 76.6994 103.701 76.8875 104.05 76.9905C104.407 77.0981 104.702 77.1339 104.935 77.0981C105.175 77.0577 105.354 76.9547 105.47 76.789C105.587 76.6143 105.645 76.3881 105.645 76.1104C105.645 75.7341 105.552 75.3444 105.365 74.9412C105.179 74.5381 104.923 74.117 104.597 73.6781C104.279 73.2436 103.899 72.7822 103.457 72.2939C103.014 71.8057 102.537 71.2928 102.025 70.7553C100.722 69.3756 99.748 68.0475 99.1039 66.7709C98.4677 65.4987 98.1495 64.2221 98.1494 62.941C98.1494 61.9376 98.3239 61.1784 98.673 60.6633C99.0221 60.1392 99.4953 59.8167 100.093 59.6957C100.698 59.5793 101.396 59.642 102.187 59.8839C102.979 60.1168 103.817 60.4886 104.701 60.9992C105.57 61.5009 106.338 62.0071 107.005 62.5177C107.68 63.0239 108.301 63.5659 108.867 64.1437L108.868 68.1617C108.588 67.7765 108.282 67.4025 107.948 67.0396C107.622 66.6813 107.285 66.3476 106.936 66.0385C106.587 65.7205 106.238 65.4338 105.888 65.1785C105.547 64.9276 105.221 64.7126 104.911 64.5334C104.484 64.2871 104.096 64.1124 103.747 64.0093C103.398 63.8974 103.103 63.8571 102.863 63.8884C102.622 63.9198 102.436 64.0183 102.304 64.184C102.172 64.3408 102.106 64.567 102.106 64.8627C102.106 65.1852 102.18 65.5189 102.327 65.8638C102.475 66.1998 102.684 66.5626 102.956 66.9523C103.227 67.333 103.557 67.7474 103.945 68.1953C104.333 68.6343 104.771 69.1113 105.26 69.6265C105.928 70.3342 106.525 71.024 107.053 71.6959C107.588 72.3634 108.046 73.0353 108.426 73.7117C108.806 74.388 109.097 75.0801 109.299 75.7878C109.501 76.4866 109.601 77.2257 109.602 78.0051C109.602 79.0802 109.423 79.882 109.066 80.4105C108.717 80.9346 108.24 81.2504 107.635 81.3579C107.03 81.4565 106.324 81.3714 105.517 81.1026C104.718 80.8383 103.872 80.4486 102.98 79.9335C102.065 79.4049 101.192 78.8114 100.361 78.1529C99.5391 77.499 98.8253 76.8181 98.2201 76.1104ZM17.1621 66.0492L13.0656 63.6841L11.8783 58.7121L5.94308 55.2853L4.76794 58.8935L0.694734 56.5418L6.7684 40.7789L11.2257 43.3523L17.1621 66.0492ZM11.0169 54.8822L9.22429 47.3703C9.09237 46.8104 8.99923 46.1788 8.94488 45.4755L8.85177 45.4218C8.81302 45.9638 8.71607 46.4677 8.56094 46.9336L6.74587 52.4163L11.0169 54.8822ZM33.9958 75.7682L30.2019 73.5778L23.3232 57.4991C22.9197 56.5584 22.6404 55.8641 22.4852 55.4162L22.4386 55.3893C22.5007 56.106 22.5318 57.1631 22.5319 58.5607L22.5326 69.1499L18.9831 67.1006L18.9819 47.8304L23.0318 50.1686L29.6544 65.7232C29.957 66.4264 30.2364 67.1118 30.4924 67.7792L30.539 67.8061C30.4769 67.3223 30.4458 66.422 30.4457 65.105L30.445 54.4486L33.9945 56.4979L33.9958 75.7682ZM52.2259 86.2934L48.1295 83.9283L46.9421 78.9562L41.0069 75.5294L39.8318 79.1376L35.7586 76.7859L41.8322 61.023L46.2895 63.5964L52.2259 86.2934ZM46.0807 75.1263L44.2881 67.6144C44.1562 67.0545 44.0631 66.4229 44.0087 65.7196L43.9156 65.6659C43.8768 66.2079 43.7799 66.7118 43.6248 67.1777L41.8097 72.6604L46.0807 75.1263ZM63.9855 93.0828L54.0469 87.3447L54.0457 68.0745L57.8047 70.2447L57.8057 85.9942L63.9853 89.562L63.9855 93.0828ZM76.8611 81.247L71.4271 90.526L71.4275 97.3794L67.6686 95.2092L67.6681 88.4364L62.3722 72.8818L66.6665 75.3611L69.3553 84.1026C69.4018 84.2638 69.5299 84.8618 69.7394 85.8966L69.786 85.9234C69.8868 85.3366 70.007 84.8999 70.1466 84.6132L72.881 78.9491L76.8611 81.247ZM90.7041 92.7733L85.9443 90.0252L85.9453 105.761L82.1747 103.584L82.1737 87.8483L77.4371 85.1136L77.4369 81.5794L90.7039 89.2391L90.7041 92.7733ZM97.8433 93.361L97.8435 96.7206L96.447 95.9143L96.4478 108.465L97.8443 109.272L97.8445 112.631L91.2925 108.848L91.2923 105.489L92.6888 106.295L92.688 93.744L91.2915 92.9377L91.2913 89.5782L97.8433 93.361ZM111.955 120.093C110.737 120.07 109.146 119.492 107.184 118.359C104.623 116.881 102.61 114.849 101.143 112.265C99.6769 109.68 98.9436 106.941 98.9434 104.047C98.9432 100.966 99.7654 98.941 101.41 97.9735C103.063 97.0104 105.204 97.2881 107.834 98.8066C109.463 99.7473 110.837 100.778 111.954 101.897L111.954 106.077C110.837 104.661 109.564 103.541 108.137 102.717C106.57 101.812 105.305 101.651 104.343 102.233C103.381 102.816 102.9 104.079 102.9 106.023C102.9 107.886 103.354 109.636 104.262 111.27C105.17 112.896 106.392 114.153 107.928 115.04C109.394 115.886 110.737 116.249 111.955 116.128L111.955 120.093ZM113.834 121.124L113.834 116.824C114.509 117.867 115.242 118.783 116.033 119.572C116.825 120.351 117.624 120.974 118.431 121.44C118.904 121.713 119.315 121.901 119.664 122.004C120.021 122.111 120.316 122.147 120.549 122.111C120.789 122.071 120.968 121.968 121.084 121.802C121.201 121.628 121.259 121.401 121.259 121.124C121.259 120.747 121.166 120.358 120.979 119.955C120.793 119.552 120.537 119.13 120.211 118.691C119.893 118.257 119.513 117.796 119.071 117.307C118.628 116.819 118.151 116.306 117.639 115.769C116.336 114.389 115.362 113.061 114.718 111.784C114.082 110.512 113.764 109.236 113.763 107.954C113.763 106.951 113.938 106.192 114.287 105.677C114.636 105.153 115.109 104.83 115.707 104.709C116.312 104.593 117.01 104.655 117.801 104.897C118.593 105.13 119.431 105.502 120.315 106.013C121.184 106.514 121.952 107.02 122.619 107.531C123.294 108.037 123.915 108.579 124.481 109.157L124.482 113.175C124.202 112.79 123.896 112.416 123.562 112.053C123.236 111.695 122.899 111.361 122.55 111.052C122.201 110.734 121.852 110.447 121.502 110.192C121.161 109.941 120.835 109.726 120.525 109.547C120.098 109.3 119.71 109.126 119.361 109.023C119.012 108.911 118.717 108.87 118.477 108.902C118.236 108.933 118.05 109.032 117.918 109.197C117.786 109.354 117.72 109.58 117.72 109.876C117.72 110.199 117.794 110.532 117.941 110.877C118.089 111.213 118.298 111.576 118.57 111.966C118.841 112.346 119.171 112.761 119.559 113.209C119.947 113.648 120.385 114.125 120.874 114.64C121.541 115.348 122.139 116.037 122.667 116.709C123.202 117.377 123.66 118.049 124.04 118.725C124.42 119.401 124.711 120.094 124.913 120.801C125.115 121.5 125.215 122.239 125.215 123.019C125.216 124.094 125.037 124.895 124.68 125.424C124.331 125.948 123.854 126.264 123.249 126.371C122.644 126.47 121.938 126.385 121.131 126.116C120.332 125.852 119.486 125.462 118.594 124.947C117.678 124.418 116.806 123.825 115.975 123.166C115.153 122.512 114.439 121.832 113.834 121.124Z" fill="#00C5D1"/>
</svg>
