<svg width="158" height="148" viewBox="0 0 158 148" fill="none" xmlns="http://www.w3.org/2000/svg">
<path d="M2.09793 21.0795L2.09671 1.80924L8.1716 5.31658C10.0336 6.39163 11.4651 7.61226 12.466 8.97846C13.4669 10.3447 13.9674 11.7445 13.9675 13.1779C13.9675 14.2171 13.6611 14.9495 13.0483 15.375C12.4432 15.805 11.6673 15.8991 10.7208 15.6572L10.7208 15.7109C11.9079 16.5665 12.8545 17.6192 13.5605 18.8689C14.2744 20.1231 14.6313 21.3549 14.6314 22.5644C14.6315 24.3292 14.0846 25.4155 12.9907 25.8231C11.8969 26.2218 10.4034 25.8746 8.51032 24.7817L2.09793 21.0795ZM5.8559 7.17776L5.85619 11.7467L7.50875 12.7008C8.28459 13.1487 8.89362 13.2854 9.33583 13.1107C9.78579 12.9315 10.0108 12.4612 10.0107 11.6997C10.0106 10.2842 9.09507 9.04789 7.26406 7.99076L5.8559 7.17776ZM5.85639 14.9718L5.85672 20.0514L7.89332 21.2273C8.76227 21.729 9.44112 21.888 9.92988 21.7043C10.4264 21.5252 10.6746 21.0324 10.6746 20.2261C10.6745 19.4557 10.4301 18.7099 9.94128 17.9887C9.46022 17.272 8.78522 16.6628 7.91627 16.1611L5.85639 14.9718ZM30.7317 29.2664C30.7321 35.0538 28.397 36.5992 23.7263 33.9026C19.1954 31.2866 16.9297 27.1522 16.9294 21.4992L16.9287 10.3725L20.6993 12.5494L20.7 23.7299C20.7002 26.8476 21.7555 29.0156 23.8658 30.234C25.9373 31.43 26.9729 30.5229 26.9727 27.5128L26.972 16.171L30.731 18.3413L30.7317 29.2664ZM33.3445 38.3806L33.3443 34.0804C34.0193 35.1241 34.7525 36.0402 35.5439 36.8285C36.3353 37.6079 37.1344 38.2306 37.9413 38.6964C38.4146 38.9697 38.8258 39.1578 39.1749 39.2608C39.5318 39.3683 39.8266 39.4042 40.0593 39.3683C40.2998 39.328 40.4783 39.225 40.5946 39.0593C40.711 38.8846 40.7692 38.6583 40.7691 38.3806C40.7691 38.0044 40.676 37.6147 40.4898 37.2115C40.3035 36.8084 40.0475 36.3873 39.7216 35.9483C39.4035 35.5138 39.0233 35.0525 38.5811 34.5642C38.1388 34.076 37.6617 33.5631 37.1496 33.0255C35.8461 31.6459 34.8724 30.3178 34.2284 29.0412C33.5921 27.769 33.274 26.4924 33.2739 25.2113C33.2738 24.2079 33.4483 23.4487 33.7974 22.9335C34.1465 22.4095 34.6197 22.0869 35.2171 21.966C35.8222 21.8495 36.5205 21.9122 37.3118 22.1541C38.1032 22.3871 38.9411 22.7588 39.8256 23.2695C40.6945 23.7712 41.4626 24.2774 42.1298 24.788C42.8048 25.2942 43.4255 25.8362 43.9919 26.414L43.9922 30.432C43.7128 30.0468 43.4064 29.6727 43.0727 29.3099C42.7469 28.9516 42.4094 28.6179 42.0602 28.3088C41.7111 27.9907 41.362 27.7041 41.0128 27.4487C40.6714 27.1979 40.3456 26.9829 40.0352 26.8037C39.6085 26.5573 39.2206 26.3827 38.8715 26.2796C38.5224 26.1676 38.2275 26.1273 37.987 26.1587C37.7465 26.19 37.5604 26.2886 37.4285 26.4543C37.2966 26.6111 37.2307 26.8373 37.2307 27.1329C37.2307 27.4555 37.3044 27.7892 37.4519 28.1341C37.5993 28.47 37.8088 28.8329 38.0803 29.2226C38.3519 29.6033 38.6816 30.0177 39.0696 30.4656C39.4575 30.9046 39.8959 31.3816 40.3847 31.8968C41.0519 32.6045 41.6494 33.2943 42.177 33.9662C42.7123 34.6336 43.1701 35.3055 43.5503 35.9819C43.9305 36.6583 44.2215 37.3504 44.4232 38.0581C44.625 38.7569 44.7259 39.496 44.7259 40.2754C44.726 41.3504 44.5476 42.1523 44.1908 42.6808C43.8417 43.2049 43.3646 43.5207 42.7594 43.6282C42.1543 43.7268 41.4483 43.6416 40.6414 43.3729C39.8423 43.1086 38.9967 42.7189 38.1044 42.2038C37.1889 41.6752 36.3161 41.0817 35.4859 40.4232C34.6635 39.7692 33.9497 39.0884 33.3445 38.3806ZM52.3649 30.8316L52.3651 34.1911L50.9686 33.3848L50.9694 45.936L52.3659 46.7423L52.3661 50.1018L45.8141 46.319L45.8139 42.9595L47.2104 43.7658L47.2096 31.2146L45.8131 30.4083L45.8129 27.0488L52.3649 30.8316ZM69.5256 60.0089L65.7317 57.8185L58.8531 41.7398C58.4496 40.7991 58.1702 40.1048 58.015 39.6569L57.9685 39.63C58.0306 40.3467 58.0617 41.4038 58.0618 42.8014L58.0625 53.3906L54.513 51.3413L54.5117 32.0711L58.5617 34.4093L65.1843 49.9639C65.4869 50.6671 65.7662 51.3525 66.0223 52.0199L66.0688 52.0468C66.0068 51.563 65.9757 50.6627 65.9756 49.3457L65.9749 38.6893L69.5244 40.7386L69.5256 60.0089ZM83.0891 67.8397L73.0806 62.0613L73.0794 42.7911L82.7038 48.3478L82.704 51.882L76.8386 48.4956L76.8389 52.7823L82.297 55.9336L82.2972 59.4544L76.8391 56.3031L76.8394 60.7108L83.0889 64.3189L83.0891 67.8397ZM84.7354 68.0512L84.7352 63.751C85.4102 64.7947 86.1434 65.7107 86.9348 66.4991C87.7262 67.2785 88.5253 67.9011 89.3322 68.367C89.8055 68.6402 90.2167 68.8284 90.5658 68.9314C90.9227 69.0389 91.2175 69.0747 91.4502 69.0389C91.6907 68.9986 91.8692 68.8955 91.9855 68.7298C92.1019 68.5551 92.1601 68.3289 92.16 68.0512C92.16 67.6749 92.0669 67.2852 91.8807 66.8821C91.6945 66.4789 91.4384 66.0579 91.1125 65.6189C90.7944 65.1844 90.4142 64.723 89.972 64.2348C89.5297 63.7465 89.0526 63.2336 88.5405 62.6961C87.237 61.3165 86.2633 59.9883 85.6193 58.7117C84.983 57.4396 84.6649 56.163 84.6648 54.8819C84.6647 53.8785 84.8392 53.1192 85.1883 52.6041C85.5374 52.08 86.0106 51.7575 86.608 51.6366C87.2131 51.5201 87.9114 51.5828 88.7027 51.8247C89.4941 52.0576 90.332 52.4294 91.2165 52.9401C92.0854 53.4417 92.8535 53.9479 93.5207 54.4586C94.1957 54.9647 94.8164 55.5067 95.3828 56.0846L95.3831 60.1026C95.1038 59.7173 94.7973 59.3433 94.4637 58.9805C94.1378 58.6221 93.8003 58.2884 93.4511 57.9793C93.102 57.6613 92.7529 57.3746 92.4037 57.1193C92.0624 56.8685 91.7365 56.6534 91.4262 56.4743C90.9994 56.2279 90.6115 56.0532 90.2624 55.9502C89.9133 55.8382 89.6185 55.7979 89.378 55.8292C89.1375 55.8606 88.9513 55.9591 88.8194 56.1249C88.6875 56.2817 88.6216 56.5079 88.6216 56.8035C88.6216 57.126 88.6953 57.4597 88.8428 57.8046C88.9902 58.1406 89.1997 58.5034 89.4712 58.8931C89.7428 59.2739 90.0726 59.6882 90.4605 60.1361C90.8484 60.5751 91.2868 61.0522 91.7756 61.5673C92.4429 62.275 93.0403 62.9649 93.5679 63.6368C94.1032 64.3042 94.561 64.9761 94.9412 65.6525C95.3214 66.3289 95.6124 67.0209 95.8141 67.7287C96.0159 68.4275 96.1168 69.1665 96.1169 69.946C96.1169 71.021 95.9385 71.8228 95.5817 72.3514C95.2326 72.8755 94.7555 73.1913 94.1504 73.2988C93.5452 73.3973 92.8392 73.3122 92.0324 73.0434C91.2332 72.7792 90.3876 72.3894 89.4953 71.8743C88.5798 71.3458 87.707 70.7522 86.8768 70.0938C86.0544 69.4398 85.3406 68.7589 84.7354 68.0512ZM97.8334 75.6133L97.8331 71.3131C98.5081 72.3568 99.2413 73.2728 100.033 74.0612C100.824 74.8406 101.623 75.4632 102.43 75.9291C102.903 76.2023 103.315 76.3904 103.664 76.4935C104.021 76.601 104.315 76.6368 104.548 76.601C104.789 76.5607 104.967 76.4576 105.083 76.2919C105.2 76.1172 105.258 75.891 105.258 75.6133C105.258 75.237 105.165 74.8473 104.979 74.4442C104.792 74.041 104.536 73.62 104.21 73.181C103.892 72.7465 103.512 72.2851 103.07 71.7969C102.628 71.3086 102.151 70.7957 101.638 70.2582C100.335 68.8786 99.3612 67.5504 98.7172 66.2738C98.081 65.0017 97.7628 63.725 97.7627 62.444C97.7627 61.4406 97.9372 60.6813 98.2863 60.1662C98.6353 59.6421 99.1086 59.3196 99.7059 59.1987C100.311 59.0822 101.009 59.1449 101.801 59.3868C102.592 59.6197 103.43 59.9915 104.314 60.5021C105.183 61.0038 105.951 61.51 106.619 62.0207C107.294 62.5268 107.914 63.0688 108.481 63.6467L108.481 67.6646C108.202 67.2794 107.895 66.9054 107.562 66.5426C107.236 66.1842 106.898 65.8505 106.549 65.5414C106.2 65.2234 105.851 64.9367 105.502 64.6814C105.16 64.4305 104.834 64.2155 104.524 64.0364C104.097 63.79 103.709 63.6153 103.36 63.5123C103.011 63.4003 102.716 63.36 102.476 63.3913C102.235 63.4227 102.049 63.5212 101.917 63.687C101.785 63.8438 101.72 64.07 101.72 64.3656C101.72 64.6881 101.793 65.0218 101.941 65.3667C102.088 65.7027 102.298 66.0655 102.569 66.4552C102.841 66.836 103.17 67.2503 103.558 67.6982C103.946 68.1372 104.385 68.6143 104.874 69.1294C105.541 69.8371 106.138 70.527 106.666 71.1989C107.201 71.8663 107.659 72.5382 108.039 73.2146C108.419 73.891 108.71 74.583 108.912 75.2908C109.114 75.9895 109.215 76.7286 109.215 77.5081C109.215 78.5831 109.036 79.3849 108.68 79.9135C108.331 80.4376 107.853 80.7534 107.248 80.8609C106.643 80.9594 105.937 80.8743 105.13 80.6055C104.331 80.3412 103.486 79.9515 102.593 79.4364C101.678 78.9079 100.805 78.3143 99.9748 77.6559C99.1524 77.0019 98.4386 76.321 97.8334 75.6133ZM7.25451 40.7858L7.25473 44.1453L5.8582 43.339L5.859 55.8902L7.25553 56.6965L7.25574 60.056L0.703698 56.2732L0.703484 52.9137L2.10001 53.7199L2.09921 41.1688L0.702685 40.3625L0.702471 37.003L7.25451 40.7858ZM24.4152 69.963L20.6213 67.7726L13.7427 51.694C13.3392 50.7533 13.0599 50.059 12.9047 49.6111L12.8581 49.5842C12.9202 50.3009 12.9513 51.358 12.9514 52.7556L12.9521 63.3448L9.40257 61.2955L9.40135 42.0253L13.4513 44.3635L20.0739 59.9181C20.3765 60.6213 20.6558 61.3067 20.9119 61.9741L20.9585 62.001C20.8964 61.5172 20.8653 60.6169 20.8652 59.2999L20.8645 48.6435L24.414 50.6928L24.4152 69.963ZM39.6884 63.0456L34.9286 60.2975L34.9296 76.0335L31.159 73.8565L31.158 58.1205L26.4214 55.3859L26.4212 51.8517L39.6882 59.5114L39.6884 63.0456ZM51.6818 85.7054L41.6733 79.927L41.6721 60.6568L51.2965 66.2134L51.2967 69.7477L45.4313 66.3613L45.4316 70.648L50.8897 73.7992L50.8899 77.32L45.4318 74.1688L45.4321 78.5765L51.6816 82.1846L51.6818 85.7054ZM64.0349 92.8375L54.0963 87.0994L54.0951 67.8292L57.8541 69.9994L57.8551 85.7489L64.0347 89.3167L64.0349 92.8375ZM75.9691 99.7277L66.0305 93.9896L66.0292 74.7194L69.7882 76.8896L69.7892 92.6391L75.9689 96.2069L75.9691 99.7277ZM83.1189 84.5861L83.1191 87.9456L81.7226 87.1393L81.7234 99.6905L83.1199 100.497L83.1201 103.856L76.5681 100.074L76.5679 96.714L77.9644 97.5203L77.9636 84.9691L76.5671 84.1628L76.5669 80.8033L83.1189 84.5861ZM98.9645 111.714C97.3353 111.857 95.3104 111.23 92.8897 109.833C90.2053 108.283 88.0872 106.204 86.5353 103.597C84.9913 100.986 84.2192 98.1752 84.219 95.1651C84.2188 92.137 85.0643 90.1571 86.7555 89.2254C88.4468 88.2937 90.6967 88.6386 93.5052 90.2602C95.2742 91.2814 96.8336 92.464 98.1837 93.8078L98.1839 97.8795C96.896 96.2759 95.321 94.9366 93.4589 93.8616C91.8995 92.9612 90.6271 92.8134 89.6419 93.4181C88.6644 94.0183 88.1757 95.295 88.1758 97.248C88.1759 99.2278 88.6144 101.013 89.4912 102.603C90.3757 104.198 91.5667 105.427 93.064 106.292C93.964 106.811 94.6778 107.076 95.2054 107.085L95.2051 103.322L91.8651 101.394L91.8649 97.9266L98.9639 102.025L98.9645 111.714ZM111.958 120.506L101.949 114.727L101.948 95.4571L111.573 101.014L111.573 104.548L105.707 101.162L105.708 105.448L111.166 108.6L111.166 112.12L105.708 108.969L105.708 113.377L111.958 116.985L111.958 120.506ZM129.385 130.567L125.591 128.377L118.712 112.298C118.309 111.358 118.03 110.663 117.874 110.215L117.828 110.188C117.89 110.905 117.921 111.962 117.921 113.36L117.922 123.949L114.372 121.9L114.371 102.63L118.421 104.968L125.044 120.522C125.346 121.226 125.626 121.911 125.882 122.578L125.928 122.605C125.866 122.121 125.835 121.221 125.835 119.904L125.834 109.248L129.384 111.297L129.385 130.567ZM144.904 138.842C143.685 138.819 142.095 138.241 140.132 137.108C137.572 135.63 135.558 133.599 134.092 131.014C132.625 128.429 131.892 125.69 131.892 122.797C131.892 119.715 132.714 117.69 134.359 116.723C136.011 115.759 138.152 116.037 140.783 117.556C142.412 118.496 143.785 119.527 144.902 120.646L144.903 124.826C143.785 123.41 142.513 122.29 141.085 121.466C139.518 120.561 138.254 120.4 137.292 120.982C136.33 121.565 135.849 122.828 135.849 124.772C135.849 126.635 136.303 128.385 137.211 130.02C138.118 131.646 139.34 132.902 140.877 133.789C142.343 134.636 143.685 134.998 144.903 134.877L144.904 138.842ZM157.559 146.834L147.551 141.055L147.55 121.785L157.174 127.342L157.174 130.876L151.309 127.49L151.309 131.776L156.767 134.928L156.767 138.448L151.309 135.297L151.31 139.705L157.559 143.313L157.559 146.834Z" fill="#FF9900"/>
</svg>
