<svg width="829" height="107" viewBox="0 0 829 107" fill="none" xmlns="http://www.w3.org/2000/svg">
<circle cx="13.5152" cy="13.5152" r="13.5152" fill="#2E2E2E"/>
<circle cx="13.5152" cy="51.358" r="13.5152" fill="#FF9900"/>
<circle cx="13.5152" cy="89.2008" r="13.5152" fill="#2E2E2E"/>
<circle cx="97.8512" cy="13.5152" r="13.5152" fill="#2E2E2E"/>
<circle cx="97.8512" cy="51.358" r="13.5152" fill="#FF9900"/>
<circle cx="97.8512" cy="89.2008" r="13.5152" fill="#2E2E2E"/>
<circle cx="55.6832" cy="13.5152" r="13.5152" fill="#2E2E2E"/>
<circle cx="55.6832" cy="51.358" r="13.5152" fill="#2E2E2E"/>
<circle cx="55.6832" cy="89.2008" r="13.5152" fill="#2E2E2E"/>
<circle cx="140.019" cy="13.5152" r="13.5152" fill="#FF9900"/>
<circle cx="140.019" cy="51.358" r="13.5152" fill="#2E2E2E"/>
<circle cx="140.019" cy="89.2008" r="13.5152" fill="#2E2E2E"/>
<circle cx="238.726" cy="13.5152" r="13.5152" fill="#2E2E2E"/>
<circle cx="238.726" cy="51.358" r="13.5152" fill="#2E2E2E"/>
<circle cx="238.726" cy="89.2008" r="13.5152" fill="#2E2E2E"/>
<circle cx="323.062" cy="13.5152" r="13.5152" fill="#2E2E2E"/>
<circle cx="323.062" cy="51.358" r="13.5152" fill="#FF9900"/>
<circle cx="323.062" cy="89.2008" r="13.5152" fill="#2E2E2E"/>
<circle cx="280.894" cy="13.5152" r="13.5152" fill="#FF9900"/>
<circle cx="280.894" cy="51.358" r="13.5152" fill="#2E2E2E"/>
<circle cx="280.894" cy="89.2008" r="13.5152" fill="#2E2E2E"/>
<circle cx="365.23" cy="13.5152" r="13.5152" fill="#2E2E2E"/>
<circle cx="365.23" cy="51.358" r="13.5152" fill="#2E2E2E"/>
<circle cx="365.23" cy="89.2008" r="13.5152" fill="#FF9900"/>
<circle cx="463.726" cy="13.5152" r="13.5152" fill="#2E2E2E"/>
<circle cx="463.726" cy="51.358" r="13.5152" fill="#2E2E2E"/>
<circle cx="463.726" cy="89.2008" r="13.5152" fill="#2E2E2E"/>
<circle cx="548.062" cy="13.5152" r="13.5152" fill="#2E2E2E"/>
<circle cx="548.062" cy="51.358" r="13.5152" fill="#2E2E2E"/>
<circle cx="548.062" cy="89.2008" r="13.5152" fill="#FF9900"/>
<circle cx="505.894" cy="13.5152" r="13.5152" fill="#2E2E2E"/>
<circle cx="505.894" cy="51.358" r="13.5152" fill="#FF9900"/>
<circle cx="505.894" cy="89.2008" r="13.5152" fill="#2E2E2E"/>
<circle cx="590.23" cy="13.5152" r="13.5152" fill="#2E2E2E"/>
<circle cx="590.23" cy="51.358" r="13.5152" fill="#2E2E2E"/>
<circle cx="590.23" cy="89.2008" r="13.5152" fill="#2E2E2E"/>
<circle cx="688.726" cy="13.5152" r="13.5152" fill="#2E2E2E"/>
<circle cx="688.726" cy="51.358" r="13.5152" fill="#FF9900"/>
<circle cx="688.726" cy="89.2008" r="13.5152" fill="#2E2E2E"/>
<circle cx="773.062" cy="13.5152" r="13.5152" fill="#2E2E2E"/>
<circle cx="773.062" cy="51.358" r="13.5152" fill="#2E2E2E"/>
<circle cx="773.062" cy="89.2008" r="13.5152" fill="#2E2E2E"/>
<circle cx="730.894" cy="13.5152" r="13.5152" fill="#2E2E2E"/>
<circle cx="730.894" cy="51.358" r="13.5152" fill="#2E2E2E"/>
<circle cx="730.894" cy="89.2008" r="13.5152" fill="#2E2E2E"/>
<circle cx="815.23" cy="13.5152" r="13.5152" fill="#2E2E2E"/>
<circle cx="815.23" cy="51.358" r="13.5152" fill="#2E2E2E"/>
<circle cx="815.23" cy="89.2008" r="13.5152" fill="#2E2E2E"/>
<path d="M189.211 2.16211V106.5" stroke="#4E4D4E"/>
<path d="M414.211 2.16211V106.5" stroke="#4E4D4E"/>
<path d="M639.211 2.16211V106.5" stroke="#4E4D4E"/>
</svg>
