<svg width="298" height="1024" viewBox="0 0 298 1024" fill="none" xmlns="http://www.w3.org/2000/svg">
<path d="M0.666667 952C0.666667 954.945 3.05448 957.333 6 957.333C8.94552 957.333 11.3333 954.945 11.3333 952C11.3333 949.055 8.94552 946.667 6 946.667C3.05448 946.667 0.666667 949.055 0.666667 952ZM6 952C6 953 6.00014 953 6.00043 953C6.00071 953 6.00114 953 6.00171 953C6.00227 953 6.00299 953 6.00384 953C6.00469 953 6.00568 953 6.00682 953C6.00795 953 6.00923 953 6.01065 953C6.01207 953 6.01363 953 6.01533 953C6.01703 953 6.01887 953 6.02086 953C6.02284 953 6.02496 953 6.02723 953C6.02949 953 6.0319 953 6.03445 953C6.03699 953 6.03968 953 6.04251 953C6.04534 953 6.0483 953 6.05141 953C6.05452 953 6.05777 953 6.06116 953C6.06455 953 6.06808 953 6.07174 953C6.07541 953 6.07922 953 6.08317 953C6.08712 953 6.09121 953 6.09544 953C6.09966 953 6.10403 953 6.10854 953C6.11304 953 6.11769 953 6.12248 953C6.12726 953 6.13219 953 6.13725 953C6.14231 953 6.14752 953 6.15286 953C6.1582 953 6.16368 953 6.1693 953C6.17492 953 6.18067 953 6.18657 953C6.19247 953 6.1985 953 6.20467 953C6.21085 953 6.21716 953 6.22361 953C6.23006 953 6.23664 953 6.24337 953C6.25009 953 6.25696 953 6.26396 953C6.27096 953 6.2781 953 6.28537 953C6.29265 953 6.30006 953 6.30761 953C6.31516 953 6.32285 953 6.33068 953C6.3385 953 6.34646 953 6.35456 953C6.36266 953 6.3709 953 6.37927 953C6.38765 953 6.39616 953 6.4048 953C6.41345 953 6.42224 953 6.43116 953C6.44008 953 6.44913 953 6.45832 953C6.46752 953 6.47685 953 6.48631 953C6.49578 953 6.50538 953 6.51511 953C6.52485 953 6.53472 953 6.54473 953C6.55474 953 6.56489 953 6.57517 953C6.58545 953 6.59586 953 6.60641 953C6.61696 953 6.62765 953 6.63847 953C6.64929 953 6.66025 953 6.67134 953C6.68243 953 6.69366 953 6.70502 953C6.71638 953 6.72787 953 6.73951 953C6.75114 953 6.7629 953 6.7748 953C6.7867 953 6.79873 953 6.8109 953C6.82307 953 6.83537 953 6.84781 953C6.86025 953 6.87282 953 6.88552 953C6.89823 953 6.91107 953 6.92404 953C6.93701 953 6.95012 953 6.96336 953C6.9766 953 6.98997 953 7.00347 953C7.01698 953 7.03062 953 7.04439 953C7.05817 953 7.07207 953 7.08611 953C7.10015 953 7.11432 953 7.12863 953C7.14293 953 7.15737 953 7.17194 953C7.18651 953 7.20121 953 7.21605 953C7.23088 953 7.24585 953 7.26095 953C7.27605 953 7.29128 953 7.30664 953C7.32201 953 7.33751 953 7.35313 953C7.36876 953 7.38452 953 7.40041 953C7.4163 953 7.43233 953 7.44848 953C7.46464 953 7.48092 953 7.49734 953C7.51376 953 7.53031 953 7.54699 953C7.56367 953 7.58048 953 7.59742 953C7.61436 953 7.63144 953 7.64864 953C7.66584 953 7.68318 953 7.70064 953C7.71811 953 7.73571 953 7.75343 953C7.77116 953 7.78901 953 7.807 953C7.82499 953 7.84311 953 7.86135 953C7.8796 953 7.89798 953 7.91648 953C7.93499 953 7.95363 953 7.9724 953C7.99116 953 8.01006 953 8.02908 953C8.04811 953 8.06727 953 8.08655 953C8.10583 953 8.12525 953 8.14479 953C8.16433 953 8.18401 953 8.20381 953C8.22361 953 8.24354 953 8.2636 953C8.28366 953 8.30384 953 8.32416 953C8.34448 953 8.36492 953 8.38549 953C8.40607 953 8.42677 953 8.4476 953C8.46843 953 8.48939 953 8.51047 953C8.53156 953 8.55277 953 8.57412 953C8.59546 953 8.61693 953 8.63852 953C8.66012 953 8.68185 953 8.7037 953C8.72555 953 8.74753 953 8.76964 953C8.79175 953 8.81398 953 8.83634 953C8.85871 953 8.88119 953 8.90381 953C8.92643 953 8.94917 953 8.97204 953C8.99491 953 9.0179 953 9.04103 953C9.06415 953 9.0874 953 9.11078 953C9.13415 953 9.15765 953 9.18128 953C9.20491 953 9.22867 953 9.25255 953C9.27643 953 9.30043 953 9.32457 953C9.3487 953 9.37296 953 9.39734 953C9.42172 953 9.44623 953 9.47087 953C9.4955 953 9.52026 953 9.54515 953C9.57004 953 9.59505 953 9.62018 953C9.64532 953 9.67058 953 9.69597 953C9.72135 953 9.74687 953 9.7725 953C9.79814 953 9.8239 953 9.84978 953C9.87567 953 9.90168 953 9.92781 953C9.95395 953 9.98021 953 10.0066 953C10.033 953 10.0595 953 10.0861 953C10.1127 953 10.1395 953 10.1664 953C10.1933 953 10.2203 953 10.2474 953C10.2745 953 10.3018 953 10.3291 953C10.3565 953 10.384 953 10.4116 953C10.4392 953 10.467 953 10.4949 953C10.5227 953 10.5507 953 10.5788 953C10.6069 953 10.6352 953 10.6635 953C10.6919 953 10.7204 953 10.749 953C10.7776 953 10.8063 953 10.8351 953C10.864 953 10.893 953 10.9221 953C10.9512 953 10.9804 953 11.0097 953C11.039 953 11.0685 953 11.0981 953C11.1277 953 11.1574 953 11.1872 953C11.217 953 11.247 953 11.277 953C11.3071 953 11.3373 953 11.3676 953C11.3979 953 11.4283 953 11.4589 953C11.4894 953 11.5201 953 11.5509 953C11.5817 953 11.6126 953 11.6437 953C11.6747 953 11.7058 953 11.7371 953C11.7684 953 11.7998 953 11.8313 953C11.8628 953 11.8945 953 11.9262 953C11.958 953 11.9899 953 12.0219 953C12.0539 953 12.086 953 12.1182 953C12.1505 953 12.1828 953 12.2153 953C12.2478 953 12.2804 953 12.3131 953C12.3458 953 12.3786 953 12.4116 953C12.4446 953 12.4776 953 12.5108 953C12.544 953 12.5773 953 12.6108 953C12.6442 953 12.6777 953 12.7114 953C12.7451 953 12.7789 953 12.8128 953C12.8467 953 12.8807 953 12.9149 953C12.949 953 12.9833 953 13.0176 953C13.052 953 13.0865 953 13.1211 953C13.1558 953 13.1905 953 13.2253 953C13.2602 953 13.2952 953 13.3302 953C13.3653 953 13.4005 953 13.4359 953C13.4712 953 13.5066 953 13.5422 953C13.5777 953 13.6134 953 13.6492 953C13.685 953 13.7209 953 13.7569 953C13.793 953 13.8291 953 13.8654 953C13.9016 953 13.938 953 13.9745 953C14.011 953 14.0476 953 14.0843 953C14.121 953 14.1579 953 14.1948 953C14.2318 953 14.2689 953 14.3061 953C14.3432 953 14.3805 953 14.418 953C14.4554 953 14.4929 953 14.5306 953C14.5682 953 14.606 953 14.6439 953C14.6818 953 14.7198 953 14.7579 953C14.796 953 14.8342 953 14.8726 953C14.9109 953 14.9494 953 14.988 953C15.0265 953 15.0652 953 15.104 953C15.1428 953 15.1817 953 15.2208 953C15.2598 953 15.299 953 15.3382 953C15.3775 953 15.4169 953 15.4563 953C15.4958 953 15.5354 953 15.5752 953C15.6149 953 15.6547 953 15.6947 953C15.7346 953 15.7747 953 15.8148 953C15.855 953 15.8953 953 15.9357 953C15.9761 953 16.0166 953 16.0572 953C16.0979 953 16.1386 953 16.1795 953C16.2203 953 16.2613 953 16.3024 953C16.3434 953 16.3846 953 16.4259 953C16.4672 953 16.5087 953 16.5502 953C16.5917 953 16.6334 953 16.6751 953C16.7169 953 16.7587 953 16.8007 953C16.8427 953 16.8848 953 16.927 953C16.9692 953 17.0115 953 17.0539 953C17.0964 953 17.1389 953 17.1816 953C17.2242 953 17.267 953 17.3098 953C17.3527 953 17.3957 953 17.4388 953C17.4819 953 17.5251 953 17.5684 953C17.6117 953 17.6552 953 17.6987 953C17.7422 953 17.7859 953 17.8297 953C17.8734 953 17.9173 953 17.9613 953C18.0052 953 18.0493 953 18.0935 953C18.1377 953 18.1821 953 18.2265 953C18.2709 953 18.3154 953 18.3601 953C18.4047 953 18.4495 953 18.4943 953C18.5392 953 18.5842 953 18.6293 953C18.6743 953 18.7195 953 18.7648 953C18.8101 953 18.8556 953 18.9011 953C18.9466 953 18.9922 953 19.038 953C19.0837 953 19.1295 953 19.1755 953C19.2215 953 19.2675 953 19.3137 953C19.3599 953 19.4062 953 19.4525 953C19.4989 953 19.5454 953 19.592 953C19.6387 953 19.6854 953 19.7322 953C19.779 953 19.8259 953 19.873 953C19.92 953 19.9672 953 20.0144 953C20.0617 953 20.109 953 20.1565 953C20.204 953 20.2516 953 20.2993 953C20.3469 953 20.3947 953 20.4426 953C20.4905 953 20.5385 953 20.5867 953C20.6348 953 20.683 953 20.7313 953C20.7796 953 20.8281 953 20.8766 953C20.9252 953 20.9738 953 21.0226 953C21.0713 953 21.1202 953 21.1692 953C21.2181 953 21.2672 953 21.3164 953C21.3656 953 21.4148 953 21.4642 953C21.5136 953 21.5631 953 21.6127 953C21.6623 953 21.712 953 21.7618 953C21.8117 953 21.8616 953 21.9116 953C21.9616 953 22.0118 953 22.062 953C22.1122 953 22.1626 953 22.213 953C22.2635 953 22.314 953 22.3647 953C22.4153 953 22.4661 953 22.517 953C22.5678 953 22.6188 953 22.6699 953C22.7209 953 22.7721 953 22.8234 953C22.8747 953 22.9261 953 22.9776 953C23.0291 953 23.0807 953 23.1324 953C23.1841 953 23.2359 953 23.2878 953C23.3397 953 23.3917 953 23.4438 953C23.4959 953 23.5481 953 23.6005 953C23.6528 953 23.7052 953 23.7577 953C23.8102 953 23.8629 953 23.9156 953C23.9683 953 24.0212 953 24.0741 953C24.1271 953 24.1801 953 24.2333 953C24.2864 953 24.3396 953 24.393 953C24.4463 953 24.4998 953 24.5534 953C24.6069 953 24.6606 953 24.7143 953C24.7681 953 24.8219 953 24.8759 953C24.9299 953 24.9839 953 25.0381 953C25.0923 953 25.1465 953 25.2009 953C25.2553 953 25.3097 953 25.3643 953C25.4189 953 25.4736 953 25.5283 953C25.5831 953 25.638 953 25.693 953C25.7479 953 25.803 953 25.8582 953C25.9134 953 25.9687 953 26.024 953C26.0794 953 26.1349 953 26.1905 953C26.2461 953 26.3017 953 26.3575 953C26.4133 953 26.4692 953 26.5252 953C26.5811 953 26.6372 953 26.6934 953C26.7496 953 26.8059 953 26.8623 953C26.9186 953 26.9751 953 27.0317 953C27.0883 953 27.145 953 27.2017 953C27.2585 953 27.3154 953 27.3724 953C27.4294 953 27.4864 953 27.5436 953C27.6008 953 27.6581 953 27.7154 953C27.7728 953 27.8303 953 27.8878 953C27.9454 953 28.0031 953 28.0609 953C28.1186 953 28.1765 953 28.2345 953C28.2924 953 28.3505 953 28.4086 953C28.4668 953 28.5251 953 28.5834 953C28.6418 953 28.7002 953 28.7588 953C28.8173 953 28.876 953 28.9347 953C28.9935 953 29.0523 953 29.1113 953C29.1702 953 29.2292 953 29.2884 953C29.3475 953 29.4068 953 29.4661 953C29.5254 953 29.5848 953 29.6444 953C29.7039 953 29.7635 953 29.8232 953C29.8829 953 29.9428 953 30.0027 953C30.0626 953 30.1226 953 30.1827 953C30.2428 953 30.303 953 30.3633 953C30.4236 953 30.484 953 30.5445 953C30.6049 953 30.6655 953 30.7262 953C30.7869 953 30.8477 953 30.9085 953C30.9694 953 31.0304 953 31.0914 953C31.1525 953 31.2136 953 31.2749 953C31.3361 953 31.3975 953 31.4589 953C31.5204 953 31.5819 953 31.6435 953C31.7052 953 31.7669 953 31.8287 953C31.8905 953 31.9525 953 32.0145 953C32.0765 953 32.1386 953 32.2008 953C32.263 953 32.3253 953 32.3876 953C32.45 953 32.5125 953 32.5751 953C32.6377 953 32.7003 953 32.7631 953C32.8258 953 32.8887 953 32.9517 953C33.0146 953 33.0776 953 33.1408 953C33.2039 953 33.2671 953 33.3305 953C33.3938 953 33.4572 953 33.5207 953C33.5842 953 33.6478 953 33.7115 953C33.7752 953 33.839 953 33.9029 953C33.9667 953 34.0307 953 34.0948 953C34.1588 953 34.223 953 34.2872 953C34.3515 953 34.4158 953 34.4803 953C34.5447 953 34.6092 953 34.6738 953C34.7384 953 34.8032 953 34.868 953C34.9327 953 34.9976 953 35.0626 953C35.1276 953 35.1927 953 35.2578 953C35.323 953 35.3883 953 35.4536 953C35.519 953 35.5844 953 35.6499 953C35.7155 953 35.7811 953 35.8468 953C35.9125 953 35.9783 953 36.0442 953C36.1101 953 36.1761 953 36.2421 953C36.3082 953 36.3744 953 36.4406 953C36.5069 953 36.5732 953 36.6397 953C36.7061 953 36.7726 953 36.8392 953C36.9058 953 36.9725 953 37.0393 953C37.1061 953 37.173 953 37.24 953C37.307 953 37.374 953 37.4412 953C37.5083 953 37.5756 953 37.6429 953C37.7102 953 37.7776 953 37.8451 953C37.9126 953 37.9802 953 38.0479 953C38.1156 953 38.1834 953 38.2512 953C38.3191 953 38.3871 953 38.4551 953C38.5231 953 38.5913 953 38.6595 953C38.7277 953 38.796 953 38.8644 953C38.9328 953 39.0013 953 39.0698 953C39.1384 953 39.207 953 39.2758 953C39.3445 953 39.4134 953 39.4823 953C39.5512 953 39.6202 953 39.6893 953C39.7584 953 39.8276 953 39.8968 953C39.9661 953 40.0354 953 40.1049 953C40.1743 953 40.2438 953 40.3135 953C40.3831 953 40.4528 953 40.5226 953C40.5924 953 40.6622 953 40.7322 953C40.8021 953 40.8722 953 40.9423 953C41.0125 953 41.0827 953 41.153 953C41.2233 953 41.2937 953 41.3641 953C41.4346 953 41.5052 953 41.5758 953C41.6465 953 41.7172 953 41.788 953C41.8588 953 41.9298 953 42.0007 953C42.0717 953 42.1428 953 42.214 953C42.2851 953 42.3564 953 42.4277 953C42.499 953 42.5704 953 42.6419 953C42.7134 953 42.785 953 42.8567 953C42.9284 953 43.0001 953 43.0719 953C43.1438 953 43.2157 953 43.2877 953C43.3597 953 43.4318 953 43.504 953C43.5761 953 43.6484 953 43.7207 953C43.7931 953 43.8655 953 43.938 953C44.0105 953 44.0831 953 44.1558 953C44.2285 953 44.3012 953 44.3741 953C44.4469 953 44.5198 953 44.5928 953C44.6659 953 44.7389 953 44.8121 953C44.8853 953 44.9585 953 45.0319 953C45.1052 953 45.1786 953 45.2522 953C45.3257 953 45.3992 953 45.4729 953C45.5466 953 45.6203 953 45.6942 953C45.768 953 45.8419 953 45.9159 953C45.9899 953 46.064 953 46.1382 953C46.2123 953 46.2866 953 46.3609 953C46.4352 953 46.5096 953 46.5841 953C46.6586 953 46.7332 953 46.8078 953C46.8825 953 46.9572 953 47.032 953C47.1068 953 47.1817 953 47.2567 953C47.3317 953 47.4067 953 47.4819 953C47.557 953 47.6322 953 47.7075 953C47.7828 953 47.8582 953 47.9336 953C48.0091 953 48.0846 953 48.1603 953C48.2359 953 48.3116 953 48.3874 953C48.4631 953 48.539 953 48.6149 953C48.6909 953 48.7669 953 48.843 953C48.9191 953 48.9953 953 49.0715 953C49.1478 953 49.2241 953 49.3005 953C49.3769 953 49.4534 953 49.53 953C49.6066 953 49.6832 953 49.76 953C49.8367 953 49.9135 953 49.9904 953C50.0673 953 50.1442 953 50.2213 953C50.2983 953 50.3755 953 50.4527 953C50.5299 953 50.6071 953 50.6845 953C50.7619 953 50.8393 953 50.9168 953C50.9943 953 51.0719 953 51.1496 953C51.2273 953 51.305 953 51.3828 953C51.4607 953 51.5386 953 51.6165 953C51.6945 953 51.7726 953 51.8507 953C51.9288 953 52.0071 953 52.0853 953C52.1636 953 52.242 953 52.3204 953C52.3989 953 52.4774 953 52.556 953C52.6346 953 52.7133 953 52.792 953C52.8708 953 52.9496 953 53.0285 953C53.1074 953 53.1864 953 53.2654 953C53.3445 953 53.4236 953 53.5028 953C53.582 953 53.6613 953 53.7407 953C53.82 953 53.8995 953 53.979 953C54.0585 953 54.1381 953 54.2177 953C54.2974 953 54.3771 953 54.4569 953C54.5367 953 54.6166 953 54.6966 953C54.7766 953 54.8566 953 54.9367 953C55.0168 953 55.097 953 55.1772 953C55.2575 953 55.3378 953 55.4183 953C55.4987 953 55.5791 953 55.6597 953C55.7403 953 55.8209 953 55.9016 953C55.9823 953 56.0631 953 56.1439 953C56.2248 953 56.3057 953 56.3867 953C56.4677 953 56.5488 953 56.63 953C56.7111 953 56.7923 953 56.8736 953C56.9549 953 57.0363 953 57.1177 953C57.1992 953 57.2807 953 57.3623 953C57.4439 953 57.5255 953 57.6073 953C57.689 953 57.7708 953 57.8527 953C57.9346 953 58.0165 953 58.0985 953C58.1806 953 58.2627 953 58.3448 953C58.427 953 58.5092 953 58.5915 953C58.6739 953 58.7562 953 58.8387 953C58.9212 953 59.0037 953 59.0863 953C59.1689 953 59.2516 953 59.3343 953C59.4171 953 59.4999 953 59.5828 953C59.6656 953 59.7486 953 59.8316 953C59.9147 953 59.9978 953 60.0809 953C60.1641 953 60.2473 953 60.3307 953C60.414 953 60.4974 953 60.5808 953C60.6643 953 60.7478 953 60.8314 953C60.915 953 60.9986 953 61.0824 953C61.1661 953 61.2499 953 61.3338 953C61.4177 953 61.5016 953 61.5856 953C61.6697 953 61.7537 953 61.8379 953C61.9221 953 62.0063 953 62.0906 953C62.1749 953 62.2592 953 62.3437 953C62.4281 953 62.5126 953 62.5972 953C62.6818 953 62.7664 953 62.8511 953C62.9358 953 63.0206 953 63.1054 953C63.1903 953 63.2752 953 63.3602 953C63.4452 953 63.5302 953 63.6154 953C63.7005 953 63.7857 953 63.8709 953C63.9562 953 64.0415 953 64.1269 953C64.2123 953 64.2978 953 64.3833 953C64.4688 953 64.5544 953 64.6401 953C64.7258 953 64.8115 953 64.8973 953C64.9831 953 65.069 953 65.1549 953C65.2408 953 65.3269 953 65.4129 953C65.499 953 65.5851 953 65.6713 953C65.7575 953 65.8438 953 65.9302 953C66.0165 953 66.1029 953 66.1894 953C66.2758 953 66.3624 953 66.449 953C66.5356 953 66.6223 953 66.709 953C66.7957 953 66.8825 953 66.9694 953C67.0563 953 67.1432 953 67.2302 953C67.3172 953 67.4043 953 67.4914 953C67.5786 953 67.6658 953 67.753 953C67.8403 953 67.9276 953 68.015 953C68.1024 953 68.1899 953 68.2774 953C68.3649 953 68.4525 953 68.5402 953C68.6278 953 68.7155 953 68.8033 953C68.8911 953 68.979 953 69.0669 953C69.1548 953 69.2428 953 69.3308 953C69.4189 953 69.507 953 69.5951 953C69.6833 953 69.7715 953 69.8598 953C69.9481 953 70.0365 953 70.1249 953C70.2134 953 70.3019 953 70.3904 953C70.479 953 70.5676 953 70.6563 953C70.745 953 70.8337 953 70.9225 953C71.0113 953 71.1002 953 71.1891 953C71.2781 953 71.3671 953 71.4561 953C71.5452 953 71.6343 953 71.7235 953C71.8127 953 71.9019 953 71.9912 953C72.0806 953 72.1699 953 72.2594 953C72.3488 953 72.4383 953 72.5279 953C72.6174 953 72.7071 953 72.7967 953C72.8864 953 72.9762 953 73.066 953C73.1558 953 73.2457 953 73.3356 953C73.4255 953 73.5155 953 73.6056 953C73.6956 953 73.7858 953 73.8759 953C73.9661 953 74.0564 953 74.1467 953C74.237 953 74.3273 953 74.4178 953C74.5082 953 74.5987 953 74.6892 953C74.7798 953 74.8704 953 74.961 953C75.0517 953 75.1424 953 75.2332 953C75.324 953 75.4148 953 75.5058 953C75.5967 953 75.6876 953 75.7787 953C75.8697 953 75.9608 953 76.0519 953C76.1431 953 76.2343 953 76.3255 953C76.4168 953 76.5081 953 76.5995 953C76.6909 953 76.7824 953 76.8739 953C76.9654 953 77.0569 953 77.1486 953C77.2402 953 77.3319 953 77.4236 953C77.5153 953 77.6071 953 77.699 953C77.7909 953 77.8828 953 77.9748 953C78.0667 953 78.1588 953 78.2509 953C78.343 953 78.4351 953 78.5273 953C78.6195 953 78.7118 953 78.8041 953C78.8964 953 78.9888 953 79.0813 953C79.1737 953 79.2662 953 79.3588 953C79.4513 953 79.5439 953 79.6366 953C79.7293 953 79.822 953 79.9148 953C80.0076 953 80.1004 953 80.1933 953C80.2862 953 80.3792 953 80.4722 953C80.5652 953 80.6583 953 80.7514 953C80.8445 953 80.9377 953 81.031 953C81.1242 953 81.2175 953 81.3109 953C81.4042 953 81.4976 953 81.5911 953C81.6846 953 81.7781 953 81.8717 953C81.9652 953 82.0589 953 82.1526 953C82.2463 953 82.34 953 82.4338 953C82.5276 953 82.6215 953 82.7154 953C82.8093 953 82.9033 953 82.9973 953C83.0913 953 83.1854 953 83.2795 953C83.3737 953 83.4678 953 83.5621 953C83.6563 953 83.7506 953 83.845 953C83.9393 953 84.0337 953 84.1282 953C84.2227 953 84.3172 953 84.4118 953C84.5063 953 84.601 953 84.6956 953C84.7903 953 84.885 953 84.9798 953C85.0746 953 85.1695 953 85.2644 953C85.3593 953 85.4542 953 85.5492 953C85.6442 953 85.7393 953 85.8344 953C85.9295 953 86.0247 953 86.1199 953C86.2151 953 86.3104 953 86.4057 953C86.501 953 86.5964 953 86.6918 953C86.7872 953 86.8827 953 86.9782 953C87.0738 953 87.1694 953 87.265 953C87.3606 953 87.4563 953 87.5521 953C87.6478 953 87.7436 953 87.8395 953C87.9353 953 88.0312 953 88.1272 953C88.2231 953 88.3191 953 88.4152 953C88.5112 953 88.6074 953 88.7035 953C88.7997 953 88.8959 953 88.9921 953C89.0884 953 89.1847 953 89.2811 953C89.3774 953 89.4739 953 89.5703 953C89.6668 953 89.7633 953 89.8599 953C89.9565 953 90.0531 953 90.1497 953C90.2464 953 90.3431 953 90.4399 953C90.5367 953 90.6335 953 90.7304 953C90.8272 953 90.9242 953 91.0211 953C91.1181 953 91.2151 953 91.3122 953C91.4093 953 91.5064 953 91.6036 953C91.7008 953 91.798 953 91.8952 953C91.9925 953 92.0898 953 92.1872 953C92.2846 953 92.382 953 92.4795 953C92.5769 953 92.6745 953 92.772 953C92.8696 953 92.9672 953 93.0649 953C93.1625 953 93.2603 953 93.358 953V951C93.2603 951 93.1625 951 93.0649 951C92.9672 951 92.8696 951 92.772 951C92.6745 951 92.5769 951 92.4795 951C92.382 951 92.2846 951 92.1872 951C92.0898 951 91.9925 951 91.8952 951C91.798 951 91.7008 951 91.6036 951C91.5064 951 91.4093 951 91.3122 951C91.2151 951 91.1181 951 91.0211 951C90.9242 951 90.8272 951 90.7304 951C90.6335 951 90.5367 951 90.4399 951C90.3431 951 90.2464 951 90.1497 951C90.0531 951 89.9565 951 89.8599 951C89.7633 951 89.6668 951 89.5703 951C89.4739 951 89.3774 951 89.2811 951C89.1847 951 89.0884 951 88.9921 951C88.8959 951 88.7997 951 88.7035 951C88.6074 951 88.5112 951 88.4152 951C88.3191 951 88.2231 951 88.1272 951C88.0312 951 87.9353 951 87.8395 951C87.7436 951 87.6478 951 87.5521 951C87.4563 951 87.3606 951 87.265 951C87.1694 951 87.0738 951 86.9782 951C86.8827 951 86.7872 951 86.6918 951C86.5964 951 86.501 951 86.4057 951C86.3104 951 86.2151 951 86.1199 951C86.0247 951 85.9295 951 85.8344 951C85.7393 951 85.6442 951 85.5492 951C85.4542 951 85.3593 951 85.2644 951C85.1695 951 85.0746 951 84.9798 951C84.885 951 84.7903 951 84.6956 951C84.601 951 84.5063 951 84.4118 951C84.3172 951 84.2227 951 84.1282 951C84.0337 951 83.9393 951 83.845 951C83.7506 951 83.6563 951 83.5621 951C83.4678 951 83.3737 951 83.2795 951C83.1854 951 83.0913 951 82.9973 951C82.9033 951 82.8093 951 82.7154 951C82.6215 951 82.5276 951 82.4338 951C82.34 951 82.2463 951 82.1526 951C82.0589 951 81.9652 951 81.8717 951C81.7781 951 81.6846 951 81.5911 951C81.4976 951 81.4042 951 81.3109 951C81.2175 951 81.1242 951 81.031 951C80.9377 951 80.8445 951 80.7514 951C80.6583 951 80.5652 951 80.4722 951C80.3792 951 80.2862 951 80.1933 951C80.1004 951 80.0076 951 79.9148 951C79.822 951 79.7293 951 79.6366 951C79.5439 951 79.4513 951 79.3588 951C79.2662 951 79.1737 951 79.0813 951C78.9888 951 78.8964 951 78.8041 951C78.7118 951 78.6195 951 78.5273 951C78.4351 951 78.343 951 78.2509 951C78.1588 951 78.0667 951 77.9748 951C77.8828 951 77.7909 951 77.699 951C77.6071 951 77.5153 951 77.4236 951C77.3319 951 77.2402 951 77.1486 951C77.0569 951 76.9654 951 76.8739 951C76.7824 951 76.6909 951 76.5995 951C76.5081 951 76.4168 951 76.3255 951C76.2343 951 76.1431 951 76.0519 951C75.9608 951 75.8697 951 75.7787 951C75.6876 951 75.5967 951 75.5058 951C75.4148 951 75.324 951 75.2332 951C75.1424 951 75.0517 951 74.961 951C74.8704 951 74.7798 951 74.6892 951C74.5987 951 74.5082 951 74.4178 951C74.3273 951 74.237 951 74.1467 951C74.0564 951 73.9661 951 73.8759 951C73.7858 951 73.6956 951 73.6056 951C73.5155 951 73.4255 951 73.3356 951C73.2457 951 73.1558 951 73.066 951C72.9762 951 72.8864 951 72.7967 951C72.7071 951 72.6174 951 72.5279 951C72.4383 951 72.3488 951 72.2594 951C72.1699 951 72.0806 951 71.9912 951C71.9019 951 71.8127 951 71.7235 951C71.6343 951 71.5452 951 71.4561 951C71.3671 951 71.2781 951 71.1891 951C71.1002 951 71.0113 951 70.9225 951C70.8337 951 70.745 951 70.6563 951C70.5676 951 70.479 951 70.3904 951C70.3019 951 70.2134 951 70.1249 951C70.0365 951 69.9481 951 69.8598 951C69.7715 951 69.6833 951 69.5951 951C69.507 951 69.4189 951 69.3308 951C69.2428 951 69.1548 951 69.0669 951C68.979 951 68.8911 951 68.8033 951C68.7155 951 68.6278 951 68.5402 951C68.4525 951 68.3649 951 68.2774 951C68.1899 951 68.1024 951 68.015 951C67.9276 951 67.8403 951 67.753 951C67.6658 951 67.5786 951 67.4914 951C67.4043 951 67.3172 951 67.2302 951C67.1432 951 67.0563 951 66.9694 951C66.8825 951 66.7957 951 66.709 951C66.6223 951 66.5356 951 66.449 951C66.3624 951 66.2758 951 66.1894 951C66.1029 951 66.0165 951 65.9302 951C65.8438 951 65.7575 951 65.6713 951C65.5851 951 65.499 951 65.4129 951C65.3269 951 65.2408 951 65.1549 951C65.069 951 64.9831 951 64.8973 951C64.8115 951 64.7258 951 64.6401 951C64.5544 951 64.4688 951 64.3833 951C64.2978 951 64.2123 951 64.1269 951C64.0415 951 63.9562 951 63.8709 951C63.7857 951 63.7005 951 63.6154 951C63.5302 951 63.4452 951 63.3602 951C63.2752 951 63.1903 951 63.1054 951C63.0206 951 62.9358 951 62.8511 951C62.7664 951 62.6818 951 62.5972 951C62.5126 951 62.4281 951 62.3437 951C62.2592 951 62.1749 951 62.0906 951C62.0063 951 61.9221 951 61.8379 951C61.7537 951 61.6697 951 61.5856 951C61.5016 951 61.4177 951 61.3338 951C61.2499 951 61.1661 951 61.0824 951C60.9986 951 60.915 951 60.8314 951C60.7478 951 60.6643 951 60.5808 951C60.4974 951 60.414 951 60.3307 951C60.2473 951 60.1641 951 60.0809 951C59.9978 951 59.9147 951 59.8316 951C59.7486 951 59.6656 951 59.5828 951C59.4999 951 59.4171 951 59.3343 951C59.2516 951 59.1689 951 59.0863 951C59.0037 951 58.9212 951 58.8387 951C58.7562 951 58.6739 951 58.5915 951C58.5092 951 58.427 951 58.3448 951C58.2627 951 58.1806 951 58.0985 951C58.0165 951 57.9346 951 57.8527 951C57.7708 951 57.689 951 57.6073 951C57.5255 951 57.4439 951 57.3623 951C57.2807 951 57.1992 951 57.1177 951C57.0363 951 56.9549 951 56.8736 951C56.7923 951 56.7111 951 56.63 951C56.5488 951 56.4677 951 56.3867 951C56.3057 951 56.2248 951 56.1439 951C56.0631 951 55.9823 951 55.9016 951C55.8209 951 55.7403 951 55.6597 951C55.5791 951 55.4987 951 55.4183 951C55.3378 951 55.2575 951 55.1772 951C55.097 951 55.0168 951 54.9367 951C54.8566 951 54.7766 951 54.6966 951C54.6166 951 54.5367 951 54.4569 951C54.3771 951 54.2974 951 54.2177 951C54.1381 951 54.0585 951 53.979 951C53.8995 951 53.82 951 53.7407 951C53.6613 951 53.582 951 53.5028 951C53.4236 951 53.3445 951 53.2654 951C53.1864 951 53.1074 951 53.0285 951C52.9496 951 52.8708 951 52.792 951C52.7133 951 52.6346 951 52.556 951C52.4774 951 52.3989 951 52.3204 951C52.242 951 52.1636 951 52.0853 951C52.0071 951 51.9288 951 51.8507 951C51.7726 951 51.6945 951 51.6165 951C51.5386 951 51.4607 951 51.3828 951C51.305 951 51.2273 951 51.1496 951C51.0719 951 50.9943 951 50.9168 951C50.8393 951 50.7619 951 50.6845 951C50.6071 951 50.5299 951 50.4527 951C50.3755 951 50.2983 951 50.2213 951C50.1442 951 50.0673 951 49.9904 951C49.9135 951 49.8367 951 49.76 951C49.6832 951 49.6066 951 49.53 951C49.4534 951 49.3769 951 49.3005 951C49.2241 951 49.1478 951 49.0715 951C48.9953 951 48.9191 951 48.843 951C48.7669 951 48.6909 951 48.6149 951C48.539 951 48.4631 951 48.3874 951C48.3116 951 48.2359 951 48.1603 951C48.0846 951 48.0091 951 47.9336 951C47.8582 951 47.7828 951 47.7075 951C47.6322 951 47.557 951 47.4819 951C47.4067 951 47.3317 951 47.2567 951C47.1817 951 47.1068 951 47.032 951C46.9572 951 46.8825 951 46.8078 951C46.7332 951 46.6586 951 46.5841 951C46.5096 951 46.4352 951 46.3609 951C46.2866 951 46.2123 951 46.1382 951C46.064 951 45.9899 951 45.9159 951C45.8419 951 45.768 951 45.6942 951C45.6203 951 45.5466 951 45.4729 951C45.3992 951 45.3257 951 45.2522 951C45.1786 951 45.1052 951 45.0319 951C44.9585 951 44.8853 951 44.8121 951C44.7389 951 44.6659 951 44.5928 951C44.5198 951 44.4469 951 44.3741 951C44.3012 951 44.2285 951 44.1558 951C44.0831 951 44.0105 951 43.938 951C43.8655 951 43.7931 951 43.7207 951C43.6484 951 43.5761 951 43.504 951C43.4318 951 43.3597 951 43.2877 951C43.2157 951 43.1438 951 43.0719 951C43.0001 951 42.9284 951 42.8567 951C42.785 951 42.7134 951 42.6419 951C42.5704 951 42.499 951 42.4277 951C42.3564 951 42.2851 951 42.214 951C42.1428 951 42.0717 951 42.0007 951C41.9298 951 41.8588 951 41.788 951C41.7172 951 41.6465 951 41.5758 951C41.5052 951 41.4346 951 41.3641 951C41.2937 951 41.2233 951 41.153 951C41.0827 951 41.0125 951 40.9423 951C40.8722 951 40.8021 951 40.7322 951C40.6622 951 40.5924 951 40.5226 951C40.4528 951 40.3831 951 40.3135 951C40.2438 951 40.1743 951 40.1049 951C40.0354 951 39.9661 951 39.8968 951C39.8276 951 39.7584 951 39.6893 951C39.6202 951 39.5512 951 39.4823 951C39.4134 951 39.3445 951 39.2758 951C39.207 951 39.1384 951 39.0698 951C39.0013 951 38.9328 951 38.8644 951C38.796 951 38.7277 951 38.6595 951C38.5913 951 38.5231 951 38.4551 951C38.3871 951 38.3191 951 38.2512 951C38.1834 951 38.1156 951 38.0479 951C37.9802 951 37.9126 951 37.8451 951C37.7776 951 37.7102 951 37.6429 951C37.5756 951 37.5083 951 37.4412 951C37.374 951 37.307 951 37.24 951C37.173 951 37.1061 951 37.0393 951C36.9725 951 36.9058 951 36.8392 951C36.7726 951 36.7061 951 36.6397 951C36.5732 951 36.5069 951 36.4406 951C36.3744 951 36.3082 951 36.2421 951C36.1761 951 36.1101 951 36.0442 951C35.9783 951 35.9125 951 35.8468 951C35.7811 951 35.7155 951 35.6499 951C35.5844 951 35.519 951 35.4536 951C35.3883 951 35.323 951 35.2578 951C35.1927 951 35.1276 951 35.0626 951C34.9976 951 34.9327 951 34.868 951C34.8032 951 34.7384 951 34.6738 951C34.6092 951 34.5447 951 34.4803 951C34.4158 951 34.3515 951 34.2872 951C34.223 951 34.1588 951 34.0948 951C34.0307 951 33.9667 951 33.9029 951C33.839 951 33.7752 951 33.7115 951C33.6478 951 33.5842 951 33.5207 951C33.4572 951 33.3938 951 33.3305 951C33.2671 951 33.2039 951 33.1408 951C33.0776 951 33.0146 951 32.9517 951C32.8887 951 32.8258 951 32.7631 951C32.7003 951 32.6377 951 32.5751 951C32.5125 951 32.45 951 32.3876 951C32.3253 951 32.263 951 32.2008 951C32.1386 951 32.0765 951 32.0145 951C31.9525 951 31.8905 951 31.8287 951C31.7669 951 31.7052 951 31.6435 951C31.5819 951 31.5204 951 31.4589 951C31.3975 951 31.3361 951 31.2749 951C31.2136 951 31.1525 951 31.0914 951C31.0304 951 30.9694 951 30.9085 951C30.8477 951 30.7869 951 30.7262 951C30.6655 951 30.6049 951 30.5445 951C30.484 951 30.4236 951 30.3633 951C30.303 951 30.2428 951 30.1827 951C30.1226 951 30.0626 951 30.0027 951C29.9428 951 29.8829 951 29.8232 951C29.7635 951 29.7039 951 29.6444 951C29.5848 951 29.5254 951 29.4661 951C29.4068 951 29.3475 951 29.2884 951C29.2292 951 29.1702 951 29.1113 951C29.0523 951 28.9935 951 28.9347 951C28.876 951 28.8173 951 28.7588 951C28.7002 951 28.6418 951 28.5834 951C28.5251 951 28.4668 951 28.4086 951C28.3505 951 28.2924 951 28.2345 951C28.1765 951 28.1186 951 28.0609 951C28.0031 951 27.9454 951 27.8878 951C27.8303 951 27.7728 951 27.7154 951C27.6581 951 27.6008 951 27.5436 951C27.4864 951 27.4294 951 27.3724 951C27.3154 951 27.2585 951 27.2017 951C27.145 951 27.0883 951 27.0317 951C26.9751 951 26.9186 951 26.8623 951C26.8059 951 26.7496 951 26.6934 951C26.6372 951 26.5811 951 26.5252 951C26.4692 951 26.4133 951 26.3575 951C26.3017 951 26.2461 951 26.1905 951C26.1349 951 26.0794 951 26.024 951C25.9687 951 25.9134 951 25.8582 951C25.803 951 25.7479 951 25.693 951C25.638 951 25.5831 951 25.5283 951C25.4736 951 25.4189 951 25.3643 951C25.3097 951 25.2553 951 25.2009 951C25.1465 951 25.0923 951 25.0381 951C24.9839 951 24.9299 951 24.8759 951C24.8219 951 24.7681 951 24.7143 951C24.6606 951 24.6069 951 24.5534 951C24.4998 951 24.4463 951 24.393 951C24.3396 951 24.2864 951 24.2333 951C24.1801 951 24.1271 951 24.0741 951C24.0212 951 23.9683 951 23.9156 951C23.8629 951 23.8102 951 23.7577 951C23.7052 951 23.6528 951 23.6005 951C23.5481 951 23.4959 951 23.4438 951C23.3917 951 23.3397 951 23.2878 951C23.2359 951 23.1841 951 23.1324 951C23.0807 951 23.0291 951 22.9776 951C22.9261 951 22.8747 951 22.8234 951C22.7721 951 22.7209 951 22.6699 951C22.6188 951 22.5678 951 22.517 951C22.4661 951 22.4153 951 22.3647 951C22.314 951 22.2635 951 22.213 951C22.1626 951 22.1122 951 22.062 951C22.0118 951 21.9616 951 21.9116 951C21.8616 951 21.8117 951 21.7618 951C21.712 951 21.6623 951 21.6127 951C21.5631 951 21.5136 951 21.4642 951C21.4148 951 21.3656 951 21.3164 951C21.2672 951 21.2181 951 21.1692 951C21.1202 951 21.0713 951 21.0226 951C20.9738 951 20.9252 951 20.8766 951C20.8281 951 20.7796 951 20.7313 951C20.683 951 20.6348 951 20.5867 951C20.5385 951 20.4905 951 20.4426 951C20.3947 951 20.3469 951 20.2993 951C20.2516 951 20.204 951 20.1565 951C20.109 951 20.0617 951 20.0144 951C19.9672 951 19.92 951 19.873 951C19.8259 951 19.779 951 19.7322 951C19.6854 951 19.6387 951 19.592 951C19.5454 951 19.4989 951 19.4525 951C19.4062 951 19.3599 951 19.3137 951C19.2675 951 19.2215 951 19.1755 951C19.1295 951 19.0837 951 19.038 951C18.9922 951 18.9466 951 18.9011 951C18.8556 951 18.8101 951 18.7648 951C18.7195 951 18.6743 951 18.6293 951C18.5842 951 18.5392 951 18.4943 951C18.4495 951 18.4047 951 18.3601 951C18.3154 951 18.2709 951 18.2265 951C18.1821 951 18.1377 951 18.0935 951C18.0493 951 18.0052 951 17.9613 951C17.9173 951 17.8734 951 17.8297 951C17.7859 951 17.7422 951 17.6987 951C17.6552 951 17.6117 951 17.5684 951C17.5251 951 17.4819 951 17.4388 951C17.3957 951 17.3527 951 17.3098 951C17.267 951 17.2242 951 17.1816 951C17.1389 951 17.0964 951 17.0539 951C17.0115 951 16.9692 951 16.927 951C16.8848 951 16.8427 951 16.8007 951C16.7587 951 16.7169 951 16.6751 951C16.6334 951 16.5917 951 16.5502 951C16.5087 951 16.4672 951 16.4259 951C16.3846 951 16.3434 951 16.3024 951C16.2613 951 16.2203 951 16.1795 951C16.1386 951 16.0979 951 16.0572 951C16.0166 951 15.9761 951 15.9357 951C15.8953 951 15.855 951 15.8148 951C15.7747 951 15.7346 951 15.6947 951C15.6547 951 15.6149 951 15.5752 951C15.5354 951 15.4958 951 15.4563 951C15.4169 951 15.3775 951 15.3382 951C15.299 951 15.2598 951 15.2208 951C15.1817 951 15.1428 951 15.104 951C15.0652 951 15.0265 951 14.988 951C14.9494 951 14.9109 951 14.8726 951C14.8342 951 14.796 951 14.7579 951C14.7198 951 14.6818 951 14.6439 951C14.606 951 14.5682 951 14.5306 951C14.4929 951 14.4554 951 14.418 951C14.3805 951 14.3432 951 14.3061 951C14.2689 951 14.2318 951 14.1948 951C14.1579 951 14.121 951 14.0843 951C14.0476 951 14.011 951 13.9745 951C13.938 951 13.9016 951 13.8654 951C13.8291 951 13.793 951 13.7569 951C13.7209 951 13.685 951 13.6492 951C13.6134 951 13.5777 951 13.5422 951C13.5066 951 13.4712 951 13.4359 951C13.4005 951 13.3653 951 13.3302 951C13.2952 951 13.2602 951 13.2253 951C13.1905 951 13.1558 951 13.1211 951C13.0865 951 13.052 951 13.0176 951C12.9833 951 12.949 951 12.9149 951C12.8807 951 12.8467 951 12.8128 951C12.7789 951 12.7451 951 12.7114 951C12.6777 951 12.6442 951 12.6108 951C12.5773 951 12.544 951 12.5108 951C12.4776 951 12.4446 951 12.4116 951C12.3786 951 12.3458 951 12.3131 951C12.2804 951 12.2478 951 12.2153 951C12.1828 951 12.1505 951 12.1182 951C12.086 951 12.0539 951 12.0219 951C11.9899 951 11.958 951 11.9262 951C11.8945 951 11.8628 951 11.8313 951C11.7998 951 11.7684 951 11.7371 951C11.7058 951 11.6747 951 11.6437 951C11.6126 951 11.5817 951 11.5509 951C11.5201 951 11.4894 951 11.4589 951C11.4283 951 11.3979 951 11.3676 951C11.3373 951 11.3071 951 11.277 951C11.247 951 11.217 951 11.1872 951C11.1574 951 11.1277 951 11.0981 951C11.0685 951 11.039 951 11.0097 951C10.9804 951 10.9512 951 10.9221 951C10.893 951 10.864 951 10.8351 951C10.8063 951 10.7776 951 10.749 951C10.7204 951 10.6919 951 10.6635 951C10.6352 951 10.6069 951 10.5788 951C10.5507 951 10.5227 951 10.4949 951C10.467 951 10.4392 951 10.4116 951C10.384 951 10.3565 951 10.3291 951C10.3018 951 10.2745 951 10.2474 951C10.2203 951 10.1933 951 10.1664 951C10.1395 951 10.1127 951 10.0861 951C10.0595 951 10.033 951 10.0066 951C9.98021 951 9.95395 951 9.92781 951C9.90168 951 9.87567 951 9.84978 951C9.8239 951 9.79814 951 9.7725 951C9.74687 951 9.72135 951 9.69597 951C9.67058 951 9.64532 951 9.62018 951C9.59505 951 9.57004 951 9.54515 951C9.52026 951 9.4955 951 9.47087 951C9.44623 951 9.42172 951 9.39734 951C9.37296 951 9.3487 951 9.32457 951C9.30043 951 9.27643 951 9.25255 951C9.22867 951 9.20491 951 9.18128 951C9.15765 951 9.13415 951 9.11078 951C9.0874 951 9.06415 951 9.04103 951C9.0179 951 8.99491 951 8.97204 951C8.94917 951 8.92643 951 8.90381 951C8.88119 951 8.85871 951 8.83634 951C8.81398 951 8.79175 951 8.76964 951C8.74753 951 8.72555 951 8.7037 951C8.68185 951 8.66012 951 8.63852 951C8.61693 951 8.59546 951 8.57412 951C8.55277 951 8.53156 951 8.51047 951C8.48939 951 8.46843 951 8.4476 951C8.42677 951 8.40607 951 8.38549 951C8.36492 951 8.34448 951 8.32416 951C8.30384 951 8.28366 951 8.2636 951C8.24354 951 8.22361 951 8.20381 951C8.18401 951 8.16433 951 8.14479 951C8.12525 951 8.10583 951 8.08655 951C8.06727 951 8.04811 951 8.02908 951C8.01006 951 7.99116 951 7.9724 951C7.95363 951 7.93499 951 7.91648 951C7.89798 951 7.8796 951 7.86135 951C7.84311 951 7.82499 951 7.807 951C7.78901 951 7.77116 951 7.75343 951C7.73571 951 7.71811 951 7.70064 951C7.68318 951 7.66584 951 7.64864 951C7.63144 951 7.61436 951 7.59742 951C7.58048 951 7.56367 951 7.54699 951C7.53031 951 7.51376 951 7.49734 951C7.48092 951 7.46464 951 7.44848 951C7.43233 951 7.4163 951 7.40041 951C7.38452 951 7.36876 951 7.35313 951C7.33751 951 7.32201 951 7.30664 951C7.29128 951 7.27605 951 7.26095 951C7.24585 951 7.23088 951 7.21605 951C7.20121 951 7.18651 951 7.17194 951C7.15737 951 7.14293 951 7.12863 951C7.11432 951 7.10015 951 7.08611 951C7.07207 951 7.05817 951 7.04439 951C7.03062 951 7.01698 951 7.00347 951C6.98997 951 6.9766 951 6.96336 951C6.95012 951 6.93701 951 6.92404 951C6.91107 951 6.89823 951 6.88552 951C6.87282 951 6.86025 951 6.84781 951C6.83537 951 6.82307 951 6.8109 951C6.79873 951 6.7867 951 6.7748 951C6.7629 951 6.75114 951 6.73951 951C6.72787 951 6.71638 951 6.70502 951C6.69366 951 6.68243 951 6.67134 951C6.66025 951 6.64929 951 6.63847 951C6.62765 951 6.61696 951 6.60641 951C6.59586 951 6.58545 951 6.57517 951C6.56489 951 6.55474 951 6.54473 951C6.53472 951 6.52485 951 6.51511 951C6.50538 951 6.49578 951 6.48631 951C6.47685 951 6.46752 951 6.45832 951C6.44913 951 6.44008 951 6.43116 951C6.42224 951 6.41345 951 6.4048 951C6.39616 951 6.38765 951 6.37927 951C6.3709 951 6.36266 951 6.35456 951C6.34646 951 6.3385 951 6.33068 951C6.32285 951 6.31516 951 6.30761 951C6.30006 951 6.29265 951 6.28537 951C6.2781 951 6.27096 951 6.26396 951C6.25696 951 6.25009 951 6.24337 951C6.23664 951 6.23006 951 6.22361 951C6.21716 951 6.21085 951 6.20467 951C6.1985 951 6.19247 951 6.18657 951C6.18067 951 6.17492 951 6.1693 951C6.16368 951 6.1582 951 6.15286 951C6.14752 951 6.14231 951 6.13725 951C6.13219 951 6.12726 951 6.12248 951C6.11769 951 6.11304 951 6.10854 951C6.10403 951 6.09966 951 6.09544 951C6.09121 951 6.08712 951 6.08317 951C6.07922 951 6.07541 951 6.07174 951C6.06808 951 6.06455 951 6.06116 951C6.05777 951 6.05452 951 6.05141 951C6.0483 951 6.04534 951 6.04251 951C6.03968 951 6.03699 951 6.03445 951C6.0319 951 6.02949 951 6.02723 951C6.02496 951 6.02284 951 6.02086 951C6.01887 951 6.01703 951 6.01533 951C6.01363 951 6.01207 951 6.01065 951C6.00923 951 6.00795 951 6.00682 951C6.00568 951 6.00469 951 6.00384 951C6.00299 951 6.00227 951 6.00171 951C6.00114 951 6.00071 951 6.00043 951C6.00014 951 6 951 6 952ZM93.358 953C95.3058 953 97.2319 952.003 99.1066 950.334C100.991 948.657 102.926 946.211 104.91 943.092C108.882 936.851 113.161 927.747 117.688 916.229C126.748 893.181 136.874 860.287 147.575 820.856C168.979 741.983 192.715 636.836 214.847 531.706C236.981 426.572 257.515 321.441 272.516 242.593C280.016 203.169 286.133 170.316 290.375 147.318C292.496 135.819 294.148 126.784 295.27 120.624C295.831 117.544 296.26 115.182 296.548 113.591C296.692 112.795 296.801 112.192 296.874 111.787C296.911 111.585 296.938 111.433 296.957 111.331C296.966 111.28 296.973 111.241 296.977 111.216C296.98 111.203 296.981 111.193 296.982 111.187C296.984 111.18 296.984 111.177 296 111C295.016 110.823 295.015 110.826 295.014 110.832C295.013 110.839 295.011 110.848 295.009 110.861C295.004 110.887 294.997 110.925 294.988 110.976C294.97 111.077 294.942 111.23 294.906 111.432C294.833 111.836 294.724 112.439 294.58 113.234C294.292 114.825 293.863 117.186 293.303 120.266C292.181 126.425 290.529 135.458 288.408 146.955C284.167 169.95 278.051 202.8 270.551 242.219C255.552 321.059 235.02 426.178 212.89 531.294C190.759 636.414 167.033 741.517 145.644 820.332C134.949 859.744 124.846 892.554 115.827 915.497C111.315 926.976 107.092 935.94 103.223 942.018C101.288 945.059 99.4673 947.335 97.7767 948.841C96.0767 950.354 94.6085 951 93.358 951V953Z" fill="url(#paint0_linear_513_9771)"/>
<path d="M3.66667 6C3.66667 8.94552 6.05448 11.3333 9 11.3333C11.9455 11.3333 14.3333 8.94552 14.3333 6C14.3333 3.05448 11.9455 0.666667 9 0.666667C6.05448 0.666667 3.66667 3.05448 3.66667 6ZM296 111L296.986 111.165L297.091 110.539L296.57 110.178L296 111ZM3.66667 138C3.66667 140.946 6.05448 143.333 9 143.333C11.9455 143.333 14.3333 140.946 14.3333 138C14.3333 135.054 11.9455 132.667 9 132.667C6.05448 132.667 3.66667 135.054 3.66667 138ZM2.66667 271C2.66667 273.946 5.05448 276.333 8 276.333C10.9455 276.333 13.3333 273.946 13.3333 271C13.3333 268.054 10.9455 265.667 8 265.667C5.05448 265.667 2.66667 268.054 2.66667 271ZM295 111L295.946 111.325L294.272 110.314L295 111ZM2.66667 305C2.66667 307.946 5.05448 310.333 8 310.333C10.9455 310.333 13.3333 307.946 13.3333 305C13.3333 302.054 10.9455 299.667 8 299.667C5.05448 299.667 2.66667 302.054 2.66667 305ZM2.66667 520C2.66667 522.946 5.05448 525.333 8 525.333C10.9455 525.333 13.3333 522.946 13.3333 520C13.3333 517.054 10.9455 514.667 8 514.667C5.05448 514.667 2.66667 517.054 2.66667 520ZM1.66667 550C1.66667 552.946 4.05448 555.333 7 555.333C9.94552 555.333 12.3333 552.946 12.3333 550C12.3333 547.054 9.94552 544.667 7 544.667C4.05448 544.667 1.66667 547.054 1.66667 550ZM1.66667 617C1.66667 619.946 4.05448 622.333 7 622.333C9.94552 622.333 12.3333 619.946 12.3333 617C12.3333 614.054 9.94552 611.667 7 611.667C4.05448 611.667 1.66667 614.054 1.66667 617ZM0.666667 719C0.666667 721.946 3.05448 724.333 6 724.333C8.94552 724.333 11.3333 721.946 11.3333 719C11.3333 716.054 8.94552 713.667 6 713.667C3.05448 713.667 0.666667 716.054 0.666667 719ZM0.666667 817C0.666667 819.946 3.05448 822.333 6 822.333C8.94552 822.333 11.3333 819.946 11.3333 817C11.3333 814.054 8.94552 811.667 6 811.667C3.05448 811.667 0.666667 814.054 0.666667 817ZM0.666667 1018C0.666667 1020.95 3.05448 1023.33 6 1023.33C8.94552 1023.33 11.3333 1020.95 11.3333 1018C11.3333 1015.05 8.94552 1012.67 6 1012.67C3.05448 1012.67 0.666667 1015.05 0.666667 1018ZM9 7H93.4957V5H9V7ZM93.4957 7C105.991 7 124.836 13.4675 146.217 23.3145C167.545 33.1376 191.232 46.2431 213.347 59.3601C235.458 72.4751 255.981 85.5914 270.976 95.4299C278.474 100.349 284.588 104.448 288.828 107.317C290.948 108.751 292.6 109.878 293.72 110.646C294.281 111.03 294.709 111.324 294.996 111.522C295.14 111.621 295.249 111.696 295.321 111.747C295.358 111.772 295.385 111.791 295.403 111.803C295.412 111.81 295.419 111.814 295.424 111.817C295.426 111.819 295.428 111.82 295.429 111.821C295.43 111.822 295.43 111.822 296 111C296.57 110.178 296.569 110.178 296.568 110.177C296.566 110.176 296.565 110.175 296.562 110.173C296.558 110.17 296.551 110.165 296.541 110.159C296.523 110.146 296.495 110.127 296.458 110.101C296.385 110.05 296.276 109.975 296.131 109.875C295.842 109.676 295.413 109.381 294.851 108.996C293.727 108.226 292.073 107.097 289.949 105.66C285.702 102.787 279.58 98.6824 272.073 93.7576C257.061 83.9086 236.512 70.7749 214.367 57.6399C192.226 44.5069 168.472 31.3624 147.053 21.498C125.687 11.6575 106.479 5 93.4957 5V7ZM9 139H93.5799V137H9V139ZM93.5799 139C119.175 139 170.111 132.235 214.568 125.489C236.814 122.113 257.465 118.737 272.554 116.205C280.099 114.939 286.253 113.884 290.522 113.146C292.656 112.776 294.319 112.486 295.448 112.288C296.013 112.189 296.445 112.113 296.735 112.062C296.88 112.037 296.99 112.017 297.063 112.004C297.1 111.998 297.128 111.993 297.146 111.99C297.156 111.988 297.163 111.987 297.167 111.986C297.17 111.986 297.171 111.985 297.173 111.985C297.174 111.985 297.174 111.985 297 111C296.826 110.015 296.825 110.015 296.824 110.016C296.823 110.016 296.821 110.016 296.819 110.017C296.814 110.017 296.807 110.019 296.798 110.02C296.78 110.023 296.752 110.028 296.715 110.035C296.642 110.048 296.533 110.067 296.388 110.093C296.098 110.144 295.667 110.219 295.103 110.318C293.975 110.516 292.314 110.806 290.181 111.175C285.915 111.913 279.764 112.967 272.223 114.233C257.141 116.763 236.501 120.137 214.268 123.511C169.768 130.265 118.994 137 93.5799 137V139ZM8 272H93.0635V270H8V272ZM93.0635 272C99.6769 272 107.786 269.421 116.844 265.025C125.924 260.617 136.056 254.335 146.743 246.818C168.118 231.783 191.799 211.752 213.861 191.741C235.926 171.726 256.392 151.713 271.34 136.706C278.814 129.202 284.91 122.948 289.138 118.57C291.252 116.381 292.898 114.66 294.017 113.487C294.576 112.9 295.004 112.45 295.291 112.147C295.435 111.995 295.544 111.88 295.617 111.803C295.654 111.764 295.681 111.735 295.7 111.716C295.709 111.706 295.716 111.698 295.72 111.694C295.723 111.691 295.725 111.689 295.726 111.688C295.727 111.687 295.728 111.686 295 111C294.272 110.314 294.272 110.315 294.271 110.316C294.27 110.317 294.268 110.319 294.266 110.321C294.261 110.326 294.254 110.333 294.245 110.343C294.227 110.362 294.2 110.391 294.164 110.429C294.091 110.506 293.983 110.62 293.84 110.771C293.554 111.073 293.128 111.522 292.57 112.107C291.454 113.277 289.81 114.994 287.699 117.18C283.477 121.552 277.389 127.798 269.923 135.294C254.99 150.287 234.55 170.274 212.517 190.259C190.48 210.248 166.869 230.217 145.592 245.182C134.953 252.665 124.918 258.883 115.971 263.225C107.002 267.579 99.2214 270 93.0635 270V272ZM8 306H93.3147V304H8V306ZM93.3147 306C99.9677 306 108.094 302.854 117.137 297.526C126.21 292.18 136.33 284.561 147.002 275.448C168.349 257.22 191.998 232.934 214.031 208.672C236.068 184.406 256.506 160.142 271.435 141.947C278.899 132.849 284.987 125.266 289.209 119.958C291.32 117.304 292.965 115.219 294.082 113.796C294.641 113.085 295.067 112.54 295.354 112.172C295.498 111.988 295.607 111.849 295.68 111.755C295.716 111.708 295.744 111.673 295.762 111.649C295.771 111.637 295.778 111.628 295.783 111.622C295.785 111.619 295.787 111.617 295.788 111.616C295.789 111.614 295.79 111.613 295 111C294.21 110.387 294.21 110.387 294.209 110.389C294.207 110.39 294.206 110.392 294.204 110.395C294.199 110.401 294.192 110.41 294.183 110.421C294.165 110.445 294.138 110.48 294.102 110.526C294.029 110.619 293.921 110.758 293.778 110.941C293.492 111.307 293.066 111.851 292.509 112.561C291.394 113.98 289.752 116.063 287.644 118.713C283.427 124.015 277.346 131.589 269.889 140.678C254.973 158.858 234.557 183.094 212.55 207.328C190.539 231.566 166.956 255.78 145.703 273.927C135.076 283.002 125.055 290.539 116.122 295.803C107.16 301.083 99.4171 304 93.3147 304V306ZM8 521H93.5652V519H8V521ZM93.5652 521C97.0742 521 100.864 519.241 104.836 516.176C108.825 513.098 113.111 508.615 117.632 502.965C126.676 491.66 136.767 475.548 147.413 456.265C168.711 417.689 192.313 366.277 214.311 314.894C236.312 263.504 256.719 212.117 271.624 173.579C279.078 154.31 285.156 138.252 289.371 127.011C291.479 121.391 293.12 116.974 294.235 113.963C294.793 112.457 295.219 111.303 295.505 110.524C295.648 110.135 295.757 109.84 295.829 109.643C295.866 109.544 295.893 109.469 295.911 109.419C295.921 109.394 295.927 109.375 295.932 109.363C295.934 109.356 295.936 109.352 295.937 109.349C295.938 109.345 295.939 109.344 295 109C294.061 108.656 294.06 108.658 294.059 108.661C294.058 108.664 294.056 108.669 294.054 108.675C294.05 108.687 294.043 108.706 294.034 108.731C294.015 108.78 293.988 108.855 293.952 108.953C293.88 109.151 293.771 109.445 293.628 109.834C293.342 110.611 292.917 111.764 292.36 113.269C291.246 116.278 289.605 120.691 287.498 126.309C283.285 137.545 277.209 153.596 269.759 172.858C254.858 211.383 234.461 262.746 212.473 314.106C190.482 365.473 166.911 416.811 145.662 455.298C135.035 474.546 125.009 490.543 116.07 501.715C111.6 507.303 107.427 511.65 103.614 514.593C99.7835 517.548 96.426 519 93.5652 519V521ZM7 551H93.1141V549H7V551ZM93.1141 551C96.6511 551 100.457 549.112 104.433 545.842C108.43 542.556 112.723 537.77 117.252 531.737C126.313 519.667 136.424 502.461 147.093 481.866C168.436 440.667 192.09 385.756 214.137 330.873C236.187 275.984 256.638 221.097 271.577 179.935C279.047 159.353 285.139 142.202 289.363 130.195C291.476 124.192 293.121 119.475 294.238 116.258C294.797 114.65 295.224 113.417 295.511 112.586C295.655 112.17 295.763 111.855 295.836 111.644C295.872 111.538 295.9 111.459 295.918 111.405C295.927 111.379 295.934 111.359 295.939 111.345C295.941 111.338 295.943 111.333 295.944 111.33C295.945 111.327 295.946 111.325 295 111C294.054 110.675 294.054 110.677 294.053 110.68C294.051 110.683 294.05 110.688 294.047 110.695C294.043 110.708 294.036 110.728 294.027 110.755C294.009 110.808 293.981 110.887 293.945 110.993C293.872 111.203 293.764 111.518 293.621 111.933C293.334 112.763 292.908 113.995 292.349 115.602C291.233 118.816 289.588 123.531 287.477 129.531C283.254 141.533 277.164 158.678 269.697 179.253C254.763 220.403 234.319 275.266 212.281 330.127C190.241 384.994 166.615 439.833 145.317 480.946C134.665 501.508 124.615 518.599 115.653 530.536C111.17 536.507 106.986 541.153 103.163 544.297C99.3184 547.459 95.9613 549 93.1141 549V551ZM7 618H93.5569V616H7V618ZM93.5569 618C97.1469 618 100.975 615.798 104.943 612.044C108.941 608.261 113.237 602.752 117.771 595.804C126.844 581.903 136.973 562.082 147.668 538.348C169.062 490.87 192.781 427.587 214.894 364.33C237.008 301.067 257.524 237.807 272.511 190.364C280.005 166.642 286.116 146.873 290.354 133.035C292.473 126.116 294.124 120.679 295.245 116.972C295.806 115.119 296.234 113.697 296.522 112.739C296.666 112.261 296.775 111.897 296.848 111.654C296.884 111.532 296.912 111.44 296.93 111.379C296.94 111.348 296.946 111.325 296.951 111.31C296.953 111.302 296.955 111.296 296.956 111.292C296.957 111.288 296.958 111.287 296 111C295.042 110.713 295.041 110.715 295.04 110.719C295.039 110.723 295.037 110.729 295.035 110.736C295.03 110.752 295.024 110.775 295.014 110.805C294.996 110.866 294.969 110.958 294.932 111.08C294.859 111.322 294.751 111.685 294.607 112.164C294.319 113.12 293.891 114.541 293.331 116.393C292.21 120.098 290.56 125.533 288.442 132.449C284.205 146.283 278.095 166.046 270.604 189.761C255.621 237.193 235.111 300.433 213.006 363.67C190.898 426.913 167.202 490.13 145.844 537.527C135.164 561.23 125.084 580.94 116.096 594.711C111.6 601.6 107.403 606.962 103.568 610.591C99.7025 614.249 96.3573 616 93.5569 616V618ZM6 720H93V718H6V720ZM93 720C96.6653 720 100.516 717.314 104.463 712.833C108.458 708.298 112.754 701.692 117.293 693.353C126.376 676.666 136.524 652.865 147.243 624.352C168.687 567.316 192.471 491.286 214.65 415.28C236.83 339.269 257.41 263.26 272.444 206.255C279.962 177.752 286.093 154 290.345 137.373C292.471 129.059 294.127 122.527 295.252 118.073C295.814 115.846 296.244 114.138 296.533 112.988C296.677 112.412 296.787 111.976 296.86 111.684C296.896 111.537 296.924 111.427 296.942 111.353C296.952 111.316 296.959 111.289 296.963 111.27C296.966 111.261 296.967 111.254 296.968 111.249C296.97 111.245 296.97 111.242 296 111C295.03 110.758 295.029 110.76 295.028 110.765C295.027 110.769 295.025 110.776 295.023 110.785C295.018 110.804 295.011 110.831 295.002 110.868C294.984 110.942 294.956 111.052 294.92 111.198C294.847 111.49 294.737 111.926 294.593 112.501C294.304 113.651 293.875 115.357 293.313 117.583C292.189 122.036 290.533 128.566 288.407 136.877C284.156 153.5 278.026 177.248 270.511 205.745C255.478 262.74 234.903 338.731 212.73 414.72C190.555 490.714 166.788 566.684 145.371 623.648C134.661 652.135 124.552 675.834 115.537 692.397C111.027 700.683 106.814 707.139 102.963 711.511C99.064 715.936 95.7314 718 93 718V720ZM6 818H93.358V816H6V818ZM93.358 818C95.2495 818 97.1535 817.186 99.0403 815.776C100.93 814.363 102.872 812.302 104.864 809.675C108.847 804.422 113.133 796.764 117.663 787.088C126.729 767.726 136.859 740.1 147.561 706.995C168.968 640.775 192.706 552.499 214.839 464.243C236.973 375.983 257.508 287.725 272.509 221.534C280.009 188.437 286.126 160.857 290.368 141.551C292.489 131.897 294.142 124.312 295.264 119.141C295.825 116.555 296.253 114.572 296.541 113.236C296.686 112.568 296.795 112.062 296.868 111.722C296.904 111.552 296.932 111.424 296.95 111.339C296.959 111.296 296.966 111.264 296.971 111.242C296.973 111.231 296.975 111.223 296.976 111.218C296.977 111.212 296.978 111.21 296 111C295.022 110.79 295.022 110.793 295.021 110.798C295.019 110.804 295.018 110.812 295.015 110.822C295.011 110.844 295.004 110.876 294.995 110.919C294.976 111.004 294.949 111.132 294.912 111.301C294.839 111.641 294.73 112.147 294.586 112.814C294.298 114.15 293.87 116.132 293.309 118.717C292.187 123.887 290.536 131.47 288.415 141.121C284.174 160.424 278.057 188 270.558 221.091C255.559 287.275 235.028 375.517 212.899 463.757C190.768 552.001 167.044 640.225 145.658 706.38C134.963 739.463 124.864 766.993 115.852 786.24C111.343 795.869 107.128 803.379 103.27 808.467C101.341 811.011 99.5279 812.914 97.843 814.174C96.155 815.435 94.6649 816 93.358 816V818ZM6 1019H93.6079V1017H6V1019ZM93.6079 1019C95.5812 1019 97.5138 1017.91 99.3783 1016.12C101.256 1014.31 103.185 1011.68 105.165 1008.32C109.127 1001.6 113.398 991.788 117.918 979.369C126.964 954.519 137.076 919.049 147.764 876.525C169.14 791.467 192.846 678.071 214.952 564.691C237.058 451.308 257.567 337.927 272.548 252.892C280.039 210.375 286.149 174.943 290.385 150.141C292.504 137.74 294.154 127.996 295.275 121.352C295.835 118.031 296.263 115.484 296.551 113.767C296.695 112.909 296.804 112.258 296.876 111.822C296.913 111.604 296.94 111.44 296.959 111.33C296.968 111.275 296.975 111.234 296.979 111.206C296.982 111.192 296.983 111.182 296.985 111.175C296.986 111.168 296.986 111.165 296 111C295.014 110.835 295.013 110.839 295.012 110.846C295.011 110.853 295.009 110.863 295.007 110.877C295.002 110.904 294.995 110.946 294.986 111C294.968 111.11 294.94 111.275 294.904 111.492C294.831 111.928 294.722 112.579 294.578 113.436C294.29 115.152 293.863 117.698 293.302 121.02C292.182 127.662 290.532 137.405 288.414 149.804C284.178 174.604 278.069 210.032 270.579 252.545C255.598 337.573 235.092 450.942 212.989 564.309C190.885 677.679 167.187 791.033 145.824 876.038C135.141 918.545 125.049 953.934 116.039 978.685C111.532 991.067 107.311 1000.74 103.442 1007.31C101.506 1010.59 99.6844 1013.05 97.9922 1014.68C96.2863 1016.32 94.8289 1017 93.6079 1017V1019Z" fill="url(#paint1_linear_513_9771)"/>
<defs>
<linearGradient id="paint0_linear_513_9771" x1="151" y1="111" x2="151" y2="952" gradientUnits="userSpaceOnUse">
<stop stop-color="white" stop-opacity="0.07"/>
<stop offset="1" stop-color="white"/>
</linearGradient>
<linearGradient id="paint1_linear_513_9771" x1="151" y1="111" x2="151" y2="1018" gradientUnits="userSpaceOnUse">
<stop stop-color="white" stop-opacity="0.07"/>
<stop offset="1" stop-color="white"/>
</linearGradient>
</defs>
</svg>
