<svg width="59" height="78" viewBox="0 0 59 78" fill="none" xmlns="http://www.w3.org/2000/svg">
<path d="M13.6181 17.6386C13.673 17.8463 13.7217 18.0997 13.7644 18.3989C13.8071 18.698 13.8284 18.9849 13.8284 19.2594C13.8285 19.6817 13.7553 20.0231 13.609 20.2835C13.4627 20.544 13.2799 20.7622 13.0604 20.9382C12.841 21.1071 12.6033 21.2549 12.3473 21.3816C12.0912 21.5083 11.8535 21.6491 11.6341 21.8039C11.4146 21.9588 11.2318 22.1488 11.0855 22.374C10.9392 22.5993 10.866 22.8984 10.8661 23.2715C10.8661 23.5672 10.9148 23.8558 11.0124 24.1373C11.1099 24.4259 11.241 24.6952 11.4056 24.9451C11.5702 25.1949 11.7622 25.422 11.9816 25.6261C12.2011 25.8302 12.4327 26.0027 12.6766 26.1435C13.7494 26.7629 14.6821 26.8369 15.4745 26.3653L15.4746 28.8149C14.4932 28.9099 13.4752 28.6529 12.4206 28.044C11.9147 27.7519 11.4392 27.3999 10.9942 26.9881C10.5553 26.5869 10.1682 26.1416 9.8329 25.6524C9.50372 25.1667 9.24158 24.6458 9.0465 24.0897C8.85142 23.5337 8.75387 22.9635 8.75385 22.3793C8.75384 21.8654 8.83307 21.4536 8.99155 21.1439C9.15003 20.8272 9.34813 20.5685 9.58586 20.3679C9.82968 20.1638 10.0918 19.9984 10.3722 19.8717C10.6526 19.7379 10.9117 19.5954 11.1494 19.4441C11.3932 19.2963 11.5944 19.1132 11.7528 18.895C11.9113 18.6698 11.9906 18.3671 11.9905 17.987C11.9905 17.7195 11.9601 17.4591 11.8991 17.2057C11.8442 16.9558 11.7893 16.7376 11.7345 16.5511L13.6181 17.6386ZM12.5664 12.5336C12.9139 12.7342 13.2248 13.051 13.4991 13.4839C13.7612 13.9027 13.8923 14.3162 13.8923 14.7245C13.8923 15.1187 13.7613 15.3774 13.4992 15.5005C13.237 15.6308 12.9262 15.592 12.5665 15.3844C12.213 15.1802 11.9082 14.8635 11.6521 14.4341C11.39 14.0082 11.2589 13.5982 11.2589 13.204C11.2589 12.7957 11.3899 12.5335 11.6521 12.4174C11.9142 12.2942 12.219 12.333 12.5664 12.5336ZM22.9584 29.8418C22.0136 29.2962 21.1571 28.6152 20.389 27.7986C19.6209 26.9821 18.9656 26.0828 18.423 25.1009C17.8805 24.1119 17.4598 23.063 17.1611 21.9544C16.8624 20.8457 16.713 19.7248 16.713 18.5915C16.7129 17.3808 16.8622 16.3689 17.1609 15.5559C17.4657 14.7465 17.8954 14.1534 18.4501 13.7769C19.0109 13.4038 19.6906 13.2578 20.4891 13.3388C21.2877 13.4197 22.1807 13.7453 23.1682 14.3155C24.0826 14.8435 24.9177 15.5122 25.6736 16.3217C26.4295 17.1312 27.0757 18.0287 27.6122 19.0142C28.1486 19.9926 28.5631 21.0344 28.8558 22.1395C29.1545 23.2482 29.3039 24.3656 29.3039 25.4919C29.304 26.9841 29.0876 28.1685 28.6548 29.0448C28.2221 29.9141 27.6125 30.4631 26.8262 30.6919L30.6301 36.0557L27.32 34.1445L24.9792 30.6918C24.6683 30.6108 24.3452 30.5017 24.0099 30.3645C23.6747 30.2272 23.3242 30.053 22.9584 29.8418ZM23.0586 16.4589C22.4612 16.114 21.9125 15.9344 21.4127 15.9203C20.9189 15.9027 20.4922 16.04 20.1326 16.3321C19.773 16.6172 19.4926 17.0465 19.2914 17.6202C19.0964 18.1974 18.9989 18.9083 18.9989 19.753C18.9989 20.5906 19.0934 21.4089 19.2824 22.2079C19.4775 23.0103 19.7488 23.7582 20.0963 24.4516C20.4438 25.1379 20.8613 25.7591 21.349 26.3152C21.8367 26.8642 22.3762 27.3095 22.9675 27.6509C23.5954 28.0134 24.1592 28.2123 24.6591 28.2475C25.1589 28.2827 25.5826 28.1648 25.93 27.8938C26.2836 27.6193 26.5548 27.1917 26.7438 26.611C26.9327 26.0303 27.0272 25.3 27.0271 24.4201C27.0271 23.5191 26.9356 22.6639 26.7527 21.8544C26.5698 21.0449 26.3077 20.3023 25.9663 19.6265C25.6249 18.9437 25.2074 18.3331 24.7136 17.7946C24.2259 17.2596 23.6742 16.8144 23.0586 16.4589ZM39.4306 39.0993L37.3093 37.8745L37.3092 36.164L37.2726 36.1429C36.657 37.0966 35.7 37.1987 34.4016 36.449C32.1888 35.1713 31.0823 32.998 31.0822 29.929L31.082 23.4672L33.2034 24.692L33.2036 30.9004C33.2036 32.8432 33.8529 34.1894 35.1513 34.9391C35.7792 35.3017 36.2943 35.3316 36.6966 35.0289C37.105 34.7298 37.3092 34.1473 37.3091 33.2815L37.3089 27.0626L39.4303 28.2874L39.4306 39.0993ZM49.9227 40.4167L43.5403 36.7316C43.5648 37.7452 43.83 38.6691 44.3359 39.5032C44.848 40.3409 45.549 41.0166 46.439 41.5305C47.4387 42.1077 48.3562 42.2925 49.1913 42.0849L49.1913 44.0593C48.3379 44.186 47.2102 43.8446 45.8082 43.0351C44.4305 42.2396 43.3485 41.1257 42.5621 39.6932C41.7818 38.2572 41.3916 36.6488 41.3915 34.8679C41.3915 33.1856 41.8212 32.0647 42.6807 31.5051C43.5463 30.942 44.6191 31.03 45.8992 31.7691C47.1794 32.5083 48.17 33.5554 48.871 34.9104C49.5721 36.2654 49.9226 37.7876 49.9227 39.477L49.9227 40.4167ZM47.8744 37.5025C47.8683 36.6191 47.6885 35.8325 47.3349 35.1426C46.9813 34.4458 46.4936 33.9178 45.8719 33.5588C45.2623 33.2068 44.7441 33.1646 44.3175 33.4321C43.8969 33.703 43.6378 34.2257 43.5403 35L47.8744 37.5025ZM48.505 28.0157L45.89 29.9689L44.3173 29.0608L46.53 26.8753L48.505 28.0157ZM4.79112 46.3516C3.34641 45.5175 2.19123 44.3472 1.32559 42.8408C0.466044 41.3309 0.0362444 39.7419 0.0361913 38.0736C0.0361335 36.2575 0.484133 35.0979 1.38019 34.5946C2.28234 34.0949 3.4954 34.285 5.01936 35.1649C6.48236 36.0096 7.6223 37.1641 8.43917 38.6282C9.25605 40.0923 9.66451 41.7043 9.66457 43.464C9.66462 45.1886 9.22272 46.3166 8.33885 46.848C7.46109 47.3759 6.27851 47.2104 4.79112 46.3516ZM4.89141 37.0443C4.06237 36.5656 3.40708 36.5216 2.92553 36.9123C2.44398 37.3029 2.20322 38.086 2.20326 39.2615C2.2033 40.3948 2.44716 41.4295 2.93485 42.3657C3.42253 43.2949 4.0748 43.9953 4.89164 44.4669C5.72677 44.9491 6.36683 44.9984 6.8118 44.6148C7.26287 44.2347 7.48839 43.4534 7.48835 42.2708C7.48832 41.0813 7.26274 40.0324 6.81163 39.1244C6.36661 38.2199 5.72654 37.5265 4.89141 37.0443ZM18.3282 53.4182C17.5784 53.485 16.6915 53.2228 15.6674 52.6315C14.2775 51.829 13.1559 50.6816 12.3024 49.1893C11.449 47.69 11.0222 46.1414 11.0222 44.5435C11.0221 42.7627 11.4793 41.5977 12.3936 41.0487C13.314 40.4962 14.5423 40.6634 16.0785 41.5504C16.9319 42.0431 17.6847 42.6503 18.337 43.3718L18.3371 45.6524C17.6848 44.7127 16.9899 44.0299 16.2523 43.604C15.3562 43.0866 14.6216 43.0144 14.0487 43.3875C13.4757 43.7535 13.1892 44.5031 13.1892 45.6364C13.1893 46.7556 13.4575 47.7939 13.994 48.7512C14.5365 49.712 15.2619 50.4547 16.1702 50.9791C16.9322 51.4191 17.6515 51.5212 18.3281 51.2854L18.3282 53.4182ZM28.3998 59.7297L26.2784 58.5048L26.2784 56.7944L26.2418 56.7733C25.6262 57.727 24.6691 57.8291 23.3707 57.0794C21.1579 55.8017 20.0515 53.6284 20.0514 50.5594L20.0512 44.0976L22.1725 45.3224L22.1727 51.5308C22.1728 53.4736 22.822 54.8198 24.1205 55.5695C24.7483 55.932 25.2634 55.962 25.6657 55.6593C26.0741 55.3602 26.2783 54.7777 26.2783 53.9119L26.2781 47.6929L28.3995 48.9178L28.3998 59.7297ZM36.3955 55.868C36.1395 55.4879 35.7707 55.1588 35.2891 54.8808C34.6612 54.5183 34.137 54.5429 33.7164 54.9546C33.2958 55.3664 33.0855 56.1354 33.0856 57.2617L33.0857 62.4353L30.9644 61.2105L30.964 50.3986L33.0854 51.6234L33.0854 53.8513L33.122 53.8724C33.3293 53.2318 33.6462 52.8236 34.0729 52.6476C34.5057 52.4681 34.9873 52.5315 35.5176 52.8377C35.9016 53.0595 36.1943 53.2953 36.3954 53.5452L36.3955 55.868ZM43.1205 59.751C42.8644 59.3709 42.4956 59.0418 42.0141 58.7637C41.3862 58.4012 40.862 58.4258 40.4414 58.8376C40.0208 59.2494 39.8105 60.0184 39.8105 61.1446L39.8107 66.3183L37.6893 65.0934L37.689 54.2815L39.8104 55.5064L39.8104 57.7342L39.847 57.7553C40.0542 57.1148 40.3712 56.7065 40.7979 56.5306C41.2307 56.3511 41.7123 56.4145 42.2426 56.7207C42.6266 56.9424 42.9192 57.1782 43.1204 57.4281L43.1205 59.751ZM45.4837 56.5121C45.1363 56.3115 44.8376 56.0088 44.5876 55.604C44.3438 55.2028 44.2219 54.8016 44.2218 54.4004C44.2218 53.9991 44.3437 53.7352 44.5876 53.6085C44.8375 53.4853 45.1362 53.524 45.4836 53.7247C45.8433 53.9323 46.1481 54.242 46.398 54.6538C46.648 55.0656 46.7729 55.4721 46.773 55.8733C46.773 56.2535 46.648 56.5086 46.3981 56.6388C46.1482 56.762 45.8434 56.7198 45.4837 56.5121ZM46.5357 70.2012L44.4143 68.9764L44.414 58.1645L46.5353 59.3893L46.5357 70.2012ZM53.2607 74.3376C51.816 73.5034 50.6608 72.3331 49.7951 70.8268C48.9356 69.3169 48.5058 67.7278 48.5057 66.0596C48.5057 64.2435 48.9537 63.0838 49.8497 62.5806C50.7519 62.0808 51.9649 62.2709 53.4889 63.1509C54.9519 63.9956 56.0918 65.15 56.9087 66.6142C57.7256 68.0783 58.1341 69.6902 58.1341 71.45C58.1342 73.1745 57.6923 74.3025 56.8084 74.8339C55.9306 75.3618 54.7481 75.1964 53.2607 74.3376ZM53.361 65.0303C52.5319 64.5516 51.8766 64.5076 51.3951 64.8982C50.9135 65.2889 50.6728 66.072 50.6728 67.2475C50.6728 68.3807 50.9167 69.4155 51.4044 70.3517C51.8921 71.2809 52.5443 71.9813 53.3612 72.4529C54.1963 72.9351 54.8364 72.9844 55.2813 72.6008C55.7324 72.2207 55.9579 71.4394 55.9579 70.2568C55.9579 69.0672 55.7323 68.0184 55.2812 67.1104C54.8362 66.2058 54.1961 65.5125 53.361 65.0303ZM56.0673 59.3816L53.4523 61.3348L51.8795 60.4267L54.0922 58.2412L56.0673 59.3816Z" fill="white"/>
</svg>
