<svg width="72" height="86" viewBox="0 0 72 86" fill="none" xmlns="http://www.w3.org/2000/svg">
<path d="M5.64484 12.8107C5.69971 13.0184 5.74848 13.2718 5.79116 13.5709C5.83384 13.8701 5.85518 14.1569 5.85519 14.4315C5.8552 14.8538 5.78207 15.1952 5.63578 15.4556C5.48949 15.7161 5.30662 15.9343 5.08718 16.1102C4.86774 16.2792 4.63001 16.427 4.374 16.5537C4.11798 16.6804 3.88025 16.8211 3.66081 16.976C3.44137 17.1308 3.2585 17.3209 3.11221 17.5461C2.96592 17.7714 2.89278 18.0705 2.89279 18.4436C2.8928 18.7392 2.94158 19.0278 3.03912 19.3094C3.13666 19.598 3.26773 19.8672 3.43232 20.1171C3.59691 20.367 3.78894 20.594 4.00839 20.7982C4.22784 21.0023 4.45948 21.1748 4.70332 21.3156C5.77619 21.935 6.70883 22.009 7.50126 21.5374L7.50134 23.987C6.51993 24.082 5.50194 23.825 4.44736 23.2161C3.9414 22.924 3.46592 22.572 3.02092 22.1602C2.58202 21.759 2.19493 21.3137 1.85964 20.8245C1.53046 20.3388 1.26833 19.8179 1.07325 19.2618C0.878165 18.7057 0.780615 18.1356 0.780596 17.5513C0.78058 17.0375 0.859811 16.6257 1.01829 16.316C1.17677 15.9992 1.37487 15.7406 1.6126 15.54C1.85642 15.3358 2.11853 15.1704 2.39893 15.0437C2.67933 14.91 2.9384 14.7675 3.17612 14.6161C3.41995 14.4683 3.6211 14.2853 3.77958 14.0671C3.93807 13.8419 4.0173 13.5392 4.01729 13.1591C4.01728 12.8916 3.98679 12.6312 3.92583 12.3778C3.87096 12.1279 3.81609 11.9097 3.76122 11.7231L5.64484 12.8107ZM4.59316 7.70566C4.94062 7.90628 5.25152 8.22304 5.52584 8.65595C5.78797 9.07478 5.91904 9.48832 5.91905 9.89659C5.91906 10.2908 5.78801 10.5494 5.5259 10.6726C5.26379 10.8028 4.95291 10.7641 4.59325 10.5565C4.23969 10.3523 3.9349 10.0355 3.67886 9.60616C3.41673 9.18029 3.28566 8.77026 3.28565 8.37608C3.28564 7.96782 3.41669 7.70562 3.6788 7.58948C3.94091 7.46631 4.2457 7.50503 4.59316 7.70566ZM11.7481 17.4011L11.7483 22.8915L9.58118 21.6402L9.5807 6.49936L13.5582 8.79596C15.0639 9.66532 16.2313 10.7441 17.0603 12.0323C17.8894 13.3204 18.3039 14.7001 18.304 16.1712C18.304 17.6424 17.8713 18.5961 17.0057 19.0325C16.1401 19.4689 14.9697 19.2612 13.4945 18.4095L11.7481 17.4011ZM11.7478 9.82008L11.748 15.3527L13.1561 16.1658C14.0888 16.7043 14.799 16.8645 15.2866 16.6463C15.7743 16.4281 16.0181 15.865 16.0181 14.9569C16.018 13.1761 15.1219 11.7682 13.3297 10.7334L11.7478 9.82008ZM23.6029 29.9897C22.1582 29.1555 21.003 27.9852 20.1374 26.4789C19.2778 24.969 18.848 23.3799 18.848 21.7117C18.8479 19.8956 19.2959 18.7359 20.192 18.2327C21.0941 17.7329 22.3072 17.923 23.8311 18.803C25.2941 19.6477 26.4341 20.8021 27.2509 22.2663C28.0678 23.7304 28.4763 25.3423 28.4763 27.1021C28.4764 28.8266 28.0345 29.9546 27.1506 30.486C26.2729 31.0139 25.0903 30.8485 23.6029 29.9897ZM23.7032 20.6824C22.8741 20.2037 22.2188 20.1597 21.7373 20.5503C21.2557 20.941 21.015 21.7241 21.015 22.8996C21.0151 24.0328 21.2589 25.0676 21.7466 26.0038C22.2343 26.933 22.8866 27.6334 23.7034 28.105C24.5385 28.5872 25.1786 28.6365 25.6236 28.2529C26.0746 27.8728 26.3002 27.0915 26.3001 25.9089C26.3001 24.7193 26.0745 23.6705 25.6234 22.7625C25.1784 21.8579 24.5383 21.1646 23.7032 20.6824ZM35.8687 28.3402C35.6127 27.96 35.2439 27.631 34.7623 27.3529C34.1344 26.9904 33.6102 27.015 33.1896 27.4268C32.769 27.8385 32.5587 28.6075 32.5588 29.7338L32.5589 34.9074L30.4376 33.6826L30.4372 22.8707L32.5586 24.0955L32.5587 26.3234L32.5952 26.3445C32.8025 25.704 33.1194 25.2957 33.5461 25.1197C33.9789 24.9403 34.4605 25.0036 34.9908 25.3098C35.3749 25.5316 35.6675 25.7674 35.8686 26.0173L35.8687 28.3402ZM50.6267 50.3126L48.5053 49.0877L48.5051 42.2564L48.4685 42.2352C47.8285 43.2735 46.7831 43.3738 45.3323 42.5361C44.1802 41.8708 43.2536 40.8537 42.5525 39.4846C41.8576 38.1119 41.5101 36.5915 41.51 34.9233C41.5099 33.1283 41.8909 31.9159 42.6528 31.2859C43.4209 30.6524 44.4511 30.7088 45.7434 31.4549C46.9991 32.18 47.9074 33.2887 48.4683 34.7809L48.5049 34.8021L48.5048 33.3028L50.6262 34.5276L50.6267 50.3126ZM48.5324 39.2102L48.5324 37.8165C48.5324 37.0352 48.3129 36.2468 47.874 35.4514C47.4411 34.6595 46.8895 34.07 46.2189 33.6828C45.4326 33.2288 44.8108 33.2111 44.3536 33.6299C43.9026 34.0452 43.677 34.8723 43.6771 36.1112C43.6771 37.2092 43.8966 38.1982 44.3355 39.0781C44.7744 39.958 45.3414 40.5986 46.0363 40.9998C46.7983 41.4398 47.4048 41.4838 47.8559 41.1319C48.3069 40.7799 48.5325 40.1394 48.5324 39.2102ZM61.3564 51.5349L59.2351 50.3101L59.235 48.5996L59.1985 48.5785C58.5828 49.5322 57.6258 49.6343 56.3274 48.8846C54.1146 47.6069 53.0082 45.4336 53.0081 42.3646L53.0079 35.9028L55.1292 37.1276L55.1294 43.336C55.1295 45.2788 55.7787 46.625 57.0771 47.3747C57.705 47.7373 58.2201 47.7672 58.6224 47.4645C59.0308 47.1654 59.235 46.5829 59.235 45.7171L59.2348 39.4982L61.3561 40.723L61.3564 51.5349ZM71.8485 52.8523L65.4662 49.1672C65.4906 50.1808 65.7558 51.1046 66.2617 51.9388C66.7738 52.7764 67.4748 53.4522 68.3648 53.9661C69.3646 54.5433 70.282 54.7281 71.1171 54.5205L71.1171 56.4949C70.2637 56.6216 69.136 56.2802 67.734 55.4706C66.3563 54.6752 65.2743 53.5612 64.4879 52.1288C63.7076 50.6928 63.3174 49.0844 63.3174 47.3035C63.3173 45.6212 63.747 44.5002 64.6065 43.9407C65.4721 43.3776 66.5449 43.4656 67.8251 44.2047C69.1052 44.9439 70.0958 45.991 70.7968 47.346C71.4979 48.701 71.8484 50.2232 71.8485 51.9126L71.8485 52.8523ZM69.8003 49.9381C69.7941 49.0547 69.6143 48.2681 69.2607 47.5782C68.9071 46.8813 68.4195 46.3534 67.7977 45.9944C67.1881 45.6424 66.67 45.6002 66.2433 45.8676C65.8227 46.1386 65.5636 46.6613 65.4661 47.4356L69.8003 49.9381ZM70.4309 40.4513L67.8159 42.4045L66.2431 41.4964L68.4558 39.3109L70.4309 40.4513ZM7.71002 48.8127C6.26531 47.9786 5.11013 46.8083 4.24449 45.3019C3.38494 43.792 2.95514 42.203 2.95509 40.5347C2.95503 38.7187 3.40303 37.559 4.29909 37.0557C5.20124 36.556 6.4143 36.7461 7.93826 37.626C9.40126 38.4707 10.5412 39.6252 11.3581 41.0893C12.1749 42.5535 12.5834 44.1654 12.5835 45.9251C12.5835 47.6497 12.1416 48.7777 11.2578 49.3091C10.38 49.837 9.19741 49.6715 7.71002 48.8127ZM7.81031 39.5054C6.98127 39.0267 6.32598 38.9827 5.84443 39.3734C5.36288 39.764 5.12212 40.5471 5.12216 41.7226C5.1222 42.8559 5.36606 43.8906 5.85375 44.8268C6.34144 45.756 6.9937 46.4564 7.81054 46.9281C8.64567 47.4102 9.28573 47.4595 9.7307 47.0759C10.1818 46.6958 10.4073 45.9145 10.4073 44.732C10.4072 43.5424 10.1816 42.4936 9.73053 41.5855C9.28551 40.681 8.64544 39.9876 7.81031 39.5054ZM21.2471 55.8793C20.4973 55.9461 19.6104 55.6839 18.5863 55.0926C17.1964 54.2901 16.0748 53.1427 15.2213 51.6504C14.3679 50.1511 13.9411 48.6025 13.9411 47.0046C13.941 45.2238 14.3982 44.0588 15.3125 43.5098C16.2329 42.9573 17.4612 43.1245 18.9974 44.0115C19.8508 44.5042 20.6036 45.1114 21.2559 45.8329L21.256 48.1135C20.6037 47.1738 19.9088 46.491 19.1712 46.0651C18.2751 45.5477 17.5405 45.4755 16.9676 45.8486C16.3946 46.2146 16.1081 46.9642 16.1081 48.0975C16.1082 49.2167 16.3764 50.255 16.9129 51.2123C17.4554 52.1731 18.1808 52.9158 19.0891 53.4402C19.8511 53.8802 20.5704 53.9823 21.247 53.7465L21.2471 55.8793ZM31.3187 62.1908L29.1973 60.966L29.1973 59.2555L29.1607 59.2344C28.5451 60.1881 27.588 60.2902 26.2896 59.5405C24.0768 58.2628 22.9704 56.0895 22.9703 53.0205L22.9701 46.5587L25.0915 47.7835L25.0916 53.9919C25.0917 55.9347 25.7409 57.2809 27.0394 58.0306C27.6672 58.3932 28.1823 58.4231 28.5846 58.1204C28.993 57.8213 29.1972 57.2388 29.1972 56.373L29.197 50.1541L31.3184 51.3789L31.3187 62.1908ZM39.3144 58.3292C39.0584 57.949 38.6896 57.62 38.208 57.3419C37.5801 56.9794 37.0559 57.004 36.6353 57.4158C36.2147 57.8275 36.0044 58.5965 36.0045 59.7228L36.0046 64.8964L33.8833 63.6716L33.8829 52.8597L36.0043 54.0845L36.0043 56.3124L36.0409 56.3335C36.2482 55.6929 36.5651 55.2847 36.9918 55.1087C37.4246 54.9293 37.9062 54.9926 38.4365 55.2988C38.8205 55.5206 39.1132 55.7564 39.3143 56.0063L39.3144 58.3292ZM46.0394 62.2121C45.7833 61.832 45.4145 61.5029 44.933 61.2249C44.3051 60.8623 43.7809 60.8869 43.3603 61.2987C42.9397 61.7105 42.7294 62.4795 42.7294 63.6057L42.7296 68.7794L40.6082 67.5545L40.6079 56.7426L42.7293 57.9675L42.7293 60.1953L42.7659 60.2164C42.9731 59.5759 43.2901 59.1677 43.7168 58.9917C44.1496 58.8122 44.6312 58.8756 45.1615 59.1818C45.5455 59.4035 45.8381 59.6393 46.0393 59.8892L46.0394 62.2121ZM48.4026 58.9732C48.0552 58.7726 47.7565 58.4699 47.5065 58.0652C47.2627 57.6639 47.1408 57.2627 47.1407 56.8615C47.1407 56.4603 47.2626 56.1963 47.5065 56.0696C47.7564 55.9464 48.0551 55.9851 48.4025 56.1858C48.7622 56.3934 49.067 56.7032 49.3169 57.1149C49.5669 57.5267 49.6918 57.9332 49.6919 58.3345C49.6919 58.7146 49.5669 58.9697 49.317 59.0999C49.0671 59.2231 48.7623 59.1809 48.4026 58.9732ZM49.4546 72.6623L47.3332 71.4375L47.3329 60.6256L49.4542 61.8504L49.4546 72.6623ZM56.1796 76.7987C54.7349 75.9645 53.5797 74.7943 52.714 73.2879C51.8545 71.778 51.4247 70.1889 51.4246 68.5207C51.4246 66.7046 51.8726 65.545 52.7686 65.0417C53.6708 64.542 54.8838 64.7321 56.4078 65.612C57.8708 66.4567 59.0107 67.6111 59.8276 69.0753C60.6445 70.5394 61.053 72.1514 61.053 73.9111C61.0531 75.6357 60.6112 76.7636 59.7273 77.2951C58.8495 77.823 57.667 77.6575 56.1796 76.7987ZM56.2799 67.4914C55.4508 67.0127 54.7955 66.9687 54.314 67.3593C53.8324 67.75 53.5917 68.5331 53.5917 69.7086C53.5917 70.8419 53.8356 71.8766 54.3233 72.8128C54.811 73.742 55.4632 74.4424 56.2801 74.914C57.1152 75.3962 57.7553 75.4455 58.2002 75.0619C58.6513 74.6818 58.8768 73.9005 58.8768 72.7179C58.8768 71.5283 58.6512 70.4795 58.2001 69.5715C57.7551 68.6669 57.115 67.9736 56.2799 67.4914ZM58.9862 61.8427L56.3712 63.7959L54.7984 62.8878L57.0111 60.7023L58.9862 61.8427ZM64.404 77.0179C64.3491 76.8103 64.3003 76.5533 64.2577 76.2471C64.215 75.9409 64.1936 75.6506 64.1936 75.3761C64.1936 74.9467 64.2668 74.6018 64.413 74.3413C64.5654 74.0774 64.7513 73.8574 64.9708 73.6814C65.1963 73.509 65.4371 73.3559 65.6931 73.2222C65.9552 73.092 66.196 72.9565 66.4154 72.8157C66.641 72.6784 66.8269 72.5042 66.9732 72.2931C67.1256 72.0854 67.2018 71.8056 67.2017 71.4537C67.2017 71.1369 67.1469 70.8307 67.0371 70.5351C66.9274 70.2324 66.775 69.9473 66.5799 69.6798C66.391 69.4088 66.1715 69.1624 65.9216 68.9407C65.6777 68.7225 65.4156 68.5324 65.1352 68.3705C64.2269 67.8461 63.3613 67.8144 62.5384 68.2754L62.5383 65.8364C63.538 65.7379 64.5743 65.9984 65.6472 66.6178C66.1409 66.9029 66.6073 67.2461 67.0462 67.6473C67.4851 68.0486 67.8691 68.4885 68.1983 68.9672C68.5275 69.4458 68.7866 69.9544 68.9756 70.4929C69.1646 71.0314 69.2591 71.5857 69.2591 72.1559C69.2591 72.6979 69.1799 73.1343 69.0214 73.4651C68.8629 73.7959 68.6618 74.0705 68.4179 74.2887C68.1802 74.5033 67.9211 74.667 67.6407 74.7796C67.3664 74.8957 67.1074 75.0207 66.8636 75.1544C66.6258 75.2917 66.4277 75.4624 66.2692 75.6665C66.1108 75.8706 66.0315 76.1522 66.0315 76.5112C66.0315 76.8138 66.0651 77.1077 66.1321 77.3928C66.1992 77.6779 66.2663 77.9242 66.3333 78.1319L64.404 77.0179ZM65.4465 82.086C65.0991 81.8854 64.7912 81.5704 64.523 81.141C64.267 80.7257 64.1389 80.321 64.1389 79.9268C64.1389 79.5255 64.2669 79.2686 64.5229 79.156C64.785 79.0258 65.0929 79.0628 65.4464 79.2669C65.7939 79.4675 66.0987 79.7843 66.3608 80.2172C66.6169 80.6255 66.7449 81.0302 66.7449 81.4314C66.7449 81.8256 66.6169 82.0825 66.3609 82.2022C66.0927 82.3218 65.7879 82.2831 65.4465 82.086Z" fill="white"/>
</svg>
