<svg width="99" height="101" viewBox="0 0 99 101" fill="none" xmlns="http://www.w3.org/2000/svg">
<path d="M14.2083 17.8944C14.2632 18.1021 14.3119 18.3555 14.3546 18.6546C14.3973 18.9538 14.4186 19.2406 14.4187 19.5151C14.4187 19.9375 14.3455 20.2789 14.1992 20.5393C14.053 20.7998 13.8701 21.018 13.6507 21.1939C13.4312 21.3629 13.1935 21.5107 12.9375 21.6374C12.6814 21.7641 12.4437 21.9048 12.2243 22.0597C12.0048 22.2145 11.822 22.4046 11.6757 22.6298C11.5294 22.8551 11.4563 23.1542 11.4563 23.5273C11.4563 23.8229 11.505 24.1115 11.6026 24.3931C11.7001 24.6817 11.8312 24.9509 11.9958 25.2008C12.1604 25.4507 12.3524 25.6777 12.5719 25.8819C12.7913 26.086 13.023 26.2585 13.2668 26.3993C14.3397 27.0187 15.2723 27.0927 16.0647 26.6211L16.0648 29.0706C15.0834 29.1656 14.0654 28.9087 13.0108 28.2998C12.5049 28.0076 12.0294 27.6557 11.5844 27.2439C11.1455 26.8426 10.7584 26.3974 10.4231 25.9082C10.0939 25.4225 9.83179 24.9016 9.63671 24.3455C9.44163 23.7894 9.34408 23.2193 9.34406 22.635C9.34405 22.1212 9.42328 21.7094 9.58176 21.3997C9.74024 21.0829 9.93834 20.8243 10.1761 20.6237C10.4199 20.4195 10.682 20.2541 10.9624 20.1274C11.2428 19.9937 11.5019 19.8512 11.7396 19.6998C11.9834 19.552 12.1846 19.369 12.3431 19.1508C12.5015 18.9256 12.5808 18.6229 12.5808 18.2428C12.5807 17.9753 12.5503 17.7149 12.4893 17.4615C12.4344 17.2116 12.3796 16.9934 12.3247 16.8068L14.2083 17.8944ZM13.1566 12.7893C13.5041 12.99 13.815 13.3067 14.0893 13.7396C14.3514 14.1585 14.4825 14.572 14.4825 14.9803C14.4825 15.3745 14.3515 15.6331 14.0894 15.7563C13.8273 15.8865 13.5164 15.8478 13.1567 15.6401C12.8032 15.436 12.4984 15.1192 12.2423 14.6898C11.9802 14.264 11.8491 13.854 11.8491 13.4598C11.8491 13.0515 11.9802 12.7893 12.2423 12.6732C12.5044 12.55 12.8092 12.5887 13.1566 12.7893ZM23.5486 30.0975C22.6038 29.552 21.7473 28.8709 20.9792 28.0544C20.2111 27.2378 19.5558 26.3386 19.0132 25.3566C18.4707 24.3676 18.0501 23.3188 17.7513 22.2102C17.4526 21.1015 17.3032 19.9805 17.3032 18.8473C17.3031 17.6366 17.4525 16.6247 17.7511 15.8117C18.0559 15.0022 18.4856 14.4092 19.0403 14.0326C19.6011 13.6596 20.2808 13.5136 21.0793 13.5945C21.8779 13.6755 22.7709 14.0011 23.7584 14.5713C24.6728 15.0992 25.5079 15.768 26.2638 16.5775C27.0197 17.387 27.6659 18.2845 28.2024 19.27C28.7388 20.2484 29.1534 21.2902 29.446 22.3953C29.7447 23.504 29.8941 24.6214 29.8941 25.7476C29.8942 27.2399 29.6778 28.4242 29.2451 29.3006C28.8123 30.1699 28.2027 30.7189 27.4164 30.9476L31.2203 36.3115L27.9102 34.4003L25.5694 30.9476C25.2585 30.8666 24.9354 30.7575 24.6001 30.6202C24.2649 30.483 23.9144 30.3087 23.5486 30.0975ZM23.6488 16.7147C23.0514 16.3697 22.5028 16.1902 22.0029 16.1761C21.5092 16.1585 21.0825 16.2958 20.7228 16.5879C20.3632 16.8729 20.0828 17.3023 19.8816 17.876C19.6866 18.4532 19.5891 19.1641 19.5891 20.0088C19.5891 20.8464 19.6837 21.6647 19.8726 22.4636C20.0677 23.2661 20.339 24.014 20.6865 24.7073C21.034 25.3937 21.4516 26.0149 21.9392 26.571C22.4269 27.12 22.9664 27.5652 23.5577 27.9067C24.1856 28.2692 24.7494 28.4681 25.2493 28.5033C25.7491 28.5385 26.1728 28.4206 26.5202 28.1496C26.8738 27.8751 27.145 27.4475 27.334 26.8668C27.5229 26.2861 27.6174 25.5558 27.6173 24.6759C27.6173 23.7749 27.5259 22.9197 27.343 22.1102C27.1601 21.3007 26.8979 20.5581 26.5565 19.8823C26.2152 19.1995 25.7976 18.5889 25.3038 18.0504C24.8161 17.5154 24.2645 17.0701 23.6488 16.7147ZM40.0208 39.3551L37.8995 38.1302L37.8994 36.4198L37.8629 36.3986C37.2472 37.3524 36.2902 37.4544 34.9918 36.7047C32.779 35.4271 31.6725 33.2538 31.6724 30.1848L31.6722 23.723L33.7936 24.9478L33.7938 31.1562C33.7939 33.099 34.4431 34.4452 35.7415 35.1949C36.3694 35.5574 36.8845 35.5874 37.2868 35.2847C37.6952 34.9856 37.8994 34.4031 37.8993 33.5373L37.8991 27.3183L40.0205 28.5432L40.0208 39.3551ZM50.5129 40.6725L44.1306 36.9873C44.155 38.0009 44.4202 38.9248 44.9261 39.759C45.4382 40.5966 46.1392 41.2724 47.0292 41.7863C48.0289 42.3635 48.9464 42.5483 49.7815 42.3407L49.7815 44.3151C48.9281 44.4418 47.8004 44.1004 46.3984 43.2908C45.0207 42.4954 43.9387 41.3814 43.1523 39.949C42.372 38.513 41.9818 36.9046 41.9818 35.1237C41.9817 33.4414 42.4114 32.3204 43.2709 31.7608C44.1365 31.1978 45.2093 31.2858 46.4894 32.0249C47.7696 32.764 48.7602 33.8111 49.4612 35.1662C50.1623 36.5212 50.5128 38.0434 50.5129 39.7327L50.5129 40.6725ZM48.4646 37.7582C48.4585 36.8748 48.2787 36.0882 47.9251 35.3984C47.5715 34.7015 47.0838 34.1736 46.4621 33.8146C45.8525 33.4626 45.3343 33.4204 44.9077 33.6878C44.4871 33.9588 44.228 34.4815 44.1305 35.2557L48.4646 37.7582ZM49.0953 28.2714L46.4802 30.2247L44.9075 29.3166L47.1202 27.1311L49.0953 28.2714ZM65.2064 49.1564L58.8241 45.4713C58.8485 46.4849 59.1137 47.4088 59.6196 48.2429C60.1317 49.0805 60.8327 49.7563 61.7227 50.2702C62.7225 50.8474 63.6399 51.0322 64.475 50.8246L64.475 52.799C63.6216 52.9257 62.4939 52.5843 61.0919 51.7748C59.7142 50.9793 58.6322 49.8653 57.8458 48.4329C57.0655 46.9969 56.6753 45.3885 56.6753 43.6076C56.6752 41.9253 57.1049 40.8043 57.9644 40.2448C58.83 39.6817 59.9028 39.7697 61.183 40.5088C62.4631 41.248 63.4537 42.2951 64.1547 43.6501C64.8558 45.0051 65.2063 46.5273 65.2064 48.2167L65.2064 49.1564ZM63.1582 46.2422C63.152 45.3588 62.9722 44.5722 62.6186 43.8823C62.265 43.1855 61.7774 42.6575 61.1556 42.2985C60.546 41.9465 60.0279 41.9043 59.6012 42.1718C59.1806 42.4427 58.9215 42.9654 58.824 43.7397L63.1582 46.2422ZM66.4361 54.2692L66.4361 51.9991C67.2285 53.1536 68.1033 54.0071 69.0604 54.5597C70.3405 55.2988 70.9805 55.232 70.9805 54.3591C70.9805 54.1127 70.9256 53.8734 70.8159 53.6411C70.7062 53.4018 70.5568 53.1607 70.3678 52.9179C70.185 52.6785 69.9655 52.4322 69.7095 52.1787C69.4595 51.9289 69.1791 51.6473 68.8682 51.334C68.4842 50.9363 68.1367 50.5492 67.8258 50.1726C67.521 49.7995 67.265 49.4299 67.0577 49.0639C66.8566 48.6943 66.7042 48.3213 66.6005 47.9447C66.4969 47.5681 66.4451 47.1686 66.445 46.7463C66.445 46.2254 66.5517 45.8295 66.765 45.5585C66.9784 45.2804 67.2649 45.1115 67.6245 45.0517C67.9842 44.9848 68.3926 45.0165 68.8498 45.1468C69.3069 45.27 69.7794 45.4723 70.267 45.7539C71.1326 46.2537 71.9068 46.8521 72.5896 47.5489L72.5896 49.6923C71.9313 48.7913 71.1754 48.0944 70.3219 47.6017C70.0537 47.4468 69.8099 47.3377 69.5904 47.2743C69.3771 47.2145 69.1942 47.1969 69.0418 47.2215C68.8894 47.2461 68.7706 47.3148 68.6852 47.4274C68.5999 47.533 68.5572 47.6808 68.5572 47.8708C68.5573 48.1031 68.5999 48.3249 68.6853 48.536C68.7706 48.7472 68.8956 48.9637 69.0602 49.1854C69.2309 49.4036 69.432 49.6324 69.6637 49.8717C69.9014 50.1075 70.1727 50.3733 70.4775 50.6689C70.8798 51.0913 71.2395 51.4925 71.5565 51.8726C71.8796 52.2562 72.1539 52.6399 72.3794 53.0235C72.605 53.4001 72.7787 53.789 72.9007 54.1902C73.0226 54.5844 73.0835 55.0068 73.0836 55.4573C73.0836 56.0063 72.9739 56.4216 72.7544 56.7032C72.535 56.9847 72.2424 57.1536 71.8767 57.2099C71.5109 57.2662 71.0873 57.2187 70.6057 57.0674C70.1302 56.9266 69.6273 56.7031 69.097 56.3968C68.0729 55.8055 67.1859 55.0963 66.4361 54.2692ZM79.8361 62.228C79.4216 62.228 78.876 62.0326 78.1993 61.6419C76.3828 60.5931 75.4745 59.062 75.4744 57.0489L75.4742 50.9355L73.9106 50.0327L73.9106 48.1111L75.4742 49.0139L75.4741 46.5115L77.5954 47.0395L77.5955 50.2387L79.8357 51.5322L79.8358 53.4539L77.5956 52.1604L77.5957 57.5663C77.5958 58.2069 77.6964 58.7225 77.8975 59.1132C78.0987 59.5038 78.434 59.8347 78.9034 60.1057C79.263 60.3133 79.5739 60.3732 79.836 60.2852L79.8361 62.228ZM88.6458 67.4308L86.5885 66.2429L86.5884 64.5535L86.5519 64.5324C85.9057 65.4545 84.9579 65.5548 83.7082 64.8333C82.7877 64.3018 82.0654 63.5961 81.5411 62.7162C81.0229 61.8398 80.7638 60.9265 80.7638 59.9763C80.7637 57.9349 81.7817 57.3331 83.8177 58.1708L86.5974 59.3218C86.5974 57.7803 85.9634 56.6435 84.6954 55.9114C83.5799 55.2673 82.5741 55.13 81.678 55.4995L81.678 53.3561C82.6655 53.2505 83.8054 53.5709 85.0977 54.317C87.4629 55.6827 88.6455 57.7099 88.6456 60.3988L88.6458 67.4308ZM86.5975 60.9373L84.6316 60.1189C84.022 59.8585 83.5617 59.7652 83.2509 59.8391C82.9461 59.9095 82.7937 60.2579 82.7937 60.8843C82.7937 61.3419 82.934 61.7994 83.2144 62.257C83.5009 62.711 83.8819 63.0753 84.3574 63.3498C85.0035 63.7229 85.5369 63.7704 85.9575 63.4924C86.3842 63.2109 86.5975 62.6724 86.5975 61.877L86.5975 60.9373ZM87.6486 50.5319L85.0336 52.4851L83.4609 51.5771L85.6736 49.3915L87.6486 50.5319ZM4.90345 46.3315C3.45873 45.4973 2.30355 44.327 1.43791 42.8207C0.578367 41.3108 0.148568 39.7217 0.148514 38.0535C0.148457 36.2374 0.596456 35.0777 1.49251 34.5745C2.39466 34.0747 3.60772 34.2648 5.13168 35.1447C6.59468 35.9895 7.73462 37.1439 8.55149 38.608C9.36837 40.0722 9.77683 41.6841 9.77689 43.4439C9.77694 45.1684 9.33504 46.2964 8.45118 46.8278C7.57341 47.3557 6.39083 47.1903 4.90345 46.3315ZM5.00373 37.0242C4.1747 36.5455 3.5194 36.5015 3.03785 36.8921C2.5563 37.2828 2.31555 38.0658 2.31558 39.2414C2.31562 40.3746 2.55948 41.4094 3.04717 42.3456C3.53486 43.2747 4.18712 43.9751 5.00397 44.4468C5.8391 44.929 6.47915 44.9783 6.92413 44.5947C7.3752 44.2146 7.60071 43.4332 7.60068 42.2507C7.60064 41.0611 7.37506 40.0123 6.92395 39.1042C6.47893 38.1997 5.83886 37.5064 5.00373 37.0242ZM18.4405 53.398C17.6907 53.4649 16.8038 53.2026 15.7797 52.6113C14.3898 51.8088 13.2682 50.6615 12.4147 49.1692C11.5613 47.6698 11.1345 46.1212 11.1345 44.5234C11.1344 42.7425 11.5916 41.5776 12.5059 41.0286C13.4264 40.476 14.6547 40.6432 16.1908 41.5302C17.0442 42.023 17.7971 42.6301 18.4493 43.3516L18.4494 45.6322C17.7971 44.6925 17.1022 44.0097 16.3646 43.5838C15.4685 43.0664 14.734 42.9943 14.161 43.3673C13.588 43.7333 13.3015 44.483 13.3016 45.6162C13.3016 46.7354 13.5698 47.7737 14.1063 48.731C14.6488 49.6919 15.3743 50.4345 16.2825 50.9589C17.0445 51.3989 17.7638 51.501 18.4404 51.2652L18.4405 53.398ZM28.5121 59.7095L26.3908 58.4847L26.3907 56.7742L26.3541 56.7531C25.7385 57.7069 24.7815 57.8089 23.4831 57.0592C21.2703 55.7815 20.1638 53.6082 20.1637 50.5392L20.1635 44.0774L22.2849 45.3023L22.2851 51.5107C22.2851 53.4534 22.9344 54.7997 24.2328 55.5494C24.8607 55.9119 25.3757 55.9418 25.7781 55.6392C26.1865 55.34 26.3906 54.7575 26.3906 53.8917L26.3904 47.6728L28.5118 48.8976L28.5121 59.7095ZM36.5078 55.8479C36.2518 55.4678 35.883 55.1387 35.4014 54.8606C34.7735 54.4981 34.2493 54.5227 33.8287 54.9345C33.4081 55.3463 33.1978 56.1153 33.1979 57.2415L33.198 62.4152L31.0767 61.1903L31.0763 50.3784L33.1977 51.6033L33.1978 53.8311L33.2343 53.8522C33.4416 53.2117 33.7585 52.8034 34.1852 52.6275C34.618 52.448 35.0996 52.5113 35.6299 52.8176C36.014 53.0393 36.3066 53.2751 36.5077 53.525L36.5078 55.8479ZM43.2328 59.7308C42.9768 59.3507 42.608 59.0216 42.1264 58.7436C41.4985 58.3811 40.9743 58.4057 40.5537 58.8174C40.1331 59.2292 39.9228 59.9982 39.9229 61.1245L39.923 66.2981L37.8017 65.0733L37.8013 54.2614L39.9227 55.4862L39.9227 57.7141L39.9593 57.7352C40.1666 57.0946 40.4835 56.6864 40.9102 56.5104C41.343 56.3309 41.8246 56.3943 42.3549 56.7005C42.739 56.9223 43.0316 57.1581 43.2327 57.408L43.2328 59.7308ZM45.5961 56.4919C45.2486 56.2913 44.9499 55.9886 44.7 55.5839C44.4561 55.1827 44.3342 54.7814 44.3342 54.3802C44.3342 53.979 44.4561 53.715 44.6999 53.5883C44.9498 53.4652 45.2485 53.5039 45.596 53.7045C45.9556 53.9122 46.2604 54.2219 46.5104 54.6337C46.7603 55.0455 46.8853 55.452 46.8853 55.8532C46.8853 56.2333 46.7603 56.4885 46.5104 56.6187C46.2605 56.7418 45.9557 56.6996 45.5961 56.4919ZM46.648 70.1811L44.5266 68.9562L44.5263 58.1443L46.6477 59.3692L46.648 70.1811ZM57.1492 71.5037L50.7669 67.8186C50.7913 68.8322 51.0565 69.7561 51.5624 70.5902C52.0745 71.4279 52.7755 72.1036 53.6655 72.6175C54.6652 73.1947 55.5827 73.3796 56.4178 73.1719L56.4178 75.1464C55.5644 75.273 54.4367 74.9316 53.0347 74.1221C51.657 73.3266 50.575 72.2127 49.7886 70.7802C49.0083 69.3442 48.6181 67.7358 48.6181 65.9549C48.618 64.2726 49.0477 63.1517 49.9072 62.5921C50.7728 62.029 51.8456 62.117 53.1257 62.8562C54.4059 63.5953 55.3965 64.6424 56.0975 65.9974C56.7986 67.3524 57.1491 68.8746 57.1492 70.564L57.1492 71.5037ZM55.1009 68.5895C55.0948 67.7061 54.915 66.9195 54.5614 66.2297C54.2078 65.5328 53.7202 65.0048 53.0984 64.6458C52.4888 64.2939 51.9707 64.2516 51.544 64.5191C51.1234 64.7901 50.8643 65.3127 50.7668 66.087L55.1009 68.5895ZM67.3032 82.1073L65.1819 80.8824L65.1817 74.7901C65.1816 72.77 64.5629 71.4026 63.3254 70.6881C62.6793 70.315 62.1459 70.2886 61.7253 70.6089C61.3047 70.9221 61.0944 71.5046 61.0944 72.3563L61.0946 78.5224L58.9641 77.2923L58.9638 66.4804L61.0943 67.7105L61.0943 69.5055L61.1309 69.5266C61.8319 68.5658 62.8438 68.4673 64.1666 69.2311C65.1846 69.8189 65.9618 70.6512 66.4983 71.7282C67.0347 72.7982 67.303 74.0546 67.303 75.4976L67.3032 82.1073ZM78.2069 88.403L76.0856 87.1781L76.0855 85.3409L76.0489 85.3198C75.3663 86.3193 74.3147 86.409 72.8944 85.589C71.7423 84.9237 70.8188 83.9083 70.1238 82.5427C69.4349 81.1736 69.0905 79.655 69.0904 77.9867C69.0904 76.1988 69.4713 74.9864 70.2333 74.3493C71.0013 73.7159 72.0223 73.7669 73.2964 74.5025C74.5582 75.2311 75.4757 76.3451 76.0487 77.8444L76.0853 77.8655L76.0851 71.1714L78.2064 72.3963L78.2069 88.403ZM76.1129 82.2526L76.1128 80.8377C76.1128 80.0705 75.8964 79.2944 75.4635 78.5096C75.0307 77.7247 74.479 77.1387 73.8085 76.7515C73.016 76.294 72.3912 76.2746 71.9341 76.6934C71.483 77.1157 71.2575 77.9322 71.2575 79.1429C71.2575 80.241 71.474 81.2353 71.9068 82.1257C72.3457 83.0127 72.934 83.6691 73.6716 84.095C74.397 84.5138 74.9852 84.5472 75.4363 84.1953C75.8874 83.8363 76.1129 83.1888 76.1129 82.2526ZM84.9228 92.534C83.4781 91.6999 82.3229 90.5296 81.4572 89.0232C80.5977 87.5133 80.1679 85.9243 80.1678 84.256C80.1678 82.44 80.6158 81.2803 81.5118 80.777C82.414 80.2773 83.627 80.4674 85.151 81.3473C86.614 82.192 87.7539 83.3465 88.5708 84.8106C89.3877 86.2748 89.7962 87.8867 89.7962 89.6464C89.7963 91.371 89.3544 92.499 88.4705 93.0304C87.5927 93.5583 86.4102 93.3928 84.9228 92.534ZM85.0231 83.2267C84.194 82.7481 83.5387 82.704 83.0572 83.0947C82.5756 83.4853 82.3349 84.2684 82.3349 85.4439C82.3349 86.5772 82.5788 87.6119 83.0665 88.5482C83.5542 89.4773 84.2065 90.1777 85.0233 90.6494C85.8584 91.1316 86.4985 91.1808 86.9435 90.7972C87.3945 90.4171 87.62 89.6358 87.62 88.4533C87.62 87.2637 87.3944 86.2149 86.9433 85.3068C86.4983 84.4023 85.8582 83.7089 85.0231 83.2267ZM93.1472 92.7532C93.0923 92.5456 93.0435 92.2887 93.0009 91.9825C92.9582 91.6763 92.9368 91.3859 92.9368 91.1114C92.9368 90.682 93.01 90.3371 93.1562 90.0767C93.3086 89.8127 93.4945 89.5927 93.714 89.4168C93.9395 89.2443 94.1803 89.0912 94.4363 88.9575C94.6984 88.8273 94.9392 88.6918 95.1586 88.551C95.3842 88.4138 95.5701 88.2396 95.7164 88.0284C95.8688 87.8208 95.945 87.541 95.9449 87.189C95.9449 86.8722 95.8901 86.5661 95.7803 86.2704C95.6706 85.9677 95.5182 85.6826 95.3231 85.4152C95.1342 85.1441 94.9147 84.8978 94.6648 84.676C94.4209 84.4578 94.1588 84.2678 93.8784 84.1059C92.9701 83.5814 92.1045 83.5497 91.2816 84.0107L91.2815 81.5717C92.2812 81.4732 93.3175 81.7337 94.3904 82.3532C94.8841 82.6383 95.3505 82.9814 95.7894 83.3827C96.2283 83.7839 96.6123 84.2238 96.9415 84.7025C97.2707 85.1812 97.5298 85.6897 97.7188 86.2282C97.9078 86.7667 98.0023 87.3211 98.0023 87.8912C98.0023 88.4332 97.9231 88.8696 97.7646 89.2005C97.6061 89.5313 97.405 89.8058 97.1611 90.024C96.9234 90.2387 96.6643 90.4023 96.3839 90.5149C96.1096 90.6311 95.8506 90.756 95.6068 90.8897C95.369 91.027 95.1709 91.1977 95.0124 91.4018C94.854 91.6059 94.7747 91.8875 94.7747 92.2465C94.7747 92.5492 94.8083 92.843 94.8753 93.1281C94.9424 93.4132 95.0095 93.6596 95.0765 93.8672L93.1472 92.7532ZM94.1897 97.8214C93.8423 97.6207 93.5344 97.3057 93.2662 96.8763C93.0101 96.461 92.8821 96.0563 92.8821 95.6621C92.8821 95.2609 93.0101 95.004 93.2661 94.8913C93.5282 94.7611 93.8361 94.7981 94.1896 95.0022C94.5371 95.2029 94.8419 95.5196 95.104 95.9525C95.36 96.3608 95.4881 96.7655 95.4881 97.1668C95.4881 97.561 95.3601 97.8179 95.1041 97.9375C94.8359 98.0572 94.5311 98.0185 94.1897 97.8214Z" fill="white"/>
</svg>
