<svg width="88" height="152" viewBox="0 0 88 152" fill="none" xmlns="http://www.w3.org/2000/svg">
<path d="M21.2639 22.2979C21.3188 22.5055 21.3675 22.7589 21.4102 23.0581C21.4529 23.3573 21.4742 23.6441 21.4743 23.9186C21.4743 24.341 21.4011 24.6823 21.2548 24.9428C21.1086 25.2032 20.9257 25.4214 20.7062 25.5974C20.4868 25.7663 20.2491 25.9141 19.9931 26.0408C19.737 26.1675 19.4993 26.3083 19.2799 26.4631C19.0604 26.618 18.8776 26.808 18.7313 27.0333C18.585 27.2585 18.5118 27.5577 18.5119 27.9308C18.5119 28.2264 18.5606 28.515 18.6582 28.7966C18.7557 29.0852 18.8868 29.3544 19.0514 29.6043C19.216 29.8542 19.408 30.0812 19.6275 30.2853C19.8469 30.4895 20.0785 30.6619 20.3224 30.8027C21.3952 31.4222 22.3279 31.4961 23.1203 31.0245L23.1204 33.4741C22.139 33.5691 21.121 33.3122 20.0664 32.7032C19.5605 32.4111 19.085 32.0591 18.64 31.6474C18.2011 31.2461 17.814 30.8009 17.4787 30.3117C17.1495 29.826 16.8874 29.3051 16.6923 28.749C16.4972 28.1929 16.3997 27.6227 16.3997 27.0385C16.3996 26.5246 16.4789 26.1129 16.6374 25.8032C16.7958 25.4864 16.9939 25.2277 17.2317 25.0271C17.4755 24.823 17.7376 24.6576 18.018 24.5309C18.2984 24.3972 18.5575 24.2546 18.7952 24.1033C19.039 23.9555 19.2402 23.7725 19.3986 23.5543C19.5571 23.329 19.6364 23.0264 19.6364 22.6463C19.6363 22.3788 19.6059 22.1183 19.5449 21.8649C19.49 21.615 19.4352 21.3968 19.3803 21.2103L21.2639 22.2979ZM20.2122 17.1928C20.5597 17.3934 20.8706 17.7102 21.1449 18.1431C21.407 18.5619 21.5381 18.9755 21.5381 19.3837C21.5381 19.7779 21.4071 20.0366 21.145 20.1598C20.8829 20.29 20.572 20.2513 20.2123 20.0436C19.8588 19.8395 19.554 19.5227 19.2979 19.0933C19.0358 18.6674 18.9047 18.2574 18.9047 17.8632C18.9047 17.455 19.0357 17.1928 19.2979 17.0766C19.56 16.9535 19.8648 16.9922 20.2122 17.1928ZM34.344 35.7734C33.3565 35.7945 32.1282 35.3809 30.6591 34.5327C28.7572 33.4346 27.2332 31.8613 26.0871 29.8129C24.9411 27.7645 24.368 25.6141 24.3679 23.3616C24.3679 20.9402 25.0109 19.3547 26.2971 18.6051C27.5893 17.859 29.22 18.0544 31.1889 19.1912C32.4569 19.9233 33.5084 20.7381 34.3435 21.6356L34.3436 24.1274C33.4597 23.0117 32.4844 22.1459 31.4176 21.5299C29.9972 20.7098 28.8452 20.569 27.9613 21.1075C27.0835 21.6495 26.6447 22.7968 26.6447 24.5495C26.6448 26.2178 27.0563 27.7857 27.8793 29.2534C28.7022 30.714 29.7843 31.8315 31.1253 32.6058C32.3628 33.3203 33.4357 33.6019 34.3439 33.4506L34.344 35.7734ZM40.5387 40.2371C39.0939 39.4029 37.9388 38.2327 37.0731 36.7263C36.2136 35.2164 35.7838 33.6273 35.7837 31.9591C35.7837 30.143 36.2317 28.9834 37.1277 28.4801C38.0299 27.9804 39.2429 28.1704 40.7669 29.0504C42.2299 29.8951 43.3698 31.0495 44.1867 32.5137C45.0036 33.9778 45.412 35.5897 45.4121 37.3495C45.4122 39.0741 44.9702 40.202 44.0864 40.7335C43.2086 41.2614 42.026 41.0959 40.5387 40.2371ZM40.6389 30.9298C39.8099 30.4511 39.1546 30.4071 38.6731 30.7977C38.1915 31.1884 37.9508 31.9715 37.9508 33.147C37.9508 34.2803 38.1947 35.315 38.6824 36.2512C39.1701 37.1804 39.8223 37.8808 40.6392 38.3524C41.4743 38.8346 42.1144 38.8839 42.5593 38.5003C43.0104 38.1202 43.2359 37.3389 43.2359 36.1563C43.2358 34.9667 43.0103 33.9179 42.5592 33.0099C42.1141 32.1053 41.4741 31.412 40.6389 30.9298ZM43.3453 25.2811L40.7303 27.2343L39.1575 26.3262L41.3702 24.1407L43.3453 25.2811ZM61.3725 52.013L59.2511 50.7881L59.2509 44.8965C59.2509 43.7632 59.1106 42.8622 58.8302 42.1935C58.5559 41.5283 58.0896 41.0056 57.4312 40.6255C56.8765 40.3052 56.4041 40.3527 56.0139 40.768C55.6299 41.1868 55.4379 41.8432 55.438 42.7371L55.4382 48.5866L53.3077 47.3564L53.3075 41.2642C53.3074 39.251 52.6917 37.8889 51.4603 37.178C50.8873 36.8471 50.4149 36.877 50.0431 37.2677C49.6773 37.6618 49.4945 38.3411 49.4945 39.3054L49.4947 45.1549L47.3734 43.93L47.373 33.1181L49.4944 34.3429L49.4944 36.0534L49.531 36.0745C50.2076 35.156 51.192 35.0698 52.4844 35.816C53.1305 36.189 53.6944 36.7223 54.176 37.4156C54.6637 38.1055 54.9959 38.8358 55.1727 39.6065C55.8676 38.5155 56.9038 38.3677 58.2815 39.1632C60.3419 40.3528 61.3721 42.4153 61.3722 45.3506L61.3725 52.013ZM67.9054 56.0385C66.4607 55.2043 65.3055 54.034 64.4399 52.5277C63.5803 51.0178 63.1505 49.4287 63.1505 47.7605C63.1504 45.9444 63.5984 44.7847 64.4945 44.2815C65.3966 43.7817 66.6097 43.9718 68.1337 44.8517C69.5967 45.6965 70.7366 46.8509 71.5535 48.315C72.3703 49.7792 72.7788 51.3911 72.7789 53.1509C72.7789 54.8754 72.337 56.0034 71.4532 56.5348C70.5754 57.0627 69.3928 56.8973 67.9054 56.0385ZM68.0057 46.7312C67.1767 46.2525 66.5214 46.2085 66.0398 46.5991C65.5583 46.9898 65.3175 47.7728 65.3176 48.9484C65.3176 50.0816 65.5615 51.1164 66.0491 52.0526C66.5368 52.9817 67.1891 53.6821 68.0059 54.1538C68.8411 54.636 69.4811 54.6853 69.9261 54.3017C70.3772 53.9216 70.6027 53.1402 70.6027 51.9577C70.6026 50.7681 70.377 49.7193 69.9259 48.8112C69.4809 47.9067 68.8408 47.2134 68.0057 46.7312ZM20.3964 42.3423C20.1099 41.9868 19.7838 41.7035 19.418 41.4923C18.3878 40.8975 17.8727 41.2723 17.8728 42.6168L17.8728 44.0844L20.049 45.3409L20.0491 47.2626L17.882 46.0113L17.8823 54.9016L15.761 53.6767L15.7607 44.7865L14.1605 43.8625L14.1605 41.9409L15.7606 42.8648L15.7606 41.1121C15.7605 39.9718 16.0836 39.2609 16.7297 38.9793C17.3759 38.6907 18.1835 38.8263 19.1528 39.3859C19.677 39.6886 20.0915 39.9948 20.3963 40.3045L20.3964 42.3423ZM28.5391 61.0547L26.4818 59.8668L26.4817 58.1775L26.4451 58.1564C25.799 59.0784 24.8511 59.1787 23.6015 58.4572C22.681 57.9257 21.9587 57.22 21.4344 56.3401C20.9162 55.4638 20.6571 54.5504 20.6571 53.6002C20.657 51.5589 21.675 50.9571 23.711 51.7948L26.4907 52.9457C26.4906 51.4042 25.8567 50.2674 24.5887 49.5353C23.4732 48.8912 22.4674 48.7539 21.5713 49.1234L21.5713 46.98C22.5588 46.8745 23.6987 47.1948 24.991 47.941C27.3562 49.3066 28.5388 51.3339 28.5389 54.0228L28.5391 61.0547ZM26.4907 54.5612L24.5248 53.7428C23.9153 53.4824 23.455 53.3891 23.1442 53.463C22.8394 53.5334 22.687 53.8818 22.687 54.5083C22.687 54.9658 22.8272 55.4234 23.1077 55.8809C23.3942 56.3349 23.7752 56.6992 24.2506 56.9737C24.8968 57.3468 25.4302 57.3944 25.8508 57.1163C26.2775 56.8348 26.4908 56.2963 26.4908 55.5009L26.4907 54.5612ZM37.6323 65.8088C36.8825 65.8757 35.9956 65.6135 34.9715 65.0221C33.5817 64.2197 32.46 63.0723 31.6066 61.58C30.7531 60.0806 30.3264 58.532 30.3263 56.9342C30.3262 55.1533 30.7834 53.9884 31.6977 53.4394C32.6182 52.8868 33.8465 53.0541 35.3826 53.941C36.236 54.4338 36.9889 55.0409 37.6411 55.7624L37.6412 58.0431C36.9889 57.1033 36.294 56.4205 35.5564 55.9946C34.6603 55.4773 33.9258 55.4051 33.3528 55.7781C32.7798 56.1441 32.4933 56.8938 32.4934 58.0271C32.4934 59.1463 32.7617 60.1845 33.2981 61.1418C33.8407 62.1027 34.5661 62.8453 35.4744 63.3698C36.2363 63.8097 36.9556 63.9118 37.6323 63.676L37.6323 65.8088ZM40.608 54.9415C40.2605 54.7408 39.9618 54.4381 39.7119 54.0334C39.468 53.6322 39.3461 53.2309 39.3461 52.8297C39.3461 52.4285 39.468 52.1645 39.7118 52.0378C39.9617 51.9147 40.2604 51.9534 40.6079 52.154C40.9675 52.3617 41.2723 52.6714 41.5223 53.0832C41.7722 53.495 41.8972 53.9015 41.8972 54.3027C41.8972 54.6828 41.7722 54.938 41.5223 55.0682C41.2724 55.1914 40.9676 55.1491 40.608 54.9415ZM41.6599 68.6306L39.5386 67.4057L39.5382 56.5938L41.6596 57.8187L41.6599 68.6306ZM46.3641 71.3468L44.2336 70.1166L44.2331 54.1099L46.3636 55.3401L46.3641 71.3468ZM49.9981 60.3632C49.6506 60.1626 49.3519 59.8599 49.102 59.4552C48.8581 59.054 48.7362 58.6527 48.7362 58.2515C48.7362 57.8503 48.8581 57.5863 49.1019 57.4596C49.3518 57.3365 49.6505 57.3752 49.998 57.5758C50.3577 57.7835 50.6624 58.0932 50.9124 58.505C51.1623 58.9168 51.2873 59.3233 51.2873 59.7245C51.2873 60.1046 51.1624 60.3598 50.9125 60.49C50.6625 60.6132 50.3577 60.5709 49.9981 60.3632ZM51.05 74.0524L48.9287 72.8275L48.9283 62.0156L51.0497 63.2405L51.05 74.0524ZM58.5614 78.2732C58.1469 78.2732 57.6013 78.0779 56.9247 77.6872C55.1081 76.6383 54.1998 75.1073 54.1997 73.0941L54.1995 66.9808L52.6359 66.078L52.6359 64.1563L54.1995 65.0591L54.1994 62.5568L56.3207 63.0848L56.3208 66.284L58.561 67.5775L58.5611 69.4991L56.3209 68.2056L56.321 73.6116C56.3211 74.2521 56.4217 74.7677 56.6228 75.1584C56.824 75.5491 57.1593 75.8799 57.6287 76.1509C57.9883 76.3586 58.2992 76.4184 58.5613 76.3305L58.5614 78.2732ZM67.3711 83.4761L65.3138 82.2882L65.3137 80.5988L65.2772 80.5777C64.631 81.4998 63.6832 81.6 62.4335 80.8785C61.513 80.347 60.7907 79.6414 60.2664 78.7615C59.7482 77.8851 59.4891 76.9718 59.4891 76.0215C59.4891 73.9802 60.507 73.3784 62.543 74.2161L65.3227 75.3671C65.3227 73.8255 64.6887 72.6887 63.4207 71.9566C62.3052 71.3125 61.2994 71.1752 60.4033 71.5447L60.4033 69.4014C61.3908 69.2958 62.5307 69.6161 63.823 70.3623C66.1882 71.7279 67.3708 73.7552 67.3709 76.4441L67.3711 83.4761ZM65.3228 76.9825L63.3569 76.1642C62.7473 75.9037 62.2871 75.8104 61.9762 75.8843C61.6714 75.9547 61.519 76.3031 61.519 76.9296C61.519 77.3871 61.6593 77.8447 61.9397 78.3022C62.2262 78.7562 62.6072 79.1205 63.0827 79.3951C63.7288 79.7681 64.2622 79.8157 64.6828 79.5377C65.1095 79.2561 65.3228 78.7176 65.3228 77.9222L65.3228 76.9825ZM75.1931 79.5141C74.9371 79.134 74.5683 78.8049 74.0867 78.5268C73.4588 78.1643 72.9346 78.1889 72.514 78.6007C72.0934 79.0125 71.8831 79.7815 71.8832 80.9077L71.8833 86.0814L69.762 84.8565L69.7616 74.0446L71.883 75.2695L71.8831 77.4973L71.9196 77.5184C72.1269 76.8779 72.4438 76.4696 72.8705 76.2937C73.3033 76.1142 73.7849 76.1776 74.3152 76.4838C74.6993 76.7055 74.9919 76.9413 75.193 77.1912L75.1931 79.5141ZM9.95573 83.2973L7.83438 82.0724L7.83416 75.2411L7.79758 75.2199C7.15757 76.2582 6.11215 76.3585 4.66134 75.5208C3.50923 74.8555 2.58264 73.8384 1.88159 72.4693C1.18663 71.0966 0.83913 69.5762 0.839077 67.908C0.839019 66.113 1.21996 64.9006 1.98191 64.2706C2.74995 63.6371 3.78013 63.6935 5.07245 64.4396C6.32819 65.1647 7.23649 66.2734 7.79735 67.7656L7.83392 67.7868L7.83387 66.2875L9.95523 67.5123L9.95573 83.2973ZM7.86149 72.1949L7.86145 70.8012C7.86142 70.0199 7.64195 69.2315 7.20303 68.4361C6.77021 67.6442 6.21853 67.0547 5.54799 66.6675C4.76162 66.2134 4.13986 66.1958 3.68269 66.6146C3.23162 67.0299 3.00611 67.857 3.00615 69.0959C3.00618 70.1939 3.22566 71.1829 3.66458 72.0628C4.1035 72.9427 4.67042 73.5833 5.36535 73.9845C6.12733 74.4245 6.73386 74.4685 7.18493 74.1166C7.636 73.7646 7.86152 73.1241 7.86149 72.1949ZM20.6855 84.5196L18.5642 83.2948L18.5641 81.5843L18.5275 81.5632C17.9119 82.5169 16.9549 82.619 15.6565 81.8693C13.4437 80.5916 12.3372 78.4183 12.3371 75.3493L12.3369 68.8875L14.4583 70.1123L14.4585 76.3207C14.4585 78.2635 15.1078 79.6097 16.4062 80.3594C17.0341 80.722 17.5491 80.7519 17.9515 80.4492C18.3599 80.1501 18.564 79.5676 18.564 78.7018L18.5638 72.4829L20.6852 73.7077L20.6855 84.5196ZM31.1776 85.837L24.7952 82.1518C24.8196 83.1655 25.0848 84.0893 25.5908 84.9235C26.1029 85.7611 26.8039 86.4369 27.6939 86.9508C28.6936 87.528 29.611 87.7128 30.4461 87.5052L30.4462 89.4796C29.5928 89.6063 28.4651 89.2649 27.063 88.4553C25.6854 87.6599 24.6034 86.5459 23.817 85.1135C23.0367 83.6775 22.6465 82.0691 22.6464 80.2882C22.6464 78.6059 23.0761 77.4849 23.9356 76.9254C24.8011 76.3623 25.874 76.4503 27.1541 77.1894C28.4342 77.9286 29.4248 78.9756 30.1259 80.3307C30.8269 81.6857 31.1775 83.2079 31.1775 84.8973L31.1776 85.837ZM29.1293 82.9228C29.1232 82.0394 28.9433 81.2527 28.5898 80.5629C28.2362 79.866 27.7485 79.3381 27.1267 78.9791C26.5172 78.6271 25.999 78.5849 25.5723 78.8523C25.1517 79.1233 24.8927 79.646 24.7952 80.4203L29.1293 82.9228ZM40.1015 94.1359L40.0649 94.1148L40.0651 100.682L37.9438 99.4574L37.9433 83.6724L40.0646 84.8972L40.0647 86.7978L40.1012 86.8189C40.8266 85.8018 41.8873 85.6962 43.2832 86.5022C44.4719 87.1886 45.3985 88.2057 46.063 89.5537C46.7274 90.9017 47.0597 92.3887 47.0597 94.0147C47.0598 95.8167 46.685 97.0433 45.9352 97.6943C45.1855 98.3454 44.1614 98.2961 42.863 97.5464C41.6682 96.8566 40.7477 95.7197 40.1015 94.1359ZM40.0465 89.8386L40.0465 91.1796C40.0465 91.9679 40.263 92.7616 40.6958 93.5605C41.1347 94.363 41.6894 94.9578 42.36 95.345C43.1463 95.799 43.762 95.8025 44.207 95.3556C44.6581 94.9051 44.8836 94.0463 44.8835 92.7793C44.8835 91.7164 44.6732 90.7644 44.2525 89.9232C43.838 89.0785 43.2741 88.4503 42.5609 88.0385C41.805 87.602 41.1955 87.5598 40.7322 87.9117C40.275 88.2672 40.0465 88.9095 40.0465 89.8386ZM57.1864 105.595L55.065 104.37L55.065 102.66L55.0284 102.638C54.4128 103.592 53.4557 103.694 52.1573 102.945C49.9445 101.667 48.8381 99.4936 48.838 96.4246L48.8378 89.9628L50.9591 91.1877L50.9593 97.3961C50.9594 99.3388 51.6086 100.685 52.9071 101.435C53.5349 101.797 54.05 101.827 54.4523 101.525C54.8607 101.225 55.0649 100.643 55.0649 99.7771L55.0647 93.5582L57.186 94.783L57.1864 105.595ZM67.6785 106.912L61.2961 103.227C61.3205 104.241 61.5857 105.165 62.0917 105.999C62.6038 106.836 63.3048 107.512 64.1948 108.026C65.1945 108.603 66.1119 108.788 66.947 108.581L66.9471 110.555C66.0937 110.682 64.966 110.34 63.5639 109.531C62.1863 108.735 61.1042 107.621 60.3178 106.189C59.5375 104.753 59.1474 103.144 59.1473 101.364C59.1472 99.6812 59.577 98.5603 60.4364 98.0007C61.302 97.4376 62.3749 97.5256 63.655 98.2648C64.9351 99.0039 65.9257 100.051 66.6268 101.406C67.3278 102.761 67.6784 104.283 67.6784 105.973L67.6785 106.912ZM65.6302 103.998C65.6241 103.115 65.4442 102.328 65.0906 101.638C64.7371 100.941 64.2494 100.413 63.6276 100.054C63.018 99.7025 62.4999 99.6602 62.0732 99.9277C61.6526 100.199 61.3936 100.721 61.2961 101.496L65.6302 103.998ZM78.0062 117.616L75.8849 116.391L75.8848 114.554L75.8482 114.533C75.1655 115.533 74.114 115.622 72.6937 114.802C71.5416 114.137 70.6181 113.122 69.9231 111.756C69.2342 110.387 68.8898 108.868 68.8897 107.2C68.8897 105.412 69.2706 104.2 70.0326 103.563C70.8006 102.929 71.8216 102.98 73.0957 103.716C74.3575 104.444 75.275 105.558 75.848 107.058L75.8846 107.079L75.8844 100.385L78.0057 101.609L78.0062 117.616ZM75.9121 111.466L75.9121 110.051C75.9121 109.284 75.6957 108.508 75.2628 107.723C74.83 106.938 74.2783 106.352 73.6078 105.965C72.8153 105.507 72.1905 105.488 71.7333 105.907C71.2823 106.329 71.0568 107.145 71.0568 108.356C71.0568 109.454 71.2733 110.448 71.7061 111.339C72.145 112.226 72.7333 112.882 73.4709 113.308C74.1963 113.727 74.7845 113.76 75.2356 113.409C75.6867 113.05 75.9122 112.402 75.9121 111.466ZM87.7578 123.247L85.7004 122.059L85.7004 120.369L85.6638 120.348C85.0177 121.27 84.0698 121.371 82.8202 120.649C81.8997 120.118 81.1773 119.412 80.6531 118.532C80.1349 117.656 79.8758 116.742 79.8758 115.792C79.8757 113.751 80.8937 113.149 82.9297 113.987L85.7094 115.138C85.7093 113.596 85.0753 112.459 83.8074 111.727C82.6919 111.083 81.6861 110.946 80.79 111.315L80.7899 109.172C81.7774 109.066 82.9173 109.387 84.2097 110.133C86.5748 111.499 87.7575 113.526 87.7576 116.215L87.7578 123.247ZM85.7094 116.753L83.7435 115.935C83.1339 115.674 82.6737 115.581 82.3628 115.655C82.058 115.725 81.9057 116.074 81.9057 116.7C81.9057 117.158 82.0459 117.615 82.3263 118.073C82.6128 118.527 82.9938 118.891 83.4693 119.166C84.1155 119.539 84.6489 119.586 85.0695 119.308C85.4961 119.027 85.7095 118.488 85.7095 117.693L85.7094 116.753ZM18.1902 111.332C16.7455 110.498 15.5903 109.327 14.7246 107.821C13.8651 106.311 13.4353 104.722 13.4352 103.054C13.4352 101.238 13.8832 100.078 14.7792 99.5747C15.6814 99.075 16.8944 99.2651 18.4184 100.145C19.8814 100.99 21.0213 102.144 21.8382 103.608C22.6551 105.072 23.0636 106.684 23.0636 108.444C23.0637 110.169 22.6218 111.297 21.7379 111.828C20.8601 112.356 19.6776 112.191 18.1902 111.332ZM18.2905 102.024C17.4614 101.546 16.8061 101.502 16.3246 101.892C15.843 102.283 15.6023 103.066 15.6023 104.242C15.6023 105.375 15.8462 106.41 16.3339 107.346C16.8216 108.275 17.4738 108.975 18.2907 109.447C19.1258 109.929 19.7659 109.978 20.2108 109.595C20.6619 109.215 20.8874 108.433 20.8874 107.251C20.8874 106.061 20.6618 105.013 20.2107 104.104C19.7657 103.2 19.1256 102.507 18.2905 102.024ZM31.7272 118.398C30.9775 118.465 30.0905 118.203 29.0664 117.612C27.6766 116.809 26.5549 115.662 25.7015 114.169C24.848 112.67 24.4213 111.121 24.4212 109.524C24.4212 107.743 24.8783 106.578 25.7926 106.029C26.7131 105.476 27.9414 105.643 29.4775 106.53C30.3309 107.023 31.0838 107.63 31.7361 108.352L31.7361 110.632C31.0839 109.693 30.3889 109.01 29.6513 108.584C28.7552 108.067 28.0207 107.994 27.4477 108.368C26.8747 108.734 26.5882 109.483 26.5883 110.616C26.5883 111.736 26.8566 112.774 27.393 113.731C27.9356 114.692 28.661 115.435 29.5693 115.959C30.3312 116.399 31.0505 116.501 31.7272 116.265L31.7272 118.398ZM41.7988 124.71L39.6775 123.485L39.6774 121.774L39.6409 121.753C39.0252 122.707 38.0682 122.809 36.7698 122.059C34.557 120.782 33.4505 118.608 33.4505 115.539L33.4502 109.078L35.5716 110.303L35.5718 116.511C35.5719 118.454 36.2211 119.8 37.5195 120.55C38.1474 120.912 38.6625 120.942 39.0648 120.639C39.4732 120.34 39.6774 119.758 39.6773 118.892L39.6771 112.673L41.7985 113.898L41.7988 124.71ZM49.7945 120.848C49.5385 120.468 49.1697 120.139 48.6881 119.861C48.0603 119.498 47.536 119.523 47.1154 119.935C46.6948 120.346 46.4846 121.115 46.4846 122.242L46.4848 127.415L44.3634 126.191L44.3631 115.379L46.4844 116.603L46.4845 118.831L46.5211 118.852C46.7283 118.212 47.0453 117.804 47.472 117.628C47.9048 117.448 48.3863 117.512 48.9167 117.818C49.3007 118.04 49.5933 118.275 49.7945 118.525L49.7945 120.848ZM56.5195 124.731C56.2635 124.351 55.8947 124.022 55.4131 123.744C54.7852 123.381 54.261 123.406 53.8404 123.818C53.4198 124.229 53.2095 124.998 53.2096 126.125L53.2097 131.298L51.0884 130.073L51.088 119.262L53.2094 120.486L53.2095 122.714L53.246 122.735C53.4533 122.095 53.7702 121.687 54.1969 121.511C54.6297 121.331 55.1113 121.395 55.6416 121.701C56.0257 121.922 56.3183 122.158 56.5194 122.408L56.5195 124.731ZM58.8828 121.492C58.5353 121.292 58.2366 120.989 57.9867 120.584C57.7428 120.183 57.6209 119.782 57.6209 119.38C57.6209 118.979 57.7428 118.715 57.9866 118.589C58.2365 118.465 58.5352 118.504 58.8827 118.705C59.2423 118.912 59.5471 119.222 59.7971 119.634C60.047 120.046 60.172 120.452 60.172 120.853C60.172 121.234 60.0471 121.489 59.7971 121.619C59.5472 121.742 59.2424 121.7 58.8828 121.492ZM59.9347 135.181L57.8134 133.956L57.813 123.145L59.9344 124.369L59.9347 135.181ZM67.9396 131.325C67.6835 130.945 67.3147 130.616 66.8332 130.338C66.2053 129.975 65.6811 130 65.2605 130.412C64.8399 130.823 64.6296 131.592 64.6296 132.719L64.6298 137.892L62.5084 136.667L62.5081 125.855L64.6294 127.08L64.6295 129.308L64.6661 129.329C64.8733 128.689 65.1903 128.28 65.617 128.104C66.0498 127.925 66.5313 127.988 67.0617 128.295C67.4457 128.516 67.7383 128.752 67.9395 129.002L67.9396 131.325ZM70.6231 137.077C70.5683 136.869 70.5195 136.612 70.4768 136.306C70.4341 136 70.4128 135.709 70.4128 135.435C70.4128 135.005 70.4859 134.66 70.6322 134.4C70.7846 134.136 70.9705 133.916 71.1899 133.74C71.4155 133.568 71.6562 133.415 71.9123 133.281C72.1744 133.151 72.4151 133.015 72.6346 132.874C72.8601 132.737 73.046 132.563 73.1923 132.352C73.3447 132.144 73.4209 131.864 73.4209 131.512C73.4209 131.196 73.366 130.889 73.2563 130.594C73.1465 130.291 72.9941 130.006 72.7991 129.739C72.6101 129.467 72.3906 129.221 72.1407 128.999C71.8969 128.781 71.6348 128.591 71.3543 128.429C70.4461 127.905 69.5805 127.873 68.7576 128.334L68.7575 125.895C69.7572 125.797 70.7935 126.057 71.8663 126.677C72.3601 126.962 72.8264 127.305 73.2653 127.706C73.7042 128.107 74.0883 128.547 74.4175 129.026C74.7467 129.505 75.0057 130.013 75.1947 130.552C75.3837 131.09 75.4782 131.644 75.4782 132.215C75.4782 132.757 75.399 133.193 75.2405 133.524C75.0821 133.855 74.8809 134.129 74.6371 134.347C74.3994 134.562 74.1403 134.726 73.8599 134.838C73.5856 134.954 73.3265 135.079 73.0827 135.213C72.845 135.35 72.6469 135.521 72.4884 135.725C72.3299 135.929 72.2507 136.211 72.2507 136.57C72.2507 136.873 72.2842 137.166 72.3513 137.451C72.4183 137.737 72.4854 137.983 72.5525 138.191L70.6231 137.077ZM71.6657 142.145C71.3182 141.944 71.0104 141.629 70.7421 141.2C70.4861 140.784 70.3581 140.38 70.3581 139.985C70.358 139.584 70.4861 139.327 70.7421 139.215C71.0042 139.084 71.312 139.121 71.6656 139.326C72.013 139.526 72.3178 139.843 72.58 140.276C72.836 140.684 72.964 141.089 72.964 141.49C72.964 141.884 72.836 142.141 72.58 142.261C72.3118 142.381 72.007 142.342 71.6657 142.145Z" fill="white"/>
</svg>
