<svg width="165" height="96" viewBox="0 0 165 96" fill="none" xmlns="http://www.w3.org/2000/svg">
<path d="M40.805 6.97061L42.3757 6.06384C42.3969 6.25924 42.4683 6.46532 42.5899 6.68209C42.7168 6.90192 42.8728 7.11716 43.0579 7.32782C43.2536 7.53849 43.4678 7.73847 43.7005 7.92776C43.9332 8.11705 44.1685 8.28039 44.4065 8.41778C45.2262 8.89101 45.9878 9.15663 46.6911 9.21464C47.4051 9.27265 48.0476 9.13678 48.6188 8.80705C48.9255 8.62997 49.1238 8.4361 49.2138 8.22543C49.3089 8.01782 49.3301 7.79189 49.2772 7.54765C49.2296 7.30035 49.1265 7.0332 48.9678 6.74621C48.8198 6.45922 48.6532 6.15238 48.4681 5.8257C48.2724 5.4807 48.1058 5.14944 47.9683 4.83192C47.8308 4.51439 47.7594 4.21061 47.7541 3.92057C47.7488 3.63052 47.8282 3.35269 47.9921 3.08707C48.1666 2.82145 48.4654 2.56652 48.8885 2.32227C49.4068 2.02307 49.97 1.8292 50.5782 1.74066C51.1917 1.64906 51.8078 1.63838 52.4265 1.7086C53.0453 1.77882 53.6508 1.91468 54.2431 2.11619C54.8407 2.32074 55.3854 2.56499 55.8773 2.84893C56.9984 3.49619 57.6807 4.04574 57.9239 4.4976L56.4246 5.36316C56.2184 4.70674 55.589 4.07475 54.5366 3.46718C54.2458 3.29926 53.9232 3.14966 53.5688 3.01838C53.2198 2.88404 52.8628 2.79092 52.4979 2.73902C52.133 2.68712 51.7707 2.68254 51.4111 2.72528C51.0515 2.76802 50.7157 2.87946 50.4037 3.05959C50.1128 3.22751 49.9145 3.40307 49.8087 3.58625C49.7082 3.77249 49.6765 3.97705 49.7135 4.19993C49.7505 4.4228 49.8378 4.66858 49.9753 4.93725C50.1181 5.20897 50.29 5.51581 50.4909 5.85776C50.6972 6.20886 50.8717 6.55386 51.0145 6.89276C51.1573 7.23165 51.2313 7.55833 51.2366 7.8728C51.2419 8.18727 51.1599 8.48495 50.9907 8.76583C50.8267 9.04977 50.5332 9.31386 50.1102 9.55811C49.5496 9.88174 48.9625 10.0924 48.3491 10.1901C47.7462 10.2878 47.1354 10.2985 46.5166 10.2222C45.9031 10.1489 45.3003 10.0023 44.7079 9.78251C44.1103 9.56574 43.5418 9.30165 43.0024 8.99023C42.8226 8.88643 42.6163 8.74904 42.3836 8.57807C42.1457 8.41015 41.9183 8.23001 41.7014 8.03767C41.4793 7.84838 41.2836 7.65908 41.1144 7.46979C40.9557 7.2805 40.8526 7.11411 40.805 6.97061ZM59.5977 14.037L53.8624 10.7259C52.9792 11.2602 52.5244 11.8037 52.4979 12.3563C52.4715 12.9089 52.8655 13.4203 53.6799 13.8905C54.5948 14.4186 55.7371 14.7301 57.1069 14.8247L55.8852 15.53C54.653 15.417 53.4498 15.0216 52.2758 14.3438C51.1282 13.6813 50.5941 12.9486 50.6734 12.1456C50.758 11.3396 51.4693 10.5504 52.8073 9.77793C54.0712 9.04824 55.4568 8.6605 56.9641 8.6147C58.4819 8.56891 59.7723 8.85285 60.8352 9.46652C61.8982 10.0802 62.3768 10.7534 62.2711 11.4861C62.1653 12.2189 61.5016 12.9379 60.28 13.6432L59.5977 14.037ZM59.3677 12.6311C60.1134 12.1945 60.5153 11.7518 60.5735 11.303C60.6369 10.8572 60.3514 10.4511 59.7167 10.0848C59.1033 9.73061 58.3629 9.55658 57.4956 9.56269C56.6282 9.5688 55.79 9.7474 54.9809 10.0985L59.3677 12.6311ZM68.2048 22.8895C67.2053 22.746 66.2771 22.4269 65.4204 21.9323C64.2622 21.2637 63.7016 20.5065 63.7386 19.6608C63.7862 18.8151 64.4103 18.0457 65.6108 17.3527C66.9488 16.5802 68.4058 16.1818 69.9817 16.1574C71.563 16.1299 72.9935 16.4856 74.2734 17.2244C74.9873 17.6366 75.4844 18.0763 75.7647 18.5434L74.432 19.3128C74.2522 18.7205 73.8185 18.2259 73.131 17.829C72.3007 17.3496 71.3197 17.1283 70.188 17.1649C69.0668 17.2015 68.0223 17.4992 67.0545 18.0579C66.1026 18.6075 65.6002 19.1845 65.5473 19.789C65.4997 20.3966 65.8964 20.9431 66.7372 21.4286C67.4459 21.8377 68.3476 22.0865 69.4423 22.175L68.2048 22.8895ZM73.0041 26.3105C71.8036 25.6174 71.2219 24.845 71.2589 23.9932C71.3065 23.1413 71.957 22.3536 73.2104 21.6301C74.5748 20.8424 76.0133 20.4424 77.5258 20.4302C79.0383 20.418 80.4292 20.7782 81.6984 21.511C82.9095 22.2101 83.4806 22.9704 83.4119 23.7917C83.3484 24.616 82.6556 25.4098 81.3335 26.1731C80.0378 26.9211 78.6311 27.3088 77.1133 27.3363C75.6061 27.3638 74.2363 27.0218 73.0041 26.3105ZM80.5085 22.088C79.6729 21.6056 78.7263 21.3889 77.6686 21.4377C76.6162 21.4835 75.5902 21.7949 74.5907 22.372C73.6282 22.9276 73.1152 23.5077 73.0517 24.1122C72.9882 24.7167 73.369 25.2571 74.194 25.7334C75.0349 26.2189 75.9525 26.4341 76.9467 26.3792C77.9462 26.3272 78.9484 26.0113 79.9532 25.4312C80.9686 24.845 81.5239 24.2618 81.6191 23.6817C81.7196 23.1047 81.3494 22.5735 80.5085 22.088ZM86.0614 33.6287L84.7605 32.8777L89.3932 30.2032C91.1173 29.2078 91.3499 28.3469 90.0913 27.6202C89.4408 27.2447 88.6555 27.0753 87.7353 27.1119C86.8256 27.1485 85.998 27.3821 85.2523 27.8126L80.6196 30.4871L79.3186 29.736L87.4417 25.0465L88.7427 25.7975L87.3941 26.5761L87.4259 26.5944C89.0653 26.3563 90.4668 26.573 91.6302 27.2447C92.5187 27.7576 92.9101 28.3163 92.8043 28.9209C92.7038 29.5223 92.1115 30.136 91.0273 30.7619L86.0614 33.6287ZM94.4305 38.0298C93.431 37.8863 92.5028 37.5672 91.6461 37.0726C90.4879 36.404 89.9273 35.6468 89.9644 34.8011C90.012 33.9554 90.636 33.186 91.8365 32.493C93.1745 31.7205 94.6315 31.3221 96.2074 31.2977C97.7887 31.2702 99.2192 31.6259 100.499 32.3647C101.213 32.7769 101.71 33.2166 101.99 33.6837L100.658 34.4531C100.478 33.8608 100.044 33.3662 99.3567 32.9693C98.5265 32.4899 97.5454 32.2686 96.4137 32.3052C95.2925 32.3418 94.248 32.6395 93.2803 33.1982C92.3283 33.7478 91.8259 34.3248 91.773 34.9293C91.7254 35.5369 92.1221 36.0834 92.9629 36.5689C93.6716 36.978 94.5733 37.2268 95.668 37.3153L94.4305 38.0298ZM106.29 40.9928L100.555 37.6817C99.6714 38.216 99.2166 38.7595 99.1902 39.3121C99.1637 39.8647 99.5577 40.3761 100.372 40.8463C101.287 41.3744 102.429 41.6859 103.799 41.7805L102.577 42.4858C101.345 42.3728 100.142 41.9774 98.968 41.2996C97.8204 40.6371 97.2863 39.9044 97.3656 39.1014C97.4502 38.2954 98.1615 37.5062 99.4995 36.7337C100.763 36.004 102.149 35.6163 103.656 35.5705C105.174 35.5247 106.465 35.8086 107.527 36.4223C108.59 37.036 109.069 37.7092 108.963 38.4419C108.858 39.1747 108.194 39.8937 106.972 40.599L106.29 40.9928ZM106.06 39.5868C106.806 39.1503 107.208 38.7076 107.266 38.2588C107.329 37.813 107.044 37.4069 106.409 37.0406C105.796 36.6864 105.055 36.5124 104.188 36.5185C103.32 36.5246 102.482 36.7032 101.673 37.0543L106.06 39.5868ZM111.272 48.1828L109.971 47.4318L114.604 44.7573C116.328 43.762 116.56 42.901 115.302 42.1744C114.651 41.7988 113.866 41.6294 112.946 41.666C112.036 41.7026 111.208 41.9362 110.463 42.3667L105.83 45.0412L104.529 44.2901L112.652 39.6006L113.953 40.3517L112.604 41.1302L112.636 41.1485C114.276 40.9104 115.677 41.1271 116.841 41.7988C117.729 42.3117 118.12 42.8705 118.015 43.475C117.914 44.0764 117.322 44.6901 116.238 45.316L111.272 48.1828ZM117.578 51.7321C117.102 51.6527 116.613 51.468 116.111 51.1779C114.688 50.3566 114.77 49.488 116.357 48.5721L121.164 45.7968L119.768 44.9908L120.878 44.3497L122.275 45.1557L124.258 44.0108L125.979 44.5191L123.575 45.9068L125.622 47.0883L124.512 47.7295L122.465 46.5479L117.888 49.1904C117.343 49.5048 117.047 49.7827 116.999 50.0239C116.952 50.2651 117.142 50.5093 117.57 50.7566C117.898 50.9459 118.271 51.0573 118.689 51.0909L117.578 51.7321ZM130.279 51.297C130.226 51.065 129.985 50.8253 129.557 50.578C129.001 50.2574 128.274 50.1399 127.375 50.2254C126.482 50.3139 125.582 50.6192 124.678 51.1413L120.537 53.5319L119.236 52.7808L127.359 48.0913L128.66 48.8423L126.987 49.8086L127.018 49.8269C127.775 49.6041 128.502 49.5109 129.2 49.5476C129.903 49.5812 130.49 49.7338 130.961 50.0055C131.299 50.2009 131.521 50.3719 131.627 50.5185L130.279 51.297ZM130.699 59.3984L129.398 58.6473L130.667 57.9146L130.636 57.8963C129.097 58.1314 127.777 57.9314 126.677 57.2963C125.868 56.8292 125.448 56.3392 125.416 55.8263C125.389 55.3164 125.731 54.8569 126.439 54.4478C127.957 53.5716 129.734 53.5777 131.77 54.4661L134.546 55.6751C135.927 54.8783 136.059 54.1578 134.943 53.5136C133.965 52.9487 132.748 52.6312 131.294 52.561L132.627 51.7916C133.933 51.9595 135.107 52.3442 136.149 52.9457C138.058 54.0478 138.003 55.1821 135.982 56.3484L130.699 59.3984ZM133.507 56.2751L131.278 55.2996C130.591 55.0004 129.985 54.8249 129.462 54.773C128.943 54.718 128.412 54.8478 127.867 55.1622C127.47 55.3912 127.285 55.6599 127.312 55.9682C127.349 56.2766 127.603 56.5667 128.073 56.8384C128.719 57.2109 129.475 57.3879 130.342 57.3696C131.22 57.3513 132.005 57.1422 132.698 56.7422L133.507 56.2751ZM147.874 64.9993L142.138 61.6882C141.255 62.2225 140.8 62.766 140.774 63.3186C140.747 63.8712 141.141 64.3826 141.956 64.8528C142.871 65.3809 144.013 65.6924 145.383 65.787L144.161 66.4923C142.929 66.3793 141.726 65.9839 140.552 65.3061C139.404 64.6436 138.87 63.9109 138.949 63.1079C139.034 62.3019 139.745 61.5127 141.083 60.7402C142.347 60.0105 143.733 59.6228 145.24 59.577C146.758 59.5312 148.048 59.8151 149.111 60.4288C150.174 61.0425 150.653 61.7157 150.547 62.4484C150.441 63.1812 149.777 63.9002 148.556 64.6055L147.874 64.9993ZM147.643 63.5934C148.389 63.1568 148.791 62.7141 148.849 62.2653C148.913 61.8195 148.627 61.4134 147.993 61.0471C147.379 60.6929 146.639 60.5189 145.771 60.525C144.904 60.5311 144.066 60.7097 143.257 61.0608L147.643 63.5934ZM152.855 72.1893L151.554 71.4383L156.187 68.7638C157.911 67.7685 158.144 66.9075 156.885 66.1809C156.235 65.8053 155.449 65.6359 154.529 65.6725C153.619 65.7091 152.792 65.9427 152.046 66.3732L147.413 69.0477L146.112 68.2966L154.236 63.6071L155.537 64.3582L154.188 65.1367L154.22 65.155C155.859 64.9169 157.261 65.1336 158.424 65.8053C159.313 66.3182 159.704 66.877 159.598 67.4815C159.498 68.0829 158.905 68.6966 157.821 69.3225L152.855 72.1893ZM27.7162 22.9443L26.4152 22.1932L27.7955 21.3964L27.7638 21.3781C26.1138 21.6345 24.6594 21.3994 23.4008 20.6728C22.3801 20.0835 21.9253 19.4027 22.0363 18.6303C22.158 17.8578 22.8455 17.1098 24.0988 16.3862C25.4421 15.6108 26.8568 15.1848 28.3429 15.1085C29.8289 15.0322 31.1352 15.3192 32.2617 15.9695C33.3775 16.6137 33.7504 17.3358 33.3802 18.1357L33.4119 18.154L38.4413 15.2505L39.7422 16.0015L27.7162 22.9443ZM30.0881 20.0729L31.2859 19.3813C31.9417 19.0027 32.2802 18.557 32.3013 18.0441C32.3225 17.5311 31.9999 17.0823 31.3335 16.6977C30.5402 16.2397 29.6253 16.0473 28.5888 16.1206C27.5522 16.1939 26.521 16.5267 25.495 17.119C24.5589 17.6594 24.0354 18.212 23.9243 18.7768C23.8238 19.3416 24.1411 19.8362 24.8762 20.2606C25.6008 20.6789 26.4496 20.8667 27.4227 20.8239C28.401 20.7842 29.2895 20.5339 30.0881 20.0729ZM36.1646 27.8216L34.8636 27.0706L36.1328 26.3378L36.1011 26.3195C34.5622 26.5546 33.2427 26.3546 32.1427 25.7196C31.3335 25.2524 30.9131 24.7624 30.8814 24.2495C30.8549 23.7396 31.196 23.2801 31.9047 22.871C33.4225 21.9948 35.1994 22.0009 37.2355 22.8893L40.012 24.0984C41.3923 23.3015 41.5245 22.581 40.4086 21.9368C39.4302 21.3719 38.2139 21.0544 36.7595 20.9842L38.0922 20.2148C39.3985 20.3827 40.5725 20.7674 41.6144 21.3689C43.5235 22.4711 43.468 23.6053 41.4478 24.7716L36.1646 27.8216ZM38.9728 24.6983L36.7437 23.7228C36.0562 23.4236 35.4506 23.2481 34.9271 23.1962C34.4088 23.1412 33.8773 23.271 33.3326 23.5854C32.9359 23.8144 32.7508 24.0831 32.7773 24.3915C32.8143 24.6998 33.0681 24.9899 33.5388 25.2616C34.184 25.6341 34.9403 25.8111 35.8076 25.7928C36.6855 25.7745 37.4708 25.5654 38.1636 25.1654L38.9728 24.6983ZM42.4632 31.3663C41.9872 31.2869 41.498 31.1022 40.9956 30.8121C39.573 29.9908 39.655 29.1222 41.2415 28.2063L46.0488 25.431L44.6526 24.625L45.7632 23.9839L47.1594 24.7899L49.1426 23.645L50.864 24.1533L48.4604 25.541L50.507 26.7225L49.3964 27.3636L47.3498 26.1821L42.7726 28.8246C42.2278 29.139 41.9317 29.4169 41.8841 29.6581C41.8365 29.8992 42.0269 30.1435 42.4553 30.3908C42.7831 30.5801 43.156 30.6915 43.5738 30.7251L42.4632 31.3663ZM47.199 34.4117C45.9986 33.7187 45.4168 32.9462 45.4538 32.0944C45.5014 31.2426 46.1519 30.4549 47.4053 29.7313C48.7697 28.9436 50.2082 28.5437 51.7207 28.5315C53.2332 28.5192 54.6241 28.8795 55.8934 29.6123C57.1044 30.3114 57.6756 31.0716 57.6068 31.8929C57.5434 32.7173 56.8506 33.5111 55.5284 34.2743C54.2328 35.0223 52.826 35.4101 51.3082 35.4376C49.801 35.465 48.4313 35.1231 47.199 34.4117ZM54.7034 30.1893C53.8679 29.7069 52.9212 29.4901 51.8635 29.539C50.8111 29.5848 49.7851 29.8962 48.7856 30.4732C47.8231 31.0289 47.3101 31.609 47.2466 32.2135C47.1832 32.818 47.564 33.3584 48.389 33.8347C49.2298 34.3201 50.1474 34.5354 51.1416 34.4804C52.1412 34.4285 53.1433 34.1125 54.1481 33.5324C55.1635 32.9462 55.7188 32.3631 55.814 31.783C55.9145 31.206 55.5443 30.6747 54.7034 30.1893ZM53.3152 37.3839L54.7114 36.5779C54.8965 37.2893 55.4147 37.8907 56.2662 38.3823C57.4085 39.0417 58.3604 39.1517 59.122 38.712C59.3388 38.5868 59.471 38.4525 59.5186 38.309C59.5768 38.1655 59.5794 38.0113 59.5266 37.8465C59.479 37.6846 59.3864 37.5121 59.2489 37.329C59.122 37.1458 58.9792 36.9504 58.8205 36.7428C58.6037 36.4527 58.4292 36.1871 58.297 35.9459C58.1753 35.7047 58.1119 35.4788 58.1066 35.2681C58.1119 35.0575 58.1833 34.8575 58.3208 34.6682C58.4636 34.4819 58.691 34.2988 59.003 34.1186C59.3838 33.8988 59.8068 33.7553 60.2722 33.6881C60.7429 33.6179 61.2215 33.6103 61.7081 33.6652C62.1999 33.7171 62.6812 33.8209 63.1518 33.9767C63.6278 34.1354 64.0641 34.3293 64.4607 34.5583C65.1641 34.9643 65.6718 35.3979 65.9838 35.8589L64.667 36.6191C64.4607 36.0482 63.9689 35.5383 63.1915 35.0895C62.9482 34.9491 62.6997 34.8392 62.4458 34.7598C62.1973 34.6773 61.9513 34.6239 61.7081 34.5995C61.4701 34.5781 61.24 34.5857 61.0179 34.6224C60.8064 34.659 60.616 34.7262 60.4468 34.8239C60.2352 34.946 60.0951 35.0697 60.0263 35.1948C59.9629 35.3231 59.9496 35.462 59.9867 35.6116C60.0237 35.7612 60.103 35.923 60.2246 36.097C60.3463 36.2711 60.4891 36.4665 60.653 36.6832C60.8751 36.9702 61.0549 37.2389 61.1924 37.4892C61.3352 37.7365 61.4146 37.9716 61.4304 38.1945C61.4516 38.4143 61.396 38.6235 61.2638 38.8219C61.1369 39.0234 60.9095 39.2188 60.5816 39.4081C60.1797 39.6402 59.7407 39.7898 59.2648 39.8569C58.7941 39.9271 58.3128 39.9332 57.821 39.8752C57.3292 39.8172 56.8426 39.7043 56.3614 39.5363C55.8801 39.3684 55.428 39.1623 55.0049 38.9181C54.1693 38.4357 53.6061 37.9243 53.3152 37.3839ZM79.4616 43.4382L66.3011 46.7218C63.953 47.308 62.1761 47.2531 60.9703 46.5569C60.6319 46.3615 60.3833 46.1784 60.2246 46.0074L61.3908 45.3342C61.5759 45.5509 61.7848 45.7265 62.0174 45.8608C62.6732 46.2394 63.5564 46.2974 64.667 46.0349L66.8564 45.5219L71.7906 39.0097L73.2344 39.8432L69.1807 44.7205C69.1278 44.7816 68.9771 44.9327 68.7286 45.1739L68.7762 45.2014C68.9295 45.1434 69.1834 45.0579 69.5377 44.9449L78.113 42.6597L79.4616 43.4382ZM83.0155 54.869L81.7145 54.1179L82.9837 53.3852L82.952 53.3669C81.4131 53.602 80.0936 53.402 78.9936 52.7669C78.1844 52.2998 77.764 51.8098 77.7323 51.2969C77.7058 50.787 78.0469 50.3275 78.7556 49.9184C80.2734 49.0422 82.0503 49.0483 84.0864 49.9367L86.8629 51.1458C88.2432 50.3489 88.3754 49.6284 87.2595 48.9842C86.2811 48.4193 85.0648 48.1018 83.6104 48.0316L84.9431 47.2622C86.2494 47.4301 87.4234 47.8148 88.4653 48.4163C90.3744 49.5185 90.3189 50.6527 88.2987 51.819L83.0155 54.869ZM85.8237 51.7457L83.5946 50.7702C82.9071 50.471 82.3015 50.2955 81.778 50.2436C81.2597 50.1886 80.7282 50.3184 80.1835 50.6328C79.7868 50.8618 79.6017 51.1305 79.6282 51.4388C79.6652 51.7472 79.9191 52.0373 80.3897 52.309C81.0349 52.6815 81.7912 52.8585 82.6585 52.8402C83.5364 52.8219 84.3217 52.6128 85.0145 52.2128L85.8237 51.7457ZM92.2095 60.1768L90.9086 59.4257L95.5413 56.7512C97.2654 55.7559 97.4981 54.895 96.2394 54.1683C95.5889 53.7928 94.8036 53.6233 93.8834 53.66C92.9737 53.6966 92.1461 53.9302 91.4004 54.3607L86.7677 57.0352L85.4667 56.2841L93.5898 51.5946L94.8908 52.3456L93.5422 53.1242L93.574 53.1425C95.2134 52.9043 96.6149 53.1211 97.7783 53.7928C98.6668 54.3057 99.0582 54.8644 98.9524 55.4689C98.8519 56.0704 98.2596 56.6841 97.1755 57.31L92.2095 60.1768ZM100.483 64.9534L99.1824 64.2023L100.452 63.4696L100.42 63.4513C98.881 63.6863 97.5615 63.4864 96.4615 62.8513C95.6524 62.3842 95.2319 61.8942 95.2002 61.3813C95.1738 60.8714 95.5149 60.4119 96.2235 60.0028C97.7413 59.1265 99.5183 59.1327 101.554 60.0211L104.331 61.2301C105.711 60.4333 105.843 59.7127 104.727 59.0685C103.749 58.5037 102.533 58.1862 101.078 58.116L102.411 57.3466C103.717 57.5145 104.891 57.8992 105.933 58.5007C107.842 59.6028 107.787 60.7371 105.767 61.9033L100.483 64.9534ZM103.292 61.8301L101.063 60.8546C100.375 60.5554 99.7695 60.3798 99.2459 60.3279C98.7276 60.273 98.1961 60.4027 97.6514 60.7172C97.2548 60.9462 97.0697 61.2149 97.0961 61.5232C97.1331 61.8316 97.387 62.1216 97.8577 62.3934C98.5029 62.7658 99.2591 62.9429 100.126 62.9246C101.004 62.9063 101.79 62.6971 102.482 62.2972L103.292 61.8301ZM111.621 57.2229L106.941 57.5252L105.933 56.9436L110.304 56.4627L111.621 57.2229ZM104.236 67.1196L102.935 66.3685L114.961 59.4258L116.262 60.1768L104.236 67.1196ZM117.721 63.1444C117.489 63.0101 117.37 62.8498 117.364 62.6636C117.359 62.4773 117.478 62.314 117.721 62.1735C117.965 62.0331 118.248 61.9644 118.57 61.9675C118.898 61.9675 119.178 62.0346 119.411 62.169C119.649 62.3063 119.768 62.4697 119.768 62.659C119.779 62.8483 119.662 63.0131 119.419 63.1536C119.186 63.2879 118.903 63.3536 118.57 63.3505C118.242 63.3505 117.959 63.2818 117.721 63.1444ZM108.17 69.3911L106.869 68.64L114.992 63.9504L116.293 64.7015L108.17 69.3911ZM110.606 70.4581L112.002 69.6521C112.187 70.3635 112.705 70.9649 113.557 71.4565C114.699 72.1159 115.651 72.2259 116.412 71.7862C116.629 71.661 116.761 71.5267 116.809 71.3832C116.867 71.2397 116.87 71.0855 116.817 70.9207C116.769 70.7588 116.677 70.5863 116.539 70.4032C116.412 70.22 116.27 70.0246 116.111 69.817C115.894 69.5269 115.72 69.2613 115.587 69.0201C115.466 68.7789 115.402 68.553 115.397 68.3423C115.402 68.1317 115.474 67.9317 115.611 67.7424C115.754 67.5561 115.981 67.373 116.293 67.1928C116.674 66.973 117.097 66.8295 117.563 66.7623C118.033 66.6921 118.512 66.6845 118.998 66.7394C119.49 66.7913 119.972 66.8952 120.442 67.0509C120.918 67.2096 121.355 67.4035 121.751 67.6325C122.455 68.0385 122.962 68.4721 123.274 68.9331L121.957 69.6933C121.751 69.1224 121.259 68.6125 120.482 68.1637C120.239 68.0233 119.99 67.9134 119.736 67.834C119.488 67.7515 119.242 67.6981 118.998 67.6737C118.761 67.6523 118.53 67.66 118.308 67.6966C118.097 67.7332 117.906 67.8004 117.737 67.8981C117.526 68.0202 117.385 68.1439 117.317 68.269C117.253 68.3973 117.24 68.5362 117.277 68.6858C117.314 68.8354 117.393 68.9972 117.515 69.1712C117.637 69.3453 117.779 69.5407 117.943 69.7574C118.166 70.0444 118.345 70.3131 118.483 70.5634C118.626 70.8107 118.705 71.0458 118.721 71.2687C118.742 71.4885 118.686 71.6977 118.554 71.8961C118.427 72.0976 118.2 72.293 117.872 72.4823C117.47 72.7144 117.031 72.864 116.555 72.9311C116.085 73.0013 115.603 73.0075 115.111 72.9494C114.62 72.8914 114.133 72.7785 113.652 72.6106C113.171 72.4426 112.718 72.2365 112.295 71.9923C111.46 71.5099 110.896 70.9985 110.606 70.4581ZM128.557 69.4002C128.325 69.2659 128.206 69.1056 128.2 68.9194C128.195 68.7331 128.314 68.5698 128.557 68.4293C128.801 68.2889 129.084 68.2202 129.406 68.2233C129.734 68.2233 130.014 68.2904 130.247 68.4248C130.485 68.5621 130.604 68.7255 130.604 68.9148C130.615 69.1041 130.498 69.2689 130.255 69.4094C130.022 69.5437 129.739 69.6094 129.406 69.6063C129.078 69.6063 128.795 69.5376 128.557 69.4002ZM119.006 75.6469L117.705 74.8958L125.829 70.2062L127.13 70.9573L119.006 75.6469ZM121.442 76.7139L122.838 75.9079C123.023 76.6193 123.541 77.2207 124.393 77.7123C125.535 78.3717 126.487 78.4817 127.249 78.042C127.465 77.9168 127.598 77.7825 127.645 77.639C127.703 77.4955 127.706 77.3413 127.653 77.1765C127.606 77.0146 127.513 76.8421 127.375 76.659C127.249 76.4758 127.106 76.2804 126.947 76.0728C126.73 75.7827 126.556 75.5171 126.424 75.2759C126.302 75.0347 126.238 74.8088 126.233 74.5981C126.238 74.3875 126.31 74.1875 126.447 73.9982C126.59 73.8119 126.818 73.6288 127.13 73.4486C127.51 73.2288 127.933 73.0853 128.399 73.0181C128.869 72.9479 129.348 72.9403 129.835 72.9952C130.326 73.0471 130.808 73.1509 131.278 73.3067C131.754 73.4654 132.191 73.6593 132.587 73.8883C133.291 74.2943 133.798 74.7279 134.11 75.1889L132.794 75.9491C132.587 75.3782 132.095 74.8683 131.318 74.4195C131.075 74.2791 130.826 74.1692 130.572 74.0898C130.324 74.0073 130.078 73.9539 129.835 73.9295C129.597 73.9081 129.367 73.9158 129.144 73.9524C128.933 73.989 128.743 74.0562 128.573 74.1539C128.362 74.276 128.222 74.3997 128.153 74.5248C128.089 74.6531 128.076 74.792 128.113 74.9416C128.15 75.0912 128.23 75.253 128.351 75.427C128.473 75.6011 128.616 75.7965 128.78 76.0132C129.002 76.3002 129.182 76.5689 129.319 76.8192C129.462 77.0665 129.541 77.3016 129.557 77.5245C129.578 77.7443 129.523 77.9535 129.39 78.1519C129.263 78.3534 129.036 78.5488 128.708 78.7381C128.306 78.9702 127.867 79.1198 127.391 79.1869C126.921 79.2571 126.439 79.2632 125.948 79.2052C125.456 79.1472 124.969 79.0343 124.488 78.8663C124.007 78.6984 123.555 78.4923 123.131 78.2481C122.296 77.7657 121.733 77.2543 121.442 76.7139ZM11.129 32.0531L5.3936 28.742C4.51042 29.2763 4.05561 29.8197 4.02916 30.3724C4.00272 30.925 4.39671 31.4364 5.21114 31.9065C6.12606 32.4347 7.26837 32.7461 8.6381 32.8408L7.41645 33.546C6.18423 33.4331 4.98109 33.0377 3.80705 32.3599C2.65944 31.6974 2.1253 30.9647 2.20463 30.1617C2.28924 29.3557 3.00055 28.5664 4.33854 27.794C5.60249 27.0643 6.98808 26.6766 8.49531 26.6308C10.0131 26.585 11.3035 26.8689 12.3665 27.4826C13.4295 28.0963 13.9081 28.7695 13.8023 29.5022C13.6966 30.235 13.0328 30.954 11.8112 31.6592L11.129 32.0531ZM10.8989 30.6471C11.6446 30.2105 12.0465 29.7678 12.1047 29.319C12.1682 28.8733 11.8826 28.4672 11.248 28.1008C10.6345 27.7467 9.89412 27.5727 9.0268 27.5788C8.15949 27.5849 7.32126 27.7635 6.51212 28.1146L10.8989 30.6471ZM9.16959 34.897L10.5658 34.091C10.7509 34.8024 11.2691 35.4039 12.1206 35.8954C13.2629 36.5549 14.2148 36.6648 14.9764 36.2251C15.1932 36.1 15.3254 35.9656 15.373 35.8221C15.4312 35.6786 15.4338 35.5245 15.3809 35.3596C15.3334 35.1978 15.2408 35.0253 15.1033 34.8421C14.9764 34.6589 14.8336 34.4635 14.6749 34.2559C14.4581 33.9658 14.2836 33.7002 14.1514 33.459C14.0297 33.2178 13.9663 32.9919 13.961 32.7812C13.9663 32.5706 14.0377 32.3706 14.1752 32.1813C14.318 31.9951 14.5454 31.8119 14.8574 31.6318C15.2382 31.4119 15.6612 31.2684 16.1266 31.2013C16.5973 31.131 17.0759 31.1234 17.5625 31.1784C18.0543 31.2303 18.5355 31.3341 19.0062 31.4898C19.4822 31.6485 19.9185 31.8424 20.3151 32.0714C21.0185 32.4775 21.5262 32.911 21.8382 33.372L20.5214 34.1322C20.3151 33.5613 19.8233 33.0514 19.0459 32.6026C18.8026 32.4622 18.5541 32.3523 18.3002 32.2729C18.0516 32.1905 17.8057 32.137 17.5625 32.1126C17.3245 32.0912 17.0944 32.0989 16.8723 32.1355C16.6608 32.1722 16.4704 32.2393 16.3011 32.337C16.0896 32.4591 15.9495 32.5828 15.8807 32.708C15.8172 32.8362 15.804 32.9751 15.841 33.1247C15.8781 33.2743 15.9574 33.4361 16.079 33.6102C16.2007 33.7842 16.3435 33.9796 16.5074 34.1964C16.7295 34.4833 16.9093 34.752 17.0468 35.0024C17.1896 35.2497 17.2689 35.4848 17.2848 35.7076C17.306 35.9275 17.2504 36.1366 17.1182 36.3351C16.9913 36.5366 16.7639 36.732 16.436 36.9212C16.0341 37.1533 15.5951 37.3029 15.1192 37.3701C14.6485 37.4403 14.1672 37.4464 13.6754 37.3884C13.1836 37.3304 12.697 37.2174 12.2158 37.0495C11.7345 36.8816 11.2824 36.6755 10.8593 36.4312C10.0237 35.9488 9.46046 35.4374 9.16959 34.897ZM20.1168 41.4643C19.6408 41.3849 19.1517 41.2002 18.6492 40.9101C17.2266 40.0888 17.3086 39.2202 18.8952 38.3043L23.7024 35.529L22.3063 34.723L23.4168 34.0819L24.813 34.8879L26.7962 33.743L28.5176 34.2513L26.114 35.6389L28.1606 36.8205L27.05 37.4616L25.0034 36.2801L20.4262 38.9226C19.8815 39.237 19.5853 39.5149 19.5377 39.756C19.4901 39.9972 19.6805 40.2415 20.1089 40.4888C20.4368 40.6781 20.8096 40.7895 21.2274 40.8231L20.1168 41.4643ZM27.5895 45.8699L26.2885 45.1188L27.5577 44.3861L27.526 44.3678C25.9871 44.6028 24.6676 44.4029 23.5676 43.7678C22.7584 43.3007 22.338 42.8107 22.3063 42.2978C22.2798 41.7879 22.6209 41.3284 23.3296 40.9193C24.8474 40.043 26.6243 40.0491 28.6604 40.9376L31.4369 42.1466C32.8172 41.3498 32.9494 40.6292 31.8335 39.985C30.8551 39.4202 29.6388 39.1027 28.1844 39.0325L29.5171 38.2631C30.8234 38.431 31.9974 38.8157 33.0393 39.4172C34.9484 40.5193 34.8929 41.6535 32.8727 42.8198L27.5895 45.8699ZM30.3977 42.7466L28.1686 41.7711C27.4811 41.4719 26.8755 41.2963 26.352 41.2444C25.8337 41.1895 25.3022 41.3192 24.7575 41.6337C24.3608 41.8627 24.1757 42.1314 24.2022 42.4397C24.2392 42.7481 24.493 43.0381 24.9637 43.3099C25.6089 43.6823 26.3652 43.8594 27.2325 43.8411C28.1104 43.8228 28.8957 43.6136 29.5885 43.2137L30.3977 42.7466ZM36.9739 51.2876L35.673 50.5365L37.0533 49.7397L37.0215 49.7214C35.3715 49.9778 33.9172 49.7427 32.6585 49.0161C31.6378 48.4268 31.183 47.746 31.2941 46.9736C31.4157 46.2011 32.1032 45.4531 33.3566 44.7295C34.6999 43.9541 36.1145 43.5281 37.6006 43.4518C39.0867 43.3755 40.3929 43.6625 41.5194 44.3128C42.6353 44.957 43.0081 45.6791 42.6379 46.479L42.6697 46.4973L47.699 43.5938L49 44.3449L36.9739 51.2876ZM39.3458 48.4162L40.5437 47.7246C41.1994 47.346 41.5379 46.9003 41.5591 46.3874C41.5802 45.8745 41.2576 45.4256 40.5913 45.041C39.798 44.583 38.8831 44.3906 37.8465 44.4639C36.81 44.5372 35.7787 44.87 34.7528 45.4623C33.8167 46.0027 33.2931 46.5553 33.1821 47.1201C33.0816 47.6849 33.3989 48.1795 34.134 48.6039C34.8585 49.0222 35.7073 49.21 36.6804 49.1672C37.6588 49.1275 38.5473 48.8772 39.3458 48.4162ZM40.9086 53.5591L39.6076 52.808L47.7308 48.1185L49.0317 48.8695L40.9086 53.5591ZM54.3387 47.1522L49.6584 47.4544L48.651 46.8728L53.0219 46.392L54.3387 47.1522ZM43.3439 54.6262L44.7401 53.8201C44.9252 54.5315 45.4435 55.133 46.2949 55.6245C47.4372 56.284 48.3892 56.3939 49.1507 55.9543C49.3676 55.8291 49.4998 55.6947 49.5474 55.5512C49.6055 55.4078 49.6082 55.2536 49.5553 55.0887C49.5077 54.9269 49.4151 54.7544 49.2776 54.5712C49.1507 54.388 49.0079 54.1926 48.8493 53.985C48.6324 53.695 48.4579 53.4293 48.3257 53.1881C48.2041 52.947 48.1406 52.721 48.1353 52.5104C48.1406 52.2997 48.212 52.0997 48.3495 51.9104C48.4923 51.7242 48.7197 51.541 49.0317 51.3609C49.4125 51.141 49.8356 50.9976 50.301 50.9304C50.7717 50.8602 51.2503 50.8525 51.7368 50.9075C52.2286 50.9594 52.7099 51.0632 53.1806 51.2189C53.6565 51.3777 54.0928 51.5715 54.4895 51.8005C55.1928 52.2066 55.7005 52.6401 56.0126 53.1011L54.6957 53.8614C54.4895 53.2904 53.9976 52.7806 53.2202 52.3318C52.977 52.1913 52.7284 52.0814 52.4746 52.002C52.226 51.9196 51.9801 51.8662 51.7368 51.8417C51.4988 51.8204 51.2688 51.828 51.0467 51.8646C50.8351 51.9013 50.6447 51.9684 50.4755 52.0661C50.264 52.1883 50.1238 52.3119 50.0551 52.4371C49.9916 52.5653 49.9784 52.7042 50.0154 52.8538C50.0524 53.0034 50.1317 53.1653 50.2534 53.3393C50.375 53.5133 50.5178 53.7087 50.6817 53.9255C50.9039 54.2125 51.0837 54.4811 51.2212 54.7315C51.364 54.9788 51.4433 55.2139 51.4592 55.4368C51.4803 55.6566 51.4248 55.8657 51.2926 56.0642C51.1656 56.2657 50.9382 56.4611 50.6104 56.6504C50.2084 56.8824 49.7695 57.032 49.2935 57.0992C48.8228 57.1694 48.3416 57.1755 47.8497 57.1175C47.3579 57.0595 46.8714 56.9465 46.3901 56.7786C45.9089 56.6107 45.4567 56.4046 45.0336 56.1603C44.198 55.6779 43.6348 55.1666 43.3439 54.6262ZM54.2912 61.1934C53.8152 61.114 53.326 60.9293 52.8236 60.6392C51.401 59.8179 51.483 58.9493 53.0695 58.0334L57.8768 55.2581L56.4806 54.4521L57.5912 53.811L58.9873 54.617L60.9705 53.4721L62.6919 53.9804L60.2883 55.3681L62.335 56.5496L61.2244 57.1908L59.1777 56.0092L54.6005 58.6517C54.0558 58.9661 53.7597 59.244 53.7121 59.4852C53.6645 59.7264 53.8548 59.9706 54.2832 60.2179C54.6111 60.4072 54.9839 60.5186 55.4017 60.5522L54.2912 61.1934ZM66.8011 56.7465C66.5684 56.6122 66.4494 56.4519 66.4441 56.2657C66.4389 56.0794 66.5578 55.9161 66.8011 55.7756C67.0444 55.6352 67.3273 55.5665 67.6499 55.5696C67.9778 55.5696 68.2581 55.6367 68.4908 55.7711C68.7288 55.9085 68.8478 56.0718 68.8478 56.2611C68.8583 56.4504 68.742 56.6152 68.4987 56.7557C68.266 56.89 67.9831 56.9557 67.6499 56.9526C67.322 56.9526 67.0391 56.8839 66.8011 56.7465ZM57.2501 62.9932L55.9491 62.2421L64.0722 57.5526L65.3732 58.3036L57.2501 62.9932ZM65.7937 67.495C64.7941 67.3515 63.866 67.0324 63.0093 66.5378C61.8511 65.8692 61.2905 65.112 61.3275 64.2663C61.3751 63.4206 61.9992 62.6512 63.1996 61.9582C64.5376 61.1857 65.9946 60.7873 67.5706 60.7629C69.1519 60.7354 70.5824 61.0911 71.8622 61.8299C72.5762 62.2421 73.0733 62.6818 73.3536 63.1489L72.0209 63.9183C71.8411 63.326 71.4074 62.8314 70.7199 62.4345C69.8896 61.9551 68.9086 61.7338 67.7768 61.7704C66.6557 61.807 65.6112 62.1047 64.6434 62.6634C63.6915 63.213 63.1891 63.79 63.1362 64.3945C63.0886 65.0021 63.4852 65.5486 64.3261 66.0341C65.0348 66.4432 65.9364 66.692 67.0312 66.7805L65.7937 67.495ZM70.593 70.916C69.3925 70.2229 68.8108 69.4505 68.8478 68.5987C68.8954 67.7468 69.5459 66.9591 70.7992 66.2356C72.1637 65.4479 73.6021 65.0479 75.1147 65.0357C76.6272 65.0235 78.018 65.3837 79.2873 66.1165C80.4984 66.8156 81.0695 67.5759 81.0008 68.3972C80.9373 69.2215 80.2445 70.0153 78.9224 70.7786C77.6267 71.5266 76.22 71.9143 74.7022 71.9418C73.1949 71.9693 71.8252 71.6273 70.593 70.916ZM78.0974 66.6935C77.2618 66.2111 76.3151 65.9944 75.2574 66.0432C74.205 66.089 73.1791 66.4004 72.1795 66.9775C71.217 67.5331 70.704 68.1132 70.6406 68.7177C70.5771 69.3222 70.9579 69.8626 71.7829 70.3389C72.6238 70.8244 73.5413 71.0396 74.5356 70.9847C75.5351 70.9327 76.5373 70.6168 77.5421 70.0367C78.5575 69.4505 79.1128 68.8673 79.208 68.2872C79.3084 67.7102 78.9382 67.179 78.0974 66.6935ZM77.1851 74.7033C76.9418 74.5629 76.8202 74.3919 76.8202 74.1904C76.8255 73.992 76.9498 73.8225 77.193 73.6821C77.4363 73.5416 77.7298 73.4699 78.0736 73.4668C78.4279 73.4638 78.7267 73.5325 78.97 73.6729C79.2185 73.8164 79.3402 73.9904 79.3349 74.195C79.3349 74.3965 79.2133 74.5675 78.97 74.7079C78.7267 74.8483 78.4306 74.9186 78.0815 74.9186C77.7325 74.9186 77.4337 74.8468 77.1851 74.7033Z" fill="white"/>
</svg>
