<svg width="200" height="115" viewBox="0 0 200 115" fill="none" xmlns="http://www.w3.org/2000/svg">
<path d="M25.6371 7.25088L27.2077 6.34411C27.2289 6.53951 27.3003 6.7456 27.4219 6.96237C27.5488 7.18219 27.7049 7.39743 27.89 7.6081C28.0856 7.81876 28.2998 8.01874 28.5325 8.20803C28.7652 8.39732 29.0005 8.56066 29.2385 8.69805C30.0582 9.17128 30.8198 9.4369 31.5232 9.49491C32.2371 9.55292 32.8797 9.41706 33.4508 9.08732C33.7576 8.91024 33.9559 8.71637 34.0458 8.50571C34.141 8.2981 34.1621 8.07217 34.1092 7.82792C34.0616 7.58062 33.9585 7.31347 33.7999 7.02648C33.6518 6.73949 33.4852 6.43265 33.3001 6.10597C33.1044 5.76097 32.9378 5.42971 32.8003 5.11219C32.6628 4.79467 32.5914 4.49088 32.5862 4.20084C32.5809 3.9108 32.6602 3.63296 32.8241 3.36734C32.9987 3.10173 33.2975 2.84679 33.7205 2.60254C34.2388 2.30334 34.802 2.10947 35.4102 2.02093C36.0237 1.92934 36.6398 1.91865 37.2586 1.98887C37.8773 2.05909 38.4828 2.19496 39.0752 2.39646C39.6728 2.60102 40.2175 2.84527 40.7093 3.1292C41.8305 3.77646 42.5127 4.32602 42.756 4.77788L41.2567 5.64343C41.0504 4.98701 40.4211 4.35502 39.3687 3.74746C39.0778 3.57954 38.7552 3.42993 38.4009 3.29865C38.0518 3.16431 37.6949 3.07119 37.3299 3.01929C36.965 2.96739 36.6028 2.96281 36.2432 3.00555C35.8835 3.0483 35.5477 3.15973 35.2357 3.33987C34.9448 3.50779 34.7465 3.68334 34.6407 3.86653C34.5403 4.05277 34.5085 4.25732 34.5455 4.4802C34.5826 4.70307 34.6698 4.94885 34.8073 5.21752C34.9501 5.48925 35.122 5.79608 35.323 6.13803C35.5292 6.48914 35.7037 6.83414 35.8465 7.17303C35.9893 7.51192 36.0633 7.83861 36.0686 8.15307C36.0739 8.46754 35.992 8.76522 35.8227 9.04611C35.6588 9.33004 35.3653 9.59414 34.9422 9.83838C34.3816 10.162 33.7946 10.3727 33.1811 10.4704C32.5782 10.5681 31.9674 10.5788 31.3486 10.5024C30.7352 10.4292 30.1323 10.2826 29.54 10.0628C28.9424 9.84602 28.3739 9.58192 27.8344 9.27051C27.6546 9.1667 27.4484 9.02931 27.2157 8.85834C26.9777 8.69042 26.7503 8.51029 26.5335 8.31794C26.3113 8.12865 26.1157 7.93936 25.9464 7.75007C25.7878 7.56077 25.6846 7.39438 25.6371 7.25088ZM44.4298 14.3173L38.6944 11.0062C37.8112 11.5405 37.3564 12.0839 37.3299 12.6365C37.3035 13.1892 37.6975 13.7006 38.5119 14.1707C39.4268 14.6989 40.5692 15.0103 41.9389 15.105L40.7172 15.8102C39.485 15.6973 38.2819 15.3019 37.1078 14.6241C35.9602 13.9616 35.4261 13.2288 35.5054 12.4259C35.59 11.6199 36.3013 10.8306 37.6393 10.0582C38.9033 9.32852 40.2889 8.94077 41.7961 8.89498C43.3139 8.84918 44.6043 9.13312 45.6673 9.74679C46.7303 10.3605 47.2089 11.0337 47.1031 11.7664C46.9973 12.4992 46.3336 13.2182 45.112 13.9234L44.4298 14.3173ZM44.1997 12.9113C44.9454 12.4747 45.3473 12.032 45.4055 11.5832C45.469 11.1375 45.1834 10.7314 44.5488 10.365C43.9353 10.0109 43.1949 9.83686 42.3276 9.84296C41.4603 9.84907 40.622 10.0277 39.8129 10.3788L44.1997 12.9113ZM57.3919 21.8004L51.6565 18.4893C50.7733 19.0236 50.3185 19.5671 50.2921 20.1197C50.2656 20.6723 50.6596 21.1837 51.4741 21.6539C52.389 22.1821 53.5313 22.4935 54.901 22.5881L53.6794 23.2934C52.4471 23.1804 51.244 22.785 50.07 22.1073C48.9224 21.4447 48.3882 20.712 48.4675 19.909C48.5522 19.103 49.2635 18.3138 50.6015 17.5413C51.8654 16.8117 53.251 16.4239 54.7582 16.3781C56.276 16.3323 57.5664 16.6163 58.6294 17.2299C59.6924 17.8436 60.171 18.5168 60.0652 19.2496C59.9595 19.9823 59.2958 20.7013 58.0741 21.4066L57.3919 21.8004ZM57.1619 20.3945C57.9075 19.9579 58.3095 19.5152 58.3676 19.0664C58.4311 18.6206 58.1455 18.2146 57.5109 17.8482C56.8974 17.494 56.157 17.32 55.2897 17.3261C54.4224 17.3322 53.5842 17.5108 52.775 17.8619L57.1619 20.3945ZM62.3737 28.9905L61.0727 28.2394L65.7054 25.5649C67.4295 24.5696 67.6622 23.7086 66.4035 22.982C65.753 22.6064 64.9677 22.437 64.0475 22.4736C63.1379 22.5103 62.3102 22.7438 61.5645 23.1743L56.9318 25.8488L55.6308 25.0978L63.754 20.4082L65.055 21.1593L63.7064 21.9378L63.7381 21.9561C65.3776 21.718 66.779 21.9348 67.9425 22.6064C68.831 23.1194 69.2223 23.6781 69.1165 24.2826C69.016 24.884 68.4237 25.4977 67.3396 26.1236L62.3737 28.9905ZM79.7306 26.4442C79.6195 26.2152 79.4027 26.0076 79.0801 25.8213C78.1705 25.2962 77.1418 25.3649 75.9942 26.0274L74.7409 26.751L76.6447 27.8501L75.5341 28.4913L73.6303 27.3922L66.6177 31.4406L65.3247 30.6941L72.3372 26.6457L70.949 25.8442L72.0596 25.2031L73.4478 26.0045L74.7647 25.2443C75.6161 24.7528 76.5337 24.507 77.5173 24.507C78.5063 24.5039 79.3683 24.7146 80.1034 25.139C80.5 25.368 80.7671 25.5771 80.9046 25.7664L79.7306 26.4442ZM73.1305 35.4203C71.93 34.7272 71.3483 33.9548 71.3853 33.103C71.4329 32.2512 72.0834 31.4635 73.3368 30.7399C74.7012 29.9522 76.1397 29.5522 77.6522 29.54C79.1647 29.5278 80.5556 29.8881 81.8248 30.6208C83.0359 31.32 83.607 32.0802 83.5383 32.9015C83.4748 33.7258 82.782 34.5196 81.4599 35.2829C80.1642 36.0309 78.7575 36.4187 77.2397 36.4461C75.7325 36.4736 74.3627 36.1317 73.1305 35.4203ZM80.6349 31.1979C79.7993 30.7155 78.8527 30.4987 77.795 30.5475C76.7426 30.5933 75.7166 30.9048 74.7171 31.4818C73.7546 32.0375 73.2416 32.6175 73.1781 33.2221C73.1146 33.8266 73.4954 34.367 74.3204 34.8433C75.1613 35.3287 76.0789 35.5439 77.0731 35.489C78.0726 35.4371 79.0748 35.1211 80.0796 34.541C81.095 33.9548 81.6503 33.3717 81.7455 32.7916C81.846 32.2145 81.4758 31.6833 80.6349 31.1979ZM85.3549 41.8272C84.3554 41.6837 83.4272 41.3647 82.5705 40.8701C81.4123 40.2014 80.8517 39.4443 80.8888 38.5986C80.9363 37.7529 81.5604 36.9835 82.7609 36.2904C84.0989 35.518 85.5559 35.1196 87.1318 35.0951C88.7131 35.0677 90.1436 35.4233 91.4235 36.1622C92.1374 36.5744 92.6345 37.014 92.9148 37.4811L91.5821 38.2505C91.4023 37.6582 90.9686 37.1636 90.2811 36.7667C89.4508 36.2874 88.4698 36.066 87.3381 36.1027C86.2169 36.1393 85.1724 36.437 84.2046 36.9957C83.2527 37.5452 82.7503 38.1223 82.6974 38.7268C82.6498 39.3344 83.0465 39.8809 83.8873 40.3663C84.596 40.7754 85.4977 41.0242 86.5924 41.1128L85.3549 41.8272ZM92.7641 46.5351L91.4631 45.784L92.7324 45.0513L92.7006 45.033C91.1617 45.2681 89.8422 45.0681 88.7422 44.433C87.933 43.9659 87.5126 43.4759 87.4809 42.963C87.4544 42.4531 87.7955 41.9936 88.5042 41.5845C90.022 40.7083 91.7989 40.7144 93.835 41.6028L96.6115 42.8118C97.9918 42.015 98.124 41.2944 97.0081 40.6502C96.0298 40.0854 94.8134 39.7679 93.3591 39.6977L94.6918 38.9283C95.998 39.0962 97.1721 39.4809 98.2139 40.0824C100.123 41.1845 100.068 42.3188 98.0473 43.485L92.7641 46.5351ZM95.5723 43.4118L93.3432 42.4363C92.6557 42.1371 92.0501 41.9615 91.5266 41.9096C91.0083 41.8547 90.4768 41.9844 89.9321 42.2989C89.5355 42.5279 89.3504 42.7966 89.3768 43.1049C89.4138 43.4133 89.6677 43.7033 90.1384 43.9751C90.7835 44.3475 91.5398 44.5246 92.4071 44.5063C93.285 44.488 94.0704 44.2788 94.7632 43.8789L95.5723 43.4118ZM109.939 52.136L104.203 48.8249C103.32 49.3592 102.865 49.9027 102.839 50.4553C102.812 51.0079 103.206 51.5193 104.021 51.9894C104.936 52.5176 106.078 52.829 107.448 52.9237L106.226 53.629C104.994 53.516 103.791 53.1206 102.617 52.4428C101.469 51.7803 100.935 51.0476 101.014 50.2446C101.099 49.4386 101.81 48.6494 103.148 47.8769C104.412 47.1472 105.798 46.7595 107.305 46.7137C108.823 46.6679 110.113 46.9518 111.176 47.5655C112.239 48.1792 112.718 48.8524 112.612 49.5851C112.506 50.3179 111.842 51.0369 110.621 51.7421L109.939 52.136ZM109.708 50.73C110.454 50.2934 110.856 49.8508 110.914 49.4019C110.978 48.9562 110.692 48.5501 110.058 48.1838C109.444 47.8296 108.704 47.6556 107.836 47.6617C106.969 47.6678 106.131 47.8464 105.322 48.1975L109.708 50.73ZM114.92 59.326L113.619 58.575L118.252 55.9005C119.976 54.9052 120.209 54.0442 118.95 53.3175C118.3 52.942 117.514 52.7726 116.594 52.8092C115.684 52.8458 114.857 53.0794 114.111 53.5099L109.478 56.1844L108.177 55.4333L116.301 50.7438L117.602 51.4948L116.253 52.2734L116.285 52.2917C117.924 52.0536 119.326 52.2703 120.489 52.942C121.378 53.4549 121.769 54.0136 121.663 54.6182C121.563 55.2196 120.97 55.8333 119.886 56.4592L114.92 59.326ZM124.344 63.4111L124.313 63.3928L119.402 66.2276L118.101 65.4765L129.961 58.6299L131.262 59.381L129.834 60.2053L129.866 60.2236C131.584 59.9702 133.06 60.1992 134.292 60.9106C135.339 61.5151 135.791 62.1975 135.649 62.9577C135.511 63.7149 134.832 64.4461 133.61 65.1513C132.251 65.936 130.831 66.3741 129.35 66.4657C127.875 66.5542 126.563 66.2673 125.415 65.6047C124.363 64.9972 124.006 64.266 124.344 63.4111ZM127.589 61.5014L126.455 62.1563C125.783 62.544 125.429 62.9989 125.392 63.521C125.365 64.0431 125.688 64.498 126.359 64.8857C127.147 65.3406 128.065 65.5223 129.112 65.4307C130.164 65.3422 131.227 64.988 132.301 64.3682C133.205 63.8461 133.705 63.3164 133.8 62.7791C133.895 62.2417 133.586 61.767 132.872 61.3548C132.116 60.9182 131.243 60.7198 130.254 60.7595C129.271 60.7961 128.382 61.0434 127.589 61.5014ZM142.431 67.3496C142.378 67.1175 142.138 66.8779 141.709 66.6306C141.154 66.31 140.427 66.1925 139.528 66.2779C138.634 66.3665 137.735 66.6718 136.831 67.1939L132.69 69.5844L131.389 68.8334L139.512 64.1438L140.813 64.8949L139.139 65.8612L139.171 65.8795C139.927 65.6566 140.654 65.5635 141.352 65.6002C142.056 65.6337 142.643 65.7864 143.113 66.0581C143.452 66.2535 143.674 66.4245 143.78 66.571L142.431 67.3496ZM140.02 74.0359C138.819 73.3428 138.237 72.5704 138.274 71.7186C138.322 70.8667 138.972 70.0791 140.226 69.3555C141.59 68.5678 143.029 68.1678 144.541 68.1556C146.054 68.1434 147.445 68.5037 148.714 69.2364C149.925 69.9356 150.496 70.6958 150.427 71.5171C150.364 72.3414 149.671 73.1352 148.349 73.8985C147.053 74.6465 145.647 75.0342 144.129 75.0617C142.622 75.0892 141.252 74.7472 140.02 74.0359ZM147.524 69.8134C146.688 69.331 145.742 69.1143 144.684 69.1631C143.632 69.2089 142.606 69.5203 141.606 70.0974C140.644 70.653 140.131 71.2331 140.067 71.8376C140.004 72.4421 140.384 72.9825 141.209 73.4588C142.05 73.9443 142.968 74.1595 143.962 74.1046C144.962 74.0527 145.964 73.7367 146.969 73.1566C147.984 72.5704 148.539 71.9872 148.635 71.4071C148.735 70.8301 148.365 70.2989 147.524 69.8134ZM152.244 80.4428C151.244 80.2993 150.316 79.9802 149.46 79.4856C148.301 78.817 147.741 78.0598 147.778 77.2141C147.825 76.3684 148.449 75.599 149.65 74.906C150.988 74.1336 152.445 73.7351 154.021 73.7107C155.602 73.6832 157.033 74.0389 158.313 74.7778C159.026 75.1899 159.524 75.6296 159.804 76.0967L158.471 76.8661C158.291 76.2738 157.858 75.7792 157.17 75.3823C156.34 74.9029 155.359 74.6816 154.227 74.7182C153.106 74.7549 152.062 75.0525 151.094 75.6113C150.142 76.1608 149.639 76.7378 149.586 77.3424C149.539 77.9499 149.936 78.4964 150.776 78.9819C151.485 79.391 152.387 79.6398 153.481 79.7284L152.244 80.4428ZM164.103 83.4058L158.368 80.0947C157.485 80.629 157.03 81.1725 157.004 81.7251C156.977 82.2777 157.371 82.7891 158.186 83.2593C159.101 83.7875 160.243 84.0989 161.613 84.1935L160.391 84.8988C159.159 84.7858 157.956 84.3904 156.782 83.7127C155.634 83.0501 155.1 82.3174 155.179 81.5144C155.264 80.7084 155.975 79.9192 157.313 79.1467C158.577 78.4171 159.963 78.0293 161.47 77.9835C162.988 77.9377 164.278 78.2217 165.341 78.8353C166.404 79.449 166.883 80.1222 166.777 80.855C166.671 81.5877 166.007 82.3067 164.786 83.012L164.103 83.4058ZM163.873 81.9999C164.619 81.5633 165.021 81.1206 165.079 80.6718C165.143 80.226 164.857 79.82 164.222 79.4536C163.609 79.0994 162.869 78.9254 162.001 78.9315C161.134 78.9376 160.296 79.1162 159.487 79.4673L163.873 81.9999ZM162.144 86.2498L163.54 85.4438C163.725 86.1551 164.244 86.7566 165.095 87.2481C166.237 87.9076 167.189 88.0175 167.951 87.5779C168.168 87.4527 168.3 87.3184 168.347 87.1749C168.406 87.0314 168.408 86.8772 168.355 86.7123C168.308 86.5505 168.215 86.378 168.078 86.1948C167.951 86.0116 167.808 85.8162 167.649 85.6086C167.433 85.3186 167.258 85.053 167.126 84.8118C167.004 84.5706 166.941 84.3446 166.935 84.134C166.941 83.9233 167.012 83.7233 167.15 83.5341C167.292 83.3478 167.52 83.1646 167.832 82.9845C168.213 82.7647 168.636 82.6212 169.101 82.554C169.572 82.4838 170.05 82.4762 170.537 82.5311C171.029 82.583 171.51 82.6868 171.981 82.8425C172.457 83.0013 172.893 83.1952 173.29 83.4241C173.993 83.8302 174.501 84.2637 174.813 84.7248L173.496 85.485C173.29 84.9141 172.798 84.4042 172.02 83.9554C171.777 83.8149 171.529 83.705 171.275 83.6256C171.026 83.5432 170.78 83.4898 170.537 83.4654C170.299 83.444 170.069 83.4516 169.847 83.4883C169.635 83.5249 169.445 83.5921 169.276 83.6898C169.064 83.8119 168.924 83.9355 168.855 84.0607C168.792 84.1889 168.778 84.3279 168.816 84.4775C168.853 84.6271 168.932 84.7889 169.053 84.9629C169.175 85.1369 169.318 85.3323 169.482 85.5491C169.704 85.8361 169.884 86.1048 170.021 86.3551C170.164 86.6024 170.243 86.8375 170.259 87.0604C170.28 87.2802 170.225 87.4893 170.093 87.6878C169.966 87.8893 169.738 88.0847 169.41 88.274C169.009 88.506 168.57 88.6556 168.094 88.7228C167.623 88.793 167.142 88.7991 166.65 88.7411C166.158 88.6831 165.671 88.5701 165.19 88.4022C164.709 88.2343 164.257 88.0282 163.834 87.784C162.998 87.3016 162.435 86.7902 162.144 86.2498ZM172.449 92.7575C171.248 92.0644 170.666 91.292 170.704 90.4402C170.751 89.5883 171.402 88.8006 172.655 88.0771C174.019 87.2894 175.458 86.8894 176.97 86.8772C178.483 86.865 179.874 87.2252 181.143 87.958C182.354 88.6571 182.925 89.4174 182.856 90.2387C182.793 91.063 182.1 91.8568 180.778 92.6201C179.482 93.3681 178.076 93.7558 176.558 93.7833C175.051 93.8108 173.681 93.4688 172.449 92.7575ZM179.953 88.535C179.118 88.0526 178.171 87.8359 177.113 87.8847C176.061 87.9305 175.035 88.2419 174.035 88.819C173.073 89.3746 172.56 89.9547 172.496 90.5592C172.433 91.1637 172.814 91.7041 173.639 92.1804C174.48 92.6659 175.397 92.8811 176.391 92.8262C177.391 92.7742 178.393 92.4583 179.398 91.8782C180.413 91.292 180.969 90.7088 181.064 90.1287C181.164 89.5517 180.794 89.0205 179.953 88.535ZM178.565 95.7296L179.961 94.9236C180.146 95.635 180.664 96.2365 181.516 96.728C182.658 97.3875 183.61 97.4974 184.372 97.0577C184.588 96.9326 184.721 96.7982 184.768 96.6547C184.826 96.5112 184.829 96.3571 184.776 96.1922C184.729 96.0304 184.636 95.8579 184.499 95.6747C184.372 95.4915 184.229 95.2961 184.07 95.0885C183.853 94.7984 183.679 94.5328 183.547 94.2916C183.425 94.0504 183.362 93.8245 183.356 93.6138C183.362 93.4032 183.433 93.2032 183.57 93.0139C183.713 92.8277 183.941 92.6445 184.253 92.4644C184.633 92.2445 185.057 92.101 185.522 92.0339C185.993 91.9636 186.471 91.956 186.958 92.011C187.45 92.0629 187.931 92.1667 188.401 92.3224C188.877 92.4811 189.314 92.675 189.71 92.904C190.414 93.3101 190.921 93.7436 191.233 94.2046L189.917 94.9648C189.71 94.3939 189.219 93.884 188.441 93.4352C188.198 93.2948 187.949 93.1849 187.695 93.1055C187.447 93.0231 187.201 92.9696 186.958 92.9452C186.72 92.9238 186.49 92.9315 186.268 92.9681C186.056 93.0048 185.866 93.0719 185.696 93.1696C185.485 93.2917 185.345 93.4154 185.276 93.5406C185.213 93.6688 185.199 93.8077 185.236 93.9573C185.273 94.1069 185.353 94.2687 185.474 94.4428C185.596 94.6168 185.739 94.8122 185.903 95.029C186.125 95.3159 186.305 95.5846 186.442 95.835C186.585 96.0823 186.664 96.3174 186.68 96.5402C186.701 96.7601 186.646 96.9692 186.513 97.1677C186.387 97.3692 186.159 97.5646 185.831 97.7538C185.429 97.9859 184.99 98.1355 184.514 98.2027C184.044 98.2729 183.563 98.279 183.071 98.221C182.579 98.163 182.092 98.05 181.611 97.8821C181.13 97.7142 180.678 97.5081 180.255 97.2638C179.419 96.7814 178.856 96.27 178.565 95.7296ZM188.663 99.8101L183.491 101.331L182.563 100.795L187.394 99.0774L188.663 99.8101ZM9.46236 21.3515C8.9864 21.2721 8.49721 21.0874 7.9948 20.7974C6.57219 19.9761 6.65417 19.1075 8.24072 18.1915L13.048 15.4163L11.6518 14.6103L12.7624 13.9691L14.1586 14.7751L16.1418 13.6302L17.8632 14.1385L15.4595 15.5262L17.5062 16.7077L16.3956 17.3489L14.3489 16.1673L9.77174 18.8098C9.22703 19.1243 8.93087 19.4021 8.88327 19.6433C8.83568 19.8845 9.02606 20.1287 9.45443 20.376C9.78232 20.5653 10.1552 20.6768 10.573 20.7103L9.46236 21.3515ZM21.2584 23.939L15.523 20.6279C14.6398 21.1622 14.185 21.7056 14.1586 22.2583C14.1321 22.8109 14.5261 23.3223 15.3405 23.7924C16.2555 24.3206 17.3978 24.632 18.7675 24.7267L17.5459 25.432C16.3136 25.319 15.1105 24.9236 13.9364 24.2458C12.7888 23.5833 12.2547 22.8506 12.334 22.0476C12.4186 21.2416 13.1299 20.4524 14.4679 19.6799C15.7319 18.9502 17.1175 18.5625 18.6247 18.5167C20.1425 18.4709 21.4329 18.7548 22.4959 19.3685C23.5589 19.9822 24.0375 20.6554 23.9317 21.3881C23.826 22.1209 23.1622 22.8399 21.9406 23.5451L21.2584 23.939ZM21.0283 22.533C21.774 22.0964 22.1759 21.6537 22.2341 21.2049C22.2976 20.7592 22.012 20.3531 21.3774 19.9868C20.7639 19.6326 20.0235 19.4586 19.1562 19.4647C18.2889 19.4708 17.4507 19.6494 16.6415 20.0005L21.0283 22.533ZM28.2471 18.1274L23.5668 18.4297L22.5594 17.8481L26.9303 17.3672L28.2471 18.1274ZM25.4072 30.2177C24.4077 30.0742 23.4796 29.7551 22.6228 29.2605C21.4646 28.5919 20.9041 27.8347 20.9411 26.989C20.9887 26.1433 21.6127 25.3739 22.8132 24.6809C24.1512 23.9085 25.6082 23.51 27.1842 23.4856C28.7654 23.4581 30.196 23.8138 31.4758 24.5527C32.1897 24.9648 32.6869 25.4045 32.9671 25.8716L31.6344 26.641C31.4546 26.0487 31.021 25.5541 30.3335 25.1572C29.5032 24.6778 28.5222 24.4565 27.3904 24.4931C26.2692 24.5298 25.2248 24.8274 24.257 25.3862C23.305 25.9357 22.8026 26.5128 22.7497 27.1173C22.7021 27.7248 23.0988 28.2713 23.9397 28.7568C24.6483 29.1659 25.55 29.4147 26.6447 29.5033L25.4072 30.2177ZM33.7446 35.4614L32.4436 34.7103L37.0763 32.0358C38.8004 31.0405 39.0331 30.1795 37.7744 29.4529C37.1239 29.0774 36.3386 28.9079 35.4184 28.9445C34.5087 28.9812 33.6811 29.2147 32.9354 29.6452L28.3027 32.3197L27.0017 31.5687L35.1249 26.8791L36.4258 27.6302L35.0773 28.4087L35.109 28.427C36.7484 28.1889 38.1499 28.4057 39.3134 29.0774C40.2018 29.5903 40.5932 30.149 40.4874 30.7535C40.3869 31.355 39.7946 31.9686 38.7105 32.5945L33.7446 35.4614ZM47.0557 31.3855C46.823 31.2512 46.704 31.0909 46.6988 30.9046C46.6935 30.7184 46.8125 30.5551 47.0557 30.4146C47.299 30.2742 47.5819 30.2055 47.9045 30.2085C48.2324 30.2085 48.5127 30.2757 48.7454 30.41C48.9834 30.5474 49.1024 30.7108 49.1024 30.9001C49.113 31.0893 48.9966 31.2542 48.7533 31.3947C48.5206 31.529 48.2377 31.5946 47.9045 31.5916C47.5766 31.5916 47.2937 31.5229 47.0557 31.3855ZM37.5047 37.6321L36.2037 36.8811L44.3269 32.1915L45.6278 32.9426L37.5047 37.6321ZM46.0483 42.1339C45.0487 41.9904 44.1206 41.6714 43.2639 41.1768C42.1057 40.5081 41.5451 39.751 41.5821 38.9053C41.6297 38.0596 42.2538 37.2902 43.4543 36.5971C44.7923 35.8247 46.2492 35.4263 47.8252 35.4018C49.4065 35.3744 50.837 35.7301 52.1168 36.4689C52.8308 36.8811 53.3279 37.3207 53.6082 37.7878L52.2755 38.5572C52.0957 37.9649 51.662 37.4703 50.9745 37.0734C50.1442 36.5941 49.1632 36.3727 48.0315 36.4094C46.9103 36.446 45.8658 36.7437 44.898 37.3024C43.9461 37.852 43.4437 38.429 43.3908 39.0335C43.3432 39.6411 43.7398 40.1876 44.5807 40.673C45.2894 41.0821 46.1911 41.331 47.2858 41.4195L46.0483 42.1339ZM53.4575 46.8418L52.1565 46.0907L53.4257 45.358L53.394 45.3397C51.8551 45.5748 50.5356 45.3748 49.4356 44.7397C48.6264 44.2726 48.206 43.7826 48.1742 43.2697C48.1478 42.7598 48.4889 42.3003 49.1976 41.8912C50.7154 41.015 52.4923 41.0211 54.5284 41.9095L57.3049 43.1185C58.6852 42.3217 58.8174 41.6012 57.7015 40.957C56.7231 40.3921 55.5068 40.0746 54.0524 40.0044L55.3851 39.235C56.6914 39.4029 57.8654 39.7876 58.9073 40.3891C60.8164 41.4912 60.7609 42.6255 58.7407 43.7918L53.4575 46.8418ZM56.2657 43.7185L54.0366 42.743C53.3491 42.4438 52.7435 42.2683 52.22 42.2164C51.7017 42.1614 51.1702 42.2912 50.6255 42.6056C50.2288 42.8346 50.0437 43.1033 50.0702 43.4116C50.1072 43.72 50.361 44.0101 50.8317 44.2818C51.4769 44.6543 52.2332 44.8313 53.1005 44.813C53.9784 44.7947 54.7637 44.5856 55.4565 44.1856L56.2657 43.7185ZM55.7104 47.8035L57.1065 46.9975C57.2916 47.7089 57.8099 48.3103 58.6614 48.8019C59.8037 49.4614 60.7556 49.5713 61.5172 49.1316C61.734 49.0064 61.8662 48.8721 61.9138 48.7286C61.972 48.5851 61.9746 48.4309 61.9217 48.2661C61.8741 48.1043 61.7816 47.9318 61.6441 47.7486C61.5172 47.5654 61.3744 47.37 61.2157 47.1624C60.9989 46.8723 60.8244 46.6067 60.6922 46.3655C60.5705 46.1243 60.5071 45.8984 60.5018 45.6877C60.5071 45.4771 60.5784 45.2771 60.7159 45.0878C60.8587 44.9016 61.0861 44.7184 61.3982 44.5382C61.7789 44.3184 62.202 44.1749 62.6674 44.1078C63.1381 44.0375 63.6167 44.0299 64.1032 44.0849C64.5951 44.1368 65.0763 44.2406 65.547 44.3963C66.023 44.555 66.4593 44.7489 66.8559 44.9779C67.5593 45.3839 68.067 45.8175 68.379 46.2785L67.0622 47.0387C66.8559 46.4678 66.3641 45.9579 65.5867 45.5091C65.3434 45.3687 65.0948 45.2588 64.841 45.1794C64.5924 45.097 64.3465 45.0435 64.1032 45.0191C63.8653 44.9977 63.6352 45.0054 63.4131 45.042C63.2015 45.0786 63.0112 45.1458 62.8419 45.2435C62.6304 45.3656 62.4902 45.4893 62.4215 45.6145C62.358 45.7427 62.3448 45.8816 62.3818 46.0312C62.4188 46.1808 62.4982 46.3426 62.6198 46.5166C62.7414 46.6907 62.8842 46.8861 63.0482 47.1028C63.2703 47.3898 63.4501 47.6585 63.5876 47.9089C63.7304 48.1562 63.8097 48.3912 63.8256 48.6141C63.8467 48.8339 63.7912 49.0431 63.659 49.2415C63.5321 49.443 63.3047 49.6384 62.9768 49.8277C62.5749 50.0598 62.1359 50.2094 61.6599 50.2765C61.1893 50.3468 60.708 50.3529 60.2162 50.2949C59.7244 50.2368 59.2378 50.1239 58.7566 49.956C58.2753 49.788 57.8231 49.582 57.4001 49.3377C56.5645 48.8553 56.0012 48.3439 55.7104 47.8035ZM81.8568 53.8578L68.6963 57.1414C66.3482 57.7276 64.5713 57.6727 63.3655 56.9766C63.027 56.7812 62.7785 56.598 62.6198 56.427L63.7859 55.7538C63.971 55.9706 64.1799 56.1461 64.4126 56.2804C65.0684 56.659 65.9516 56.717 67.0622 56.4545L69.2516 55.9416L74.1858 49.4293L75.6295 50.2628L71.5759 55.1401C71.523 55.2012 71.3723 55.3523 71.1237 55.5935L71.1713 55.621C71.3247 55.563 71.5785 55.4775 71.9329 55.3645L80.5082 53.0793L81.8568 53.8578ZM94.4937 57.9658C94.3826 57.7368 94.1658 57.5292 93.8432 57.3429C92.9335 56.8178 91.9049 56.8865 90.7573 57.549L89.5039 58.2726L91.4078 59.3717L90.2972 60.0129L88.3934 58.9137L81.3808 62.9622L80.0878 62.2157L87.1003 58.1673L85.7121 57.3658L86.8227 56.7247L88.2109 57.5261L89.5277 56.7659C90.3792 56.2743 91.2968 56.0286 92.2804 56.0286C93.2694 56.0255 94.1314 56.2362 94.8665 56.6606C95.2631 56.8895 95.5302 57.0987 95.6677 57.288L94.4937 57.9658ZM91.2571 68.6638L89.9561 67.9127L91.2412 67.1708L91.2095 67.1525C89.6864 67.409 88.359 67.2105 87.2272 66.5572C85.2917 65.4397 85.4767 64.2154 87.7825 62.8843L92.6374 60.0816L93.9304 60.828L89.2818 63.5117C87.5684 64.5009 87.3674 65.3741 88.6789 66.1313C89.3136 66.4976 90.0672 66.664 90.9398 66.6304C91.823 66.5969 92.6427 66.3618 93.3989 65.9252L98.0793 63.2232L99.3802 63.9743L91.2571 68.6638ZM100.634 74.077L99.3326 73.3259L103.965 70.6514C105.689 69.6561 105.922 68.7951 104.663 68.0685C104.013 67.6929 103.228 67.5235 102.307 67.5601C101.398 67.5968 100.57 67.8303 99.8245 68.2608L95.1917 70.9353L93.8908 70.1843L102.014 65.4947L103.315 66.2458L101.966 67.0243L101.998 67.0426C103.637 66.8045 105.039 67.0212 106.202 67.6929C107.091 68.2058 107.482 68.7646 107.376 69.3691C107.276 69.9705 106.684 70.5842 105.6 71.2101L100.634 74.077ZM109.003 78.478C108.003 78.3345 107.075 78.0154 106.218 77.5208C105.06 76.8522 104.5 76.095 104.537 75.2493C104.584 74.4036 105.208 73.6343 106.409 72.9412C107.747 72.1688 109.204 71.7703 110.78 71.7459C112.361 71.7184 113.791 72.0741 115.071 72.813C115.785 73.2251 116.282 73.6648 116.563 74.1319L115.23 74.9013C115.05 74.309 114.616 73.8144 113.929 73.4175C113.099 72.9381 112.118 72.7168 110.986 72.7534C109.865 72.7901 108.82 73.0877 107.852 73.6465C106.9 74.196 106.398 74.7731 106.345 75.3776C106.298 75.9851 106.694 76.5316 107.535 77.0171C108.244 77.4262 109.145 77.675 110.24 77.7636L109.003 78.478ZM121.449 74.3334C121.216 74.1991 121.097 74.0388 121.092 73.8525C121.087 73.6663 121.206 73.503 121.449 73.3625C121.692 73.2221 121.975 73.1534 122.298 73.1564C122.626 73.1564 122.906 73.2236 123.139 73.3579C123.377 73.4953 123.496 73.6587 123.496 73.848C123.506 74.0373 123.39 74.2021 123.147 74.3426C122.914 74.4769 122.631 74.5425 122.298 74.5395C121.97 74.5395 121.687 74.4708 121.449 74.3334ZM111.898 80.58L110.597 79.829L118.72 75.1394L120.021 75.8905L111.898 80.58ZM117.737 84.1705C116.536 83.4774 115.954 82.705 115.991 81.8532C116.039 81.0014 116.69 80.2137 117.943 79.4901C119.307 78.7024 120.746 78.3024 122.258 78.2902C123.771 78.278 125.162 78.6383 126.431 79.371C127.642 80.0702 128.213 80.8304 128.144 81.6517C128.081 82.476 127.388 83.2698 126.066 84.0331C124.77 84.7811 123.364 85.1689 121.846 85.1963C120.339 85.2238 118.969 84.8819 117.737 84.1705ZM125.241 79.9481C124.405 79.4657 123.459 79.2489 122.401 79.2977C121.349 79.3435 120.323 79.655 119.323 80.232C118.361 80.7877 117.848 81.3677 117.784 81.9723C117.721 82.5768 118.102 83.1172 118.927 83.5935C119.767 84.0789 120.685 84.2941 121.679 84.2392C122.679 84.1873 123.681 83.8713 124.686 83.2912C125.701 82.705 126.256 82.1219 126.352 81.5418C126.452 80.9647 126.082 80.4335 125.241 79.9481ZM130.794 91.4888L129.493 90.7377L134.126 88.0632C135.85 87.0679 136.082 86.2069 134.824 85.4803C134.173 85.1047 133.388 84.9353 132.468 84.9719C131.558 85.0086 130.731 85.2421 129.985 85.6726L125.352 88.3471L124.051 87.5961L132.174 82.9065L133.475 83.6576L132.127 84.4361L132.158 84.4544C133.798 84.2163 135.199 84.4331 136.363 85.1047C137.251 85.6177 137.643 86.1764 137.537 86.7809C137.436 87.3824 136.844 87.996 135.76 88.6219L130.794 91.4888ZM143.518 94.5205L137.783 91.2094C136.9 91.7437 136.445 92.2872 136.418 92.8398C136.392 93.3924 136.786 93.9038 137.6 94.3739C138.515 94.9021 139.658 95.2135 141.027 95.3082L139.806 96.0135C138.573 95.9005 137.37 95.5051 136.196 94.8273C135.049 94.1648 134.514 93.4321 134.594 92.6291C134.678 91.8231 135.39 91.0339 136.728 90.2614C137.992 89.5317 139.377 89.144 140.884 89.0982C142.402 89.0524 143.693 89.3363 144.756 89.95C145.819 90.5637 146.297 91.2369 146.191 91.9696C146.086 92.7024 145.422 93.4214 144.2 94.1266L143.518 94.5205ZM143.288 93.1145C144.034 92.6779 144.436 92.2353 144.494 91.7864C144.557 91.3407 144.272 90.9346 143.637 90.5683C143.024 90.2141 142.283 90.0401 141.416 90.0462C140.549 90.0523 139.71 90.2309 138.901 90.582L143.288 93.1145ZM141.559 97.3645L142.955 96.5584C143.14 97.2698 143.658 97.8713 144.51 98.3628C145.652 99.0223 146.604 99.1322 147.366 98.6926C147.582 98.5674 147.715 98.433 147.762 98.2895C147.82 98.146 147.823 97.9919 147.77 97.827C147.723 97.6652 147.63 97.4927 147.492 97.3095C147.366 97.1263 147.223 96.9309 147.064 96.7233C146.847 96.4333 146.673 96.1676 146.541 95.9264C146.419 95.6853 146.355 95.4593 146.35 95.2487C146.355 95.038 146.427 94.838 146.564 94.6487C146.707 94.4625 146.935 94.2793 147.247 94.0992C147.627 93.8793 148.05 93.7358 148.516 93.6687C148.986 93.5985 149.465 93.5908 149.952 93.6458C150.443 93.6977 150.925 93.8015 151.395 93.9572C151.871 94.116 152.308 94.3098 152.704 94.5388C153.408 94.9449 153.915 95.3784 154.227 95.8394L152.911 96.5997C152.704 96.0287 152.212 95.5189 151.435 95.0701C151.192 94.9296 150.943 94.8197 150.689 94.7403C150.441 94.6579 150.195 94.6045 149.952 94.58C149.714 94.5587 149.484 94.5663 149.261 94.6029C149.05 94.6396 148.86 94.7067 148.69 94.8044C148.479 94.9266 148.339 95.0502 148.27 95.1754C148.206 95.3036 148.193 95.4425 148.23 95.5921C148.267 95.7417 148.347 95.9035 148.468 96.0776C148.59 96.2516 148.733 96.447 148.897 96.6638C149.119 96.9508 149.298 97.2194 149.436 97.4698C149.579 97.7171 149.658 97.9522 149.674 98.1751C149.695 98.3949 149.64 98.604 149.507 98.8025C149.38 99.004 149.153 99.1994 148.825 99.3887C148.423 99.6207 147.984 99.7703 147.508 99.8375C147.038 99.9077 146.556 99.9138 146.065 99.8558C145.573 99.7978 145.086 99.6848 144.605 99.5169C144.124 99.349 143.672 99.1429 143.248 98.8986C142.413 98.4162 141.85 97.9049 141.559 97.3645ZM148.936 102.164C148.693 102.023 148.571 101.853 148.571 101.651C148.577 101.453 148.701 101.283 148.944 101.143C149.187 101.002 149.481 100.93 149.825 100.927C150.179 100.924 150.478 100.993 150.721 101.134C150.97 101.277 151.091 101.451 151.086 101.656C151.086 101.857 150.964 102.028 150.721 102.169C150.478 102.309 150.182 102.379 149.833 102.379C149.484 102.379 149.185 102.307 148.936 102.164Z" fill="white"/>
</svg>
