<svg width="63" height="109" viewBox="0 0 63 109" fill="none" xmlns="http://www.w3.org/2000/svg">
<path d="M16.025 19.2017C16.0798 19.4093 16.1286 19.6627 16.1713 19.9619C16.214 20.261 16.2353 20.5479 16.2353 20.8224C16.2353 21.2447 16.1622 21.5861 16.0159 21.8466C15.8696 22.107 15.6868 22.3252 15.4673 22.5012C15.2479 22.6701 15.0101 22.8179 14.7541 22.9446C14.4981 23.0713 14.2604 23.2121 14.0409 23.3669C13.8215 23.5218 13.6386 23.7118 13.4923 23.9371C13.3461 24.1623 13.2729 24.4615 13.2729 24.8345C13.2729 25.1302 13.3217 25.4188 13.4192 25.7003C13.5168 25.9889 13.6479 26.2582 13.8124 26.5081C13.977 26.758 14.1691 26.985 14.3885 27.1891C14.608 27.3933 14.8396 27.5657 15.0834 27.7065C16.1563 28.326 17.089 28.3999 17.8814 27.9283L17.8815 30.3779C16.9001 30.4729 15.8821 30.2159 14.8275 29.607C14.3215 29.3149 13.8461 28.9629 13.4011 28.5511C12.9621 28.1499 12.5751 27.7047 12.2398 27.2155C11.9106 26.7298 11.6485 26.2089 11.4534 25.6528C11.2583 25.0967 11.1607 24.5265 11.1607 23.9423C11.1607 23.4284 11.2399 23.0167 11.3984 22.7069C11.5569 22.3902 11.755 22.1315 11.9927 21.9309C12.2366 21.7268 12.4987 21.5614 12.7791 21.4347C13.0595 21.301 13.3185 21.1584 13.5563 21.0071C13.8001 20.8593 14.0012 20.6763 14.1597 20.4581C14.3182 20.2328 14.3974 19.9302 14.3974 19.5501C14.3974 19.2826 14.3669 19.0221 14.306 18.7687C14.2511 18.5188 14.1962 18.3006 14.1414 18.1141L16.025 19.2017ZM14.9733 14.0966C15.3208 14.2972 15.6316 14.614 15.906 15.0469C16.1681 15.4657 16.2992 15.8793 16.2992 16.2875C16.2992 16.6817 16.1681 16.9404 15.906 17.0636C15.6439 17.1938 15.333 17.1551 14.9734 16.9474C14.6198 16.7433 14.315 16.4265 14.059 15.9971C13.7969 15.5712 13.6658 15.1612 13.6658 14.767C13.6658 14.3588 13.7968 14.0966 14.0589 13.9804C14.321 13.8573 14.6258 13.896 14.9733 14.0966ZM25.3653 31.4048C24.4204 30.8593 23.564 30.1782 22.7959 29.3617C22.0278 28.5451 21.3725 27.6459 20.8299 26.6639C20.2874 25.6749 19.8667 24.6261 19.568 23.5174C19.2693 22.4088 19.1199 21.2878 19.1198 20.1545C19.1198 18.9438 19.2691 17.932 19.5678 17.119C19.8725 16.3095 20.3023 15.7165 20.857 15.3399C21.4178 14.9669 22.0974 14.8208 22.896 14.9018C23.6945 14.9828 24.5876 15.3084 25.5751 15.8785C26.4895 16.4065 27.3246 17.0752 28.0805 17.8847C28.8364 18.6942 29.4826 19.5917 30.019 20.5772C30.5555 21.5557 30.97 22.5974 31.2627 23.7026C31.5614 24.8112 31.7108 25.9287 31.7108 27.0549C31.7108 28.5472 31.4945 29.7315 31.0617 30.6078C30.6289 31.4771 30.0194 32.0261 29.233 32.2549L33.037 37.6187L29.7269 35.7075L27.386 32.2548C27.0752 32.1739 26.7521 32.0648 26.4168 31.9275C26.0815 31.7902 25.731 31.616 25.3653 31.4048ZM25.4654 18.0219C24.868 17.677 24.3194 17.4975 23.8196 17.4834C23.3258 17.4658 22.8991 17.603 22.5395 17.8951C22.1798 18.1802 21.8994 18.6096 21.6983 19.1832C21.5033 19.7604 21.4058 20.4714 21.4058 21.316C21.4058 22.1537 21.5003 22.972 21.6893 23.7709C21.8844 24.5733 22.1557 25.3213 22.5032 26.0146C22.8506 26.7009 23.2682 27.3221 23.7559 27.8782C24.2436 28.4273 24.7831 28.8725 25.3744 29.2139C26.0022 29.5764 26.5661 29.7753 27.0659 29.8105C27.5658 29.8457 27.9894 29.7279 28.3369 29.4569C28.6904 29.1824 28.9617 28.7547 29.1506 28.174C29.3396 27.5933 29.434 26.863 29.434 25.9831C29.434 25.0822 29.3425 24.2269 29.1596 23.4174C28.9767 22.6079 28.7146 21.8653 28.3732 21.1896C28.0318 20.5068 27.6142 19.8961 27.1205 19.3576C26.6328 18.8226 26.0811 18.3774 25.4654 18.0219ZM41.8375 40.6624L39.7161 39.4375L39.7161 37.727L39.6795 37.7059C39.0639 38.6597 38.1069 38.7617 36.8084 38.012C34.5957 36.7344 33.4892 34.561 33.4891 31.492L33.4889 25.0302L35.6103 26.2551L35.6105 32.4635C35.6105 34.4062 36.2598 35.7525 37.5582 36.5022C38.186 36.8647 38.7011 36.8946 39.1034 36.592C39.5118 36.2928 39.716 35.7103 39.716 34.8446L39.7158 28.6256L41.8372 29.8504L41.8375 40.6624ZM52.3296 41.9797L45.9472 38.2946C45.9716 39.3082 46.2368 40.2321 46.7428 41.0662C47.2549 41.9039 47.9559 42.5796 48.8459 43.0935C49.8456 43.6708 50.763 43.8556 51.5981 43.6479L51.5982 45.6224C50.7448 45.749 49.6171 45.4076 48.215 44.5981C46.8374 43.8026 45.7553 42.6887 44.9689 41.2562C44.1886 39.8202 43.7985 38.2118 43.7984 36.4309C43.7984 34.7486 44.2281 33.6277 45.0876 33.0681C45.9531 32.505 47.026 32.593 48.3061 33.3322C49.5862 34.0713 50.5768 35.1184 51.2779 36.4734C51.9789 37.8285 52.3295 39.3506 52.3295 41.04L52.3296 41.9797ZM50.2813 39.0655C50.2752 38.1821 50.0953 37.3955 49.7418 36.7057C49.3882 36.0088 48.9005 35.4808 48.2787 35.1218C47.6691 34.7699 47.151 34.7276 46.7243 34.9951C46.3037 35.2661 46.0447 35.7887 45.9472 36.563L50.2813 39.0655ZM50.9119 29.5787L48.2969 31.5319L46.7242 30.6239L48.9369 28.4383L50.9119 29.5787ZM8.85057 48.0211L8.814 48L8.81421 54.5674L6.69286 53.3425L6.69235 37.5576L8.81371 38.7824L8.81377 40.683L8.85034 40.7041C9.5757 39.687 10.6364 39.5814 12.0323 40.3874C13.221 41.0738 14.1476 42.0909 14.8121 43.4389C15.4765 44.7869 15.8088 46.2739 15.8088 47.8999C15.8089 49.7019 15.4341 50.9284 14.6843 51.5795C13.9345 52.2306 12.9105 52.1813 11.612 51.4316C10.4173 50.7417 9.49677 49.6049 8.85057 48.0211ZM8.79558 43.7238L8.79562 45.0647C8.79564 45.8531 9.01207 46.6468 9.44489 47.4457C9.88381 48.2482 10.4385 48.843 11.1091 49.2301C11.8954 49.6842 12.5111 49.6877 12.9561 49.2408C13.4072 48.7903 13.6327 47.9315 13.6326 46.6645C13.6326 45.6016 13.4223 44.6496 13.0016 43.8084C12.5871 42.9637 12.0232 42.3355 11.31 41.9237C10.5541 41.4872 9.94455 41.445 9.48128 41.7969C9.02412 42.1524 8.79555 42.7947 8.79558 43.7238ZM25.9355 59.4801L23.8141 58.2553L23.8141 56.5448L23.7775 56.5237C23.1619 57.4774 22.2048 57.5795 20.9064 56.8298C18.6936 55.5521 17.5872 53.3788 17.5871 50.3098L17.5869 43.848L19.7082 45.0729L19.7084 51.2813C19.7085 53.224 20.3577 54.5702 21.6562 55.3199C22.284 55.6825 22.7991 55.7124 23.2014 55.4097C23.6098 55.1106 23.814 54.5281 23.814 53.6623L23.8138 47.4434L25.9351 48.6682L25.9355 59.4801ZM36.4275 60.7975L30.0452 57.1124C30.0696 58.126 30.3348 59.0499 30.8408 59.884C31.3528 60.7217 32.0539 61.3974 32.9439 61.9113C33.9436 62.4885 34.861 62.6733 35.6961 62.4657L35.6962 64.4401C34.8428 64.5668 33.7151 64.2254 32.313 63.4159C30.9354 62.6204 29.8533 61.5065 29.0669 60.074C28.2866 58.638 27.8965 57.0296 27.8964 55.2487C27.8963 53.5664 28.3261 52.4455 29.1855 51.8859C30.0511 51.3228 31.124 51.4108 32.4041 52.1499C33.6842 52.8891 34.6748 53.9362 35.3759 55.2912C36.0769 56.6462 36.4275 58.1684 36.4275 59.8578L36.4275 60.7975ZM34.3793 57.8833C34.3732 56.9999 34.1933 56.2133 33.8397 55.5234C33.4862 54.8266 32.9985 54.2986 32.3767 53.9396C31.7671 53.5876 31.249 53.5454 30.8223 53.8129C30.4017 54.0838 30.1427 54.6065 30.0451 55.3808L34.3793 57.8833ZM46.7553 71.5013L44.634 70.2765L44.6339 68.4393L44.5973 68.4182C43.9146 69.4177 42.8631 69.5074 41.4428 68.6873C40.2907 68.0221 39.3672 67.0067 38.6722 65.6411C37.9833 64.272 37.6389 62.7533 37.6388 61.0851C37.6388 59.2972 38.0197 58.0847 38.7817 57.4477C39.5497 56.8142 40.5707 56.8653 41.8448 57.6009C43.1066 58.3295 44.024 59.4435 44.5971 60.9428L44.6337 60.9639L44.6335 54.2698L46.7548 55.4947L46.7553 71.5013ZM44.6612 65.351L44.6612 63.9361C44.6612 63.1689 44.4447 62.3928 44.0119 61.6079C43.5791 60.8231 43.0274 60.2371 42.3569 59.8499C41.5644 59.3923 40.9396 59.373 40.4824 59.7918C40.0314 60.2141 39.8059 61.0306 39.8059 62.2413C39.8059 63.3394 40.0224 64.3337 40.4552 65.2241C40.8941 66.111 41.4824 66.7675 42.22 67.1933C42.9454 67.6122 43.5336 67.6456 43.9847 67.2937C44.4357 66.9347 44.6613 66.2871 44.6612 65.351ZM57.2474 72.8187L50.865 69.1336C50.8894 70.1472 51.1546 71.0711 51.6606 71.9052C52.1727 72.7429 52.8737 73.4186 53.7637 73.9325C54.7634 74.5097 55.6808 74.6946 56.5159 74.4869L56.516 76.4614C55.6626 76.588 54.5349 76.2466 53.1328 75.4371C51.7552 74.6416 50.6732 73.5277 49.8868 72.0952C49.1065 70.6592 48.7163 69.0508 48.7162 67.2699C48.7162 65.5876 49.1459 64.4667 50.0054 63.9071C50.8709 63.344 51.9438 63.432 53.2239 64.1712C54.5041 64.9103 55.4946 65.9574 56.1957 67.3124C56.8967 68.6674 57.2473 70.1896 57.2474 71.879L57.2474 72.8187ZM55.1991 69.9045C55.193 69.0211 55.0131 68.2345 54.6596 67.5447C54.306 66.8478 53.8183 66.3198 53.1966 65.9608C52.587 65.6089 52.0688 65.5666 51.6421 65.8341C51.2215 66.1051 50.9625 66.6277 50.865 67.402L55.1991 69.9045ZM5.272 75.8021C3.82728 74.9679 2.67211 73.7976 1.80646 72.2913C0.946919 70.7814 0.517119 69.1923 0.517066 67.5241C0.517008 65.708 0.965008 64.5483 1.86106 64.0451C2.76322 63.5453 3.97627 63.7354 5.50023 64.6153C6.96323 65.4601 8.10317 66.6145 8.92005 68.0786C9.73692 69.5428 10.1454 71.1547 10.1454 72.9145C10.1455 74.639 9.70359 75.767 8.81973 76.2984C7.94196 76.8263 6.75938 76.6609 5.272 75.8021ZM5.37228 66.4948C4.54325 66.0161 3.88796 65.9721 3.4064 66.3627C2.92485 66.7534 2.6841 67.5364 2.68414 68.712C2.68417 69.8452 2.92803 70.88 3.41572 71.8162C3.90341 72.7453 4.55568 73.4457 5.37252 73.9174C6.20765 74.3996 6.8477 74.4489 7.29268 74.0653C7.74375 73.6852 7.96927 72.9038 7.96923 71.7213C7.96919 70.5317 7.74362 69.4829 7.2925 68.5748C6.84749 67.6703 6.20741 66.9769 5.37228 66.4948ZM18.8091 82.8686C18.0593 82.9355 17.1723 82.6732 16.1482 82.0819C14.7584 81.2794 13.6367 80.132 12.7833 78.6398C11.9298 77.1404 11.5031 75.5918 11.503 73.994C11.503 72.2131 11.9601 71.0482 12.8745 70.4992C13.7949 69.9466 15.0232 70.1138 16.5594 71.0008C17.4128 71.4936 18.1656 72.1007 18.8179 72.8222L18.818 75.1028C18.1657 74.1631 17.4707 73.4803 16.7331 73.0544C15.8371 72.537 15.1025 72.4649 14.5295 72.8379C13.9565 73.2039 13.6701 73.9536 13.6701 75.0868C13.6701 76.206 13.9384 77.2443 14.4748 78.2016C15.0174 79.1625 15.7428 79.9051 16.6511 80.4295C17.4131 80.8695 18.1324 80.9716 18.809 80.7358L18.8091 82.8686ZM28.8807 89.1801L26.7593 87.9553L26.7593 86.2448L26.7227 86.2237C26.1071 87.1775 25.15 87.2795 23.8516 86.5298C21.6388 85.2521 20.5324 83.0788 20.5323 80.0098L20.5321 73.548L22.6534 74.7729L22.6536 80.9813C22.6537 82.924 23.3029 84.2703 24.6013 85.02C25.2292 85.3825 25.7443 85.4124 26.1466 85.1098C26.555 84.8106 26.7592 84.2281 26.7592 83.3623L26.759 77.1434L28.8803 78.3682L28.8807 89.1801ZM36.8764 85.3185C36.6203 84.9384 36.2515 84.6093 35.77 84.3312C35.1421 83.9687 34.6179 83.9933 34.1973 84.4051C33.7767 84.8169 33.5664 85.5859 33.5664 86.7121L33.5666 91.8858L31.4452 90.6609L31.4449 79.849L33.5663 81.0739L33.5663 83.3017L33.6029 83.3228C33.8101 82.6823 34.1271 82.274 34.5538 82.0981C34.9866 81.9186 35.4681 81.9819 35.9985 82.2882C36.3825 82.5099 36.6751 82.7457 36.8763 82.9956L36.8764 85.3185ZM43.6013 89.2014C43.3453 88.8213 42.9765 88.4922 42.4949 88.2142C41.8671 87.8516 41.3428 87.8763 40.9222 88.288C40.5017 88.6998 40.2914 89.4688 40.2914 90.595L40.2916 95.7687L38.1702 94.5439L38.1699 83.732L40.2912 84.9568L40.2913 87.1847L40.3279 87.2058C40.5351 86.5652 40.8521 86.157 41.2788 85.981C41.7116 85.8015 42.1931 85.8649 42.7235 86.1711C43.1075 86.3929 43.4001 86.6287 43.6013 86.8786L43.6013 89.2014ZM45.9646 85.9625C45.6171 85.7619 45.3184 85.4592 45.0685 85.0545C44.8247 84.6532 44.7027 84.252 44.7027 83.8508C44.7027 83.4496 44.8246 83.1856 45.0684 83.0589C45.3184 82.9357 45.6171 82.9745 45.9645 83.1751C46.3242 83.3828 46.629 83.6925 46.8789 84.1043C47.1288 84.5161 47.2538 84.9226 47.2538 85.3238C47.2538 85.7039 47.1289 85.9591 46.879 86.0893C46.629 86.2124 46.3243 86.1702 45.9646 85.9625ZM47.0166 99.6517L44.8952 98.4268L44.8949 87.6149L47.0162 88.8398L47.0166 99.6517ZM55.0214 95.7953C54.7654 95.4152 54.3966 95.0861 53.915 94.808C53.2871 94.4455 52.7629 94.4701 52.3423 94.8819C51.9217 95.2937 51.7114 96.0627 51.7115 97.1889L51.7116 102.363L49.5903 101.138L49.5899 90.3258L51.7113 91.5507L51.7113 93.7785L51.7479 93.7996C51.9552 93.1591 52.2721 92.7508 52.6988 92.5749C53.1316 92.3954 53.6132 92.4588 54.1435 92.765C54.5275 92.9867 54.8201 93.2225 55.0213 93.4724L55.0214 95.7953ZM57.705 101.547C57.6501 101.339 57.6013 101.082 57.5586 100.776C57.516 100.47 57.4946 100.18 57.4946 99.9051C57.4946 99.4757 57.5677 99.1308 57.714 98.8704C57.8664 98.6064 58.0523 98.3865 58.2718 98.2105C58.4973 98.038 58.7381 97.885 58.9941 97.7512C59.2562 97.621 59.497 97.4855 59.7164 97.3447C59.942 97.2075 60.1279 97.0333 60.2742 96.8221C60.4265 96.6145 60.5027 96.3347 60.5027 95.9827C60.5027 95.666 60.4478 95.3598 60.3381 95.0641C60.2284 94.7614 60.076 94.4764 59.8809 94.2089C59.6919 93.9379 59.4725 93.6915 59.2225 93.4698C58.9787 93.2515 58.7166 93.0615 58.4362 92.8996C57.5279 92.3751 56.6623 92.3434 55.8394 92.8045L55.8393 90.3655C56.839 90.2669 57.8753 90.5274 58.9482 91.1469C59.4419 91.432 59.9083 91.7751 60.3472 92.1764C60.7861 92.5776 61.1701 93.0176 61.4993 93.4962C61.8285 93.9749 62.0876 94.4835 62.2766 95.022C62.4655 95.5604 62.56 96.1148 62.5601 96.6849C62.5601 97.2269 62.4808 97.6633 62.3224 97.9942C62.1639 98.325 61.9627 98.5995 61.7189 98.8177C61.4812 99.0324 61.2221 99.1961 60.9417 99.3087C60.6674 99.4248 60.4084 99.5497 60.1645 99.6835C59.9268 99.8207 59.7287 99.9914 59.5702 100.196C59.4117 100.4 59.3325 100.681 59.3325 101.04C59.3325 101.343 59.3661 101.637 59.4331 101.922C59.5002 102.207 59.5672 102.453 59.6343 102.661L57.705 101.547ZM58.7475 106.615C58.4 106.414 58.0922 106.099 57.824 105.67C57.5679 105.255 57.4399 104.85 57.4399 104.456C57.4399 104.055 57.5679 103.798 57.8239 103.685C58.086 103.555 58.3938 103.592 58.7474 103.796C59.0949 103.997 59.3997 104.313 59.6618 104.746C59.9178 105.155 60.0458 105.559 60.0459 105.96C60.0459 106.355 59.9179 106.612 59.6619 106.731C59.3936 106.851 59.0889 106.812 58.7475 106.615Z" fill="white"/>
</svg>
